<svg width="2172" height="1168" viewBox="0 0 2172 1168" fill="none" xmlns="http://www.w3.org/2000/svg">
<path d="M57.9682 55.1889C90.2829 41.5555 115.684 29.9809 143.338 13.4696M63.4058 57.3736C98.0509 42.0597 128.462 23.1747 146.989 16.5366M34.7031 113.293C100.809 79.1365 171.652 52.563 210.492 20.3808M42.9372 110.31C92.2249 83.968 138.91 58.655 215.231 23.6369M49.8507 142.177C138.405 106.382 181.595 82.1824 321.613 16.4316M65.0759 151.504C128.54 119.679 181.712 81.8043 319.904 17.671M56.5311 196.942C170.643 135.812 264.829 99.4919 407.721 6.18033M33.7321 204.147C180.314 135.098 319.632 52.0169 403.953 18.5743M25.6534 225.7C207.501 189.716 303.824 113.881 493.44 30.8211M61.2696 238.829C197.52 170.158 340.955 94.5343 492.935 31.4934M33.6156 260.088C175.692 212.508 370.124 148.69 594.191 19.6246M68.3384 273.721C214.726 188.707 376.455 115.688 566.148 19.6666M48.7243 312.836C166.487 243.177 293.959 197.152 647.673 2M42.2381 327.897C215.347 224.061 420.46 138.816 683.445 11.2639M66.6683 353.504C267.82 267.671 458.756 180.221 728.693 4.64684M53.8512 357.643C211.541 284.056 408.109 194.946 730.441 24.4981M2 419.57C221.756 333.989 403.254 213.369 851.932 39.1398M28.3334 425.326C233.136 322.436 447.998 209.126 829.444 18.1541M19.2449 446.06C362.317 276.641 717.468 121.234 974.471 7.14663M44.6461 464.672C366.162 318.402 635.555 162.113 955.673 8.23898M82.2819 491.938C299.824 352.643 545.253 246.623 999.912 5.04597M44.9957 487.863C281.453 388.418 502.684 284.666 1004.38 24.8763M62.6678 559.832C483.148 346.446 884.441 149.089 1099.69 32.5647M55.0552 540.548C261.178 433.729 505.597 326.637 1104.24 11.9362M19.3226 574.095C371.949 443.476 640.488 310.882 1234.47 26.2207M62.124 585.733C502.995 363.63 916.134 157.365 1203.28 21.8303M13.8073 626.948C328.293 508.891 564.634 367.747 1280.57 6.22234M54.5891 634.805C375.095 474.503 680.687 304.349 1269.54 28.3213M82.5149 675.873C415.062 468.075 825.482 309.138 1340.3 27.124M59.1334 680.893C358.394 520.78 679.716 350.669 1352.58 15.2552M43.947 732.444C486.76 523.028 912.755 292.06 1448.12 11.0329M49.6565 721.142C468.272 520.76 855.233 315.209 1480.48 26.0736M75.951 751.77C512.239 513.848 990.357 278.91 1552.68 25.2544M40.2961 760.908C430.131 571.764 825.637 380.54 1534.93 22.6285M78.3202 783.112C533.329 562.983 973.967 353.357 1666.75 7.18864M61.1142 805.001C404.458 627.2 746.171 469.881 1619.41 27.208M22.7793 844.052C532.319 619.638 1044.81 331.721 1701.09 11.2849M31.5959 854.072C484.119 633.922 945.186 405.16 1731.03 6.78952M32.6835 891.569C471.224 662.701 963.441 443.644 1861.61 9.10025M40.9175 890.435C602.891 604.639 1189.41 340.9 1820.75 21.8093M57.7351 923.961C712.885 619.596 1370.05 280.968 1925.31 30.8842M58.4343 937.048C686.63 618.041 1332.77 301.597 1908.92 27.6701M20.4101 971.52C588.675 718.306 1142.45 445.766 2021.17 27.6911M56.9195 989.586C697 677.154 1337.97 356.487 1999.96 21.5362M38.3541 1011.45C768.193 658.059 1450.88 326.679 2081.95 17.629M72.1836 1017.25C495.149 800.631 900.248 598.61 2106.11 13.7217M31.3241 1088.7C840.668 662.638 1686.13 262.588 2100.4 16.3055M45.6171 1065.13C713.351 746.665 1348.62 431.943 2125.92 31.2203M39.0532 1099.3C629.962 837.519 1209.69 556.198 2126.89 63.9907M33.4214 1103.34C589.685 827.751 1170.85 554.055 2140.68 72.6454M75.1742 1162.6C783.224 759.143 1536.33 426.923 2112.87 125.036M79.5631 1136.76C888.014 749.9 1691.22 352.118 2113.02 132.808M174.255 1121.57C828.744 810.462 1455.97 524.373 2170 183.308M165.788 1148.88C748.424 855.732 1282.47 575.482 2131.78 158.416M260.518 1117.01C811.15 819.096 1407.54 527.124 2152.87 216.646M270.383 1140.08C931.204 802.459 1584.45 478.935 2166.62 194.295M302.543 1126.82C947.594 814.811 1610.01 530.759 2167.79 269.961M336.45 1157.51C973.384 810.126 1675.69 492.758 2144.99 262.441M455.144 1128.78C964.917 888.712 1467.19 615.31 2129.96 274.919M432.501 1150.54C948.099 880.099 1489.45 628.902 2160.56 294.938M508.588 1133.99C1020.38 913.605 1494.96 645.665 2101.18 333.569M509.753 1128.92C943.633 911.945 1390.52 696.732 2108.59 352.265M625.107 1147.07C1055.76 952.32 1449.64 723.054 2108.4 368.608M601.687 1147.51C935.437 980.532 1266.66 805.883 2119 390.308M718.711 1145.12C1271.01 871.592 1831.82 595.396 2139.28 403.71M677.619 1137.83C1113.83 928.247 1527.43 725.406 2146.27 430.284M803.227 1120.79C1084 981.015 1394.25 821.932 2151.71 492.821M775.029 1129.89C1316.61 881.99 1828.17 622.978 2126.58 464.315M841.134 1149.24C1167.89 962.719 1591.83 807.143 2148.06 501.181M839.076 1137.79C1255.4 938.393 1669.16 737.002 2130.42 500.887M974.277 1163.67C1248.99 1020.19 1437.13 899.279 2108.05 580.439M946.118 1142.83C1404.31 923.1 1827.67 706.963 2112.63 559.916M1026.09 1142.77C1317.5 998.745 1599.52 856.152 2137.92 604.24M1055.18 1132.07C1488.21 929.843 1912.1 715.281 2129.76 601.887M1136.01 1164.78C1355.3 1044.2 1533.34 954.421 2137.18 634.279M1104.86 1147.77C1540.1 948.308 1950.52 745.321 2165.77 628.461M1216.06 1136.02C1384.35 1060.02 1645.66 935.032 2115.55 689.359M1196.6 1153.29C1510.62 1002 1847.12 838.233 2140.44 691.964M1335.6 1125.18C1505.3 1047.61 1692.78 986.54 2124.52 715.365M1319.02 1146.42C1516.91 1037.02 1729.4 927.764 2138.35 733.536M1375.45 1158.42C1610.36 1059.1 1808.21 928.1 2089.6 786.914M1369.43 1156.67C1590 1058.74 1789.21 962.656 2120.09 769.877M1511 1149.15C1685.67 1068.84 1840.72 990.006 2161.26 803.551M1460.82 1146.21C1647.57 1074.79 1787.39 980.511 2133.65 813.55M1550.66 1152.43C1693.94 1074.89 1809.61 1014.23 2141.49 856.005M1590.78 1133.78C1707.03 1062.61 1884.29 981.919 2129.72 849.787M1614.32 1166C1759.85 1091.93 1872.88 1027.06 2129.96 920.411M1642.9 1143.1C1799.78 1071.05 1975.65 985.658 2125.84 916.21M1767.93 1143.06C1812.32 1113.97 1915.4 1071.53 2149.69 948.497M1748.9 1141.36C1830.38 1098.27 1918.05 1052.67 2152.99 950.094M1831.86 1141.88C1896.76 1115.08 1972.89 1087.88 2135.78 1002.67M1839.71 1144.09C1935.76 1095.86 2043.85 1044.01 2128.13 996.56M1903.64 1144.3C1998.17 1108.32 2061.99 1069.66 2121.18 1042.65M1909.15 1153.04C1957.55 1121.19 2009.28 1096.05 2140.48 1038.28M2012.97 1147.49C2044.97 1126.28 2068.12 1114.07 2143.39 1070.99M2009.2 1146.57C2058.68 1117.83 2106.73 1092.14 2143.28 1074.29" stroke="#FFDF85" stroke-opacity="0.41" stroke-width="2.404" stroke-linecap="round"/>
<path d="M87.2145 5.08524C801.44 10.8831 1478.57 6.42967 2094.88 3.0686M2113.22 14.1601C2138.07 434.692 2114.65 874.341 2105.37 1112.79M2086.46 1112.89C1309.93 1126.69 537.057 1141 27.2847 1127.32M41.034 1139.21C56.2592 724.773 29.382 335.898 55.9873 16.4709" stroke="#FFDF85" stroke-opacity="0.41" stroke-width="4" stroke-linecap="round"/>
</svg>
