<svg width="2170" height="1526" viewBox="0 0 2170 1526" fill="none" xmlns="http://www.w3.org/2000/svg">
<path d="M15.9278 27.1095C20.0056 21.9827 22.4953 19.106 32.8843 9.79629M16.5323 26.6112C19.647 23.6212 23.3866 19.476 34.1957 8.47495M11.6247 53.0227C21.7371 37.0459 39.6259 23.742 51.7567 9.29041M9.11452 52.0034C20.4974 41.1458 33.5708 30.6733 51.4391 8.64862M15.9893 68.4936C20.0056 55.8767 33.8372 44.6266 69.5021 8.30885M14.0529 71.5515C26.1325 56.4657 36.5522 46.1215 72.4836 9.61507M14.7803 92.5342C42.6689 64.5069 70.3832 33.618 86.8069 7.53115M15.1697 90.1785C33.2532 66.7796 55.9677 45.8724 94.6448 12.8995M5.46708 110.769C45.4044 78.3469 81.1411 42.8069 116.427 8.85248M15.7127 108.904C33.8781 84.8177 60.8343 63.1931 106.847 15.0892M13.4894 122.668C42.5049 89.8538 78.7026 57.7493 137.144 4.82053M19.4933 130.974C36.1629 102.848 63.4982 80.7933 137.646 8.98839M16.768 150.454C72.6885 103.248 114.275 46.2046 157.245 14.7267M12.5775 148.679C63.6314 91.9604 118.978 43.5393 150.309 9.77363M7.16785 178.549C71.3463 119.618 134.582 63.9104 167.819 5.76434M5.77445 173.188C48.4474 128.414 97.073 84.7346 177.665 12.824M1 189.633C83.0058 120.758 147.604 54.0269 202.623 3.02352M12.1882 194.209C59.902 148.06 100.608 103.535 188.679 6.88936M11.4403 212.42C71.6639 140.268 144.336 75.1229 203.791 7.77276M12.1267 209.287C88.9482 134.183 169.612 59.1989 210.01 10.0001M6.5941 227.038C63.6621 169.149 120.535 108.783 231.495 12.2275M8.72518 231.644C92.5957 146.898 180.206 63.4876 229.672 13.5187M13.1615 254.816C102.39 166.129 183.054 74.0885 264.732 6.84406M18.7249 249.841C67.7398 197.795 126.191 137.263 252.693 3.66531M23.2842 270.793C97.78 186.643 187.029 100.085 283.891 8.27109M10.6616 267.531C66.5616 213.795 122.923 155.633 277.713 4.98664M8.87887 294.479C75.3421 231.802 125.064 168.462 304.239 3.62001M15.8254 286.521C116.089 194.579 207.869 92.6399 289.588 9.67548M8.78666 308.719C84.4709 243.913 153.854 162.655 310.263 7.90867M8.00799 317.168C79.2252 241.029 152.666 174.328 315.366 7.20648M9.31943 335.614C99.2963 252.71 184.488 157.778 327.681 5.43212M8.1002 331.484C135.853 209.34 263.82 78.9585 330.488 8.35415M6.57361 349.703C120.863 244.178 225.86 133.216 349.914 7.19893M7.97725 351.439C142.83 227.242 275.019 89.952 355.498 9.70568M21.3785 378.145C98.2205 278.849 180.196 197.848 383.53 8.95818M15.7639 372.838C104.142 278.872 195.738 185.609 371.942 3.35574M9.75999 397.814C120.679 279.083 241.536 165.26 400.66 9.91709M18.2843 392.793C154.797 252.929 287.006 115.971 399.154 9.1998M9.70876 417.332C166.487 263.605 286.699 128.225 417.084 7.34994M10.0878 414.425C102.595 324.628 184.745 242.245 415.957 9.63017M20.9892 431.95C152.071 296.872 299.854 148.045 434.368 9.94729M19.0528 432.894C110.474 336.535 194.949 252.43 433.795 7.16118M10.887 454.224C136.867 333.892 258.021 211.93 452.544 8.96574M11.6862 454.994C153.301 318.829 279.219 182.536 456.632 9.38856M14.5857 469.891C140.883 342.084 292.119 200.785 482.758 6.53449M11.1227 475.864C152.491 336.995 288.451 204.591 476.57 12.3332M12.7824 496.741C183.802 328.524 344.412 150.839 492.461 12.8542M11.2558 496.408C177.03 329.943 339.269 161.515 495.791 10.3324M21.9113 514.348C205.021 334.043 387.269 139.528 520.759 2.74416M11.3378 510.769C132.82 391.102 255.603 265.085 516.18 5.33396M4.47326 537.241C195.974 347.596 369.411 169.421 537.449 6.6855M9.47311 529.351C190.769 358.091 362.188 181.705 539.427 10.6117M14.9135 548.725C117.656 446.356 242.888 322.982 551.568 12.22M14.4525 549.005C168.7 395.949 314.413 245.235 557.131 7.38769M2.71102 573.989C206.117 380.886 405.804 192.88 566.987 8.08233M11.3481 574.865C158.424 425.449 312.517 271.473 578.872 8.58821M13.9197 593.152C172.532 436.677 334.668 269.63 599.907 15.9801M11.9525 593.175C231.383 373.472 452.483 156.796 593.493 14.3719M11.3276 618.839C167.122 453.039 313.942 306.846 620.439 18.8493M15.3951 613.999C211.947 412.734 409.881 210.329 611.689 12.7938M22.8231 633.464C170.729 467.135 338.101 314.646 635.797 13.0505M16.2455 632.732C241.259 405.795 472.82 171.27 635.551 5.15275M19.2679 660.918C220.809 439.35 437.186 230.474 656.534 14.3568M9.09403 652.574C163.362 499.24 318.716 347.906 657.087 11.3441M23.817 679.001C211.127 472.315 397.536 287.933 683.798 13.0883M9.79073 669.586C185.595 503.755 356.307 326.319 680.591 11.027M6.46091 685.842C281.299 426.959 523.423 173.173 690.703 15.6403M14.7189 690.75C217.1 488.397 420.783 287.774 695.396 11.4574M15.0672 717.093C159.151 566.741 304.68 427.314 718.377 18.4642M9.84195 716.693C161.907 558.594 312.466 403.945 712.957 9.1847M17.7721 739.556C219.262 520.041 447.452 311.256 725.108 16.8031M10.6411 736.785C269.435 478.476 521.897 226.2 731.542 14.7418M6.83999 761.822C256.597 502.275 499.285 266.535 763.314 7.01772M9.20673 756.96C250.296 524.066 476.611 295.626 758.396 9.47162M5.59003 781.718C221.137 558.322 422.258 352.217 777.678 11.9859M15.7024 771.932C296.237 489.651 581.639 201.737 775.772 5.93045M12.3009 795.256C258.656 561.773 488.076 317.629 797.145 6.51939M14.0836 794.433C302.18 515.564 580.799 232.595 795.055 9.62262M14.432 810.794C187.665 637.564 353.408 459.373 819.214 10.6268M18.5815 814.003C265.142 556.918 523.024 303.086 814.716 9.9926M5.23143 831.566C191.343 646.995 394.902 449.897 832.164 5.91535M9.98539 842.37C320.243 527.697 630.398 216.158 837.943 12.6806M13.2742 862.032C292.385 591.136 554.744 308.236 853.219 8.53536M7.93627 861.118C336.441 527.531 668.829 193.793 849.541 10.9968M6.82975 874.988C289.608 596.135 572.418 323.382 876.476 6.53449M9.37066 878.175C339.586 554.705 661.288 226.895 875.708 7.29708M21.8088 902.548C270.019 635.201 541.865 360.749 905.431 11.7594M9.60631 892.996C196.425 712.367 368.397 536.917 897.92 4.60912M12.3316 911.616C372.014 558.768 738.724 198.294 918.576 4.94889M15.0365 911.94C357.485 572.66 703.613 222.108 919.447 10.3399M13.3562 939.832C353.182 591.076 692.558 255.571 932.653 4.47321M9.9649 936.525C209.559 740.175 400.886 549.699 936.475 13.1789M13.264 951.603C304.895 675.498 582.018 395.715 959.107 3.25004M13.6021 954.699C343.48 619.79 677.179 286.649 959.394 9.07144M18.8171 983.375C199.918 785.402 396.142 595.742 977.385 6.32307M14.0734 977.705C371.081 615.207 736.306 246.828 973.984 15.3459M7.50596 995.237C241.034 765.19 462.185 547.366 1002.35 9.1394M16.225 995.864C244.784 754.8 484.408 516.009 991.319 13.8811M20.2925 1014.05C331.861 694.412 661.431 362.184 1027.56 1M8.03873 1021.58C379.257 645.885 751.839 270.264 1017.48 10.1361M7.71087 1036.3C285.121 750.119 572.11 468.547 1036.43 2.05706M15.2311 1040.68C226.823 827.662 430.926 622.629 1032.98 6.91956M4.20687 1061.51C267.375 805.826 512.276 552.644 1059.21 5.06215M18.5917 1053.71C430.864 646.277 842.072 229.658 1056.72 6.85161M12.8542 1072.74C390.435 686.499 781.582 300.799 1069.61 16.0179M14.473 1075.74C414.267 674.494 814.624 271.593 1073.89 10.5891M10.7948 1088.46C404.82 699.516 803.559 309.648 1095.21 17.2939M16.143 1092.94C292.231 812.221 566.875 536.652 1095.21 13.5489M18.7966 1112.61C336.953 800.126 652.723 480.953 1123.43 13.6244M15.3643 1118.25C247.151 887.296 483.291 650.891 1110.07 11.1252M4.6167 1143.57C317.487 844.341 603.872 535.769 1131.59 9.1545M7.84406 1140.14C345.621 798.925 685.15 459.192 1136.05 4.2014M4.11466 1155.09C307.907 852.088 608.329 562.135 1160.44 7.20648M16.2045 1162.34C470.843 704.552 924.18 249.652 1158.55 8.81473M8.42806 1171.8C358.725 841.6 683.951 498.56 1174.13 7.65951M16.3069 1174.73C413.017 776.002 819.04 369.81 1176.41 5.68884M18.1716 1190.97C437.309 773.948 837.799 358.703 1196.77 3.93713M19.4523 1193.88C456.099 752.158 901.793 304.732 1195.01 7.02527M12.7927 1209.72C292.467 940.194 569.16 676.434 1208.79 3.65021M14.9545 1218.93C352.322 881.203 678.992 544.761 1213.57 12.371M9.42188 1246.79C481.713 763.574 962.652 289.82 1233.45 17.6714M12.0448 1242.93C269.138 981.095 529.12 724.198 1230.75 9.01104M11.7169 1266.22C414.728 856.882 803.558 452.095 1267.63 5.96065M6.50189 1260.47C301.79 961.766 595.091 669.269 1260.86 4.98664M6.33796 1277.26C336.123 962.272 657.313 635.767 1276.08 7.35749M11.9525 1280.87C391.716 897.579 763.529 523.046 1283.45 6.24757M21.2146 1305.81C434.563 893.14 843.639 470.91 1295.32 7.34239M16.143 1299.75C450.229 850.079 891.271 405.659 1302.28 8.05968M17.5364 1318.34C351.307 977.916 694.474 633.759 1317.59 7.5991M9.95466 1319.05C435.721 889.5 861.692 469.28 1320.81 9.68303M20.6203 1334.89C301.094 1049.15 600.757 751.742 1329.07 11.699M16.8295 1338.68C476.468 875.819 936.147 413.195 1338.06 9.92464M8.78666 1357.68C465.167 906.957 924.252 456.482 1361.43 6.56469M18.3458 1358.08C304.956 1069.51 587.96 782.707 1358.3 12.6126M15.7946 1376.78C459.757 922.239 923.155 467.143 1371.63 18.6832M12.3419 1382.12C421.172 974.896 827.082 558.654 1372.76 15.6554M9.72925 1407.45C567.592 849.188 1114.97 285.116 1396.79 1.97401M12.5468 1399.93C384.647 1028.74 762.75 654.334 1402.18 6.19472M20.692 1418.26C549.662 883.468 1103.81 325.519 1421.48 7.12342M13.7763 1421.13C554.293 867.816 1098.49 317.319 1415.34 8.24844M6.30722 1444.24C568.248 875.6 1134.99 317.455 1431.71 15.2326M16.7782 1440.94C401.808 1056.76 793.282 665.69 1440.37 7.36504M7.65964 1464.06C496.354 980.695 965.695 512.619 1465.56 5.66618M14.5447 1459.07C346.082 1130.6 672.814 798.321 1460.08 7.81051M20.5998 1474.25C562.613 922.753 1131.1 360.651 1479.74 8.3164M17.352 1480.71C598.851 891.109 1178.42 310.592 1472.11 10.0908M15.8356 1493.29C610.808 899.603 1192.95 312.132 1497.53 8.69392M19.729 1500.18C368.725 1140.76 726.03 783.892 1492.16 11.1252M22.7412 1515.46C398.745 1135.68 791.038 748.813 1519.16 7.13852M16.0815 1513.96C398.816 1129.24 792.124 746.676 1517.71 5.41702M39.38 1523.75C503.998 1044.92 981.412 571.43 1531.64 10.7476M32.8843 1516.89C471.478 1088.6 892.542 656.395 1541.22 7.13852M53.7444 1518.14C647.006 932.878 1216.19 346.698 1552.45 8.96574M61.0597 1513.61C429.625 1145.94 794.194 773.842 1562.35 11.4196M73.795 1516.78C658.061 931.889 1238.29 357.691 1581.63 10.6344M76.7252 1512.1C399.554 1197.91 707.25 885.023 1579.54 10.8156M106.591 1516.72C410.209 1208.46 715.108 906.738 1603.84 15.8065M97.9234 1512.73C669.515 935.083 1250.12 355.207 1596.23 13.3148M126.365 1515.35C476.13 1173.72 809.982 816.359 1618.06 15.965M116.089 1515.98C651.237 977.358 1186.25 433.166 1614.24 13.1411M140.146 1511.42C676.359 973.379 1227.99 429.76 1641.69 8.20314M138.691 1518.63C581.588 1074.95 1025.29 630.761 1644.8 8.04458M157.952 1521.19C734.616 924.874 1339.83 332.095 1661.35 4.2014M157.625 1519.45C639.783 1026.64 1124.72 537.596 1659.67 6.10411M187.87 1515.76C720.149 974.239 1245.96 436.427 1681.04 6.04371M183.751 1512.36C658.624 1042.74 1119.63 577.9 1675.27 10.121M202.931 1509.9C756.91 961.207 1304.04 402.926 1695.92 7.84072M197.162 1512.56C677.005 1036.93 1146.43 562.55 1695.65 9.84159M225.84 1516.42C575.614 1171.63 906.353 822.105 1712.56 11.0799M218.699 1516.29C797.022 922.624 1383.62 338.438 1720.48 9.01859M231.751 1514.3C628.605 1135.34 995.725 756.997 1741.58 8.4221M235.204 1515.8C557.603 1193.87 879.816 865.414 1735.97 11.1403M264.302 1520.88C656.37 1116.33 1064.18 709.12 1769.82 3.26514M258.206 1516.38C593.196 1183.86 922.992 853.877 1765.4 3.94468M279.434 1521.87C832.472 964.59 1379.54 417.227 1776.33 6.49673M276.996 1515.33C738.929 1043.31 1208.24 575.001 1778.29 10.2493M293.389 1524.18C862.624 947.035 1448.48 375.767 1796.27 9.53957M296.432 1517.63C805.054 1006.87 1315.1 503.589 1796.28 6.20982M317.056 1509.02C760.978 1073.03 1198.7 629.349 1822.84 11.8651M320.847 1510.94C822.38 1010.9 1326.03 501.18 1816.77 11.548M332.753 1510.24C845.033 1007.8 1340.37 520.849 1830.51 11.9784M343.961 1511.98C647.334 1200.13 964.373 881.157 1837.52 8.66372M352.383 1514.81C826.785 1040.77 1290.51 568.379 1852.27 10.5287M359.319 1516.85C821.017 1053.3 1279.05 589.098 1853.39 11.6008M376.276 1515.74C777.883 1116.28 1162.1 723.02 1875.33 13.2091M376.932 1519.04C800.536 1099.75 1213.79 684.8 1880.32 12.8844M401.859 1522.6C826.027 1077.82 1275.09 630.399 1908.69 8.14274M396.593 1518.63C800.966 1125.6 1188.52 726.652 1899.47 8.67127M420.178 1521.22C999.997 929.133 1601.38 332.775 1913.76 7.17628M418.396 1518.67C752.74 1185.1 1089.96 850.374 1919.7 9.66038M448.507 1507.76C892.316 1062.8 1343.52 615.977 1934.42 13.5111M438.098 1510.46C797.606 1149.44 1159.81 787.026 1943.66 6.8063M468.824 1518.02C913.453 1047.86 1383.92 585.345 1952.33 9.23M465.31 1513.58C785.495 1191.33 1107.15 863.632 1957.76 10.5513M478.097 1516.19C818.999 1180.41 1149.39 844.243 1974.4 5.31131M477.769 1516.38C961.412 1036.79 1430.07 561.561 1978.64 8.81473M497.379 1513.58C1064.82 960.362 1607.71 402.02 2004.81 7.64441M497.553 1515.27C989.967 1019.75 1477.45 529.615 1998.3 10.574M522.03 1518.38C1085.93 933.731 1660.59 367.25 2019.73 3.80122M517.47 1516.58C1058.73 976.821 1595.76 438.859 2025.56 4.80543M531.886 1520.87C899.416 1146 1270.91 786.671 2049.61 14.017M541.814 1516.29C1006.23 1056.56 1467.4 589.747 2038.01 5.63598M568.084 1513.76C1015.27 1056.72 1480.99 599.623 2056.1 3.08393M561.496 1509.97C938.298 1129.81 1328.04 743.339 2062.01 12.0237M586.659 1507.84C987.211 1096.26 1402.23 690.402 2086.18 7.64441M584.661 1512.41C1151.94 950.342 1713.56 380.161 2078.72 7.34994M600.839 1508.77C944.456 1169.58 1288.87 826.635 2101.76 16.116M603.82 1515.56C1190.19 928.144 1770.1 349.22 2095.43 10.0757M613.646 1514.15C1181.81 939.417 1763.82 370.368 2111.02 14.5531M620.06 1518.42C914.508 1206.82 1218.85 907.795 2119.95 9.51692M636.688 1515.49C1111.4 1042 1577.07 574.933 2149.38 1.49833M635.848 1515.5C978.184 1182.71 1315.26 847.074 2140.93 5.37927M662.835 1513.5C1065.96 1112.36 1480.15 703.087 2159.6 12.2955M657.446 1517.24C1167.24 1002.2 1687.79 483.89 2152.25 16.8107M680.919 1508.6C1212.18 986.411 1746.52 454.012 2164.09 27.9778M687.158 1512.88C1114.64 1076.94 1546.67 647.659 2155.28 33.5123M709.114 1516.6C1046.53 1167.61 1376.55 822.958 2165.17 48.8171M706.236 1511.13C1001.63 1221.09 1290.05 928.423 2160.39 52.9623M730.405 1510.29C1156.95 1067.18 1613.04 623.951 2162.79 75.7798M725.538 1513.56C1076.49 1154.11 1434.48 794.584 2155.57 69.4449M743.345 1519.2C1214.52 1046.36 1672.03 581.789 2153.32 88.8798M742.525 1512.16C1269.32 984.553 1795.27 458.928 2156.63 89.3781M768.088 1519.3C1105.6 1169.59 1442.84 824.997 2159.24 114.219M763.949 1517.65C1125.96 1144.49 1496.04 780.585 2156.88 112.143M777.822 1513.8C1319.14 970.653 1848.96 433.475 2162.48 140.88M775.24 1514.63C1102.18 1191.1 1420.07 863.663 2154.87 136.735M793.969 1522.33C1111.93 1206.37 1428.32 891.826 2147.96 149.034M796.878 1517.71C1085.78 1227.34 1383.63 933.482 2155.57 157.317M826.253 1506.45C1354.12 986.267 1869.62 469.627 2154.41 168.273M825.607 1512.13C1157.16 1174.55 1491.94 839.554 2156.12 176.714M848.834 1508.15C1153.75 1201.99 1469.24 887.454 2161.77 190.577M839.664 1511.14C1111.45 1244.64 1377.1 975.213 2156.05 195.862M857.911 1516.2C1279.61 1088.98 1703 665.878 2152.69 218.952M859.192 1515.56C1286.62 1089.97 1711.89 661.069 2161.26 214.233M879.13 1514.07C1360.99 1031.4 1853.35 545.471 2163.87 227.604M880.984 1518.54C1272.5 1126.56 1666.9 730.322 2160.31 231.606M894.652 1512.6C1149.1 1256.2 1412.6 1006.15 2155.49 254.061M900.646 1514.74C1391.73 1016.79 1894.12 515.247 2165.38 251.388M909.908 1514.98C1405.17 1032.94 1882.39 533.406 2151.37 280.125M920.758 1521.04C1353.17 1075.85 1796.04 636.809 2156.38 276.969M951.751 1510.52C1205.86 1246.52 1471.97 963.299 2161.94 288.31M947.724 1515.45C1231.63 1222.64 1523.75 940.813 2154.03 291.881M959.835 1516.61C1384.96 1089.32 1823.14 646.3 2159.67 309.172M960.521 1514.15C1356.94 1118.11 1750.22 724.41 2161.4 314.261M974.875 1510.41C1379.66 1112.36 1788.24 715.032 2166.07 329.196M977.406 1517C1251.26 1236.54 1522.43 968.909 2159.17 331.718M998.133 1514.06C1386.2 1124.13 1772.21 735.078 2156.47 354.701M1004.3 1517.92C1399.7 1118.6 1795.79 719.94 2159.38 356.445M1023.33 1514.59C1417.95 1119.68 1809.04 730.397 2162.34 379.384M1024.57 1517.72C1404.32 1132.85 1795.08 745.664 2156.41 372.83M1034.9 1525C1376.25 1188.23 1701.73 839.72 2160.8 396.063M1043.91 1515.47C1277.85 1277.61 1513.55 1031.61 2157.22 395.383M1069.71 1509.63C1335.54 1249.42 1586.23 991.681 2150.38 419.061M1067.92 1510.68C1345.14 1237.92 1615.13 965.798 2159.99 417.423M1075.14 1512.65C1447.41 1155.96 1807.85 781.31 2165.1 435.227M1083.89 1513.24C1325.02 1278.15 1550.28 1045.99 2160.49 432.826M1096.74 1515.11C1480.2 1141.22 1847.98 768.202 2150.39 460.098M1105.15 1511C1493.25 1123.87 1885.7 725.784 2153.17 453.393M1127.66 1510.48C1443.55 1191.09 1776.12 849.936 2163.25 481.927M1126.18 1518.55C1536.03 1104.39 1946.03 697.454 2156.76 475.803M1145.19 1520.06C1391.89 1271.66 1616.84 1048.61 2158.59 495.125M1144.36 1515.84C1349.2 1309.49 1552.57 1100.26 2158.11 491.931M1163.08 1512.92C1517.89 1159.24 1868.51 804.678 2166.74 514.552M1156.41 1519.56C1412.21 1261.17 1666.35 1003.41 2161.91 512.974M1175.64 1518.33C1440.72 1260.39 1701.45 1014.13 2145.74 543.584M1175.83 1517.49C1550.37 1143.5 1923.78 772.785 2157.09 537.226M1194.37 1505.95C1426.83 1287.68 1659.81 1053.22 2160.35 553.112M1202.79 1514.35C1510.52 1197.43 1831.7 883.392 2159.05 559.266M1232.52 1518.48C1438.57 1291.21 1665.89 1078.08 2166.94 582.838M1219.41 1513.24C1503.38 1233.79 1789.57 948.137 2152.89 574.676M1244.6 1508.34C1484.4 1265.09 1727.77 1022.77 2154.56 590.215M1246.25 1513.36C1515.84 1231.83 1798.4 958.572 2162.52 593.16M1268.09 1515.98C1528.09 1244.93 1806.15 976.165 2158.34 617.125M1257.55 1513.03C1510.14 1261.98 1758.67 1012 2157.76 612.904M1289.25 1512.14C1472.26 1322.93 1640.54 1137.55 2151.51 639.308M1285.36 1517.06C1500.86 1296.5 1719.18 1080.28 2164.92 631.403M1306.22 1511C1622.96 1189.45 1956.76 860.174 2168.7 660.57M1301.61 1518.7C1529.95 1284.34 1757.62 1053.48 2158.5 650.068M1335.33 1509.33C1603.99 1226.96 1904.49 933.414 2155.4 682.55M1321.01 1513.67C1506.61 1334.05 1681.48 1149.72 2153.92 679.975M1353.2 1519.39C1597.25 1262.6 1839.6 1018.71 2164.03 698.481M1344.88 1514.38C1647.37 1204.18 1953.02 901.392 2156.29 694.993M1362.47 1516.61C1677.87 1210.18 1967.78 893.721 2147.46 723.866M1364.94 1511.98C1669.11 1202.38 1979.42 901.355 2153.87 717.78M1391.48 1517.09C1631.21 1261.18 1892.54 1008.11 2155.38 736.906M1379.74 1513.82C1632.96 1265.92 1885.78 1018.1 2161.56 735.546M1398.2 1523.17C1697.8 1222.85 2004.75 923.968 2160.46 758.13M1403.05 1520.35C1639.67 1273.12 1888.36 1030.89 2159.62 758.877M1416.57 1512.01C1626.62 1312.51 1828.59 1101.6 2151.92 782.065M1419.74 1514.61C1626.99 1305.49 1840.77 1095.67 2155.99 775.602M1453.64 1513.02C1681.99 1271.88 1913.18 1036.92 2152.9 807.027M1442.28 1509.33C1668.16 1294.79 1884.64 1074.21 2155.21 804.135M1473.5 1510.53C1710.62 1275.3 1944.85 1033.26 2149.48 823.147M1463.62 1511.51C1615.4 1369.12 1756.87 1220.93 2152.44 820.625M1490.58 1511.85C1737.42 1254.32 2017.44 979.683 2164.32 840.302M1487.64 1512.95C1725 1265.29 1974.35 1026.71 2157.19 837.765M1503.81 1516.95C1683.06 1343.68 1853.22 1154.35 2158.66 852.888M1504.19 1512.47C1634.41 1381.38 1770.59 1249.54 2162.87 856.044M1530.43 1519.99C1663.32 1374.66 1803.08 1229.46 2149.05 880.085M1525.88 1519.21C1731.22 1311.2 1930.66 1106.7 2154.6 876.061M1539.61 1518.45C1707.29 1369.82 1849.14 1204.08 2165.85 894.076M1545.99 1516.12C1779.28 1279.19 2012.29 1041.76 2157.19 896.296M1559.86 1515.46C1790.79 1292.7 1997.64 1071.16 2160.97 921.129M1561.85 1514.55C1721.75 1350.92 1883.14 1190.33 2155.98 913.903M1580.99 1517.72C1713.11 1371.3 1869.84 1243.17 2159.13 940.76M1583.28 1513.15C1716.64 1384.46 1850.93 1251.92 2160.11 938.352M1612.3 1510.47C1715.3 1393.84 1823.33 1280.75 2152.86 967.195M1603.24 1517.33C1760.04 1357.46 1923.09 1191.28 2158.49 956.813M1616.64 1519.18C1764.51 1364.45 1921.22 1225.75 2152.68 982.922M1626.23 1515.63C1732.83 1403.69 1847.6 1296.08 2154.45 980.363M1646.81 1517.94C1750.25 1405.57 1865.27 1307.44 2163.56 1004.22M1639.01 1518.74C1775.96 1384.15 1904.71 1254.84 2159.03 997.57M1670.17 1518.29C1819.39 1374.29 1959.62 1218.15 2154.18 1017.27M1666.55 1518.02C1852.97 1316.18 2052.56 1122.55 2162.97 1020.91M1690.26 1521.36C1852.57 1344.07 2022.57 1172.02 2154.94 1039.14M1679.38 1515.98C1827.4 1369.23 1982.79 1218.38 2160.76 1037.23M1701.45 1514.87C1890.83 1332.3 2053.14 1152.72 2169 1057.24M1705.3 1510.77C1853.45 1366.69 1995.86 1220.21 2163.48 1058.25M1716.09 1509.14C1830.16 1394.04 1952.26 1286.23 2164.18 1076.33M1724.96 1511.8C1863.96 1376.62 2011.09 1235.39 2154.84 1081.13M1752.32 1510.33C1878.85 1393.43 1991.48 1260.7 2166.98 1096.72M1740.5 1517.13C1888.93 1375.14 2023.03 1234.62 2155.3 1103.93M1759.11 1515.64C1894.29 1391.64 2012.43 1272.04 2154.83 1125.56M1762.49 1519.56C1865.69 1419.92 1960.45 1322.38 2155.41 1121.13M1779.9 1518.43C1906.48 1403.56 2015.22 1280.01 2152.21 1133.95M1782.81 1519.68C1917.88 1385.57 2050.27 1249.07 2156.58 1140.84M1807.86 1511.34C1933.77 1385.5 2073.17 1232 2163.04 1163.38M1802.77 1514.91C1932.08 1390.31 2057.8 1263.22 2161.37 1156.25M1832.95 1509.89C1893.18 1437.86 1965.67 1366.86 2154.52 1181.8M1825.5 1510.81C1948.96 1391.24 2065.85 1272.14 2157.46 1176.16M1838.51 1512.63C1918.5 1441.84 1967.78 1390.03 2160.04 1207.56M1847.66 1511.93C1909.82 1448.15 1974.23 1384.96 2150.78 1200.89M1867.81 1512.43C1978.68 1410.66 2067.87 1298.71 2154.38 1223.61M1864.78 1511.73C1944.47 1436.95 2027.31 1351.67 2161.33 1224.15M1881.34 1520.9C1967.38 1431.64 2068.15 1343.87 2154.62 1243.01M1885.27 1516.97C1984.21 1414.85 2087.08 1309.36 2155.89 1241.86M1909.5 1510.58C1965.55 1460.33 2013.19 1396.54 2160.94 1257.01M1898.4 1519.19C1990.03 1428.12 2082.88 1340.25 2161.86 1261.84M1924.54 1515.68C1982.81 1459.81 2037.19 1405.58 2164.25 1286.36M1921.76 1516.7C1998.57 1440.78 2073.55 1361.77 2160.35 1279.62M1943.05 1507.61C2003.76 1466.74 2056.71 1406.98 2152.5 1300.25M1943.74 1509.41C1998.73 1461.64 2052.38 1408.1 2155.93 1301.26M1974.93 1520.85C2048.59 1443.95 2118.67 1357.81 2154.65 1319.53M1966.59 1513.85C2021.78 1462.46 2064.18 1415.77 2160.51 1317.17M1981.24 1507.84C2029.89 1478.1 2055.48 1434.06 2152.53 1346.99M1984.17 1511.7C2048.28 1455.02 2103.07 1400.44 2160.22 1346.19M2013.23 1513.03C2066.32 1451.62 2131.48 1397.04 2150.03 1367.13M2001.46 1515.44C2050.76 1477.55 2081.24 1434.89 2151.61 1365.3M2015.67 1516.83C2068.03 1464.97 2118.33 1408.93 2155.87 1384.1M2020 1515.64C2048.93 1487.03 2079.02 1460.64 2153.21 1381.77M2045.37 1510.16C2078.25 1483.76 2100.68 1463.11 2157.09 1401.2M2039.11 1516.7C2077.95 1490.01 2106.61 1457.84 2156.98 1405.02M2066.1 1514.1C2092 1494.18 2123.43 1459.85 2161.83 1421.13M2062.78 1518.64C2097.2 1483.95 2136.4 1445.98 2162.21 1418.46M2087.66 1512.23C2104.14 1493.97 2119.57 1479.75 2158.17 1439.46M2087.96 1512.41C2104.53 1498.78 2117.41 1481.92 2161.93 1438.55M2104.43 1515.41C2123.86 1493.33 2147.55 1476.05 2164.99 1462.47M2104.54 1513.29C2119.19 1499.01 2135.47 1485.53 2159.79 1458.77M2124.12 1515.77C2132.16 1508.6 2136.59 1503.52 2153.66 1485.1M2125 1515.8C2135.8 1504.83 2144.93 1493.7 2156.23 1483.74M2145.45 1515.46C2149.43 1511.76 2154.04 1507.59 2156.75 1504.08M2145.25 1515.87C2147.82 1513.29 2150.66 1510.27 2157.28 1503.71" stroke="#CFCCAE" stroke-width="1.355" stroke-linecap="round"/>
<path d="M4.0542 14.84C675.787 5.74169 1338.5 12.6353 2160.18 6.21737M13.3982 6.79875C495.023 10.506 975.665 9.68303 2156.56 10.4305M2162.88 5.49252C2157.51 410.303 2159.63 819.606 2153.04 1517.06M2149.34 8.55046C2154.1 500.478 2158.83 996.339 2152.51 1509.02M2156.61 1509.97C1656.25 1513.72 1146.75 1521.27 8.32662 1512.91M2152.14 1509.66C1322.46 1518.7 493.886 1519.04 15.4985 1511.8M23.0803 1510.95C3.15258 1005.67 12.3941 507.779 21.8815 16.3048M8.78767 1512.78C18.3775 950.312 22.4041 394.303 17.0354 12.9977" stroke="black" stroke-width="3" stroke-linecap="round"/>
</svg>
