<svg width="582" height="163" viewBox="0 0 582 163" fill="none" xmlns="http://www.w3.org/2000/svg">
<path d="M136.168 66.4805C133.629 63.9805 130.816 62.7305 127.73 62.7305C124.801 62.7305 121.988 63.8438 119.293 66.0703C115.895 68.8828 113.551 72.5156 112.262 76.9688C111.793 78.5703 111.559 79.8984 111.559 80.9531C111.559 82.0078 111.598 82.8281 111.676 83.4141C111.676 87.2812 112.984 90.25 115.602 92.3203C118.062 94.2344 121.207 95.1914 125.035 95.1914C130.27 94.7617 135.289 92.75 140.094 89.1562C141.422 88.1406 142.828 87.1641 144.312 86.2266C144.859 86.2266 145.406 86.3047 145.953 86.4609C146.539 86.6172 146.832 87.0664 146.832 87.8086C142.965 91.168 139.703 93.5898 137.047 95.0742C132.125 97.7305 127.672 99.0586 123.688 99.0586C123.414 99.0586 123.16 99.0586 122.926 99.0586C118.59 99.0586 114.879 97.7109 111.793 95.0156C108.512 92.1641 106.871 88.6094 106.871 84.3516C106.871 81.1484 107.438 78.082 108.57 75.1523C109.742 72.2227 111.324 69.6445 113.316 67.418C115.348 65.1523 117.73 63.3555 120.465 62.0273C123.238 60.6992 126.207 60.0352 129.371 60.0352C132.066 60.0352 133.824 60.4062 134.645 61.1484C135.66 62.0469 136.168 63.8242 136.168 66.4805ZM150.699 76.2656C150.621 74.1562 150.543 72.2812 150.465 70.6406C150.387 68.9609 150.328 67.7305 150.289 66.9492C150.289 66.1289 149.977 64.1562 149.352 61.0312C149.703 60.5625 150.035 60.1133 150.348 59.6836C150.699 59.2539 151.188 59.0391 151.812 59.0391C153.18 59.0391 154.234 64.8008 154.977 76.3242C155.367 83.0039 155.562 89.6836 155.562 96.3633C155.562 98.1602 154.312 99.0586 151.812 99.0586L151.344 99C151.344 96.9688 151.285 94.3711 151.168 91.207C151.051 88.043 150.953 85.2891 150.875 82.9453C150.836 80.6016 150.777 78.375 150.699 76.2656ZM171.031 94.8984C174.469 94.8984 179.645 93.3359 186.559 90.2109C186.988 90.2109 187.34 90.3672 187.613 90.6797C187.887 90.9531 188.023 91.2852 188.023 91.6758C186.461 94.332 183.473 96.4023 179.059 97.8867C174.645 99.3711 170.523 99.625 166.695 98.6484C162.359 97.5156 159.723 95.0742 158.785 91.3242C158.707 90.582 158.668 89.5859 158.668 88.3359C158.668 87.0859 158.98 85.4453 159.605 83.4141C160.27 81.3438 161.383 79.3906 162.945 77.5547C164.508 75.7188 166.344 74.2734 168.453 73.2188C170.562 72.1641 172.809 71.6367 175.191 71.6367C177.457 71.6367 179.996 72.418 182.809 73.9805C184.137 74.7227 185.191 75.5625 185.973 76.5C186.754 77.4375 187.145 78.3945 187.145 79.3711C187.145 79.6445 187.125 79.918 187.086 80.1914C187.008 82.5742 185.855 84.0781 183.629 84.7031C182.652 84.9766 181.52 85.1133 180.23 85.1133L171.793 84.7617C168.98 84.7617 166.832 85.3672 165.348 86.5781C164.488 87.2422 163.883 88.2383 163.531 89.5664C164.508 93.1211 167.008 94.8984 171.031 94.8984ZM181.461 76.793C180.602 76.168 179.703 75.7188 178.766 75.4453C177.828 75.1719 177.047 75.0352 176.422 75.0352C175.797 75.0352 174.781 75.25 173.375 75.6797C171.969 76.0703 170.719 76.5195 169.625 77.0273C166.93 78.2773 165.582 79.5859 165.582 80.9531C168.707 81.2266 171.051 81.3633 172.613 81.3633C176.949 81.3633 179.879 80.9922 181.402 80.25C182.34 79.8594 182.809 79.3711 182.809 78.7852C182.809 78.082 182.359 77.418 181.461 76.793ZM214.566 89.2734C211.637 93.8828 207.73 96.7344 202.848 97.8281C201.715 98.0625 200.68 98.1797 199.742 98.1797C198.844 98.1797 198.082 98.1797 197.457 98.1797C196.871 98.1406 196.207 98.043 195.465 97.8867C194.723 97.7305 194.039 97.4766 193.414 97.125C191.969 96.3047 191.246 95.1523 191.246 93.668C191.09 92.9648 191.012 92.1836 191.012 91.3242C191.012 90.4258 191.207 89.2539 191.598 87.8086C191.988 86.3633 192.691 84.8008 193.707 83.1211C194.762 81.4414 196.031 79.8984 197.516 78.4922C200.602 75.5234 203.941 73.6094 207.535 72.75C208.59 72.5156 209.547 72.3984 210.406 72.3984C211.305 72.3984 212.105 72.457 212.809 72.5742C215.074 72.5742 216.598 74.1172 217.379 77.2031C217.887 79.1562 218.18 81.8906 218.258 85.4062C218.375 88.8828 218.473 91.5781 218.551 93.4922C218.668 95.3672 218.922 97.0859 219.312 98.6484H215.855C215.699 97.5938 215.582 96.6562 215.504 95.8359C215.426 95.0156 215.348 94.2539 215.27 93.5508C215.074 91.9102 214.84 90.4844 214.566 89.2734ZM214.332 80.1914C214.332 77.9258 213.219 76.793 210.992 76.793C210.719 76.7539 210.445 76.7344 210.172 76.7344C207.32 76.7344 204.312 78.1016 201.148 80.8359C199.664 82.0859 198.395 83.4922 197.34 85.0547C195.777 87.2812 194.996 89.2734 194.996 91.0312C194.996 93.3359 196.324 94.7031 198.98 95.1328C202.496 95.0547 205.855 93.4531 209.059 90.3281C210.426 88.9609 211.559 87.4766 212.457 85.875C213.707 83.7266 214.332 81.832 214.332 80.1914ZM250.836 77.6133C249.195 76.4414 247.086 75.8555 244.508 75.8555C242.086 75.8555 239.84 76.3047 237.77 77.2031C233.863 78.8438 231.188 80.9531 229.742 83.5312C229.117 84.7031 228.805 85.9531 228.805 87.2812C228.805 87.5156 228.805 88.1797 228.805 89.2734C228.805 90.3281 229 91.7734 229.391 93.6094C229.781 95.4062 229.977 97.2422 229.977 99.1172C229.156 99.1562 228.492 99.2539 227.984 99.4102C227.477 99.5664 227.047 99.6445 226.695 99.6445C226.344 99.6445 226.031 99.4883 225.758 99.1758C225.523 98.8633 225.25 98.2578 224.938 97.3594C224.898 97.125 224.82 96.4609 224.703 95.3672C224.586 94.2734 224.43 92.9453 224.234 91.3828C224.078 89.8203 223.883 88.1211 223.648 86.2852C223.453 84.4102 223.258 82.5742 223.062 80.7773C222.633 76.8711 222.301 74 222.066 72.1641C222.066 71.2266 222.75 70.7578 224.117 70.7578C224.938 70.7578 225.582 71.1094 226.051 71.8125C226.52 72.4766 226.891 73.2578 227.164 74.1562C227.438 75.0156 227.613 75.875 227.691 76.7344C227.809 77.5938 227.906 78.1992 227.984 78.5508C233.141 73.9414 239.547 71.6367 247.203 71.6367C248.062 71.6367 248.961 71.6562 249.898 71.6953C250.133 71.6562 250.426 71.6367 250.777 71.6367C251.129 71.6367 251.48 71.8711 251.832 72.3398C252.262 72.8867 252.477 73.5508 252.477 74.332C252.477 76.2852 251.93 77.3789 250.836 77.6133ZM278.492 93.9023C278.492 93.1602 278.785 92.5156 279.371 91.9688C279.996 91.3828 280.465 90.9922 280.777 90.7969C281.129 90.5625 281.363 90.3867 281.48 90.2695C281.676 93.8242 284.078 95.6016 288.688 95.6016C292.32 95.6016 296.559 94.4688 301.402 92.2031C304.84 90.6406 307.145 89.0391 308.316 87.3984C308.707 86.8906 308.902 86.4805 308.902 86.168C308.902 85.8164 308.844 85.543 308.727 85.3477L284.41 79.8984C283.707 79.7422 283.023 79.4102 282.359 78.9023C281.148 78.043 280.543 77.2617 280.543 76.5586C280.543 73.8633 282.457 71.4219 286.285 69.2344C290.504 66.8516 296.148 65.0547 303.219 63.8438C304.82 63.5703 306.012 63.4141 306.793 63.375C307.027 63.4531 307.379 63.5312 307.848 63.6094C308.355 63.6484 308.863 63.7266 309.371 63.8438C310.582 64.1172 311.09 64.625 310.895 65.3672C310.895 66.6953 308.355 67.75 303.277 68.5312C296.715 69.5078 292.613 70.3281 290.973 70.9922C289.371 71.6562 288.199 72.3398 287.457 73.043C286.754 73.7461 286.383 74.5859 286.344 75.5625C286.344 75.7578 286.793 75.9727 287.691 76.207C288.59 76.4414 289.664 76.7344 290.914 77.0859C292.164 77.3984 293.785 77.8281 295.777 78.375C300.621 79.7031 306.559 81.3828 313.59 83.4141C313.98 84.2734 314.176 85.0742 314.176 85.8164C314.176 87.8867 312.965 89.8789 310.543 91.793C307.809 93.9414 304.02 95.7578 299.176 97.2422C295.152 98.4531 291.949 99.0586 289.566 99.0586C287.574 99.0586 285.68 98.707 283.883 98.0039C282.086 97.3008 280.738 96.6172 279.84 95.9531C278.941 95.2891 278.492 94.6055 278.492 93.9023ZM323.551 88.3359L323.844 93.4336C323.844 96.5586 323.102 98.4531 321.617 99.1172C321.305 99.2344 320.934 99.293 320.504 99.293C320.074 99.293 319.566 99.1953 318.98 99L319.039 77.0859C319.039 73.9219 318.844 70.7578 318.453 67.5938C318.102 64.3906 317.926 61.207 317.926 58.043C317.926 56.793 318.59 56.168 319.918 56.168H320.387C320.66 56.168 320.836 56.1875 320.914 56.2266C321.5 58.6484 321.891 61.5781 322.086 65.0156C322.516 72.6328 322.906 77.75 323.258 80.3672C323.922 80.0156 325.406 79.0195 327.711 77.3789C330.016 75.7383 331.871 74.4297 333.277 73.4531C334.684 72.4375 336.012 71.5 337.262 70.6406C340.191 68.7266 342.027 67.7695 342.77 67.7695C343.395 67.7695 343.883 68.1406 344.234 68.8828C342.281 71.3438 339.137 74.0781 334.801 77.0859C333.043 78.2969 331.285 79.5078 329.527 80.7188C327.809 81.8906 326.227 83.1211 324.781 84.4102C327.398 85.1133 329.879 85.8555 332.223 86.6367C334.566 87.3789 336.832 88.0625 339.02 88.6875C344.059 90.1719 348.395 91.0117 352.027 91.207C352.027 92.2617 351.93 92.9453 351.734 93.2578C351.383 93.8047 350.66 94.1172 349.566 94.1953H349.098C346.715 93.5312 343.551 92.7891 339.605 91.9688C331.832 90.3672 326.48 89.1562 323.551 88.3359ZM366.559 94.8984C369.996 94.8984 375.172 93.3359 382.086 90.2109C382.516 90.2109 382.867 90.3672 383.141 90.6797C383.414 90.9531 383.551 91.2852 383.551 91.6758C381.988 94.332 379 96.4023 374.586 97.8867C370.172 99.3711 366.051 99.625 362.223 98.6484C357.887 97.5156 355.25 95.0742 354.312 91.3242C354.234 90.582 354.195 89.5859 354.195 88.3359C354.195 87.0859 354.508 85.4453 355.133 83.4141C355.797 81.3438 356.91 79.3906 358.473 77.5547C360.035 75.7188 361.871 74.2734 363.98 73.2188C366.09 72.1641 368.336 71.6367 370.719 71.6367C372.984 71.6367 375.523 72.418 378.336 73.9805C379.664 74.7227 380.719 75.5625 381.5 76.5C382.281 77.4375 382.672 78.3945 382.672 79.3711C382.672 79.6445 382.652 79.918 382.613 80.1914C382.535 82.5742 381.383 84.0781 379.156 84.7031C378.18 84.9766 377.047 85.1133 375.758 85.1133L367.32 84.7617C364.508 84.7617 362.359 85.3672 360.875 86.5781C360.016 87.2422 359.41 88.2383 359.059 89.5664C360.035 93.1211 362.535 94.8984 366.559 94.8984ZM376.988 76.793C376.129 76.168 375.23 75.7188 374.293 75.4453C373.355 75.1719 372.574 75.0352 371.949 75.0352C371.324 75.0352 370.309 75.25 368.902 75.6797C367.496 76.0703 366.246 76.5195 365.152 77.0273C362.457 78.2773 361.109 79.5859 361.109 80.9531C364.234 81.2266 366.578 81.3633 368.141 81.3633C372.477 81.3633 375.406 80.9922 376.93 80.25C377.867 79.8594 378.336 79.3711 378.336 78.7852C378.336 78.082 377.887 77.418 376.988 76.793ZM395.914 93.375L396.031 84C396.031 82.5156 395.895 81.2461 395.621 80.1914H386.539L386.422 76.1484H395.211V61.0312C395.328 60.6797 395.562 60.3281 395.914 59.9766C396.461 59.4297 396.91 59.1562 397.262 59.1562C397.652 59.1562 397.984 59.1953 398.258 59.2734C398.531 59.3516 398.824 59.625 399.137 60.0938C399.762 62.6719 400.074 66.5586 400.074 71.7539C400.074 73.043 400.133 74.3125 400.25 75.5625C401.5 75.4062 402.75 75.3281 404 75.3281C404 75.3281 405.016 75.3281 407.047 75.3281C407.789 75.3281 408.473 75.2891 409.098 75.2109L408.922 79.4297L400.367 79.1953L400.66 99.4102C399.957 99.7227 399.352 99.8789 398.844 99.8789C396.891 99.8789 395.914 97.7109 395.914 93.375ZM434.996 92.8477C436.598 92.1836 438.16 91.5781 439.684 91.0312C441.207 90.4844 442.652 90.2109 444.02 90.2109C445.426 90.2109 446.129 90.6406 446.129 91.5C446.129 91.6953 446.07 92.0078 445.953 92.4375C445.875 92.8281 445.348 93.3164 444.371 93.9023C443.434 94.4492 442.262 94.9766 440.855 95.4844C439.488 95.9922 437.984 96.4609 436.344 96.8906C434.703 97.3203 433.102 97.6914 431.539 98.0039C428.297 98.668 425.992 99 424.625 99C423.258 99 421.773 98.8438 420.172 98.5312C418.609 98.2188 417.145 97.7109 415.777 97.0078C412.613 95.3672 411.031 92.9453 411.031 89.7422C411.031 89.5078 411.031 89.0391 411.031 88.3359C411.031 87.6328 411.324 86.6367 411.91 85.3477C412.496 84.0195 413.375 82.7109 414.547 81.4219C415.719 80.0938 417.086 78.8828 418.648 77.7891C421.93 75.4453 425.367 73.9219 428.961 73.2188C430.211 72.9453 431.246 72.8086 432.066 72.8086C432.926 72.8086 433.629 72.8281 434.176 72.8672C434.723 72.8672 435.289 72.9062 435.875 72.9844C436.461 73.0234 436.969 73.1602 437.398 73.3945C438.414 73.9023 438.922 74.8984 438.922 76.3828C438.922 77.3203 438.258 78.2383 436.93 79.1367C436.578 79.3711 436.266 79.5859 435.992 79.7812C435.797 78.8828 435.543 78.1211 435.23 77.4961C434.918 76.8711 434.234 76.5586 433.18 76.5586C428.57 77.5352 424.605 79 421.285 80.9531C417.535 83.1797 415.66 85.5234 415.66 87.9844C415.66 88.2578 415.68 88.5508 415.719 88.8633C415.719 91.3633 416.676 93.1406 418.59 94.1953C420.035 94.9766 421.891 95.3672 424.156 95.3672C426.461 95.3672 428.453 95.1133 430.133 94.6055C431.812 94.0586 433.434 93.4727 434.996 92.8477ZM476.832 98.1797C476.48 98.8438 475.562 99.1758 474.078 99.1758C472.633 99.1758 471.91 98.6484 471.91 97.5938C471.91 92.9844 471.812 89.8203 471.617 88.1016C471.266 84.3125 470.523 82.2812 469.391 82.0078C466.578 81.4609 464.273 81.1875 462.477 81.1875C460.719 81.1875 459.254 81.7344 458.082 82.8281C456.949 83.8828 456.07 85.6602 455.445 88.1602C454.859 90.6211 454.43 94.0977 454.156 98.5898H449.645C449.723 96.3633 449.762 94.293 449.762 92.3789C449.762 90.4648 449.723 88.1992 449.645 85.582C449.566 82.9258 449.469 80.0352 449.352 76.9102C449.156 73.3164 449.059 70.2891 449.059 67.8281C449.059 65.3281 449.215 63.043 449.527 60.9727C449.918 60.2305 450.484 59.8594 451.227 59.8594C452.125 59.8594 452.828 60.1914 453.336 60.8555C453.844 61.4805 454.117 62.0469 454.156 62.5547L453.863 72.2227C453.863 75.8555 454.039 78.5703 454.391 80.3672C457.906 78.0234 461.539 76.8516 465.289 76.8516C466.5 76.8516 467.789 76.9492 469.156 77.1445C472.086 78.668 474 80.2891 474.898 82.0078C475.328 82.9062 475.602 83.8633 475.719 84.8789C475.836 85.8945 475.914 87.0469 475.953 88.3359C476.188 92.7891 476.48 96.0703 476.832 98.1797Z" fill="black"/>
<path d="M2 4.13434C158.13 1.54577 312.98 1.33542 576.525 3.37472M575.16 3.42731C572.075 43.2083 584.855 91.43 576.181 161M572.773 155.303C407.163 155.709 249.98 156.831 8.0517 159.674M19.9724 160.398C11.5021 114.514 10.9324 67.0693 10.5992 4.13434" stroke="black" stroke-width="4" stroke-linecap="round"/>
</svg>
