<svg width="42" height="42" viewBox="0 0 42 42" fill="none" xmlns="http://www.w3.org/2000/svg">
<g id="Cycle inactive">
<g clip-path="url(#clip0_2026_789)">
<g id="circle">
<path id="Vector" d="M22.185 0.443039C25.3634 0.350399 29.0754 2.42085 31.8419 4.36916C34.6083 6.31748 37.3319 9.08295 38.7836 12.1329C40.2352 15.1829 40.7723 19.2451 40.5517 22.6692C40.3311 26.0932 39.291 29.7996 37.4602 32.6773C35.6293 35.555 32.5755 38.4345 29.5667 39.9356C26.5578 41.4367 22.7347 41.9247 19.4072 41.684C16.0797 41.4433 12.3821 40.3746 9.60171 38.4915C6.8213 36.6083 4.16231 33.5202 2.72474 30.3852C1.28717 27.2502 0.761868 23.0977 0.976273 19.6817C1.19068 16.2657 2.13722 12.6808 4.01117 9.88921C5.88511 7.09763 9.0475 4.41763 12.2199 2.9322C15.3924 1.44676 21.0066 1.20566 23.0458 0.976597C25.0851 0.747534 24.4366 1.19005 24.4553 1.55782M20.602 0.536818C23.8506 0.379542 28.3087 1.82013 31.2013 3.66041C34.0938 5.50069 36.3551 8.63126 37.9572 11.5785C39.5593 14.5257 40.8166 17.9986 40.8138 21.3438C40.811 24.6891 39.7537 28.7004 37.9404 31.6501C36.1272 34.5999 32.7873 37.4255 29.9344 39.0423C27.0816 40.6592 24.0637 41.3085 20.8233 41.3513C17.583 41.3941 13.4808 40.9601 10.4923 39.299C7.50377 37.6378 4.42343 34.4744 2.89219 31.3846C1.36096 28.2949 1.27459 24.321 1.30488 20.7603C1.33518 17.1997 1.349 12.8862 3.07395 10.0208C4.79891 7.15537 8.64849 5.20521 11.6546 3.56777C14.6607 1.93032 19.4832 0.69189 21.1106 0.196126C22.7381 -0.299638 21.3678 0.261471 21.4191 0.593181" stroke="black" stroke-width="3.35538"/>
</g>
<g id="Group">
<path id="Vector_2" d="M7.51364 15.1009C7.40348 15.2115 7.3142 15.3481 7.20932 15.4721C7.2974 15.3617 7.36676 15.2677 7.51364 15.1009ZM7.51364 15.1009C7.69484 14.893 7.79444 14.7313 7.96988 14.5441C7.71188 14.8508 7.60892 14.9552 7.51364 15.1009ZM33.3381 14.5438C32.9676 15.073 32.7038 15.2861 32.4252 15.6577C32.7724 15.2295 33.1392 14.797 33.3381 14.5438ZM33.3381 14.5438C33.5284 14.2589 33.7711 13.9385 34.0987 13.6157C33.7459 14.0261 33.5668 14.2736 33.3381 14.5438ZM6.91748 15.2329C7.15436 14.9446 7.33892 14.6713 7.52588 14.4903C7.30268 14.7886 7.08116 15.026 6.91748 15.2329ZM7.50116 15.7112C7.925 15.26 8.26172 14.7817 8.56604 14.4118C8.02964 15.0464 7.7942 15.3509 7.50116 15.7112ZM8.09732 15.5792C8.34212 15.205 8.53844 14.9293 9.01004 14.4653C8.47724 15.0963 8.3258 15.314 8.09732 15.5792ZM8.54132 15.6327C8.79428 15.3349 9.023 15.1887 9.45404 14.5189C9.13724 14.9213 8.86748 15.2535 8.54132 15.6327ZM8.98508 15.6862C9.2234 15.2924 9.4694 15.0721 10.05 14.3869C9.57764 14.9722 9.26828 15.3313 8.98508 15.6862ZM9.42908 15.7397C9.70148 15.386 10.1397 14.9919 10.494 14.4404C10.0274 15.0879 9.6962 15.3824 9.42908 15.7397ZM10.0252 15.6077C10.3202 15.23 10.7512 14.8316 10.938 14.4939C10.7102 14.761 10.3629 15.2105 10.0252 15.6077ZM10.4692 15.6613C10.7752 15.3829 10.9581 15.0231 11.382 14.5474C10.8391 15.1582 10.6584 15.4083 10.4692 15.6613ZM10.9132 15.7148C11.2855 15.2506 11.6812 14.8261 11.9781 14.4154C11.6776 14.7668 11.2977 15.2595 10.9132 15.7148ZM11.5092 15.5828C11.7316 15.3385 12.0168 14.9521 12.4221 14.4689C11.9342 15.0721 11.6851 15.326 11.5092 15.5828ZM11.9532 15.6363C12.2318 15.3053 12.3568 15.1227 12.8659 14.5225C12.4022 15.1018 12.1315 15.3625 11.9532 15.6363ZM12.3972 15.6898C12.6568 15.3764 12.9655 14.8743 13.462 14.3905C13.2904 14.6377 12.8568 15.1731 12.3972 15.6898ZM12.8412 15.7433C13.2194 15.2749 13.5273 14.9662 13.906 14.444C13.3783 15.127 13.0704 15.3915 12.8412 15.7433ZM13.4373 15.6113C13.6888 15.1961 14.0188 14.9024 14.35 14.4975C13.9903 14.9213 13.7625 15.259 13.4373 15.6113ZM13.8813 15.6649C14.0215 15.5048 14.1976 15.1745 14.794 14.551C14.6349 14.7841 14.2471 15.1904 13.8813 15.6649ZM14.3251 15.7184C14.6169 15.3291 14.9244 15.097 15.39 14.419C14.9856 14.9492 14.6126 15.3032 14.3251 15.7184ZM14.9212 15.5864C15.1917 15.2067 15.4876 14.8846 15.834 14.4725C15.5481 14.8361 15.2616 15.199 14.9212 15.5864ZM15.3652 15.6399C15.5714 15.3121 15.8558 14.9725 16.278 14.5261C16.0869 14.7536 15.6895 15.1868 15.3652 15.6399ZM15.8092 15.6934C16.0869 15.3771 16.3437 15.0973 16.8741 14.3941C16.4877 14.8753 16.122 15.2761 15.8092 15.6934ZM16.2532 15.7469C16.6336 15.3968 16.9497 14.8306 17.3181 14.4476C16.7872 15.0764 16.534 15.4229 16.2532 15.7469ZM16.8492 15.6149C17.1024 15.2641 17.363 14.9115 17.7621 14.5011C17.3066 15.067 17.0844 15.3149 16.8492 15.6149ZM17.2932 15.6685C17.5504 15.4642 17.7268 15.1637 18.2059 14.5546C17.7528 15.1301 17.5087 15.3836 17.2932 15.6685ZM17.7372 15.722C18.0321 15.3243 18.5143 14.7704 18.802 14.4226C18.2656 15.0965 17.9712 15.4071 17.7372 15.722ZM18.3333 15.59C18.6184 15.2513 18.959 14.8714 19.246 14.4761C18.8167 14.9554 18.6002 15.2715 18.3333 15.59ZM18.7773 15.6435C18.899 15.4736 19.1234 15.1779 19.69 14.5297C19.427 14.888 19.0826 15.2885 18.7773 15.6435ZM19.2211 15.697C19.5182 15.314 19.8765 14.9048 20.2862 14.3977C19.7256 15.0613 19.4904 15.3425 19.2211 15.697ZM19.6651 15.7505C19.9005 15.3958 20.3577 14.9429 20.73 14.4512C20.5466 14.7154 20.0553 15.247 19.6651 15.7505ZM20.2612 15.6185C20.4578 15.2785 20.7892 15.0483 21.174 14.5047C20.7703 14.9869 20.4991 15.337 20.2612 15.6185ZM20.7052 15.6721C20.9697 15.3397 21.2726 14.9782 21.7701 14.3727C21.3326 14.8565 20.9942 15.2722 20.7052 15.6721ZM21.1492 15.7256C21.3902 15.3116 21.7711 15.0145 22.2141 14.4262C21.9302 14.7853 21.5642 15.2153 21.1492 15.7256ZM21.7452 15.5933C22.0034 15.2499 22.3444 14.8071 22.6581 14.4797C22.2924 14.9792 21.989 15.2655 21.7452 15.5933ZM22.1892 15.6471C22.546 15.301 22.8019 14.8256 23.1021 14.5333C22.7193 14.9305 22.4875 15.3308 22.1892 15.6471ZM22.6332 15.7006C22.8813 15.4467 23.255 14.984 23.698 14.4013C23.1744 15.0769 22.8739 15.343 22.6332 15.7006ZM23.2293 15.5684C23.4847 15.1894 23.9402 14.8177 24.142 14.4548C23.6846 15.0125 23.4523 15.2619 23.2293 15.5684ZM23.6733 15.6219C23.9618 15.2305 24.3127 14.9144 24.586 14.5083C24.2517 14.9014 23.9911 15.2465 23.6733 15.6219ZM24.1173 15.6754C24.4869 15.2681 24.7562 14.9415 25.1822 14.3761C24.7197 14.9477 24.4452 15.2991 24.1173 15.6754ZM24.5611 15.7292C24.8822 15.3428 25.0428 15.1537 25.6262 14.4296C25.2002 14.948 24.8808 15.3123 24.5611 15.7292ZM25.1572 15.5969C25.3819 15.2849 25.5631 15.0668 26.07 14.4833C25.5736 15.0877 25.3204 15.3586 25.1572 15.5969ZM25.6012 15.6505C25.924 15.2204 26.3378 14.7994 26.514 14.5369C26.0498 15.0553 25.8235 15.3281 25.6012 15.6505ZM26.0452 15.704C26.2596 15.3442 26.4782 15.0872 27.1101 14.4046C26.6486 15.0416 26.35 15.3188 26.0452 15.704ZM26.6414 15.572C26.7909 15.3173 27.0801 15.1321 27.5541 14.4581C27.118 14.9345 26.91 15.2509 26.6414 15.572ZM30.1404 11.3026C30.328 11.0965 30.5452 10.8507 30.7488 10.5601C30.6328 10.7161 30.365 11.0257 30.1404 11.3026ZM27.0852 15.6255C27.3672 15.2199 27.6568 14.9595 27.9981 14.5119C27.6192 15.0166 27.384 15.2866 27.0852 15.6255ZM30.432 11.5417C30.6916 11.1711 31.0336 10.8356 31.1928 10.6136C30.9494 10.9282 30.7027 11.2585 30.432 11.5417ZM27.5292 15.679C27.8232 15.2067 28.2489 14.8729 28.594 14.3797C27.976 15.0898 27.7694 15.4301 27.5292 15.679ZM30.5719 11.9665C30.8157 11.6163 31.0425 11.3127 31.3324 11.0384C30.9751 11.4557 30.7593 11.7176 30.5719 11.9665ZM27.9732 15.7325C28.3843 15.3469 28.7378 14.8997 29.038 14.4332C28.7258 14.8282 28.3495 15.2648 27.9732 15.7325ZM30.8637 12.2057C31.0948 12.0176 31.2192 11.72 31.6243 11.2777C31.2916 11.7135 31.048 11.9461 30.8637 12.2057ZM28.5693 15.6005C28.7618 15.3118 29.1321 15.0145 29.482 14.4867C29.2675 14.786 28.8804 15.2235 28.5693 15.6005ZM31.1556 12.445C31.3617 12.1287 31.6099 11.9072 31.9161 11.5167C31.6778 11.7845 31.4323 12.104 31.1556 12.445ZM29.0133 15.6541C29.2096 15.3581 29.5375 15.0267 29.926 14.5405C29.6587 14.8462 29.3212 15.2787 29.0133 15.6541ZM31.4474 12.6841C31.6416 12.4657 31.7882 12.2782 32.208 11.756C31.8511 12.1937 31.638 12.4232 31.4474 12.6841ZM29.4573 15.7076C29.6455 15.4551 29.9448 15.1301 30.5222 14.4082C30.07 14.9141 29.7542 15.2794 29.4573 15.7076ZM31.7392 12.9233C31.9809 12.6725 32.1156 12.4611 32.4998 11.995C32.0412 12.5194 31.9015 12.752 31.7392 12.9233ZM30.0532 15.5756C30.2743 15.2909 30.5397 14.941 30.966 14.4617C30.563 14.9907 30.3223 15.2581 30.0532 15.5756ZM32.0311 13.1624C32.2017 12.9241 32.4148 12.6785 32.7916 12.2343C32.3992 12.6874 32.2545 12.9121 32.0311 13.1624ZM30.4972 15.6291C30.7999 15.265 30.9883 14.9753 31.41 14.5153C31.1961 14.7461 30.8709 15.2357 30.4972 15.6291ZM32.1708 13.5872C32.3985 13.3445 32.6229 13.0697 32.9313 12.6591C32.7602 12.913 32.4523 13.2099 32.1708 13.5872ZM30.9412 15.6826C31.1479 15.4424 31.3776 15.0483 32.0061 14.3833C31.5456 14.9818 31.2648 15.2907 30.9412 15.6826ZM32.4626 13.8265C32.6505 13.5317 32.8012 13.3071 33.2232 12.8984C32.8197 13.3913 32.6551 13.6301 32.4626 13.8265ZM31.3852 15.7361C31.5804 15.3903 31.9015 15.1553 32.4501 14.4368C32.2411 14.7041 31.7736 15.217 31.3852 15.7361ZM32.7544 14.0655C32.9637 13.7581 33.1977 13.5553 33.515 13.1374C33.306 13.3652 33.0542 13.7233 32.7544 14.0655ZM31.9814 15.6041C32.2531 15.1853 32.7148 14.7325 32.8941 14.4903C32.4211 15.0233 32.2164 15.3253 31.9814 15.6041ZM33.0463 14.3048C33.2949 14.0689 33.4279 13.7665 33.8068 13.3767C33.3842 13.8968 33.246 14.0722 33.0463 14.3048ZM30.2832 18.8669C30.8176 17.9787 31.5331 17.3153 32.8692 15.7112C31.4563 17.4759 30.9297 18.217 30.2832 18.8669ZM33.0213 15.5257C33.1634 15.2794 33.3384 15.1405 33.63 14.7831C33.3948 15.0663 33.1934 15.3022 33.0213 15.5257ZM33.934 14.4118C34.1011 14.2126 34.247 14.0115 34.3905 13.855C34.27 14.0009 34.0898 14.2042 33.934 14.4118ZM30.4228 19.2917C31.4095 18.5516 31.9303 17.5373 33.4653 15.5792C32.5507 16.6462 31.4649 17.9081 30.4228 19.2917ZM34.5302 14.2798C34.5768 14.2227 34.618 14.1958 34.6824 14.0941C34.6192 14.1723 34.5705 14.2234 34.5302 14.2798ZM31.0188 19.1595C31.8976 17.6674 33.06 16.7189 33.9093 15.6327C32.2836 17.4608 31.728 18.3814 31.0188 19.1595ZM34.5177 14.8901C34.5986 14.7545 34.7167 14.6516 34.822 14.5189C34.6624 14.719 34.5864 14.798 34.5177 14.8901ZM33.7447 16.4288C33.9609 16.0971 34.3682 15.6848 34.8096 15.1294C34.5775 15.4184 34.1769 15.9032 33.7447 16.4288Z" stroke="black" stroke-width="0.528" stroke-linecap="round"/>
<path id="Vector_3" d="M7.32009 14.2791C7.20465 14.5073 6.71121 14.6026 6.72009 14.8791C6.88641 15.1971 7.18761 15.4793 7.32009 15.4791M7.32009 14.2791C7.31433 14.6545 7.33641 15.1213 7.32009 15.4791M7.32009 14.2791C20.0545 14.3677 27.0822 14.1541 34.4401 14.2791C34.4708 14.5935 34.4962 15.0341 34.4401 15.4791C28.3995 15.2482 17.941 15.5449 7.32009 15.4791M7.32009 14.2791C7.31865 14.6941 7.30569 15.116 7.32009 15.4791M34.8644 15.3034C35.0941 14.8561 35.2119 14.8683 34.8644 14.4548C33.8763 13.2065 32.457 12.2605 31.046 10.6364C30.9478 10.5543 30.4369 10.53 30.1974 10.6364C29.8117 10.7561 30.0298 11.4639 30.1974 11.485C30.9675 12.2513 31.6551 12.8084 33.5914 14.8791C32.36 15.7153 31.6995 16.6604 30.1974 18.2732C30.0272 18.338 29.7418 18.7837 30.1974 19.1218C30.2461 19.2008 31.0074 19.2238 31.046 19.1218C32.703 17.5078 33.8818 15.8895 34.8644 15.3034Z" stroke="black" stroke-linecap="round"/>
</g>
<g id="Group_2">
<path id="Vector_4" d="M34.5293 27.1009C34.6395 27.2115 34.7288 27.3481 34.8336 27.4721C34.7456 27.3617 34.6762 27.2677 34.5293 27.1009ZM34.5293 27.1009C34.3481 26.893 34.2485 26.7313 34.0731 26.5441C34.3311 26.8508 34.434 26.9552 34.5293 27.1009ZM8.70485 26.5438C9.07541 27.073 9.33917 27.2861 9.61781 27.6577C9.27053 27.2295 8.90381 26.797 8.70485 26.5438ZM8.70485 26.5438C8.51453 26.2589 8.27189 25.9385 7.94429 25.6157C8.29709 26.0261 8.47613 26.2736 8.70485 26.5438ZM35.1255 27.2329C34.8886 26.9446 34.704 26.6713 34.5171 26.4903C34.7403 26.7886 34.9618 27.026 35.1255 27.2329ZM34.5418 27.7112C34.118 27.26 33.7812 26.7817 33.4769 26.4118C34.0133 27.0464 34.2488 27.3509 34.5418 27.7112ZM33.9456 27.5792C33.7008 27.205 33.5045 26.9293 33.0329 26.4653C33.5657 27.0963 33.7172 27.314 33.9456 27.5792ZM33.5016 27.6327C33.2487 27.3349 33.02 27.1887 32.5889 26.5189C32.9057 26.9213 33.1755 27.2535 33.5016 27.6327ZM33.0579 27.6862C32.8196 27.2924 32.5736 27.0721 31.993 26.3869C32.4653 26.9722 32.7747 27.3313 33.0579 27.6862ZM32.6139 27.7397C32.3415 27.386 31.9032 26.9919 31.549 26.4404C32.0156 27.0879 32.3468 27.3824 32.6139 27.7397ZM32.0177 27.6077C31.7228 27.23 31.2917 26.8316 31.105 26.4939C31.3328 26.761 31.68 27.2105 32.0177 27.6077ZM31.5737 27.6613C31.2677 27.3829 31.0848 27.0231 30.661 26.5474C31.2039 27.1582 31.3846 27.4083 31.5737 27.6613ZM31.1297 27.7148C30.7575 27.2506 30.3617 26.8261 30.0648 26.4154C30.3653 26.7668 30.7452 27.2595 31.1297 27.7148ZM30.5338 27.5828C30.3113 27.3385 30.0262 26.9521 29.6208 26.4689C30.1088 27.0721 30.3579 27.326 30.5338 27.5828ZM30.0898 27.6363C29.8112 27.3053 29.6861 27.1227 29.1771 26.5225C29.6408 27.1018 29.9115 27.3625 30.0898 27.6363ZM29.6458 27.6898C29.3861 27.3764 29.0775 26.8743 28.5809 26.3905C28.7525 26.6377 29.1862 27.1731 29.6458 27.6898ZM29.2018 27.7433C28.8236 27.2749 28.5156 26.9662 28.1369 26.444C28.6647 27.127 28.9726 27.3915 29.2018 27.7433ZM28.6056 27.6113C28.3541 27.1961 28.0241 26.9024 27.6929 26.4975C28.0527 26.9213 28.2804 27.259 28.6056 27.6113ZM28.1616 27.6649C28.0215 27.5048 27.8453 27.1745 27.2489 26.551C27.408 26.7841 27.7959 27.1904 28.1616 27.6649ZM27.7179 27.7184C27.426 27.3291 27.1186 27.097 26.653 26.419C27.0574 26.9492 27.4304 27.3032 27.7179 27.7184ZM27.1217 27.5864C26.8512 27.2067 26.5553 26.8846 26.209 26.4725C26.4948 26.8361 26.7814 27.199 27.1217 27.5864ZM26.6777 27.6399C26.4716 27.3121 26.1872 26.9725 25.765 26.5261C25.956 26.7536 26.3535 27.1868 26.6777 27.6399ZM26.2337 27.6934C25.956 27.3771 25.6992 27.0973 25.1688 26.3941C25.5552 26.8753 25.921 27.2761 26.2337 27.6934ZM25.7897 27.7469C25.4093 27.3968 25.0932 26.8306 24.7248 26.4476C25.2557 27.0764 25.5089 27.4229 25.7897 27.7469ZM25.1938 27.6149C24.9406 27.2641 24.68 26.9115 24.2808 26.5011C24.7364 27.067 24.9586 27.3149 25.1938 27.6149ZM24.7498 27.6685C24.4925 27.4642 24.3161 27.1637 23.8371 26.5546C24.2902 27.1301 24.5343 27.3836 24.7498 27.6685ZM24.3058 27.722C24.0108 27.3243 23.5287 26.7704 23.2409 26.4226C23.7773 27.0965 24.0718 27.4071 24.3058 27.722ZM23.7096 27.59C23.4245 27.2513 23.084 26.8714 22.7969 26.4761C23.2263 26.9554 23.4428 27.2715 23.7096 27.59ZM23.2656 27.6435C23.144 27.4736 22.9196 27.1779 22.3529 26.5297C22.616 26.888 22.9604 27.2885 23.2656 27.6435ZM22.8219 27.697C22.5248 27.314 22.1664 26.9048 21.7568 26.3977C22.3174 27.0613 22.5526 27.3425 22.8219 27.697ZM22.3779 27.7505C22.1424 27.3958 21.6852 26.9429 21.313 26.4512C21.4964 26.7154 21.9876 27.247 22.3779 27.7505ZM21.7817 27.6185C21.5852 27.2785 21.2537 27.0483 20.869 26.5047C21.2727 26.9869 21.5439 27.337 21.7817 27.6185ZM21.3377 27.6721C21.0732 27.3397 20.7704 26.9782 20.2728 26.3727C20.7104 26.8565 21.0488 27.2722 21.3377 27.6721ZM20.8937 27.7256C20.6528 27.3116 20.2719 27.0145 19.8288 26.4262C20.1128 26.7853 20.4788 27.2153 20.8937 27.7256ZM20.2978 27.5933C20.0396 27.2499 19.6985 26.8071 19.3848 26.4797C19.7506 26.9792 20.054 27.2655 20.2978 27.5933ZM19.8538 27.6471C19.4969 27.301 19.2411 26.8256 18.9408 26.5333C19.3236 26.9305 19.5555 27.3308 19.8538 27.6471ZM19.4098 27.7006C19.1616 27.4467 18.788 26.984 18.3449 26.4013C18.8686 27.0769 19.1691 27.343 19.4098 27.7006ZM18.8136 27.5684C18.5583 27.1894 18.1028 26.8177 17.9009 26.4548C18.3584 27.0125 18.5907 27.2619 18.8136 27.5684ZM18.3696 27.6219C18.0812 27.2305 17.7303 26.9144 17.4569 26.5083C17.7912 26.9014 18.0519 27.2465 18.3696 27.6219ZM17.9256 27.6754C17.556 27.2681 17.2868 26.9415 16.8608 26.3761C17.3232 26.9477 17.5978 27.2991 17.9256 27.6754ZM17.4819 27.7292C17.1608 27.3428 17.0002 27.1537 16.4168 26.4296C16.8428 26.948 17.1622 27.3123 17.4819 27.7292ZM16.8857 27.5969C16.6611 27.2849 16.4799 27.0668 15.973 26.4833C16.4693 27.0877 16.7225 27.3586 16.8857 27.5969ZM16.4417 27.6505C16.1189 27.2204 15.7052 26.7994 15.529 26.5369C15.9932 27.0553 16.2195 27.3281 16.4417 27.6505ZM15.9977 27.704C15.7834 27.3442 15.5648 27.0872 14.9328 26.4046C15.3944 27.0416 15.6929 27.3188 15.9977 27.704ZM15.4016 27.572C15.252 27.3173 14.9628 27.1321 14.4888 26.4581C14.9249 26.9345 15.133 27.2509 15.4016 27.572ZM11.9026 23.3026C11.7149 23.0965 11.4977 22.8507 11.2942 22.5601C11.4101 22.7161 11.678 23.0257 11.9026 23.3026ZM14.9578 27.6255C14.6758 27.2199 14.3861 26.9595 14.0448 26.5119C14.4238 27.0166 14.659 27.2866 14.9578 27.6255ZM11.611 23.5417C11.3513 23.1711 11.0093 22.8356 10.8502 22.6136C11.0936 22.9282 11.3403 23.2585 11.611 23.5417ZM14.5138 27.679C14.2198 27.2067 13.794 26.8729 13.4489 26.3797C14.0669 27.0898 14.2736 27.4301 14.5138 27.679ZM11.4711 23.9665C11.2272 23.6163 11.0004 23.3127 10.7105 23.0384C11.0679 23.4557 11.2836 23.7176 11.4711 23.9665ZM14.0698 27.7325C13.6587 27.3469 13.3052 26.8997 13.0049 26.4332C13.3172 26.8282 13.6935 27.2648 14.0698 27.7325ZM11.1792 24.2057C10.9481 24.0176 10.8238 23.72 10.4187 23.2777C10.7513 23.7135 10.9949 23.9461 11.1792 24.2057ZM13.4736 27.6005C13.2812 27.3118 12.9108 27.0145 12.5609 26.4867C12.7755 26.786 13.1626 27.2235 13.4736 27.6005ZM10.8874 24.445C10.6812 24.1287 10.4331 23.9072 10.1268 23.5167C10.3652 23.7845 10.6107 24.104 10.8874 24.445ZM13.0296 27.6541C12.8333 27.3581 12.5055 27.0267 12.1169 26.5405C12.3843 26.8462 12.7217 27.2787 13.0296 27.6541ZM10.5956 24.6841C10.4014 24.4657 10.2548 24.2782 9.83501 23.756C10.1919 24.1937 10.405 24.4232 10.5956 24.6841ZM12.5856 27.7076C12.3975 27.4551 12.0982 27.1301 11.5208 26.4082C11.9729 26.9141 12.2888 27.2794 12.5856 27.7076ZM10.3037 24.9233C10.062 24.6725 9.92741 24.4611 9.54317 23.995C10.0018 24.5194 10.1415 24.752 10.3037 24.9233ZM11.9897 27.5756C11.7687 27.2909 11.5032 26.941 11.077 26.4617C11.48 26.9907 11.7207 27.2581 11.9897 27.5756ZM10.0119 25.1624C9.84125 24.9241 9.62813 24.6785 9.25133 24.2343C9.64373 24.6874 9.78845 24.9121 10.0119 25.1624ZM11.5457 27.6291C11.2431 27.265 11.0547 26.9753 10.633 26.5153C10.8468 26.7461 11.172 27.2357 11.5457 27.6291ZM9.87221 25.5872C9.64445 25.3445 9.42005 25.0697 9.11165 24.6591C9.28277 24.913 9.59069 25.2099 9.87221 25.5872ZM11.1017 27.6826C10.8951 27.4424 10.6654 27.0483 10.0368 26.3833C10.4974 26.9818 10.7782 27.2907 11.1017 27.6826ZM9.58037 25.8265C9.39245 25.5317 9.24173 25.3071 8.81981 24.8984C9.22325 25.3913 9.38789 25.6301 9.58037 25.8265ZM10.6577 27.7361C10.4626 27.3903 10.1415 27.1553 9.59285 26.4368C9.80189 26.7041 10.2694 27.217 10.6577 27.7361ZM9.28853 26.0655C9.07925 25.7581 8.84525 25.5553 8.52797 25.1374C8.73701 25.3652 8.98877 25.7233 9.28853 26.0655ZM10.0616 27.6041C9.78989 27.1853 9.32813 26.7325 9.14885 26.4903C9.62189 27.0233 9.82661 27.3253 10.0616 27.6041ZM8.99669 26.3048C8.74805 26.0689 8.61509 25.7665 8.23613 25.3767C8.65877 25.8968 8.79701 26.0722 8.99669 26.3048ZM11.7598 30.8669C11.2253 29.9787 10.5099 29.3153 9.17381 27.7112C10.5867 29.4759 11.1132 30.217 11.7598 30.8669ZM9.02165 27.5257C8.87957 27.2794 8.70461 27.1405 8.41301 26.7831C8.64821 27.0663 8.84957 27.3022 9.02165 27.5257ZM8.10893 26.4118C7.94189 26.2126 7.79597 26.0115 7.65245 25.855C7.77293 26.0009 7.95317 26.2042 8.10893 26.4118ZM11.6201 31.2917C10.6335 30.5516 10.1127 29.5373 8.57765 27.5792C9.49229 28.6462 10.578 29.9081 11.6201 31.2917ZM7.51277 26.2798C7.46621 26.2227 7.42493 26.1958 7.36061 26.0941C7.42373 26.1723 7.47245 26.2234 7.51277 26.2798ZM11.0242 31.1595C10.1453 29.6674 8.98301 28.7189 8.13365 27.6327C9.75941 29.4608 10.315 30.3814 11.0242 31.1595ZM7.52525 26.8901C7.44437 26.7545 7.32629 26.6516 7.22093 26.5189C7.38053 26.719 7.45661 26.798 7.52525 26.8901ZM8.29829 28.4288C8.08205 28.0971 7.67477 27.6848 7.23341 27.1294C7.46549 27.4184 7.86605 27.9032 8.29829 28.4288Z" stroke="black" stroke-width="0.528" stroke-linecap="round"/>
<path id="Vector_5" d="M34.7229 26.2791C34.8383 26.5073 35.3318 26.6026 35.3229 26.8791C35.1566 27.1971 34.8554 27.4793 34.7229 27.4791M34.7229 26.2791C34.7286 26.6545 34.7066 27.1213 34.7229 27.4791M34.7229 26.2791C21.9885 26.3677 14.9608 26.1541 7.60288 26.2791C7.57216 26.5935 7.54672 27.0341 7.60288 27.4791C13.6434 27.2482 24.1019 27.5449 34.7229 27.4791M34.7229 26.2791C34.7243 26.6941 34.7373 27.116 34.7229 27.4791M7.17856 27.3034C6.94888 26.8561 6.83104 26.8683 7.17856 26.4548C8.16664 25.2065 9.586 24.2605 10.997 22.6364C11.0951 22.5543 11.6061 22.53 11.8456 22.6364C12.2313 22.7561 12.0131 23.4639 11.8456 23.485C11.0754 24.2513 10.3878 24.8084 8.45152 26.8791C9.68296 27.7153 10.3434 28.6604 11.8456 30.2732C12.0158 30.338 12.3011 30.7837 11.8456 31.1218C11.7969 31.2008 11.0356 31.2238 10.997 31.1218C9.34 29.5078 8.16112 27.8895 7.17856 27.3034Z" stroke="black" stroke-linecap="round"/>
</g>
</g>
</g>
<defs>
<clipPath id="clip0_2026_789">
<rect width="42" height="42" rx="21" fill="white"/>
</clipPath>
</defs>
</svg>
