<svg width="101" height="103" viewBox="0 0 101 103" fill="none" xmlns="http://www.w3.org/2000/svg">
<path d="M2.00003 3.31936C28.0216 1.7204 53.8301 1.59046 97.7542 2.85014M97.5266 2.88262C97.0125 27.4554 99.1426 57.2419 97.6968 100.215M97.1289 96.6961C69.5272 96.947 43.33 97.64 3.00865 99.396M4.99543 99.8435C3.58372 71.5008 3.48877 42.1943 3.43323 3.31936" stroke="black" stroke-width="4" stroke-linecap="round"/>
<path d="M43.0938 56.75C39.9688 56.75 38.4062 55.9375 38.4062 54.3125C38.4062 53.5 38.75 52.9375 39.4375 52.625C40.1875 52.3125 41.4375 52.0312 43.1875 51.7812C45 51.5312 47.25 51.1562 49.9375 50.6562C52.6875 50.1562 55.5625 49.75 58.5625 49.4375C59.8125 49.4375 60.875 49.6562 61.75 50.0938C63 50.7188 63.625 51.4688 63.625 52.3438C63.625 52.6562 63.4688 53.0625 63.1562 53.5625C62.9062 54.0625 62.2188 54.5 61.0938 54.875L43.0938 56.75Z" fill="black"/>
</svg>
