<svg width="322" height="163" viewBox="0 0 322 163" fill="none" xmlns="http://www.w3.org/2000/svg">
<path d="M2 4.13434C88.0096 1.54577 173.315 1.33542 318.498 3.37472M317.746 3.42731C316.046 43.2083 323.087 91.43 318.308 161M316.431 155.303C225.199 155.709 138.609 156.831 5.3338 159.674M11.9007 160.398C7.2346 114.514 6.92076 67.0693 6.73719 4.13434" stroke="black" stroke-width="4" stroke-linecap="round"/>
<path d="M87 61.625C90.0833 60.5417 94.1667 60 99.25 60C108.542 60 114.896 62.2917 118.312 66.875C119.646 68.625 120.312 70.8542 120.312 73.5625C120.354 73.9375 120.375 74.3125 120.375 74.6875C120.375 78.8542 117.938 83.0833 113.062 87.375C108.604 91.4167 103.104 94.6667 96.5625 97.125C92.2292 98.7917 88.6458 99.625 85.8125 99.625C84.6458 99.625 83.6458 99.4583 82.8125 99.125V60.125H83.6875C84.6458 60.125 85.4167 60.2917 86 60.625C86.5833 60.9167 86.9167 61.25 87 61.625ZM116.125 74.0625C115.75 70.3542 113.688 67.6042 109.938 65.8125C107.146 64.4792 103.646 63.8125 99.4375 63.8125L98.3125 63.875C94.3542 63.9583 90.9375 64.5833 88.0625 65.75V95.5625C90.9792 95.5625 94.625 94.5 99 92.375C106.583 88.625 111.792 84.2708 114.625 79.3125C115.625 77.5625 116.125 75.8125 116.125 74.0625ZM154.312 77.1875C152.562 75.9375 150.312 75.3125 147.562 75.3125C144.979 75.3125 142.583 75.7917 140.375 76.75C136.208 78.5 133.354 80.75 131.812 83.5C131.146 84.75 130.812 86.0833 130.812 87.5C130.812 87.75 130.812 88.4583 130.812 89.625C130.812 90.75 131.021 92.2917 131.438 94.25C131.854 96.1667 132.062 98.125 132.062 100.125C131.188 100.167 130.479 100.271 129.938 100.438C129.396 100.604 128.938 100.688 128.562 100.688C128.188 100.688 127.854 100.521 127.562 100.188C127.312 99.8542 127.021 99.2083 126.688 98.25C126.646 98 126.562 97.2917 126.438 96.125C126.312 94.9583 126.146 93.5417 125.938 91.875C125.771 90.2083 125.562 88.3958 125.312 86.4375C125.104 84.4375 124.896 82.4792 124.688 80.5625C124.229 76.3958 123.875 73.3333 123.625 71.375C123.625 70.375 124.354 69.875 125.812 69.875C126.688 69.875 127.375 70.25 127.875 71C128.375 71.7083 128.771 72.5417 129.062 73.5C129.354 74.4167 129.542 75.3333 129.625 76.25C129.75 77.1667 129.854 77.8125 129.938 78.1875C135.438 73.2708 142.271 70.8125 150.438 70.8125C151.354 70.8125 152.312 70.8333 153.312 70.875C153.562 70.8333 153.875 70.8125 154.25 70.8125C154.625 70.8125 155 71.0625 155.375 71.5625C155.833 72.1458 156.062 72.8542 156.062 73.6875C156.062 75.7708 155.479 76.9375 154.312 77.1875ZM183.5 89.625C180.375 94.5417 176.208 97.5833 171 98.75C169.792 99 168.688 99.125 167.688 99.125C166.729 99.125 165.917 99.125 165.25 99.125C164.625 99.0833 163.917 98.9792 163.125 98.8125C162.333 98.6458 161.604 98.375 160.938 98C159.396 97.125 158.625 95.8958 158.625 94.3125C158.458 93.5625 158.375 92.7292 158.375 91.8125C158.375 90.8542 158.583 89.6042 159 88.0625C159.417 86.5208 160.167 84.8542 161.25 83.0625C162.375 81.2708 163.729 79.625 165.312 78.125C168.604 74.9583 172.167 72.9167 176 72C177.125 71.75 178.146 71.625 179.062 71.625C180.021 71.625 180.875 71.6875 181.625 71.8125C184.042 71.8125 185.667 73.4583 186.5 76.75C187.042 78.8333 187.354 81.75 187.438 85.5C187.562 89.2083 187.667 92.0833 187.75 94.125C187.875 96.125 188.146 97.9583 188.562 99.625H184.875C184.708 98.5 184.583 97.5 184.5 96.625C184.417 95.75 184.333 94.9375 184.25 94.1875C184.042 92.4375 183.792 90.9167 183.5 89.625ZM183.25 79.9375C183.25 77.5208 182.062 76.3125 179.688 76.3125C179.396 76.2708 179.104 76.25 178.812 76.25C175.771 76.25 172.562 77.7083 169.188 80.625C167.604 81.9583 166.25 83.4583 165.125 85.125C163.458 87.5 162.625 89.625 162.625 91.5C162.625 93.9583 164.042 95.4167 166.875 95.875C170.625 95.7917 174.208 94.0833 177.625 90.75C179.083 89.2917 180.292 87.7083 181.25 86C182.583 83.7083 183.25 81.6875 183.25 79.9375ZM215.25 82.75C214.333 85.7917 213.562 88.6042 212.938 91.1875C212.354 93.7708 211.771 95.9167 211.188 97.625C210.271 100.083 209.229 101.312 208.062 101.312C207.438 101.312 206.729 101.021 205.938 100.438C204.021 98.3958 201.312 93.875 197.812 86.875C194.396 80.0417 192.688 75.7708 192.688 74.0625C192.688 73.3125 192.917 72.8542 193.375 72.6875C193.833 72.4792 194.354 72.4583 194.938 72.625C196.354 73.0417 197.354 73.6875 197.938 74.5625C198.229 74.9792 198.583 75.7083 199 76.75L200.562 80.625C202.312 85 204.042 89 205.75 92.625C206.667 91.2083 207.542 89.375 208.375 87.125L210.312 81.75C211.979 77.0417 213.479 74.6458 214.812 74.5625C215.854 73.8958 218.979 77.5833 224.188 85.625C226.396 89.0417 227.771 91.0833 228.312 91.75C228.688 91.75 229.125 90.5 229.625 88C230.167 85.5 230.625 83.3958 231 81.6875C231.417 79.9375 231.917 78.3125 232.5 76.8125C233.875 73.3125 235.458 71.5625 237.25 71.5625C237.833 71.5625 238.229 71.7708 238.438 72.1875C238.688 72.5625 238.812 72.875 238.812 73.125C238.812 73.375 238.812 73.5625 238.812 73.6875C238.312 75.1042 237.792 76.7292 237.25 78.5625C236.708 80.3542 236.125 82.2083 235.5 84.125C234.917 86 234.312 87.875 233.688 89.75C233.104 91.5833 232.521 93.25 231.938 94.75C230.562 98 229.417 99.75 228.5 100C227.792 100.333 226.646 99.5208 225.062 97.5625C224.354 96.6458 223.604 95.5625 222.812 94.3125C222.021 93.0625 221.188 91.7708 220.312 90.4375C218.188 87.1042 216.5 84.5417 215.25 82.75Z" fill="black"/>
</svg>
