<svg width="147" height="162" viewBox="0 0 147 162" fill="none" xmlns="http://www.w3.org/2000/svg">
<path d="M88.308 4.25466C89.0466 3.84453 89.8531 3.52696 91.3034 3.21745M88.3381 4.14832C89.2124 3.82051 90.0007 3.6983 91.2448 3.28352M86.9547 6.67199C88.3941 6.14766 89.4773 5.55271 93.7267 4.40996M86.6239 6.32004C88.7539 5.81147 90.5042 5.24344 93.7085 4.42752M84.458 8.39172C88.3991 7.93067 91.9018 6.84002 95.1043 5.64589M84.6859 8.62104C87.5499 7.75654 90.5228 7.01669 95.187 5.84348M82.8755 10.9155C86.1012 9.74886 90.6285 8.38354 96.1078 7.00437M83.1124 11.1229C86.4574 10.0737 89.3803 9.2473 96.3281 6.94627M81.0493 12.8438C89.1229 11.0943 95.1407 9.15678 98.5837 9.0942M81.2668 13.2331C85.7895 11.55 89.7658 10.959 98.7533 8.74618M79.99 14.8228C85.6754 14.5593 89.5508 12.5437 99.8086 9.73178M80.3584 15.0002C84.9272 14.4738 89.6376 13.1863 99.9685 9.45655M77.9826 18.271C83.1331 17.6207 88.8687 15.2152 102.251 11.7741M77.4191 17.412C85.692 15.5459 93.7482 12.8092 101.331 11.3244M75.8144 19.3869C84.3024 16.6024 94.571 15.0407 104.808 12.4745M76.4419 20.0613C83.9705 17.955 92.1679 15.1506 104.095 11.7521M75.5096 21.8918C85.8398 18.4471 97.0699 15.0494 104.736 13.9798M75.0607 22.0206C81.8557 19.6232 88.8785 17.8708 105.24 13.7961M72.4227 24.4878C82.8409 20.7901 92.7407 19.0332 107.709 14.5159M72.6433 24.5689C86.3158 20.6652 100.493 16.7584 107.088 15.4237M70.2828 26.3688C79.7816 24.4511 87.7129 21.0593 110.138 16.0555M70.5279 26.8327C85.3 23.1365 99.3902 19.4161 109.246 16.6078M69.1686 28.7497C78.6403 26.9194 86.8641 25.0952 110.367 17.872M69.183 28.7205C82.4973 24.7621 95.7344 21.8964 111.228 17.3925M68.0759 30.2014C83.2281 25.6334 98.8334 22.3184 112.282 19.7913M68.2079 31.0897C80.3491 28.1644 91.8948 24.2833 111.624 18.9042M66.4856 33.9252C80.8134 28.5619 97.003 25.7861 113.622 21.0426M66.3452 33.7393C76.056 31.0385 85.8283 27.9021 113.131 20.3733M64.6119 35.3067C84.2308 29.8011 104.075 25.5283 116.356 22.45M63.9942 36.3939C75.0969 32.7649 86.5389 29.7673 116.304 21.0763M62.9046 37.3547C74.1874 34.8193 87.6394 30.9772 117.855 22.7506M62.2414 38.4226C83.8608 31.766 105.604 26.1196 117.73 22.4981M60.7168 39.9107C74.7209 36.3695 91.4426 31.9236 118.721 23.0908M61.2129 40.3872C74.5153 36.7204 86.9183 33.0458 119.03 23.9493M59.7618 42.1849C83.6952 35.0847 107.487 28.1779 121.329 25.9639M59.308 42.3751C81.7939 36.2751 103.78 30.4569 120.823 25.3345M58.1479 44.9781C76.9364 39.2085 95.684 34.5701 122.124 27.0475M57.1457 44.7212C70.4434 40.8794 85.1472 37.1906 122.526 26.6862M55.9278 46.9638C77.5786 41.1712 98.2436 35.1979 124.134 27.0693M55.8532 46.7637C73.9414 41.7573 92.0976 36.8835 124.27 28.127M53.2342 49.1325C73.154 43.5367 90.1145 39.7028 127.203 29.2428M53.7342 49.0723C71.9472 43.9784 89.2604 39.2445 125.884 29.2732M52.4019 50.5826C76.4402 46.4638 99.8226 39.4117 128.389 30.6627M52.8513 51.3007C76.6325 44.6516 100.71 37.8553 127.887 30.9068M50.0807 53.8558C78.761 46.7289 107.19 38.8632 128.14 32.1552M50.611 54.0876C72.3664 48.196 93.9797 41.6838 128.751 31.94M47.963 56.2092C78.5035 48.2753 107.134 39.5745 131.227 32.3782M48.2965 56.3115C74.6867 49.113 99.9837 41.9547 131.658 32.9668M47.226 59.2061C71.0535 51.9472 94.3043 46.351 132.539 34.5302M46.8029 58.4565C66.0705 53.0781 85.3209 47.7242 133.569 34.5839M46.2121 60.4618C76.0221 53.3711 106.368 44.2428 134.399 36.3524M45.4624 60.5793C68.7645 54.3018 91.1494 48.2096 134.428 35.2923M44.1692 62.5298C74.0918 55.0819 105.322 46.2878 137.261 37.8489M43.5386 62.8997C73.5201 54.4946 102.805 46.4245 137.126 37.3538M42.2705 65.6593C77.9875 54.6993 114.106 44.1349 137.759 37.5754M41.9435 65.3953C73.1504 56.838 103.973 47.4735 138.107 38.5418M40.1134 66.9964C79.4716 55.6111 118.943 45.0925 140.116 40.828M40.3631 67.2583C69.333 59.8351 98.4223 51.0055 140.154 39.7501M39.1225 70.2239C75.9206 58.7665 114.562 49.4484 142.43 41.4624M39.1835 69.5963C64.0096 62.7104 89.0945 56.2938 142.199 40.9087M36.563 71.5733C73.2585 62.236 108.386 51.831 144.455 42.4132M36.7649 72.6746C61.5794 64.9385 87.2427 57.9636 143.656 42.007M34.9291 73.1218C60.4081 67.4317 85.7493 59.5316 144.239 44.0188M35.4447 74.0312C62.9229 66.2978 90.7346 58.2597 144.167 44.3002M34.3424 75.7399C74.693 64.9235 115.993 54.6748 142.937 45.5884M33.9573 76.5566C61.1497 68.9233 88.1186 60.711 142.672 45.7742M32.8286 78.0213C54.9114 71.1668 77.5618 65.2208 141.196 49.1963M32.4531 78.6674C64.249 70.1444 97.0226 61.2876 141.419 48.3352M29.8386 80.5701C71.8625 69.9027 115.397 57.5163 139.709 51.5889M29.5847 80.6079C60.7458 72.1312 91.8232 63.475 139.492 49.9906M27.9059 83.9657C51.83 76.2862 76.9631 69.8471 137.122 52.9028M28.5317 83.2365C63.4715 73.4226 98.4026 63.8113 137.543 53.3764M26.7384 84.5496C50.1403 79.0636 74.1706 72.3331 135.778 54.8576M27.2829 85.4771C58.5947 76.5744 90.4959 67.8302 135.756 55.0421M25.299 88.5136C67.7532 75.5736 109.404 65.1321 134.922 57.1386M25.6429 88.1968C49.2281 81.2311 73.9959 74.7633 134.408 57.6087M23.6657 89.6707C47.4523 84.6761 70.5598 76.8207 133.316 58.811M23.214 90.3583C46.116 84.2976 68.3326 77.6893 133.241 59.4214M21.2972 92.0793C51.902 84.567 82.1463 75.8414 130.948 62.8854M21.101 92.3847C63.0777 80.4872 105.131 69.5022 130.333 61.9722M19.5043 93.8322C63.3428 83.0948 107.067 70.8288 128.939 63.4985M20.0809 93.9926C44.6745 87.8556 68.8092 80.9634 128.884 64.2801M18.7522 97.9923C60.5066 84.8529 103.19 73.5794 127.174 65.8309M18.2126 96.7743C61.6525 84.2727 104.625 72.6359 127.715 66.4017M15.502 99.848C44.2533 91.3058 73.9628 83.3331 125.661 67.4716M16.2526 99.3305C55.0963 88.7359 94.418 78.0919 125.75 69.1142M14.7384 102.036C41.1077 94.0843 68.8165 87.7216 123.892 70.8442M14.6612 100.887C57.0641 90.0909 98.4948 78.2616 123.213 71.4887M12.8352 102.553C40.1089 96.3254 67.0661 88.411 122.624 73.0617M13.1358 103.197C42.609 96.0983 72.3132 87.5893 122.434 73.2891M11.6256 106.084C35.9663 99.641 59.2687 92.0953 120.51 75.2304M11.5645 105.613C40.0454 98.2823 68.1238 89.9468 120.164 75.7368M9.78372 108.596C35.7255 101.758 62.4072 93.6615 119.154 78.8049M9.48644 108.275C49.4324 97.2508 89.3875 85.9473 119.567 77.4944M7.3848 110.407C30.6818 104.286 52.3784 98.4591 117.297 79.6171M8.19417 110.333C43.6218 100.043 79.7481 90.5174 117.088 80.1228M5.83894 113.161C38.3532 103.903 68.0598 95.6597 114.916 82.5481M6.67908 112.397C34.1341 104.92 61.0408 96.8804 115.573 82.762M4.30062 115.329C39.9537 104.575 77.2031 94.7789 114.407 85.2865M4.65122 114.623C45.8718 103.244 88.115 91.9164 114.059 84.6021M1.83517 117.373C37.6318 107.112 75.2853 96.5279 112.787 87.3958M2.57736 117.289C23.9766 111.032 46.7694 105.185 112.095 86.3427M2.91218 119.305C38.3704 109.573 73.6293 99.0014 109.941 89.3638M2.75041 118.586C27.3499 111.597 51.8662 106.119 110.138 89.4532M3.9277 120.134C45.0562 108.228 87.1431 97.6826 109.681 91.1512M4.31564 120.603C30.9182 113.229 57.1221 106.193 108.423 91.0181M7.43957 121.959C44.7641 110.833 83.4784 100.258 106.806 93.2883M6.43477 121.166C45.4872 111.223 84.2145 100.059 106.854 93.0016M8.53209 122.168C36.6899 114.967 65.8248 107.929 105.4 96.6377M8.32079 122.387C31.1262 116.665 53.7618 109.999 105.444 96.101M9.90775 124.523C33.0285 118.926 56.3745 112.606 102.343 97.8114M9.83334 124.791C36.9577 116.989 63.9977 109.643 103.294 98.5553M11.6513 125.974C46.4193 115.152 80.9494 106.523 100.8 100.839M11.8298 125.817C45.6124 116.01 77.8716 107.137 101.799 100.657M13.4452 126.444C34.261 120.578 53.7134 115.03 100.416 102.988M13.5816 126.703C44.4221 117.896 75.8836 109.788 100.274 102.644M15.1969 128.263C32.0483 123.084 51.1282 118.224 99.3378 105.02M14.7599 128.335C34.6526 122.409 55.7457 116.748 98.7542 104.942M16.8025 129.856C41.9362 122.781 68.2187 114.669 95.2621 107.719M16.503 130.078C32.9366 124.715 49.6754 119.796 95.9883 107.307M18.7528 130.869C37.5499 125.186 58.289 119.44 94.5734 110.409M18.699 131.015C46.3069 122.898 73.759 115.401 94.7979 108.963M19.3524 132.092C36.5442 128.684 53.0143 122.728 92.5144 111.372M20.3503 132.034C40.8621 126.942 61.404 119.995 93.7559 111.522M21.4572 132.441C49.1335 126.086 76.1194 118.686 91.4596 114.536M21.9729 133.347C37.6353 129.137 53.7967 124.596 91.7963 113.975M23.6435 134.94C38.6329 130.57 53.3734 126.659 89.4927 115.839M23.6541 134.172C48.7323 127.479 72.6319 120.637 88.7554 116.466M26.4147 136.123C38.787 132.632 53.1234 127.726 87.5434 119.117M25.441 136.227C43.2121 130.93 61.1656 125.779 88.5246 118.436M26.6362 138.177C48.2429 130.947 72.0891 124.436 86.2737 121.611M26.6717 137.241C47.341 131.567 68.9165 125.843 86.485 120.523M28.9184 138.335C48.7816 133.16 68.3255 126.978 85.5165 123.137M28.7727 138.553C49.7343 132.698 70.5392 127.375 84.8875 122.859M29.8282 139.479C42.3853 136.474 56.2792 133.022 81.7946 125.646M30.5883 139.354C45.4593 135.498 60.4722 131.778 82.8625 125.603M32.3667 142.202C46.0079 137.73 62.0234 132.669 80.7967 127.447M31.7904 140.901C42.7549 137.961 53.5774 135.194 81.1764 128.02M34.5643 143.348C47.164 138.833 61.4797 134.836 80.104 130.373M34.4458 142.774C50.9295 138.322 67.5427 133.317 79.6633 129.3M34.6536 143.715C48.2394 140.408 59.4677 137.628 78.3708 131.256M35.8045 144.374C46.5823 140.603 58.1526 137.507 78.1943 132.387M37.0818 145.836C49.1407 142.193 61.749 137.078 75.9073 135.01M36.7612 145.385C46.6208 142.528 55.5794 139.943 75.9987 134.304M39.4515 147.374C47.8386 143.999 55.6608 141.202 73.8392 136.99M39.0854 146.552C47.9009 144.137 56.9638 141.034 73.8513 136.752M40.9365 148.714C47.5237 146.86 54.106 144.625 72.6443 137.74M41.2885 147.667C48.3347 145.883 55.2068 143.912 72.7245 138.727M43.1257 149.414C54.4102 145.956 64.388 142.721 71.7685 141.508M42.421 148.739C48.2771 147.409 54.2661 145.464 71.6601 141.351M44.7859 149.617C53.5512 148.06 64.7335 145.144 69.8731 143.299M45.0519 150.052C52.0617 148.288 60.1993 146.085 70.2375 143.54M46.6982 151.513C53.8452 148.856 61.7225 147.498 66.6351 146.172M45.8823 151.352C53.6991 149.341 60.9618 147.471 67.3721 145.745M47.7648 153.874C55.0799 151.529 62.3444 148.585 65.6937 148.552M47.4549 152.792C54.3065 151.198 61.2666 149.584 65.9293 148.303M50.1495 154.437C53.3057 152.588 56.4851 152.408 64.2307 149.894M50.3824 154.071C53.9356 153.01 58.4125 152.069 64.4509 150.429M51.6003 155.441C56.3699 154.789 60.8749 153.488 62.8173 152.539M51.2669 155.589C55.4366 154.6 58.8631 153.217 63.0906 152.107M53.305 156.967C55.2968 156.349 56.5316 155.746 60.5396 154.954M52.9291 156.996C55.3093 156.388 57.3244 155.809 60.6808 154.663M55.3352 157.837C56.3832 157.759 56.9651 157.367 59.1075 156.851M55.2358 158.014C56.2058 157.828 57.1551 157.642 59.2595 156.998" stroke="#E3A9E1" stroke-width="1.28" stroke-linecap="round"/>
<path d="M89.6838 1.27096C105.475 14.0154 121.724 26.0222 143.747 41.7902M144.457 42.1988C110.858 87.0422 77.9613 131.391 56.3927 158.737M56.8072 158.17C41.7469 148.363 27.8637 136.633 3.57396 117.364M2.34948 117.573C34.0374 75.2624 65.162 32.9518 90.0864 1.17867" stroke="#E3A9E1" stroke-linecap="round"/>
</svg>
