<svg width="52" height="24" viewBox="0 0 52 24" fill="none" xmlns="http://www.w3.org/2000/svg">
<path d="M5.64568 1.85236C4.45961 2.02403 3.07295 2.45111 2.33529 3.04958M5.3137 1.75147C4.24314 2.01114 3.49159 2.35187 2.57885 2.82938M7.24846 1.49697C4.31612 2.06045 2.34302 3.82236 1.91629 4.31689M8.1438 2.05313C6.71915 2.67902 4.31025 3.24534 2.70716 4.28688M12.1417 2.07558C8.54827 2.64471 7.07376 3.97321 1.66383 5.29046M10.778 1.96598C8.26154 2.91728 5.55371 3.92467 2.20804 5.04456M12.844 2.68411C8.90737 3.05732 6.27526 4.07471 3.15167 5.45569M13.6603 1.96931C11.2503 2.86371 7.56924 4.64351 1.92334 6.13516M15.0824 1.7699C10.3762 2.69103 6.97411 4.75761 0.575936 7.22841M16.9968 2.17181C12.5456 3.49652 9.52532 4.95729 2.63049 6.86972M20.1815 1.96031C15.6346 3.79738 13.3449 5.13038 2.02293 9.0145M20.0715 1.6545C13.9192 4.23675 7.16842 6.94732 1.8097 8.32732M19.9823 2.35459C16.6607 4.70018 8.96734 6.86717 2.259 8.78139M22.2602 1.99368C16.0923 3.24211 11.1511 5.4202 2.84648 9.54565M23.0397 1.51663C13.4249 5.24892 7.03701 8.24962 2.59425 10.7975M25.6192 1.49686C18.343 5.3883 9.65061 7.61171 2.54971 10.7714M28.6503 2.07273C18.353 4.80299 11.161 6.80059 2.71503 10.735M26.8588 1.5476C17.0644 5.13476 7.11464 8.70206 3.03002 11.1556M30.518 2.35471C24.0726 4.92507 16.3722 6.69871 2.38608 11.7933M29.6298 1.83387C22.0756 5.39629 12.5174 8.36054 1.22646 12.404M34.2909 1.8423C23.5547 5.31137 12.5936 8.46826 3.1985 13.0154M33.582 2.08248C21.6577 5.06918 12.5455 8.78854 1.24746 13.7515M36.0733 1.15545C21.1226 5.48255 8.62751 11.4339 2.54497 15.2546M35.2007 2.18429C23.9743 6.6166 12.5491 10.2094 2.56864 14.8878M38.5116 1.10352C26.0575 6.57173 11.6632 12.1375 1.5827 15.5306M38.0865 1.96709C32.7018 3.95189 24.774 6.90857 2.24644 15.7787M40.1573 2.5305C33.2107 6.3815 27.2488 8.25891 3.47762 17.4015M41.8084 2.14268C25.3416 8.31574 10.1087 13.3142 2.4793 16.7364M44.1834 1.41698C32.0911 8.82416 17.2632 13.9688 2.45111 18.5507M43.9064 2.26541C34.2567 5.84574 20.4748 10.3628 2.95995 17.4257M47.1565 2.39801C37.2941 4.86899 26.9928 9.54372 2.01195 18.63M47.5184 1.66199C36.68 7.03841 23.9686 11.9922 2.51968 18.9833M47.2643 2.50331C31.7639 9.08929 14.5963 15.4101 0.88089 19.9086M49.12 2.52486C36.6188 6.6683 23.0943 11.587 1.88147 19.9523M49.6136 3.85169C31.2027 10.9471 13.6183 17.2798 0.464844 21.2495M49.5205 3.06396C39.4575 8.65842 27.5787 12.7077 1.90646 21.1644M50.0775 4.70809C28.2111 11.7291 9.52232 18.5444 3.10094 21.8549M49.8632 4.22681C36.7418 9.46653 25.7948 13.914 1.20379 22.2748M49.8992 5.05538C37.4014 11.2855 22.1047 17.5225 5.62778 21.72M48.6775 5.43168C43.2129 9.32596 33.6183 11.9916 5.34134 22.0118M51.0249 5.76451C34.8462 10.7446 24.0829 14.7299 8.39794 22.1393M50.1185 6.8041C36.4576 11.5949 24.4242 17.026 7.60628 22.1769M47.6365 8.07511C34.18 12.1145 18.5538 18.7088 10.1748 22.4345M48.6961 7.18179C41.4133 11.5004 33.1742 14.285 9.7212 22.0995M48.9817 7.77291C36.1528 14.03 24.6576 19.437 15.3498 21.9881M48.9563 8.38543C36.0067 13.7098 21.775 18.6176 12.7411 21.83M47.9126 9.54422C37.4739 13.5035 24.2398 18.5748 15.5262 21.4554M49.7381 9.54735C37.3517 13.7001 25.4927 17.9867 15.6626 21.9438M49.4153 10.458C39.1542 15.1847 29.3234 19.3406 19.4283 22.6672M48.5187 10.9866C39.4719 14.6297 28.4401 18.4793 19.9137 22.3166M49.0783 12.1264C43.1042 15.0672 36.066 17.491 20.599 22.3914M49.2939 11.8382C39.915 15.0844 29.9757 18.6636 21.2841 22.251M47.4677 12.3987C45.2888 14.7563 41.5894 15.7223 24.3504 22.2762M48.6849 12.9524C42.3514 14.6888 36.6739 16.5941 24.1641 22.3573M50.2212 14.643C40.6494 15.8828 32.0178 19.8494 27.6912 21.3122M49.2143 14.1016C39.9727 16.7285 32.8026 20.2053 28.3234 22.2818M47.7267 14.464C41.8542 17.6288 36.0486 18.9619 29.2792 22.5968M48.922 14.8304C44.3751 16.6618 40.1616 18.1936 31.1968 22.076M48.5501 15.6585C44.4684 17.2904 38.3964 19.3879 34.5874 22.2511M49.234 16.0253C42.7655 17.7496 38.0095 19.4112 33.1525 22.0263M50.5518 17.5582C45.0845 18.1265 43.5325 19.3936 37.7998 22.4086M49.8981 17.0859C45.7687 17.9842 40.6627 19.5112 36.1078 21.8752M47.4917 17.6958C44.7825 19.3872 43.0037 21.8273 37.8254 22.2956M49.6747 18.2679C45.6316 19.191 42.6654 20.6291 38.0555 22.173M48.1738 19.8788C45.7524 19.4359 46.4291 20.3379 43.6362 21.7437M49.8101 18.9002C46.8092 19.7542 45.6911 20.5624 41.8611 22.0828M49.9937 20.4919C48.783 20.8476 46.2426 21.1075 44.9619 21.7489M49.1633 20.0911C48.4457 20.5951 46.9287 21.3373 45.085 22.1651M49.6059 21.232C49.0521 21.6014 48.3636 21.6652 47.6752 21.8345M49.3095 21.2687C48.7072 21.4303 48.1768 21.558 47.6545 21.8611" stroke="#B20DFF" stroke-width="0.504453"/>
<path d="M0.79906 1.40747C2.5495 8.37204 3.50759 15.4494 0.496826 21.2428M2.56009 2.10209C1.56216 8.17401 2.06997 14.7473 2.40296 21.7528M3.57566 22.3046C11.8545 23.5453 20.0297 23.207 49.6191 22.2851M1.54627 21.8353C15.5078 22.153 29.696 21.5304 49.3353 22.1382M48.384 21.4304C48.0904 15.8642 48.0154 9.02556 50.2313 1.7881M49.25 21.6283C51.4028 17.6433 51.2034 13.5319 47.711 1.60844M47.7802 1.89846C33.6842 2.71157 16.6223 1.65484 1.55392 1.5544M47.9185 2.27975C32.5978 2.37758 15.7612 2.27832 1.88257 1.59689" stroke="black" stroke-width="1.00891"/>
</svg>
