<svg width="24" height="92" viewBox="0 0 24 92" fill="none" xmlns="http://www.w3.org/2000/svg">
<path d="M12.5693 88.8481C14.026 64.8288 12.7833 40.159 13.1803 0.392436M14.0007 91C12.3553 64.938 13.1595 39.5635 12.7395 -2.76288e-06" stroke="black" stroke-width="1.84874"/>
<path d="M22.5714 34.8197C22.3945 34.2267 21.9546 33.5334 21.338 33.1646M22.6753 34.6537C22.4078 34.1185 22.0568 33.7427 21.5649 33.2864M22.9375 35.621C22.357 34.155 20.542 33.1685 20.0325 32.9551M22.3645 36.0686C21.7198 35.3564 21.1364 34.152 20.0634 33.3506M22.3414 38.0674C21.7551 36.2708 20.3866 35.5337 19.0296 32.8289M22.4543 37.3856C21.4743 36.1275 20.4366 34.7737 19.2829 33.101M21.7145 38.4185C21.3301 36.4504 20.282 35.1344 18.8594 33.5728M22.4509 38.8266C21.5295 37.6217 19.6961 35.7814 18.1594 32.9587M22.6563 39.5376C21.7074 37.1847 19.5785 35.4838 17.0332 32.285M22.2423 40.4947C20.8776 38.2693 19.3728 36.7593 17.4027 33.3122M22.4601 42.0869C20.5677 39.8137 19.1945 38.6689 15.1933 33.0085M22.7752 42.0319C20.1151 38.9561 17.3228 35.581 15.9012 32.9019M22.054 41.9873C19.6377 40.3267 17.4054 36.4804 15.4334 33.1265M22.4258 43.1262C21.1397 40.0425 18.896 37.5721 14.6461 33.4202M22.9172 43.5159C19.0724 38.709 15.9812 35.5153 13.3565 33.2941M22.9376 44.8055C18.9288 41.1678 16.6384 36.822 13.3834 33.2718M22.3443 46.321C19.5318 41.1728 17.4739 37.5771 13.421 33.3545M22.8853 45.4253C19.19 40.5285 15.5152 35.5541 12.9877 33.512M22.0539 47.2548C19.406 44.0323 17.5789 40.1825 12.3308 33.19M22.5904 46.8107C18.9206 43.0339 15.867 38.2552 11.7016 32.6103M22.5817 49.141C19.0081 43.7734 15.756 38.2933 11.0718 33.5962M22.3343 48.7866C19.2576 42.825 15.4261 38.2693 10.3135 32.6208M23.2893 50.0322C18.8317 42.5574 12.701 36.3105 8.76508 33.2695M22.2294 49.5959C17.6635 43.9832 13.9624 38.2711 9.14292 33.2813M23.3428 51.2512C17.7097 45.0247 11.9761 37.8282 8.4807 32.7884M22.4532 51.0387C20.4085 48.3465 17.3627 44.383 8.22516 33.1202M21.8728 52.074C17.9057 48.601 15.9717 45.6203 6.55341 33.7357M22.2723 52.8994C15.9131 44.6668 10.764 37.051 7.23861 33.2366M23.0199 54.0868C15.3894 48.0412 10.0897 40.6279 5.36959 33.2225M22.1458 53.9483C18.4576 49.1239 13.8044 42.2336 6.52853 33.4769M22.0093 55.5733C19.4638 50.6425 14.6481 45.4923 5.28794 33.003M22.7675 55.7542C17.229 50.3354 12.1258 43.9804 4.924 33.2568M21.9008 55.6271C15.1163 47.8776 8.60491 39.2946 3.97072 32.4375M21.8786 56.5549C17.6102 50.3049 12.5432 43.5432 3.92571 32.9377M20.5118 56.8017C13.2024 47.597 6.6788 38.8056 2.58943 32.2295M21.3232 56.7552C15.5601 51.7241 11.3888 45.7852 2.67708 32.9502M19.6295 57.0336C12.3968 46.1014 5.37608 36.7578 1.96581 33.5474M20.1253 56.9265C14.7276 50.3664 10.1461 44.8933 1.53324 32.5989M19.2718 56.9445C12.8539 50.6961 6.42884 43.0485 2.10471 34.8107M18.8841 56.3337C14.8724 53.6016 12.1265 48.8047 1.80416 34.6675M18.5413 57.5073C13.4111 49.4186 9.30563 44.0375 1.67284 36.1957M17.4703 57.0541C12.5351 50.2243 6.94031 44.2081 1.63412 35.7999M16.161 55.8132C11.9999 49.0856 5.20677 41.2732 1.36872 37.084M17.0813 56.343C12.6325 52.7019 9.76387 48.5827 1.71383 36.8573M16.4723 56.4858C10.0266 50.0719 4.45656 44.3248 1.82856 39.6713M15.8413 56.4731C10.3565 49.9988 5.30065 42.8836 1.99142 38.3671M14.6476 55.9513C10.569 50.7324 5.34481 44.1159 2.37737 39.7595M14.6444 56.864C10.3664 50.6713 5.9506 44.7423 1.87419 39.8277M13.7062 56.7026C8.83709 51.5724 4.55588 46.6575 1.12905 41.7104M13.1618 56.2543C9.40879 51.7313 5.44316 46.2159 1.49017 41.9531M11.9876 56.5341C8.95807 53.5473 6.4612 50.0285 1.41313 42.2957M12.2845 56.6419C8.94038 51.9528 5.25333 46.9836 1.5577 42.6382M11.707 55.7288C9.27843 54.6395 8.28324 52.7899 1.53179 44.1712M11.1366 56.3374C9.34789 53.1709 7.38517 50.3324 1.44825 44.0781M9.39515 57.1055C8.11797 52.32 4.0317 48.0046 2.52486 45.8414M9.95285 56.602C7.24675 51.9817 3.6651 48.3969 1.52599 46.1575M9.57953 55.8583C6.31925 52.9223 4.946 50.0198 1.20148 46.6354M9.2021 56.4559C7.31548 54.1827 5.73746 52.0761 1.73805 47.5941M8.34896 56.27C6.66793 54.2293 4.50717 51.1936 1.55763 49.2892M7.97117 56.6119C6.19484 53.378 4.48312 51.0002 1.78924 48.5719M6.39207 57.2708C5.80663 54.5373 4.50132 53.7614 1.39544 50.8953M6.87856 56.9439C5.9532 54.8794 4.38011 52.3266 1.94486 50.0494M6.25025 55.7409C4.5079 54.3864 1.99418 53.497 1.51176 50.9081M5.66095 56.8322C4.70998 54.8109 3.22853 53.3279 1.63808 51.0231M4.00146 56.0819C4.45768 54.8713 3.52849 55.2096 2.08029 53.8133M5.00951 56.8999C4.12981 55.3996 3.29724 54.8406 1.73102 52.9258M3.36985 56.9917C3.00343 56.3864 2.73574 55.1163 2.07494 54.476M3.7828 56.5766C3.26357 56.2178 2.49902 55.4594 1.64627 54.5376M2.60745 56.7978C2.22691 56.5209 2.16118 56.1767 1.98685 55.8326M2.56962 56.6496C2.40319 56.3485 2.27167 56.0834 1.95938 55.8222" stroke="#B20DFF" stroke-width="0.462185"/>
<path d="M23.0293 32.3955C15.8548 33.2706 8.56403 33.7496 2.596 32.2444M22.3137 33.2759C16.0588 32.777 9.28729 33.0309 2.07063 33.1974M1.50215 33.7837C0.22404 37.9227 0.572603 42.0099 1.52224 56.8034M1.98558 32.7691C1.65831 39.7492 2.29974 46.8427 1.6736 56.6614M2.40269 56.1859C8.13678 56.039 15.1815 56.0015 22.6372 57.1094M2.19883 56.6188C6.30403 57.6951 10.5393 57.5954 22.8223 55.8494M22.5235 55.884C21.6859 48.8366 22.7745 40.3064 22.8779 32.7729M22.1307 55.9531C22.0299 48.2935 22.1322 39.8759 22.8342 32.9372" stroke="black" stroke-width="0.924371"/>
</svg>
