<svg width="42" height="42" viewBox="0 0 42 42" fill="none" xmlns="http://www.w3.org/2000/svg">
<g id="GlobalRecord">
<g clip-path="url(#clip0_2026_771)">
<g id="circle">
<path id="Vector" d="M22.185 0.443039C25.3634 0.350399 29.0754 2.42085 31.8419 4.36916C34.6083 6.31748 37.3319 9.08295 38.7836 12.1329C40.2352 15.1829 40.7723 19.2451 40.5517 22.6692C40.3311 26.0932 39.291 29.7996 37.4602 32.6773C35.6293 35.555 32.5755 38.4345 29.5667 39.9356C26.5579 41.4367 22.7347 41.9247 19.4072 41.684C16.0797 41.4433 12.3821 40.3746 9.60171 38.4915C6.8213 36.6083 4.16231 33.5202 2.72474 30.3852C1.28717 27.2502 0.761868 23.0977 0.976273 19.6817C1.19068 16.2657 2.13722 12.6808 4.01117 9.88921C5.88511 7.09763 9.0475 4.41763 12.2199 2.9322C15.3924 1.44676 21.0066 1.20566 23.0458 0.976597C25.0851 0.747534 24.4366 1.19005 24.4553 1.55782M20.602 0.536818C23.8506 0.379542 28.3087 1.82013 31.2013 3.66041C34.0938 5.50069 36.3551 8.63126 37.9572 11.5785C39.5593 14.5257 40.8166 17.9986 40.8138 21.3438C40.811 24.6891 39.7537 28.7004 37.9404 31.6501C36.1272 34.5999 32.7873 37.4255 29.9344 39.0423C27.0816 40.6592 24.0637 41.3085 20.8233 41.3513C17.583 41.3941 13.4808 40.9601 10.4923 39.299C7.50377 37.6378 4.42343 34.4744 2.89219 31.3846C1.36096 28.2949 1.27459 24.321 1.30488 20.7603C1.33518 17.1997 1.349 12.8862 3.07395 10.0208C4.79891 7.15537 8.64849 5.20521 11.6546 3.56777C14.6607 1.93032 19.4832 0.69189 21.1106 0.196126C22.7381 -0.299638 21.3678 0.261471 21.4191 0.593181" stroke="black" stroke-width="3.35538"/>
</g>
<g id="Group">
<path id="Vector_2" d="M9.88867 18.1188C11.094 15.9404 12.6717 13.9474 13.2868 12.3212ZM9.88867 18.1188C11.1386 16.0028 12.3698 13.9294 13.2868 12.3212ZM9.89995 18.9598C11.5128 16.2195 13.1731 13.5291 14.026 11.9199ZM9.89995 18.9598C11.003 17.0969 12.0316 15.2964 14.026 11.9199ZM9.78955 20.0079C11.8836 16.993 13.4865 13.4864 14.7652 11.5186ZM9.78955 20.0079C10.9413 18.192 12.1473 16.0865 14.7652 11.5186ZM9.80059 20.8491C11.5128 18.1356 13.0812 15.5331 15.5047 11.1173ZM9.80059 20.8491C11.399 18.0437 12.864 15.5254 15.5047 11.1173ZM9.81163 21.69C12.0566 18.2201 14.2132 14.3292 16.3651 10.5092ZM9.81163 21.69C11.8202 17.8928 14.183 14.2148 16.3651 10.5092ZM9.82267 22.531C11.9577 19.0904 14.3548 15.2873 17.1043 10.1079ZM9.82267 22.531C12.6688 17.8788 15.322 13.0347 17.1043 10.1079ZM9.83395 23.3722C11.4686 20.5419 13.1479 17.9657 17.7223 9.91348ZM9.83395 23.3722C12.1382 19.4096 14.2953 15.6032 17.7223 9.91348ZM9.84499 24.2132C12.6427 19.7739 15.0772 15.4001 18.2188 9.92644ZM9.84499 24.2132C11.5036 21.2996 13.2504 18.2355 18.2188 9.92644ZM10.0987 24.6401C12.1852 21.242 14.0894 17.6837 18.7152 9.93916ZM10.0987 24.6401C13.1632 19.518 16.2962 14.3175 18.7152 9.93916ZM10.3526 25.0671C12.9784 20.9674 15.3501 16.4024 19.2117 9.95212ZM10.3526 25.0671C12.2544 21.7978 14.0757 18.7268 19.2117 9.95212ZM10.6063 25.494C12.4382 21.9704 14.5807 18.5295 19.7083 9.96484ZM10.6063 25.494C12.4476 22.2077 14.2814 19.0546 19.7083 9.96484ZM10.8602 25.921C12.7276 22.3335 14.9304 18.8576 20.3263 9.77068ZM10.8602 25.921C13.5619 21.5451 16.0065 17.0057 20.3263 9.77068ZM11.1139 26.348C14.3779 21.2979 17.326 16.1372 20.8226 9.7834ZM11.1139 26.348C13.8739 21.6351 16.4548 17.0902 20.8226 9.7834ZM11.3676 26.7749C14.645 21.1044 17.7194 15.9555 21.3192 9.79636ZM11.3676 26.7749C14.3436 21.5525 17.29 16.5545 21.3192 9.79636ZM11.7429 26.9948C15.3662 20.9895 18.898 15.02 21.8157 9.80908ZM11.7429 26.9948C15.1668 21.4824 18.322 15.817 21.8157 9.80908ZM11.9966 27.4217C15.82 20.6415 20.1926 13.8209 22.3123 9.82204ZM11.9966 27.4217C15.3496 21.9243 18.5671 16.2051 22.3123 9.82204ZM12.2505 27.8487C15.4274 22.6822 18.5042 16.8917 22.8086 9.83476ZM12.2505 27.8487C15.7572 21.7275 19.3471 15.6161 22.8086 9.83476ZM12.5042 28.2754C16.0089 22.5387 19.6161 16.8015 23.3052 9.84772ZM12.5042 28.2754C15.4408 22.9452 18.6825 17.8424 23.3052 9.84772ZM12.7579 28.7024C17.0947 21.434 21.7341 13.8533 23.9232 9.65332ZM12.7579 28.7024C15.8853 23.2493 19.1517 17.7464 23.9232 9.65332ZM13.0118 29.1293C17.0752 22.5149 21.1245 15.4548 24.2983 9.87316ZM13.0118 29.1293C17.088 22.1244 21.1744 15.2026 24.2983 9.87316ZM13.3869 29.3492C17.5432 22.1847 21.725 15.1248 24.6734 10.0932ZM13.3869 29.3492C15.8277 25.2591 18.0684 21.2285 24.6734 10.0932ZM13.762 29.5692C15.9775 25.6656 18.3535 21.332 25.0485 10.3131ZM13.762 29.5692C17.944 22.6474 21.941 15.9298 25.0485 10.3131ZM14.1372 29.7891C17.4988 23.5373 21.1447 17.808 25.4236 10.5329ZM14.1372 29.7891C18.088 22.928 22.2285 16.1429 25.4236 10.5329ZM14.5123 30.0089C18.6024 23.2918 22.5695 16.5418 25.7988 10.7528ZM14.5123 30.0089C18.5011 23.449 22.2667 16.9462 25.7988 10.7528ZM14.8876 30.2288C18.4094 24.408 21.528 18.846 26.1739 10.9726ZM14.8876 30.2288C18.1977 24.565 21.3074 19.016 26.1739 10.9726ZM15.2628 30.4486C17.7849 25.6265 20.5653 21.4001 26.5492 11.1927ZM15.2628 30.4486C17.8459 26.016 20.5459 21.4325 26.5492 11.1927ZM15.6379 30.6687C19.7812 23.6878 23.9553 16.8099 26.9244 11.4125ZM15.6379 30.6687C18.9871 24.7484 22.6171 18.7536 26.9244 11.4125ZM16.013 30.8885C20.478 23.497 24.4461 16.554 27.2995 11.6324ZM16.013 30.8885C20.3193 23.8268 24.2851 16.8032 27.2995 11.6324ZM16.3881 31.1084C19.174 26.7497 22.007 22.0546 27.6746 11.8522ZM16.3881 31.1084C20.7252 23.886 24.9144 16.5022 27.6746 11.8522ZM16.7632 31.3282C19.5741 26.7317 21.857 22.368 28.0497 12.072ZM16.7632 31.3282C20.8466 24.3665 24.9909 17.2128 28.0497 12.072ZM17.1384 31.548C20.0532 26.4884 23.0827 21.0648 28.4248 12.2919ZM17.1384 31.548C19.7366 27.282 22.1332 22.8466 28.4248 12.2919ZM17.5135 31.7681C19.7875 27.9744 22.2681 23.5738 28.8 12.512ZM17.5135 31.7681C19.7474 27.9557 21.9674 23.946 28.8 12.512ZM17.8888 31.988C21.0777 26.1963 24.5301 20.5863 29.1751 12.7318ZM17.8888 31.988C21.3076 26.0103 24.79 20.0592 29.1751 12.7318ZM18.264 32.2078C20.5821 28.4451 22.8487 24.1136 29.5504 12.9516ZM18.264 32.2078C21.7716 26.31 25.2345 20.5126 29.5504 12.9516ZM18.7603 32.2205C22.4431 25.6882 26.5413 18.9682 29.8041 13.3786ZM18.7603 32.2205C21.6952 27.0068 24.6528 22.0616 29.8041 13.3786ZM19.2568 32.2335C21.8306 28.1415 24.2424 23.5256 30.058 13.8056ZM19.2568 32.2335C22.4973 26.7718 25.7788 21.0888 30.058 13.8056ZM19.7534 32.2462C23.2975 26.3729 26.681 19.9462 30.3117 14.2325ZM19.7534 32.2462C23.0887 26.7956 26.1741 21.27 30.3117 14.2325ZM20.3712 32.052C22.5321 28.0841 24.8606 24.0929 30.5654 14.6595ZM20.3712 32.052C23.8807 26.0312 27.3578 20.0768 30.5654 14.6595ZM20.8677 32.0648C24.9657 25.2584 28.5489 18.5429 30.8193 15.0864ZM20.8677 32.0648C23.3318 27.7234 26.0899 23.2757 30.8193 15.0864ZM21.3643 32.0777C24.49 26.7058 27.7264 21.0248 31.073 15.5134ZM21.3643 32.0777C24.5563 26.3297 27.868 20.7569 31.073 15.5134ZM21.8608 32.0904C24.8037 27.3459 27.629 22.0203 31.3269 15.9401ZM21.8608 32.0904C24.2692 27.8892 26.9061 23.552 31.3269 15.9401ZM22.3574 32.1034C24.2736 28.5471 26.537 25.3426 31.5806 16.3671ZM22.3574 32.1034C25.2516 27.1275 28.2523 21.9466 31.5806 16.3671ZM22.8537 32.1161C24.4147 28.928 26.2514 26.1423 31.8345 16.794ZM22.8537 32.1161C25.4613 27.7896 28.0896 23.3696 31.8345 16.794ZM23.3503 32.1291C25.4169 28.4756 27.5102 24.9113 32.2096 17.0139ZM23.3503 32.1291C25.2168 28.981 27.0468 25.8538 32.2096 17.0139ZM23.8468 32.1418C26.4892 28.153 28.5381 24.1208 32.4633 17.4408ZM23.8468 32.1418C26.2399 28.2029 28.4136 24.2261 32.4633 17.4408ZM24.4646 31.9476C27.3444 27.187 30.3252 22.064 32.4744 18.282ZM24.4646 31.9476C26.1962 28.9116 27.9979 25.8176 32.4744 18.282ZM25.204 31.5464C27.2772 28.1235 29.3042 24.6658 32.4856 19.123ZM25.204 31.5464C27.2083 28.0997 29.1465 24.7587 32.4856 19.123ZM25.9432 31.1451C27.5736 28.4045 29.1652 25.9976 32.4967 19.964ZM25.9432 31.1451C27.7353 28.2917 29.3155 25.4705 32.4967 19.964ZM26.6824 30.7438C28.1258 28.6328 29.6025 26.1977 32.5077 20.8052ZM26.6824 30.7438C28.4402 27.6281 30.2976 24.6051 32.5077 20.8052ZM27.5431 30.1354C29.3402 26.9981 31.336 23.5294 32.5188 21.6461ZM27.5431 30.1354C29.0671 27.5079 30.8004 24.5489 32.5188 21.6461ZM28.2823 29.7341C29.8716 26.9816 31.3677 24.4114 32.5298 22.4873ZM28.2823 29.7341C29.1972 28.1012 30.1029 26.4504 32.5298 22.4873ZM29.0215 29.3328C29.6611 28.0224 30.6686 27.0425 32.5408 23.3283ZM29.0215 29.3328C29.7619 28.0095 30.6067 26.6712 32.5408 23.3283Z" stroke="#EF5858" stroke-width="1.181" stroke-linecap="round"/>
<path id="Vector_3" d="M23.8235 9.67329C25.6708 9.97425 27.7108 11.2875 29.1395 12.5967C30.5683 13.9059 31.8398 15.6999 32.3959 17.5287C32.9519 19.3578 32.9786 21.6826 32.4765 23.5702C31.9744 25.4581 30.7646 27.4669 29.3829 28.855C28.0012 30.243 26.0918 31.3803 24.1859 31.8987C22.2798 32.4174 19.8578 32.4346 17.9474 31.9662C16.037 31.4974 14.1294 30.4189 12.723 29.0874C11.3164 27.7556 10.0449 25.8234 9.50825 23.9766C8.97161 22.1298 9.01193 19.8553 9.50297 18.0063C9.99377 16.1574 11.1131 14.2455 12.4535 12.8828C13.7939 11.5198 15.6009 10.3347 17.5454 9.82905C19.4898 9.32361 22.9962 9.80649 24.1209 9.84921C25.2455 9.89169 24.3539 9.92745 24.2932 10.0849" stroke="#EF5858" stroke-linecap="round"/>
</g>
</g>
</g>
<defs>
<clipPath id="clip0_2026_771">
<rect width="42" height="42" rx="21" fill="white"/>
</clipPath>
</defs>
</svg>
