<svg width="42" height="42" viewBox="0 0 42 42" fill="none" xmlns="http://www.w3.org/2000/svg">
<g id="GlobalPause">
<g clip-path="url(#clip0_2026_731)">
<g id="circle">
<path id="Vector" d="M22.185 41.557C25.3634 41.6496 29.0754 39.5792 31.8419 37.6308C34.6083 35.6825 37.3319 32.9171 38.7836 29.8671C40.2352 26.8171 40.7723 22.7549 40.5517 19.3308C40.3311 15.9068 39.291 12.2004 37.4602 9.3227C35.6293 6.44496 32.5755 3.56553 29.5667 2.06441C26.5579 0.563286 22.7347 0.0752927 19.4072 0.315978C16.0797 0.556662 12.3821 1.62538 9.60171 3.50852C6.8213 5.39165 4.16231 8.47982 2.72474 11.6148C1.28717 14.7498 0.761868 18.9023 0.976273 22.3183C1.19068 25.7343 2.13722 29.3192 4.01117 32.1108C5.88511 34.9024 9.0475 37.5824 12.2199 39.0678C15.3924 40.5532 21.0066 40.7943 23.0458 41.0234C25.0851 41.2525 24.4366 40.81 24.4553 40.4422M20.602 41.4632C23.8506 41.6205 28.3087 40.1799 31.2013 38.3396C34.0938 36.4993 36.3551 33.3687 37.9572 30.4215C39.5593 27.4743 40.8166 24.0014 40.8138 20.6562C40.811 17.3109 39.7537 13.2996 37.9404 10.3499C36.1272 7.40014 32.7873 4.57454 29.9344 2.95767C27.0816 1.34081 24.0637 0.691458 20.8233 0.648688C17.583 0.605917 13.4808 1.03994 10.4923 2.70105C7.50377 4.36216 4.42343 7.52558 2.89219 10.6154C1.36096 13.7051 1.27459 17.679 1.30488 21.2397C1.33518 24.8003 1.349 29.1138 3.07395 31.9792C4.79891 34.8446 8.6485 36.7948 11.6546 38.4322C14.6607 40.0697 19.4832 41.3081 21.1106 41.8039C22.7381 42.2996 21.3678 41.7385 21.4191 41.4068" stroke="black" stroke-width="3.08275"/>
<g id="block1">
<path id="Vector_2" d="M12.6168 29.9056C12.7491 30.4424 12.8206 30.8359 12.9328 31.1172L12.6168 29.9056ZM12.6292 30.0097C12.7325 30.4002 12.8393 30.7609 12.9286 31.1283L12.6292 30.0097ZM12.6141 28.9019C12.8492 29.6607 12.9513 30.321 13.2052 31.0988L12.6141 28.9019ZM12.668 28.9436C12.8501 29.7262 13.0727 30.5196 13.2373 31.2874L12.668 28.9436ZM12.6732 27.5271C12.949 29.094 13.2691 30.4977 13.5073 31.2602L12.6732 27.5271ZM12.6673 27.6733C12.8955 28.6159 13.0992 29.5489 13.4961 31.1693L12.6673 27.6733ZM12.6672 26.5484C13.1117 28.1884 13.4355 29.6166 13.8351 31.3215L12.6672 26.5484ZM12.6822 26.5246C12.9859 27.7376 13.2754 28.9267 13.8155 31.2919L12.6822 26.5246ZM12.6411 25.1292C12.9826 26.5345 13.3232 28.0658 14.1189 31.1891L12.6411 25.1292ZM12.6622 25.2363C13.1064 27.1824 13.574 28.9955 14.0921 31.0958L12.6622 25.2363ZM12.6343 23.9361C13.1888 26.2633 13.6034 28.2469 14.366 31.1612L12.6343 23.9361ZM12.6355 23.9913C13.266 26.6824 13.874 29.1471 14.4378 31.3276L12.6355 23.9913ZM12.7121 22.7938C13.4345 26.0474 14.2249 29.5013 14.6671 31.2842L12.7121 22.7938ZM12.6434 22.9226C13.3787 25.8715 14.0653 28.6619 14.6821 31.1641L12.6434 22.9226ZM12.6643 21.5797C13.5069 25.391 14.52 29.1933 15.0394 31.146L12.6643 21.5797ZM12.6574 21.7647C13.3135 24.3603 13.9744 27.0573 14.9858 31.2698L12.6574 21.7647ZM12.6296 20.4793C13.3902 23.3675 14.1491 26.527 15.3084 31.0181L12.6296 20.4793ZM12.6511 20.6842C13.4315 23.7828 14.2603 27.0812 15.2585 31.1388L12.6511 20.6842ZM12.6786 19.2612C13.7341 23.8937 14.8307 28.1383 15.6263 31.2608L12.6786 19.2612ZM12.6618 19.4291C13.3044 22.2173 14.0099 24.9082 15.5917 31.3113L12.6618 19.4291ZM12.6318 18.1492C13.2904 20.8385 14.0502 23.7211 15.8254 31.2045L12.6318 18.1492ZM12.6573 18.1011C13.7299 22.5958 14.8726 27.1459 15.8418 31.182L12.6573 18.1011ZM12.6759 16.9612C14.0097 22.6528 15.3462 28.001 16.2284 31.1385L12.6759 16.9612ZM12.6692 16.9883C13.8997 22.19 15.2036 27.2085 16.1802 31.2684L12.6692 16.9883ZM12.6018 15.999C14.0562 21.3354 15.3755 27.1329 16.4009 31.0041L12.6018 15.999ZM12.6172 15.8203C13.8801 21.0358 15.1748 26.0578 16.4589 31.2833L12.6172 15.8203ZM12.6217 14.7983C13.7219 18.9339 14.7376 23.0439 16.7792 31.0952L12.6217 14.7983ZM12.6851 14.762C13.7094 18.9906 14.7224 23.2002 16.7708 31.1983L12.6851 14.762ZM12.6681 13.5019C14.0072 19.0619 15.4369 24.8194 17.029 31.2993L12.6681 13.5019ZM12.6266 13.4305C14.2068 19.595 15.7437 25.8699 17.0444 31.1567L12.6266 13.4305ZM12.6623 12.1848C13.7621 16.5792 14.8362 21.0929 17.3182 31.1826L12.6623 12.1848ZM12.6144 12.2162C13.997 17.7692 15.3758 23.247 17.3402 31.224L12.6144 12.2162ZM12.734 11.72C14.0591 16.7739 15.3505 21.834 17.6506 31.0999L12.734 11.72ZM12.7914 11.5702C14.3806 18.1333 16.0262 24.6925 17.6099 31.1478L12.7914 11.5702ZM13.0017 11.3507C14.208 16.1176 15.3859 20.6486 17.9801 31.2728L13.0017 11.3507ZM13.0382 11.5168C14.1303 15.8798 15.2964 20.4272 17.9219 31.2913L13.0382 11.5168ZM13.2671 11.4831C14.532 16.7393 15.8509 21.7006 18.2059 31.3066L13.2671 11.4831ZM13.3112 11.5115C15.0071 18.4374 16.7334 25.3478 18.2103 31.2004L13.3112 11.5115ZM13.6326 11.4077C15.1829 17.817 16.6691 23.9257 18.1968 30.1369L13.6326 11.4077ZM13.6144 11.5915C14.605 15.3971 15.595 19.4319 18.2272 29.9323L13.6144 11.5915ZM13.898 11.617C14.8981 15.0319 15.7648 18.8391 18.1374 28.8549L13.898 11.617ZM13.8901 11.4665C15.3374 17.268 16.7253 22.9346 18.167 28.7387L13.8901 11.4665ZM14.1877 11.3657C15.2393 15.9635 16.323 20.2291 18.2145 27.4554L14.1877 11.3657ZM14.231 11.6177C15.0972 15.0328 15.9496 18.6061 18.1965 27.594L14.231 11.6177ZM14.5039 11.6132C15.5028 15.5169 16.4935 19.1885 18.2053 26.5271L14.5039 11.6132ZM14.4748 11.4124C15.4315 15.2354 16.3172 18.8813 18.1917 26.3795L14.4748 11.4124ZM14.7538 11.729C15.5128 14.3561 16.2216 17.2331 18.2636 25.133L14.7538 11.729ZM14.7998 11.5659C15.6536 14.7481 16.4633 18.2608 18.2412 25.2301L14.7998 11.5659ZM15.0865 11.335C16.2679 16.4659 17.4725 21.4651 18.1936 24.0027L15.0865 11.335ZM15.1017 11.4494C15.8913 14.799 16.701 18.1202 18.2305 24.044L15.1017 11.4494ZM15.3443 11.7056C15.9791 14.014 16.6606 16.8417 18.2144 22.6361L15.3443 11.7056ZM15.4158 11.5023C16.3127 15.2803 17.2228 18.89 18.1927 22.798L15.4158 11.5023ZM15.6983 11.3523C16.6294 15.5641 17.6122 19.2895 18.1716 21.7929L15.6983 11.3523ZM15.6737 11.5183C16.1809 13.5136 16.726 15.6866 18.2178 21.8022L15.6737 11.5183ZM16.0053 11.4464C16.5457 13.8115 17.0973 16.0898 18.1647 20.4433L16.0053 11.4464ZM15.9598 11.4899C16.685 14.3639 17.3826 17.2119 18.2229 20.4995L15.9598 11.4899ZM16.2928 11.6386C16.8997 13.7685 17.4837 16.2085 18.2198 19.4461L16.2928 11.6386ZM16.2577 11.4686C16.994 14.4915 17.7147 17.407 18.2056 19.4582L16.2577 11.4686ZM16.5285 11.6593C17.1001 13.5404 17.6478 15.852 18.2322 18.0107L16.5285 11.6593ZM16.575 11.5328C17.1341 13.826 17.6895 16.1809 18.1937 18.0794L16.575 11.5328ZM16.7984 11.5697C17.2812 13.2912 17.7236 15.086 18.243 16.7389L16.7984 11.5697ZM16.8268 11.5387C17.3427 13.5529 17.8734 15.5545 18.181 16.9209L16.8268 11.5387ZM17.1332 11.4742C17.5241 13.1129 17.8409 14.376 18.1586 15.8898L17.1332 11.4742ZM17.1432 11.597C17.521 13.0208 17.8685 14.5804 18.2163 15.7869L17.1432 11.597ZM17.4594 11.5605C17.6878 12.7683 18.022 13.5672 18.1861 14.6795L17.4594 11.5605ZM17.4429 11.4761C17.6216 12.0892 17.7576 12.7891 18.179 14.6252L17.4429 11.4761ZM17.7668 11.5407C17.8832 12.018 18.0004 12.5946 18.2032 13.4603L17.7668 11.5407ZM17.754 11.5297C17.9238 12.2675 18.0942 12.9479 18.2229 13.4982L17.754 11.5297ZM18.0282 11.5151C18.0928 11.7649 18.1555 12.0828 18.2138 12.2216L18.0282 11.5151ZM18.0227 11.5193C18.074 11.6836 18.1272 11.8833 18.2096 12.2404L18.0227 11.5193Z" fill="#DECC00"/>
<g id="Vector_3">
<path d="M12.6508 31.2917C14.8666 31.3256 17.195 31.3355 18.6867 31.1573L12.6508 31.2917ZM12.6607 31.123C14.2731 31.3053 15.879 31.2094 18.7056 31.1685L12.6607 31.123ZM18.661 31.2832C18.6869 24.8138 18.7213 18.3756 18.6637 10.2275L18.661 31.2832ZM18.6725 31.2662C18.6857 24.8126 18.6682 18.2061 18.6547 10.1891L18.6725 31.2662ZM18.6644 10.0956C16.5183 9.88257 14.4737 10.0668 12.6845 9.91143L18.6644 10.0956ZM18.7054 10.0451C16.9343 10.0671 15.1137 10.0959 12.6551 10.0711L18.7054 10.0451ZM12.692 10.2925C12.68 18.4927 12.6699 26.8509 12.6003 31.0444L12.692 10.2925ZM12.6641 10.0574C12.6706 17.5259 12.6538 25.0168 12.6407 31.1098L12.6641 10.0574Z" fill="#DECC00"/>
<path d="M12.6508 31.2917C14.8666 31.3256 17.195 31.3355 18.6867 31.1573M12.6607 31.123C14.2731 31.3053 15.879 31.2094 18.7056 31.1685M18.661 31.2832C18.6869 24.8138 18.7213 18.3756 18.6637 10.2275M18.6725 31.2662C18.6857 24.8126 18.6682 18.2061 18.6547 10.1891M18.6644 10.0956C16.5183 9.88257 14.4737 10.0668 12.6845 9.91143M18.7054 10.0451C16.9343 10.0671 15.1137 10.0959 12.6551 10.0711M12.692 10.2925C12.68 18.4927 12.6699 26.8509 12.6003 31.0444M12.6641 10.0574C12.6706 17.5259 12.6538 25.0168 12.6407 31.1098" stroke="#DECC00"/>
</g>
</g>
<g id="block2">
<path id="Vector_4" d="M23.9425 29.9056C24.0747 30.4424 24.1463 30.8359 24.2585 31.1172L23.9425 29.9056ZM23.9549 30.0097C24.0582 30.4002 24.165 30.7609 24.2542 31.1283L23.9549 30.0097ZM23.9397 28.9019C24.1748 29.6607 24.277 30.321 24.5308 31.0988L23.9397 28.9019ZM23.9937 28.9436C24.1758 29.7262 24.3983 30.5196 24.563 31.2874L23.9937 28.9436ZM23.9989 27.5271C24.2747 29.094 24.5948 30.4977 24.833 31.2602L23.9989 27.5271ZM23.993 27.6733C24.2211 28.6159 24.4249 29.5489 24.8218 31.1693L23.993 27.6733ZM23.9929 26.5484C24.4374 28.1884 24.7611 29.6166 25.1608 31.3215L23.9929 26.5484ZM24.0079 26.5246C24.3116 27.7376 24.6011 28.9267 25.1412 31.2919L24.0079 26.5246ZM23.9668 25.1292C24.3083 26.5345 24.6488 28.0658 25.4446 31.1891L23.9668 25.1292ZM23.9879 25.2363C24.4321 27.1824 24.8997 28.9955 25.4178 31.0958L23.9879 25.2363ZM23.96 23.9361C24.5145 26.2633 24.9291 28.2469 25.6917 31.1612L23.96 23.9361ZM23.9611 23.9913C24.5916 26.6824 25.1996 29.1471 25.7635 31.3276L23.9611 23.9913ZM24.0378 22.7938C24.7602 26.0474 25.5505 29.5013 25.9928 31.2842L24.0378 22.7938ZM23.9691 22.9226C24.7044 25.8715 25.391 28.6619 26.0078 31.1641L23.9691 22.9226ZM23.99 21.5797C24.8326 25.391 25.8457 29.1933 26.3651 31.146L23.99 21.5797ZM23.9831 21.7647C24.6392 24.3603 25.3 27.0573 26.3115 31.2698L23.9831 21.7647ZM23.9552 20.4793C24.7159 23.3675 25.4747 26.527 26.6341 31.0181L23.9552 20.4793ZM23.9767 20.6842C24.7572 23.7828 25.586 27.0812 26.5842 31.1388L23.9767 20.6842ZM24.0042 19.2612C25.0598 23.8937 26.1564 28.1383 26.952 31.2608L24.0042 19.2612ZM23.9874 19.4291C24.6301 22.2173 25.3356 24.9082 26.9174 31.3113L23.9874 19.4291ZM23.9575 18.1492C24.616 20.8385 25.3759 23.7211 27.1511 31.2045L23.9575 18.1492ZM23.983 18.1011C25.0556 22.5958 26.1983 27.1459 27.1675 31.182L23.983 18.1011ZM24.0016 16.9612C25.3353 22.6528 26.6719 28.001 27.5541 31.1385L24.0016 16.9612ZM23.9949 16.9883C25.2254 22.19 26.5292 27.2085 27.5059 31.2684L23.9949 16.9883ZM23.9275 15.999C25.3819 21.3354 26.7011 27.1329 27.7266 31.0041L23.9275 15.999ZM23.9429 15.8203C25.2057 21.0358 26.5005 26.0578 27.7845 31.2833L23.9429 15.8203ZM23.9474 14.7983C25.0476 18.9339 26.0633 23.0439 28.1049 31.0952L23.9474 14.7983ZM24.0108 14.762C25.0351 18.9906 26.0481 23.2002 28.0965 31.1983L24.0108 14.762ZM23.9938 13.5019C25.3329 19.0619 26.7626 24.8194 28.3547 31.2993L23.9938 13.5019ZM23.9523 13.4305C25.5325 19.595 27.0694 25.8699 28.3701 31.1567L23.9523 13.4305ZM23.9879 12.1848C25.0878 16.5792 26.1619 21.0929 28.6439 31.1826L23.9879 12.1848ZM23.9401 12.2162C25.3227 17.7692 26.7015 23.247 28.6658 31.224L23.9401 12.2162ZM24.0597 11.72C25.3847 16.7739 26.6762 21.834 28.9763 31.0999L24.0597 11.72ZM24.1171 11.5702C25.7062 18.1333 27.3519 24.6925 28.9356 31.1478L24.1171 11.5702ZM24.3274 11.3507C25.5336 16.1176 26.7116 20.6486 29.3058 31.2728L24.3274 11.3507ZM24.3639 11.5168C25.4559 15.8798 26.6221 20.4272 29.2476 31.2913L24.3639 11.5168ZM24.5928 11.4831C25.8576 16.7393 27.1765 21.7006 29.5316 31.3066L24.5928 11.4831ZM24.6369 11.5115C26.3328 18.4374 28.059 25.3478 29.536 31.2004L24.6369 11.5115ZM24.9583 11.4077C26.5086 17.817 27.9948 23.9257 29.5225 30.1369L24.9583 11.4077ZM24.9401 11.5915C25.9307 15.3971 26.9207 19.4319 29.5529 29.9323L24.9401 11.5915ZM25.2237 11.617C26.2238 15.0319 27.0905 18.8391 29.4631 28.8549L25.2237 11.617ZM25.2158 11.4665C26.6631 17.268 28.051 22.9346 29.4926 28.7387L25.2158 11.4665ZM25.5134 11.3657C26.565 15.9635 27.6487 20.2291 29.5402 27.4554L25.5134 11.3657ZM25.5567 11.6177C26.4229 15.0328 27.2753 18.6061 29.5221 27.594L25.5567 11.6177ZM25.8296 11.6132C26.8284 15.5169 27.8192 19.1885 29.531 26.5271L25.8296 11.6132ZM25.8005 11.4124C26.7572 15.2354 27.6429 18.8813 29.5174 26.3795L25.8005 11.4124ZM26.0795 11.729C26.8385 14.3561 27.5473 17.2331 29.5893 25.133L26.0795 11.729ZM26.1255 11.5659C26.9793 14.7481 27.789 18.2608 29.5668 25.2301L26.1255 11.5659ZM26.4122 11.335C27.5936 16.4659 28.7981 21.4651 29.5193 24.0027L26.4122 11.335ZM26.4274 11.4494C27.217 14.799 28.0267 18.1202 29.5561 24.044L26.4274 11.4494ZM26.6699 11.7056C27.3047 14.014 27.9863 16.8417 29.5401 22.6361L26.6699 11.7056ZM26.7415 11.5023C27.6384 15.2803 28.5484 18.89 29.5184 22.798L26.7415 11.5023ZM27.0239 11.3523C27.955 15.5641 28.9379 19.2895 29.4972 21.7929L27.0239 11.3523ZM26.9994 11.5183C27.5066 13.5136 28.0517 15.6866 29.5434 21.8022L26.9994 11.5183ZM27.331 11.4464C27.8713 13.8115 28.423 16.0898 29.4904 20.4433L27.331 11.4464ZM27.2854 11.4899C28.0107 14.3639 28.7083 17.2119 29.5485 20.4995L27.2854 11.4899ZM27.6185 11.6386C28.2254 13.7685 28.8094 16.2085 29.5455 19.4461L27.6185 11.6386ZM27.5834 11.4686C28.3197 14.4915 29.0404 17.407 29.5313 19.4582L27.5834 11.4686ZM27.8542 11.6593C28.4258 13.5404 28.9735 15.852 29.5578 18.0107L27.8542 11.6593ZM27.9007 11.5328C28.4598 13.826 29.0152 16.1809 29.5194 18.0794L27.9007 11.5328ZM28.1241 11.5697C28.6069 13.2912 29.0493 15.086 29.5687 16.7389L28.1241 11.5697ZM28.1525 11.5387C28.6684 13.5529 29.1991 15.5545 29.5066 16.9209L28.1525 11.5387ZM28.4589 11.4742C28.8497 13.1129 29.1666 14.376 29.4843 15.8898L28.4589 11.4742ZM28.4689 11.597C28.8467 13.0208 29.1942 14.5804 29.542 15.7869L28.4689 11.597ZM28.7851 11.5605C29.0135 12.7683 29.3476 13.5672 29.5118 14.6795L28.7851 11.5605ZM28.7686 11.4761C28.9473 12.0892 29.0833 12.7891 29.5047 14.6252L28.7686 11.4761ZM29.0925 11.5407C29.2089 12.018 29.326 12.5946 29.5289 13.4603L29.0925 11.5407ZM29.0797 11.5297C29.2495 12.2675 29.4199 12.9479 29.5486 13.4982L29.0797 11.5297ZM29.3539 11.5151C29.4185 11.7649 29.4812 12.0828 29.5395 12.2216L29.3539 11.5151ZM29.3483 11.5193C29.3997 11.6836 29.4529 11.8833 29.5353 12.2404L29.3483 11.5193Z" fill="#DECC00"/>
<path id="Vector_5" d="M23.9724 31.2938C26.0082 31.3249 28.1474 31.334 29.5179 31.1703M23.9815 31.1388C25.4629 31.3063 26.9383 31.2182 29.5352 31.1806M29.4942 31.286C29.5181 25.3422 29.5497 19.4271 29.4968 11.9411M29.5048 31.2703C29.5169 25.3411 29.5009 19.2714 29.4885 11.9058M29.4973 11.8199C27.5256 11.6242 25.6472 11.7935 24.0033 11.6507M29.535 11.7735C27.9078 11.7937 26.2351 11.8202 23.9764 11.7974M24.0103 12.0008C23.9992 19.5347 23.99 27.2138 23.926 31.0666M23.9846 11.7848C23.9906 18.6465 23.9751 25.5287 23.9631 31.1267" stroke="#DECC00" stroke-width="0.918749"/>
</g>
</g>
</g>
</g>
<defs>
<clipPath id="clip0_2026_731">
<rect width="42" height="42" rx="21" transform="matrix(1 0 0 -1 0 42)" fill="white"/>
</clipPath>
</defs>
</svg>
