<svg width="564" height="383" viewBox="0 0 564 383" fill="none" xmlns="http://www.w3.org/2000/svg">
<path d="M61.9625 6.56229C208.365 14.7855 370.545 6.98923 500.037 6.56229M61.9625 6.56229C189.71 3.33242 324.455 -1.49383 500.037 6.56229M61.9625 6.56229C15.7234 12.3352 5.79242 25.2176 2.56254 65.9623M61.9625 6.56229C19.5472 3.64798 1.94998 33.7192 2.56254 65.9623M500.037 6.56229C538.518 5.24435 560.7 30.4894 559.437 65.9623M500.037 6.56229C540.244 11.0915 561.498 24.9577 559.437 65.9623M559.437 65.9623C559.122 129.595 560.607 200.095 559.437 318.412M559.437 65.9623C558.732 124.935 564.189 185.041 559.437 318.412M559.437 318.412C556.356 357.616 538.592 373.172 500.037 377.812M559.437 318.412C561.535 350.897 531.631 376.105 500.037 377.812M500.037 377.812C408.821 376.643 320.093 373.227 61.9625 377.812M500.037 377.812C383.948 380.355 271.979 382.453 61.9625 377.812M61.9625 377.812C18.8047 375.065 8.13129 352.976 2.56254 318.412M61.9625 377.812C17.7652 380.689 11.027 363.519 2.56254 318.412M2.56254 318.412C2.98948 232.542 3.43498 143.331 2.56254 65.9623M2.56254 318.412C10.3959 235.865 8.18698 147.526 2.56254 65.9623" stroke="#1E1E1E" stroke-width="3.7125" stroke-linecap="round"/>
</svg>
