<svg width="104" height="65" viewBox="0 0 104 65" fill="none" xmlns="http://www.w3.org/2000/svg">
<path d="M51.4766 30.7266C51.4766 35.4766 51.2812 38.2578 50.8906 39.0703L49.1797 38.9297C48.3203 37.4453 46.875 35.3594 44.8438 32.6719C44.0469 31.6094 43.25 30.5547 42.4531 29.5078C41.6719 28.4609 40.9531 27.4219 40.2969 26.3906C39.9844 27.7812 39.8281 30.5625 39.8281 34.7344C39.8281 36.3281 39.7969 37.6719 39.7344 38.7656C39.4375 39.0469 39.1094 39.1875 38.75 39.1875C38.4062 39.1875 38.1641 39.1484 38.0234 39.0703C37.8828 39.0078 37.8125 38.8984 37.8125 38.7422C37.8125 38.5703 37.8281 38.3125 37.8594 37.9688C37.9062 37.6094 37.9531 37.0156 38 36.1875C38.0625 35.3594 38.1172 34.4844 38.1641 33.5625C38.2891 31.1562 38.3516 29.0859 38.3516 27.3516C38.3516 25.6016 38.3359 24.1641 38.3047 23.0391C38.6484 22.7266 38.9141 22.5 39.1016 22.3594C39.2891 22.2188 39.5 22.2266 39.7344 22.3828C39.9688 22.5234 40.2656 22.8438 40.625 23.3438C41 23.8281 41.5234 24.5547 42.1953 25.5234C44.4922 28.7891 46.75 31.8516 48.9688 34.7109L49.4141 23.0391C49.5859 22.7266 49.7578 22.5156 49.9297 22.4062C50.1016 22.2812 50.3281 22.2188 50.6094 22.2188C51.1562 22.2188 51.4297 22.7188 51.4297 23.7188L51.4062 24.5859L51.4766 30.7266ZM53.4922 34.5469C53.4922 32.7031 54.2891 31.2188 55.8828 30.0938C57.1484 29.2031 58.6719 28.6641 60.4531 28.4766C60.5469 28.4766 60.7656 28.4766 61.1094 28.4766C61.4531 28.4766 61.9141 28.5781 62.4922 28.7812C63.7734 29.2188 64.6484 29.9922 65.1172 31.1016C65.3047 31.5391 65.3984 31.9141 65.3984 32.2266C65.3984 32.5234 65.3906 32.7344 65.375 32.8594C65.375 34.8125 64.6328 36.3516 63.1484 37.4766C61.7734 38.5078 60.0547 39.0234 57.9922 39.0234C56.5078 39.0234 55.3828 38.6797 54.6172 37.9922C53.8672 37.3047 53.4922 36.1562 53.4922 34.5469ZM55.1094 35.1094C55.1094 36.0781 55.3672 36.7344 55.8828 37.0781C56.2734 37.3281 56.9297 37.4531 57.8516 37.4531C58.7734 37.4531 59.5859 37.3828 60.2891 37.2422C60.9922 37.1016 61.6172 36.8594 62.1641 36.5156C63.3359 35.7656 63.9219 34.6016 63.9219 33.0234C63.9219 32.0859 63.6719 31.3203 63.1719 30.7266C62.625 30.0859 61.9062 29.7656 61.0156 29.7656C60.4062 29.875 59.7891 29.9922 59.1641 30.1172C58.5547 30.2422 57.9766 30.4844 57.4297 30.8438C56.2422 31.6094 55.4688 33.0312 55.1094 35.1094Z" fill="#1E1E1E"/>
<path d="M17.0001 1.9997C39.0401 1.6497 61.0001 3.0197 87.0001 1.9997M17.0001 1.9997C40.2501 2.2197 64.4301 3.0697 87.0001 1.9997M17.0001 1.9997C7.16006 0.169697 0.77006 7.3397 2.00006 16.9997M17.0001 1.9997C5.74006 3.5597 0.19006 6.1897 2.00006 16.9997M87.0001 1.9997C95.0201 0.399697 100.27 5.3297 102 16.9997M87.0001 1.9997C94.9901 0.579697 104.26 8.3297 102 16.9997M102 16.9997C102.2 26.0897 101.82 35.0697 102 46.9997M102 16.9997C101.6 26.8797 101.78 37.6697 102 46.9997M102 46.9997C101.92 55.2097 98.4001 60.9297 87.0001 61.9997M102 46.9997C102.46 57.9697 98.9501 63.2997 87.0001 61.9997M87.0001 61.9997C69.4301 63.9197 49.5901 63.9797 17.0001 61.9997M87.0001 61.9997C72.3901 61.8697 58.6101 62.4597 17.0001 61.9997M17.0001 61.9997C7.61006 62.5397 2.96006 56.2397 2.00006 46.9997M17.0001 61.9997C4.95006 61.6897 0.76006 59.1997 2.00006 46.9997M2.00006 46.9997C1.95006 33.4997 3.21006 23.4497 2.00006 16.9997M2.00006 46.9997C2.06006 36.6997 1.68006 25.1797 2.00006 16.9997" stroke="#1E1E1E" stroke-width="2" stroke-linecap="round"/>
</svg>
