<svg width="101" height="355" viewBox="0 0 101 355" fill="none" xmlns="http://www.w3.org/2000/svg">
<path d="M5.43334 29.9825C7.04316 22.3529 7.74415 15.3461 8.98286 9.15529M5.3855 29.4344C6.39989 24.8255 7.29222 19.4879 8.93668 8.30826M5.17603 49.1093C8.35279 36.0301 10.3981 16.735 11.8446 6.57681M5.77146 51.2082C7.472 38.565 10.1177 24.4082 12.374 9.18021M5.19912 69.9303C9.43315 50.6103 13.2746 23.5176 15.8757 6.19066M5.402 72.6707C8.07734 54.6275 10.4228 38.8577 15.5244 8.12141M6.00238 94.8805C9.61458 72.0292 11.0034 54.2725 19.0987 13.241M5.71373 94.32C8.15486 71.4313 12.0656 54.2476 19.2059 9.18644M5.02593 115.67C9.26821 87.307 12.8672 62.7242 22.2194 6.04741M5.74177 118.068C9.96096 88.1167 14.7772 57.1811 22.155 7.46122M4.414 134.797C8.97296 108.819 14.0119 74.0409 26.3049 13.0604M5.90012 136.865C10.3684 108.832 14.1026 82.8538 26.0295 8.34563M4 157.281C9.16759 123.188 16.9528 92.4391 29.2706 9.03073M4.4041 159.287C11.4207 121.681 18.4224 79.2851 28.8401 14.4555M5.76322 185.576C15.7454 112.039 24.9442 51.1771 32.6601 11.7213M4.77687 181.92C10.5663 141.698 16.7367 107.293 33.1896 6.32145M4.49812 202.591C17.027 132.985 27.7762 57.3617 35.2414 4.77686M5.73848 198.861C16.4497 128.264 27.6492 63.8951 37.3642 8.08404M6.44772 221.345C14.1191 173.711 18.2905 140.708 40.221 13.3344M6.47906 218.399C17.0089 155.73 26.9795 87.5375 40.0198 7.18095M6.71163 247.684C20.7019 152.529 32.7046 73.1253 42.2217 8.75669M6.24319 240.907C16.7532 167.346 28.8467 91.7976 43.6402 9.17398M7.13882 269.258C16.1462 191.262 29.386 127.435 46.8054 6.51453M5.49931 261.28C19.191 187.569 31.4247 107.474 46.172 7.77886M6.11619 284.499C16.6427 229.535 26.0641 169.37 48.9793 11.9144M4.8214 284.113C19.2653 202.467 32.3038 121.6 49.9921 10.8182M6.39824 308.639C16.4002 227.336 31.903 152.161 52.2122 13.4652M5.53395 306.36C16.2221 240.608 26.8278 183.134 54.297 9.884M6.20361 324.571C17.9309 250.505 29.998 170.236 57.6404 13.8825M4.72244 331.74C22.729 224.546 39.6767 118.635 57.7707 8.43905M7.19655 334.704C19.8887 256.129 34.9083 165.677 59.9924 6.7512M6.98213 337.588C19.1234 269.451 31.2136 190.864 60.7215 8.66949M11.744 343.374C26.9762 232.506 43.2724 131.328 65.4998 14.387M10.0649 342.365C31.588 215.347 52.2617 86.2108 64.1456 9.08056M12.252 346.463C26.3132 273.188 37.7023 199.876 66.92 10.2764M13.0915 343.499C29.3712 239.257 46.3815 141.53 67.7315 5.76091M16.5207 339.544C37.0558 222.036 57.0812 105.089 70.5602 12.7116M17.5895 342.409C32.1851 249.035 47.3167 155.593 70.7878 7.58578M21.5513 343.872C37.3164 229.983 54.9568 123.238 75.487 8.18992M21.0714 343.38C41.2651 213.964 60.8567 93.8155 75.5414 4.83291M22.8692 344.657C36.7292 262.8 48.8738 190.496 76.8345 7.15604M24.8089 341.661C35.4278 271.999 47.005 204.161 77.9116 8.43282M28.2166 338.958C40.602 257.481 54.9337 165.185 83.1287 13.9697M27.6871 340.895C47.7769 217.446 66.7385 94.1207 82.1885 7.90965M29.6219 348.674C46.0005 246.338 62.7074 140.465 86.0481 5.41213M30.2833 341.169C46.1622 251.645 60.2019 158.726 85.6985 11.3725M35.6637 339.855C45.283 278.488 58.1682 205.326 87.7074 9.01205M33.4106 342.241C49.7529 250.773 64.0764 157.873 89.1655 7.85982M37.2174 350.125C56.0883 226.29 77.4795 96.7739 91.4499 14.1566M37.9135 345.996C50.2114 260.763 64.5135 173.082 91.3724 7.49859M40.8131 344.719C58.9434 231.403 78.5879 110.028 95.9396 12.5621M42.2959 342.328C58.9533 236.124 75.5348 133.383 95.2205 8.96845M45.0109 344.339C65.4173 225.754 83.9006 111.174 96.6885 27.3915M44.996 340.497C59.0391 248.942 74.1773 157.25 94.9764 30.4932M49.5154 342.016C67.7991 224.11 86.4242 112.17 94.2506 56.9071M48.1843 339.114C66.1662 228.731 85.5269 117.041 95.1842 51.6318M52.7961 336.915C64.6174 259.499 78.3437 176.987 95.5982 80.3501M52.5371 344.209C62.8855 279.678 72.5197 213.783 95.6031 72.7641M55.5555 335.844C68.7129 274.284 78.5169 196.93 94.4684 103.37M55.5572 339.724C63.438 290.26 71.182 236.373 94.3809 94.7061M59.5224 344.713C70.6064 272.734 82.1869 211.006 96.4213 125.243M58.1451 341.935C70.4447 263.541 83.3497 185.246 94.5475 116.106M63.2187 339.307C68.7063 305.862 77.0275 258.103 93.9686 135.034M61.2015 343.505C72.2178 274.253 83.3596 209.424 94.696 140.322M64.5679 349.154C73.5225 305.251 77.7549 258.62 93.1307 161.753M65.9369 343.667C74.3423 290.901 81.9972 243.984 95.0951 161.149M67.5715 337.843C76.7669 284.71 87.2951 229.186 96.0485 180.942M68.1653 344.794C78.9524 282.668 89.0731 222.248 94.0016 186.516M72.5791 347.784C78.794 291.256 85.9657 248.294 93.1224 211.354M71.9853 341.929C80.6315 298.655 88.2765 250.393 93.8812 206.883M77.8423 338.846C81.1378 310.084 86.5479 277.536 95.9 229.721M75.6783 338.634C80.4319 307.749 85.0832 282.674 94.7026 228.806M80.3659 342.378C83.1254 317.782 87.1252 298.805 94.1335 249.845M79.8266 337.8C85.5962 305.332 90.2211 273.369 94.6201 249.533M83.6251 339.668C87.2555 314.133 92.4775 289.313 93.416 270.13M83.4404 339.344C86.6205 319.146 89.4954 300.661 94.3595 270.217M87.0642 338.416C90.5741 321.195 93.3319 299.54 95.7631 288.846M86.3747 341.742C88.7664 330.426 89.9391 318.044 94.7751 286.946M89.4393 340.746C91.2735 332.674 92.875 327.878 95.4333 310.72M90.1123 342.303C91.8969 329.261 94.0247 315.671 95.2997 309.125" stroke="#F6B26B" stroke-opacity="0.87" stroke-width="7.8108" stroke-linecap="round"/>
<path d="M6.49711 3C38.4344 9.03191 68.1935 4.14255 96.7452 5.30425M95.5311 14.3106C94.9598 117.542 97.2655 227.63 95.242 342.963M96.6806 350.259C69.9789 349.506 43.8332 351.906 6.21994 349.519M6.41549 343.27C5.60099 233.508 5.43435 131.093 5.39014 12.083" stroke="#F6B26B" stroke-opacity="0.87" stroke-width="4.6" stroke-linecap="round"/>
<path d="M4.14335 3.14404C27.9883 5.58234 54.7717 7.52276 96.9999 4.37596M94.6601 15.2845C94.1551 110.161 96.3758 210.654 94.9985 342.801M94.0701 344.907C76.9145 354.705 58.164 346.605 4.00562 347.818M6.3641 343.254C3.98521 230.946 6.45252 120.738 6.70248 10.8994" stroke="black" stroke-width="4.6" stroke-linecap="round"/>
</svg>
