<svg width="42" height="42" viewBox="0 0 42 42" fill="none" xmlns="http://www.w3.org/2000/svg">
<g id="Stop">
<g clip-path="url(#clip0_2026_742)">
<g id="circle">
<path id="Vector" d="M22.185 41.5584C25.3634 41.6511 29.0754 39.5806 31.8419 37.6323C34.6083 35.684 37.3319 32.9185 38.7836 29.8685C40.2352 26.8185 40.7723 22.7564 40.5517 19.3323C40.3311 15.9082 39.291 12.2019 37.4602 9.32417C35.6293 6.44643 32.5755 3.567 29.5667 2.06588C26.5579 0.564757 22.7347 0.0767638 19.4072 0.317449C16.0797 0.558133 12.3821 1.62685 9.60171 3.50999C6.8213 5.39312 4.16231 8.48129 2.72474 11.6163C1.28717 14.7512 0.761868 18.9038 0.976273 22.3198C1.19068 25.7358 2.13722 29.3207 4.01117 32.1123C5.88511 34.9038 9.0475 37.5838 12.2199 39.0693C15.3924 40.5547 21.0066 40.7958 23.0458 41.0249C25.0851 41.2539 24.4366 40.8114 24.4553 40.4436M20.602 41.4646C23.8506 41.6219 28.3087 40.1813 31.2013 38.3411C34.0938 36.5008 36.3551 33.3702 37.9572 30.423C39.5593 27.4757 40.8166 24.0029 40.8138 20.6576C40.811 17.3124 39.7537 13.3011 37.9404 10.3514C36.1272 7.40161 32.7873 4.57601 29.9344 2.95915C27.0816 1.34228 24.0637 0.692929 20.8233 0.650159C17.583 0.607388 13.4808 1.04141 10.4923 2.70252C7.50377 4.36363 4.42343 7.52705 2.89219 10.6168C1.36096 13.7066 1.27459 17.6805 1.30488 21.2411C1.33518 24.8018 1.349 29.1152 3.07395 31.9807C4.79891 34.8461 8.6485 36.7963 11.6546 38.4337C14.6607 40.0711 19.4832 41.3096 21.1106 41.8053C22.7381 42.3011 21.3678 41.74 21.4191 41.4083" stroke="black" stroke-width="3.08275"/>
</g>
<g id="Group">
<g id="Vector_2">
<mask id="path-3-outside-1_2026_742" maskUnits="userSpaceOnUse" x="8.56006" y="10.2402" width="24" height="22" fill="black">
<rect fill="white" x="8.56006" y="10.2402" width="24" height="22"/>
<path d="M10.8409 29.267C11.012 29.539 11.2165 29.7214 11.5078 29.9381L10.8409 29.267ZM10.778 29.3064C11.0057 29.5097 11.2354 29.7446 11.4836 29.9669L10.778 29.3064ZM10.7972 28.5634C11.2395 29.1593 11.8388 29.5843 12.1733 30.025L10.7972 28.5634ZM10.7866 28.656C11.2323 29.0734 11.7488 29.5178 12.2005 29.9388L10.7866 28.656ZM10.6515 27.9655C11.4423 28.5581 12.103 29.4382 12.8792 29.8742L10.6515 27.9655ZM10.6894 27.9948C11.4562 28.6706 12.3341 29.4022 12.8583 29.9306L10.6894 27.9948ZM11.0545 27.5868C11.4137 27.8503 12.1661 28.6171 13.3417 29.9544L11.0545 27.5868ZM10.8608 27.4978C11.6225 28.0733 12.2362 28.7314 13.4182 29.9767L10.8608 27.4978ZM10.6585 27.0002C11.9033 28.0063 12.9452 29.1086 14.3439 29.7833L10.6585 27.0002ZM10.8337 26.7475C12.0781 28.0174 13.1845 29.0813 14.1785 30.0012L10.8337 26.7475ZM10.8586 26.1667C12.3128 27.7438 13.6834 28.8154 14.7464 29.8488L10.8586 26.1667ZM10.7864 26.0914C11.9237 27.2244 12.8657 28.1988 14.7567 29.9556L10.7864 26.0914ZM10.6321 25.5751C11.6888 26.4012 12.6356 27.4502 15.5489 29.885L10.6321 25.5751ZM10.7816 25.3927C12.4568 26.9921 13.8922 28.3682 15.5722 29.8265L10.7816 25.3927ZM10.6606 24.9384C12.5269 26.3688 13.6906 27.8914 16.0328 30.0638L10.6606 24.9384ZM10.7 24.8287C12.3929 26.3609 13.9525 27.8122 16.2459 29.8589L10.7 24.8287ZM10.9707 24.126C11.8489 25.3385 13.2567 26.8272 16.8603 29.8284L10.9707 24.126ZM10.8473 24.0096C12.9536 26.4062 15.3889 28.5869 16.9522 29.9654L10.8473 24.0096ZM10.897 23.653C13.3045 25.9493 16.0726 28.3865 17.5837 29.9748L10.897 23.653ZM10.8056 23.4365C12.1381 24.8825 13.8363 26.418 17.4334 29.8817L10.8056 23.4365ZM10.9563 23.1691C12.8593 24.8426 14.8004 26.4422 18.1049 30.1133L10.9563 23.1691ZM10.8279 23.0297C13.4113 25.1964 15.7126 27.7169 18.1445 29.9645L10.8279 23.0297ZM11.1061 22.1566C13.9371 25.0236 16.7031 28.02 18.6449 29.8591L11.1061 22.1566ZM10.9189 22.3908C13.0553 24.2774 15.1738 26.4271 18.8902 29.7972L10.9189 22.3908ZM10.7355 21.7757C14.0093 24.4992 16.8913 27.4054 19.7489 29.6909L10.7355 21.7757ZM10.8425 21.6334C13.2771 23.8092 15.619 26.1823 19.5301 29.8478L10.8425 21.6334ZM10.7974 20.9688C13.1103 22.8084 14.9938 25.1798 20.0393 29.8668L10.7974 20.9688ZM10.8387 20.9652C13.8214 23.7521 16.682 26.6155 20.1243 29.8111L10.8387 20.9652ZM10.7653 20.2906C13.6801 22.6927 16.2178 25.4174 20.9614 30.1387L10.7653 20.2906ZM10.777 20.2898C12.9776 22.5494 15.2576 24.721 20.8789 29.7919L10.777 20.2898ZM10.6508 19.8096C13.3222 22.001 15.8365 24.4224 21.6449 30.0869L10.6508 19.8096ZM10.8771 19.6277C14.6881 23.215 18.3713 26.8973 21.5741 29.9585L10.8771 19.6277ZM10.9342 18.9113C14.077 21.7702 17.0125 24.797 22.3791 29.8217L10.9342 18.9113ZM10.8771 18.8626C15.4021 23.2992 19.7998 27.6262 22.207 29.8963L10.8771 18.8626ZM10.8601 18.3242C15.3829 22.8442 19.7869 27.1404 22.9345 29.8582L10.8601 18.3242ZM10.6222 18.1975C14.4651 21.7862 18.1861 25.5125 23.1217 30.0979L10.6222 18.1975ZM10.7631 17.7336C13.9006 20.7523 16.4713 23.2562 23.4833 29.9066L10.7631 17.7336ZM10.8994 17.6635C13.8598 20.5654 17.0468 23.3938 23.6137 29.9599L10.8994 17.6635ZM10.7098 17.268C13.5944 19.6378 16.6474 22.5468 24.253 29.8733L10.7098 17.268ZM10.9071 17.0167C14.9957 20.953 19.0921 24.917 24.3409 29.9388L10.9071 17.0167ZM10.7929 16.4323C14.2659 19.7088 17.8966 23.485 25.2046 29.953L10.7929 16.4323ZM10.7933 16.4194C14.1999 19.6795 17.5313 22.9814 25.0825 30.1303L10.7933 16.4194ZM10.6659 15.5981C14.0737 18.799 16.885 21.5983 25.7602 29.935L10.6659 15.5981ZM10.7074 15.714C16.4801 21.1373 21.9255 26.4307 25.7727 29.9249L10.7074 15.714ZM10.6397 15.1272C14.0141 18.4627 17.3852 21.4615 26.5973 29.9998L10.6397 15.1272ZM10.8766 15.1913C14.4853 18.5892 18.4301 22.2754 26.3026 30.0041L10.8766 15.1913ZM10.9916 14.244C15.9529 19.1232 20.9857 23.9664 26.8901 29.8517L10.9916 14.244ZM10.8197 14.3722C14.8784 18.3182 18.9646 22.375 27.128 29.9191L10.8197 14.3722ZM10.5601 13.9798C16.2608 18.9583 21.1443 23.9798 27.9291 30.2402L10.5601 13.9798ZM10.8536 13.6978C16.1732 19.0109 21.7323 24.2129 27.7985 29.9472L10.8536 13.6978ZM11.1037 13.1918C17.5126 19.5439 24.0445 25.614 28.4797 29.8735L11.1037 13.1918ZM10.9304 13.3068C15.3507 17.6698 20.0677 22.0975 28.3124 30.0163L10.9304 13.3068ZM10.7595 12.7169C17.7207 18.9869 23.9763 25.2612 28.8401 30.1891L10.7595 12.7169ZM10.7823 12.5023C14.6866 16.2218 18.6747 20.0486 29.0765 29.8915L10.7823 12.5023ZM11.0149 11.9702C14.8721 15.7495 18.7424 19.2941 29.6799 30.2184L11.0149 11.9702ZM10.9649 12.0526C15.3946 16.2101 19.8725 20.598 29.8445 30.0274L10.9649 12.0526ZM11.5793 11.9554C17.2469 17.3935 23.0744 23.2865 30.4292 30.1493L11.5793 11.9554ZM11.6081 11.9825C16.7377 16.7916 21.5727 21.4243 30.4313 29.9952L11.6081 11.9825ZM12.5393 12.2225C18.3025 17.4334 23.816 22.7688 30.9123 29.7674L12.5393 12.2225ZM12.6442 12.2018C16.3018 15.8436 19.9856 19.4606 30.6142 29.7586L12.6442 12.2018ZM13.1151 12.0086C16.9508 15.5208 20.3665 19.3037 30.7052 28.8751L13.1151 12.0086ZM13.2001 12.1512C17.0401 15.7262 20.7317 19.175 30.6344 28.9183L13.2001 12.1512ZM14.0072 12.3991C19.2073 17.2454 24.3111 21.8897 30.5873 28.1249L14.0072 12.3991ZM13.9623 12.2681C20.0535 18.2654 26.216 24.113 30.6958 28.4009L13.9623 12.2681ZM14.5527 12.2743C17.9614 15.8462 21.6848 19.056 30.6351 27.8791L14.5527 12.2743ZM14.504 12.319C21.1333 18.5393 27.4901 24.6578 30.7181 27.7282L14.504 12.319ZM15.3238 12.1543C20.8541 17.7907 26.3955 22.9994 30.8557 27.2006L15.3238 12.1543ZM15.1669 12.2791C20.3672 17.2579 25.5944 22.1717 30.7016 27.2729L15.1669 12.2791ZM16.076 12.1164C20.3288 16.3054 24.2619 20.0645 30.5547 26.5589L16.076 12.1164ZM15.8861 12.0965C18.9721 15.3564 22.3047 18.3194 30.7289 26.4298L15.8861 12.0965ZM16.5106 12.1925C21.2785 16.6745 25.7909 21.4409 30.9713 25.5821L16.5106 12.1925ZM16.5543 12.1985C20.2179 15.7978 23.9492 19.3438 30.7385 25.7165L16.5543 12.1985ZM16.9757 12.2642C21.6656 16.3438 25.4686 20.0966 30.5794 25.2355L16.9757 12.2642ZM17.3129 12.2242C20.4889 15.0372 23.407 18.0514 30.6922 25.2391L17.3129 12.2242ZM18.0723 12.3079C21.3507 15.48 24.9901 18.9943 30.8837 24.63L18.0723 12.3079ZM17.9261 12.281C21.9812 16.0404 26.0554 20.0885 30.6085 24.4656L17.9261 12.281ZM18.6999 12.2501C23.0919 16.6399 28.1547 21.1572 30.5235 23.6525L18.6999 12.2501ZM18.5782 12.1423C22.862 16.2324 27.2379 20.3153 30.6581 23.803L18.5782 12.1423ZM19.1561 12.3214C23.4603 16.3807 27.4227 20.1641 30.8691 23.287L19.1561 12.3214ZM19.1249 12.0802C21.7354 14.591 24.3898 17.1614 30.9505 23.4254L19.1249 12.0802ZM20.0955 12.3158C24.0188 16.373 28.6453 20.3597 30.8864 22.5833L20.0955 12.3158ZM19.9573 12.2945C24.1585 16.3829 28.2387 20.4437 30.8741 22.525L19.9573 12.2945ZM20.7248 12.1951C23.4989 15.0763 26.1891 17.687 31.0021 21.9122L20.7248 12.1951ZM20.6722 12.0926C24.4541 15.9048 28.3966 19.6409 30.865 21.8789L20.6722 12.0926ZM21.331 12.3499C23.3936 14.2942 25.0337 16.2478 30.709 21.361L21.331 12.3499ZM21.3377 12.2071C24.4301 15.3674 27.9473 18.4387 30.8569 21.2002L21.3377 12.2071ZM22.0558 11.9354C23.4692 13.872 25.5118 15.672 30.8881 20.8164L22.0558 11.9354ZM21.8881 12.1049C24.5857 14.7643 27.3699 17.3347 30.7793 20.6189L21.8881 12.1049ZM22.6853 12.3842C25.0409 14.3942 27.4006 17.0232 30.9161 19.9397L22.6853 12.3842ZM22.5776 12.1531C24.8081 14.2433 26.8532 16.2516 30.6925 19.8461L22.5776 12.1531ZM23.041 11.9621C24.8031 13.9178 26.2901 15.4267 30.8525 19.4422L23.041 11.9621ZM23.3403 12.2635C25.5133 14.3021 27.6951 16.2888 30.5799 19.2226L23.3403 12.2635ZM23.7447 12.2537C26.3981 14.5848 29.2162 17.2582 30.7757 18.9864L23.7447 12.2537ZM23.9182 12.2206C25.7362 13.789 27.4455 15.4591 30.7971 18.8981L23.9182 12.2206ZM24.7685 12.0977C26.6079 13.8605 28.4571 15.5575 31.0333 17.9909L24.7685 12.0977ZM24.5614 12.1898C26.8054 14.2234 28.8872 16.2766 30.8355 18.0098L24.5614 12.1898ZM25.3647 12.3187C26.9657 13.991 29.0086 15.6326 30.6344 17.3724L25.3647 12.3187ZM25.2877 12.0547C26.4293 13.301 27.7109 14.4067 30.8849 17.4842L25.2877 12.0547ZM25.8344 12.341C27.2098 13.0166 28.4127 14.5219 30.6562 16.8845L25.8344 12.341ZM25.9633 12.1049C27.6409 13.6882 29.3149 15.4322 30.7198 16.8511L25.9633 12.1049ZM26.5942 11.9926C27.7196 13.0951 28.7626 14.0371 30.9044 16.3078L26.5942 11.9926ZM26.5909 12.2208C27.6929 13.0022 28.5649 14.2135 30.7203 16.2154L26.5909 12.2208ZM27.3951 12.3185C28.3064 13.2737 29.57 14.5548 30.7249 15.6634L27.3951 12.3185ZM27.259 12.1447C28.3359 13.1609 29.5618 14.19 30.7709 15.4853L27.259 12.1447ZM27.9185 12.3077C28.6517 12.9113 29.4404 13.6838 30.5782 14.8462L27.9185 12.3077ZM27.9178 12.065C28.7156 12.985 29.7617 13.8917 30.7429 14.7554L27.9178 12.065ZM28.5577 12.1198C29.0823 12.6482 29.9593 13.3891 30.8365 14.3566L28.5577 12.1198ZM28.6556 12.0979C29.3177 12.8191 30.0896 13.6601 30.9113 14.1994L28.6556 12.0979ZM29.3389 12.0478C29.7771 12.487 30.3298 13.1374 30.7791 13.561L29.3389 12.0478ZM29.2942 12.0773C29.6084 12.5395 30.0853 12.8273 30.7712 13.6318L29.2942 12.0773ZM29.8786 12.1428C30.1268 12.3454 30.4028 12.5549 30.8161 12.9209L29.8786 12.1428ZM29.9343 12.1159C30.1935 12.3821 30.4832 12.6713 30.7666 12.9269L29.9343 12.1159Z"/>
</mask>
<path d="M9.79422 29.9257C9.43046 29.3476 9.60417 28.5842 10.1822 28.2204C10.7602 27.8566 11.5237 28.0303 11.8875 28.6084L9.79422 29.9257ZM12.2459 28.9458C12.7939 29.3534 12.9077 30.1281 12.5001 30.6761C12.0924 31.2241 11.3178 31.3379 10.7698 30.9303L12.2459 28.9458ZM9.95453 30.229C9.44499 29.7742 9.40059 28.9925 9.85537 28.4829C10.3101 27.9734 11.0919 27.929 11.6014 28.3838L9.95453 30.229ZM12.3086 29.0457C12.8174 29.5013 12.8604 30.2831 12.4048 30.7919C11.9492 31.3006 11.1674 31.3437 10.6586 30.8881L12.3086 29.0457ZM9.80419 29.3004C9.39713 28.752 9.51172 27.9774 10.0601 27.5704C10.6085 27.1633 11.3831 27.2779 11.7902 27.8263L9.80419 29.3004ZM13.1583 29.2771C13.5713 29.8211 13.4651 30.5969 12.9211 31.0099C12.3772 31.4229 11.6014 31.3167 11.1884 30.7728L13.1583 29.2771ZM9.94133 29.5586C9.44282 29.0918 9.41714 28.3092 9.88398 27.8107C10.3508 27.3122 11.1334 27.2865 11.6319 27.7534L9.94133 29.5586ZM13.0436 29.0341C13.5432 29.4998 13.5708 30.2823 13.1051 30.7819C12.6395 31.2816 11.857 31.3091 11.3573 30.8435L13.0436 29.0341ZM9.90995 28.9551C9.36339 28.5456 9.25232 27.7705 9.66187 27.224C10.0714 26.6774 10.8465 26.5663 11.393 26.9759L9.90995 28.9551ZM13.4849 28.7961C14.0803 29.1306 14.2918 29.8845 13.9573 30.48C13.6228 31.0754 12.8689 31.2869 12.2734 30.9524L13.4849 28.7961ZM9.87174 28.9225C9.35937 28.4709 9.3101 27.6895 9.76169 27.1771C10.2133 26.6647 10.9947 26.6155 11.5071 27.0671L9.87174 28.9225ZM13.7363 29.0598C14.2173 29.5447 14.2141 30.3277 13.7291 30.8086C13.2442 31.2896 12.4612 31.2864 11.9803 30.8015L13.7363 29.0598ZM10.3231 28.584C9.77235 28.18 9.65336 27.4061 10.0573 26.8554C10.4612 26.3047 11.2351 26.1857 11.7858 26.5896L10.3231 28.584ZM14.2705 29.1379C14.7214 29.6509 14.6711 30.4323 14.1581 30.8832C13.6451 31.3341 12.8638 31.2838 12.4129 30.7708L14.2705 29.1379ZM10.1153 28.4844C9.57039 28.0727 9.46238 27.2972 9.87409 26.7523C10.2858 26.2074 11.0613 26.0994 11.6062 26.5111L10.1153 28.4844ZM14.3152 29.1254C14.7853 29.6208 14.7649 30.4035 14.2695 30.8737C13.7742 31.3438 12.9914 31.3234 12.5213 30.828L14.3152 29.1254ZM9.88115 27.962C9.34996 27.5327 9.26736 26.7541 9.69666 26.2229C10.1259 25.6917 10.9046 25.6091 11.4358 26.0384L9.88115 27.962ZM14.8811 28.6694C15.4963 28.9661 15.7544 29.7054 15.4577 30.3205C15.161 30.9357 14.4218 31.1938 13.8067 30.8971L14.8811 28.6694ZM9.95042 27.6131C9.4724 27.1253 9.48032 26.3423 9.96812 25.8643C10.4559 25.3863 11.2389 25.3942 11.7169 25.882L9.95042 27.6131ZM15.0185 29.0936C15.5197 29.5574 15.55 30.3398 15.0862 30.8411C14.6223 31.3424 13.8399 31.3727 13.3386 30.9088L15.0185 29.0936ZM9.94948 27.005C9.4865 26.5029 9.51822 25.7206 10.0203 25.2576C10.5224 24.7946 11.3048 24.8263 11.7678 25.3284L9.94948 27.005ZM15.6084 28.9621C16.0981 29.4382 16.1091 30.2211 15.633 30.7108C15.1569 31.2005 14.374 31.2115 13.8843 30.7355L15.6084 28.9621ZM9.91361 26.9674C9.42976 26.4854 9.42827 25.7024 9.91028 25.2186C10.3923 24.7347 11.1753 24.7332 11.6591 25.2153L9.91361 26.9674ZM15.5984 29.0496C16.0988 29.5145 16.1275 30.2969 15.6627 30.7973C15.1978 31.2977 14.4154 31.3264 13.915 30.8616L15.5984 29.0496ZM9.87043 26.5494C9.33236 26.1287 9.23716 25.3516 9.65779 24.8135C10.0784 24.2754 10.8556 24.1802 11.3937 24.6008L9.87043 26.5494ZM16.342 28.9361C16.866 29.3741 16.9358 30.154 16.4978 30.6781C16.0599 31.2021 15.28 31.2719 14.7559 30.8339L16.342 28.9361ZM9.92763 26.2872C9.43364 25.8155 9.41551 25.0328 9.88713 24.5388C10.3588 24.0448 11.1415 24.0266 11.6355 24.4983L9.92763 26.2872ZM16.3828 28.8926C16.8986 29.3403 16.9538 30.1213 16.5061 30.6371C16.0584 31.1529 15.2774 31.2081 14.7616 30.7604L16.3828 28.8926ZM9.90834 25.9199C9.36627 25.5044 9.26365 24.7282 9.67912 24.1861C10.0946 23.644 10.8708 23.5414 11.4129 23.9569L9.90834 25.9199ZM16.8738 29.1572C17.3745 29.6216 17.4039 30.4041 16.9394 30.9048C16.475 31.4055 15.6925 31.435 15.1918 30.9705L16.8738 29.1572ZM9.87017 25.7456C9.36379 25.2873 9.3248 24.5053 9.78309 23.9989C10.2414 23.4925 11.0234 23.4535 11.5298 23.9118L9.87017 25.7456ZM17.0693 28.9362C17.5789 29.391 17.6233 30.1727 17.1686 30.6823C16.7138 31.1918 15.9321 31.2363 15.4225 30.7815L17.0693 28.9362ZM9.96916 24.8514C9.56854 24.2982 9.69218 23.5251 10.2453 23.1245C10.7985 22.7238 11.5716 22.8475 11.9722 23.4006L9.96916 24.8514ZM17.6517 28.8782C18.1765 29.3152 18.2476 30.095 17.8105 30.6198C17.3735 31.1446 16.5937 31.2157 16.0689 30.7786L17.6517 28.8782ZM9.91844 24.8259C9.46759 24.3129 9.51798 23.5316 10.031 23.0807C10.544 22.6298 11.3254 22.6802 11.7762 23.1933L9.91844 24.8259ZM17.7701 29.0379C18.2824 29.4896 18.3315 30.2711 17.8798 30.7833C17.428 31.2956 16.6466 31.3447 16.1343 30.893L17.7701 29.0379ZM10.0435 24.5478C9.54927 24.0764 9.53078 23.2936 10.0022 22.7994C10.4736 22.3052 11.2563 22.2867 11.7506 22.7581L10.0435 24.5478ZM18.4796 29.1224C18.9504 29.6173 18.9308 30.4 18.436 30.8708C17.9412 31.3415 17.1584 31.322 16.6877 30.8272L18.4796 29.1224ZM9.89618 24.2745C9.43336 23.7722 9.46532 22.9899 9.96757 22.5271C10.4698 22.0643 11.2522 22.0962 11.715 22.5985L9.89618 24.2745ZM18.2912 28.9909C18.7831 29.4646 18.7979 30.2475 18.3242 30.7394C17.8505 31.2314 17.0676 31.2462 16.5757 30.7725L18.2912 28.9909ZM10.1396 24.0977C9.62678 23.6467 9.57665 22.8653 10.0277 22.3525C10.4787 21.8396 11.2601 21.7895 11.773 22.2405L10.1396 24.0977ZM19.024 29.2859C19.481 29.7935 19.4399 30.5754 18.9323 31.0324C18.4247 31.4893 17.6428 31.4482 17.1858 30.9406L19.024 29.2859ZM10.0332 23.9772C9.50993 23.5383 9.44151 22.7583 9.8804 22.235C10.3193 21.7117 11.0993 21.6433 11.6226 22.0822L10.0332 23.9772ZM18.9839 29.0563C19.4854 29.5199 19.5163 30.3022 19.0527 30.8038C18.5892 31.3054 17.8068 31.3362 17.3052 30.8726L18.9839 29.0563ZM10.2261 23.0254C9.74624 22.5395 9.75119 21.7565 10.2372 21.2766C10.7231 20.7967 11.5061 20.8017 11.986 21.2877L10.2261 23.0254ZM19.4953 28.9613C19.9912 29.4309 20.0124 30.2136 19.5428 30.7095C19.0732 31.2054 18.2904 31.2266 17.7946 30.757L19.4953 28.9613ZM10.1003 23.3177C9.58836 22.8657 9.53983 22.0842 9.99191 21.5722C10.444 21.0603 11.2255 21.0118 11.7374 21.4638L10.1003 23.3177ZM19.7209 28.8811C20.2269 29.3399 20.2651 30.122 19.8063 30.6279C19.3475 31.1338 18.5654 31.1721 18.0595 30.7133L19.7209 28.8811ZM9.94463 22.7264C9.41958 22.2896 9.34803 21.5098 9.78482 20.9848C10.2216 20.4598 11.0013 20.3882 11.5264 20.825L9.94463 22.7264ZM20.5213 28.7251C21.0547 29.1517 21.1413 29.9299 20.7147 30.4633C20.2881 30.9966 19.5099 31.0832 18.9765 30.6566L20.5213 28.7251ZM10.0185 22.5554C9.50924 22.1003 9.46537 21.3185 9.92049 20.8093C10.3756 20.3001 11.1574 20.2562 11.6666 20.7113L10.0185 22.5554ZM20.3757 28.9455C20.874 29.4126 20.8994 30.1952 20.4324 30.6935C19.9653 31.1918 19.1827 31.2172 18.6844 30.7501L20.3757 28.9455ZM10.0276 21.9366C9.49311 21.5115 9.40445 20.7335 9.82959 20.199C10.2547 19.6645 11.0327 19.5758 11.5672 20.001L10.0276 21.9366ZM20.881 28.9608C21.3814 29.4256 21.4102 30.2081 20.9454 30.7084C20.4805 31.2088 19.6981 31.2377 19.1977 30.7728L20.881 28.9608ZM9.99443 21.8688C9.49539 21.4025 9.46883 20.62 9.9351 20.1209C10.4014 19.6219 11.1839 19.5953 11.683 20.0616L9.99443 21.8688ZM20.9656 28.9048C21.4662 29.3695 21.4953 30.1519 21.0306 30.6525C20.5659 31.153 19.7835 31.1821 19.2829 30.7174L20.9656 28.9048ZM9.97878 21.2449C9.45173 20.8105 9.37658 20.0311 9.81094 19.5041C10.2453 18.977 11.0247 18.9019 11.5517 19.3362L9.97878 21.2449ZM21.8338 29.2622C22.3179 29.744 22.3197 30.527 21.8379 31.0111C21.3561 31.4952 20.5731 31.497 20.089 31.0152L21.8338 29.2622ZM9.89109 21.1526C9.41459 20.6633 9.42495 19.8804 9.91424 19.4039C10.4035 18.9274 11.1864 18.9378 11.6629 19.4271L9.89109 21.1526ZM21.7072 28.8737C22.2143 29.3312 22.2546 30.1131 21.7971 30.6202C21.3396 31.1274 20.5576 31.1676 20.0505 30.7101L21.7072 28.8737ZM9.86647 20.7657C9.33843 20.3325 9.26152 19.5533 9.69468 19.0253C10.1278 18.4972 10.907 18.4203 11.4351 18.8535L9.86647 20.7657ZM22.5083 29.2015C22.9973 29.6784 23.0071 30.4613 22.5303 30.9503C22.0534 31.4392 21.2705 31.4491 20.7815 30.9722L22.5083 29.2015ZM10.0295 20.5281C9.53218 20.06 9.50852 19.2774 9.97664 18.7801C10.4448 18.2828 11.2274 18.2591 11.7247 18.7272L10.0295 20.5281ZM22.4286 29.0645C22.9223 29.5364 22.94 30.3192 22.4681 30.8129C21.9962 31.3067 21.2134 31.3243 20.7197 30.8524L22.4286 29.0645ZM10.1021 19.8261C9.59686 19.3665 9.55986 18.5844 10.0194 18.0791C10.479 17.5739 11.2611 17.5369 11.7664 17.9965L10.1021 19.8261ZM23.2243 28.9189C23.7229 29.3857 23.7486 30.1683 23.2818 30.6669C22.815 31.1654 22.0325 31.1912 21.5339 30.7244L23.2243 28.9189ZM10.0113 19.7456C9.52365 19.2674 9.51594 18.4845 9.99409 17.9968C10.4722 17.5091 11.2552 17.5014 11.7429 17.9795L10.0113 19.7456ZM23.0555 28.9966C23.5523 29.4652 23.5753 30.2479 23.1067 30.7448C22.6381 31.2416 21.8554 31.2646 21.3586 30.796L23.0555 28.9966ZM9.9859 19.1989C9.50281 18.7162 9.50256 17.9332 9.98535 17.4501C10.4681 16.967 11.2511 16.9667 11.7342 17.4495L9.9859 19.1989ZM23.7426 28.9221C24.2596 29.3685 24.3168 30.1494 23.8705 30.6663C23.4241 31.1833 22.6432 31.2405 22.1263 30.7942L23.7426 28.9221ZM9.77818 19.1013C9.27902 18.6352 9.25226 17.8526 9.71841 17.3535C10.1846 16.8543 10.9671 16.8276 11.4663 17.2937L9.77818 19.1013ZM23.9634 29.1919C24.4637 29.6568 24.4925 30.4393 24.0276 30.9396C23.5628 31.44 22.7803 31.4688 22.28 31.0039L23.9634 29.1919ZM9.9057 18.6247C9.41353 18.1512 9.39843 17.3684 9.87196 16.8762C10.3455 16.384 11.1283 16.3689 11.6205 16.8425L9.9057 18.6247ZM24.3343 29.0094C24.8299 29.4794 24.8506 30.2621 24.3806 30.7576C23.9106 31.2532 23.1279 31.2739 22.6324 30.8039L24.3343 29.0094ZM10.0338 18.5466C9.54603 18.0686 9.53821 17.2856 10.0163 16.7979C10.4944 16.3101 11.2773 16.3023 11.7651 16.7804L10.0338 18.5466ZM24.488 29.0854C24.971 29.5683 24.971 30.3513 24.4881 30.8343C24.0052 31.3173 23.2222 31.3173 22.7393 30.8344L24.488 29.0854ZM9.92482 18.2235C9.39709 17.79 9.32074 17.0107 9.75429 16.483C10.1878 15.9553 10.9671 15.8789 11.4948 16.3125L9.92482 18.2235ZM25.111 28.9827C25.6028 29.4565 25.6175 30.2393 25.1436 30.7312C24.6698 31.2231 23.887 31.2377 23.3951 30.7639L25.111 28.9827ZM10.0494 17.9076C9.55741 17.4339 9.54254 16.6511 10.0162 16.159C10.4899 15.667 11.2728 15.6522 11.7648 16.1258L10.0494 17.9076ZM25.1958 29.0452C25.6892 29.5174 25.7065 30.3002 25.2344 30.7937C24.7623 31.2872 23.9795 31.3045 23.486 30.8323L25.1958 29.0452ZM9.94425 17.3318C9.44746 16.8632 9.42467 16.0805 9.89334 15.5837C10.362 15.0869 11.1447 15.0641 11.6415 15.5328L9.94425 17.3318ZM26.0242 29.0269C26.5356 29.4796 26.5833 30.2611 26.1307 30.7725C25.678 31.284 24.8965 31.3316 24.385 30.879L26.0242 29.0269ZM9.93831 17.3128C9.44489 16.8406 9.4277 16.0578 9.89992 15.5643C10.3721 15.0709 11.1549 15.0537 11.6484 15.5259L9.93831 17.3128ZM25.9326 29.2323C26.4286 29.7018 26.45 30.4845 25.9805 30.9805C25.5109 31.4765 24.7282 31.4979 24.2323 31.0283L25.9326 29.2323ZM9.81925 16.4994C9.32144 16.0319 9.29694 15.2492 9.76453 14.7514C10.2321 14.2536 11.0147 14.2291 11.5125 14.6967L9.81925 16.4994ZM26.6069 29.0336C27.1047 29.5012 27.1292 30.2838 26.6616 30.7816C26.194 31.2794 25.4114 31.3039 24.9136 30.8363L26.6069 29.0336ZM9.86069 16.6153C9.36292 16.1476 9.3385 15.365 9.80613 14.8673C10.2738 14.3695 11.0564 14.3451 11.5541 14.8127L9.86069 16.6153ZM26.6041 29.0094C27.1097 29.4686 27.1473 30.2507 26.6881 30.7563C26.2289 31.2619 25.4469 31.2995 24.9413 30.8403L26.6041 29.0094ZM9.77039 16.0067C9.28466 15.5265 9.28012 14.7436 9.76025 14.2578C10.2404 13.7721 11.0234 13.7676 11.5091 14.2477L9.77039 16.0067ZM27.438 29.0928C27.9389 29.557 27.9686 30.3395 27.5043 30.8404C27.0401 31.3413 26.2576 31.371 25.7567 30.9067L27.438 29.0928ZM10.0289 16.0916C9.53163 15.6234 9.50809 14.8408 9.97629 14.3435C10.4445 13.8463 11.2271 13.8227 11.7244 14.2909L10.0289 16.0916ZM27.169 29.1216C27.6563 29.6001 27.6635 30.383 27.1851 30.8704C26.7066 31.3578 25.9236 31.365 25.4363 30.8865L27.169 29.1216ZM10.1245 15.1257C9.63752 14.6468 9.63099 13.8638 10.1099 13.3769C10.5888 12.8899 11.3717 12.8834 11.8587 13.3623L10.1245 15.1257ZM27.7631 28.9758C28.2469 29.458 28.2481 30.241 27.766 30.7247C27.2838 31.2084 26.5009 31.2097 26.0171 30.7275L27.7631 28.9758ZM9.95769 15.2588C9.46801 14.7827 9.457 13.9998 9.9331 13.5101C10.4092 13.0204 11.1921 13.0094 11.6818 13.4855L9.95769 15.2588ZM27.9673 29.0109C28.4689 29.4745 28.4997 30.2568 28.0362 30.7584C27.5726 31.26 26.7903 31.2909 26.2887 30.8273L27.9673 29.0109ZM9.74661 14.9112C9.2322 14.4619 9.17937 13.6807 9.62862 13.1663C10.0779 12.6519 10.8591 12.5991 11.3735 13.0483L9.74661 14.9112ZM28.7677 29.3314C29.2696 29.7945 29.3011 30.5769 28.8379 31.0788C28.3748 31.5808 27.5924 31.6122 27.0905 31.1491L28.7677 29.3314ZM9.97968 14.5727C9.49645 14.0901 9.49597 13.3071 9.97861 12.8239C10.4613 12.3406 11.2442 12.3401 11.7275 12.8228L9.97968 14.5727ZM28.648 29.0485C29.1444 29.5177 29.1664 30.3004 28.6972 30.7967C28.228 31.293 27.4454 31.315 26.949 30.8459L28.648 29.0485ZM10.2331 14.0702C9.74805 13.5894 9.74456 12.8064 10.2253 12.3213C10.7061 11.8362 11.4891 11.8327 11.9742 12.3135L10.2331 14.0702ZM29.3362 28.9816C29.8288 29.4547 29.8447 30.2375 29.3716 30.7301C28.8985 31.2227 28.1157 31.2385 27.6231 30.7654L29.3362 28.9816ZM10.0617 14.1869C9.57559 13.7071 9.57048 12.9242 10.0503 12.4381C10.53 11.952 11.313 11.9469 11.7991 12.4267L10.0617 14.1869ZM29.169 29.1244C29.6616 29.5975 29.6774 30.3804 29.2043 30.8729C28.7312 31.3655 27.9483 31.3813 27.4558 30.9082L29.169 29.1244ZM9.93187 13.6357C9.4244 13.1786 9.38355 12.3967 9.84064 11.8892C10.2977 11.3818 11.0797 11.3409 11.5871 11.798L9.93187 13.6357ZM29.7203 29.3204C30.2 29.8065 30.1949 30.5895 29.7088 31.0693C29.2227 31.549 28.4398 31.5439 27.96 31.0578L29.7203 29.3204ZM9.92931 13.3977C9.43481 12.9266 9.41584 12.1438 9.88693 11.6493C10.358 11.1548 11.1408 11.1359 11.6353 11.6069L9.92931 13.3977ZM29.9265 28.9933C30.4226 29.4627 30.4442 30.2454 29.9748 30.7415C29.5054 31.2376 28.7227 31.2592 28.2266 30.7897L29.9265 28.9933ZM10.1494 12.8536C9.66156 12.3756 9.65356 11.5926 10.1315 11.1048C10.6095 10.6169 11.3925 10.6089 11.8803 11.0869L10.1494 12.8536ZM30.5538 29.3434C31.037 29.8261 31.0375 30.6091 30.5549 31.0923C30.0722 31.5755 29.2892 31.576 28.806 31.0934L30.5538 29.3434ZM10.1186 12.9542C9.62065 12.4869 9.59585 11.7043 10.0632 11.2063C10.5306 10.7083 11.3132 10.6835 11.8112 11.1509L10.1186 12.9542ZM30.6942 29.1288C31.1904 29.5981 31.2123 30.3807 30.7431 30.877C30.2738 31.3732 29.4911 31.3951 28.9949 30.9259L30.6942 29.1288ZM10.7232 12.8477C10.2303 12.3748 10.2142 11.592 10.687 11.0992C11.1599 10.6064 11.9427 10.5902 12.4355 11.063L10.7232 12.8477ZM31.2728 29.2451C31.7722 29.7111 31.7993 30.4936 31.3333 30.9929C30.8674 31.4923 30.0849 31.5194 29.5855 31.0534L31.2728 29.2451ZM10.7623 12.8846C10.2641 12.4175 10.2389 11.6349 10.706 11.1367C11.1731 10.6384 11.9557 10.6132 12.4539 11.0803L10.7623 12.8846ZM31.2912 29.1064C31.7821 29.5813 31.795 30.3642 31.3201 30.8551C30.8452 31.3459 30.0623 31.3588 29.5715 30.8839L31.2912 29.1064ZM11.71 13.1398C11.2034 12.6817 11.164 11.8997 11.6221 11.3931C12.0801 10.8865 12.8621 10.8471 13.3687 11.3052L11.71 13.1398ZM31.7807 28.887C32.2669 29.3665 32.2723 30.1495 31.7928 30.6358C31.3132 31.1221 30.5302 31.1275 30.0439 30.6479L31.7807 28.887ZM11.7717 13.0782C11.2877 12.5963 11.286 11.8133 11.7679 11.3293C12.2498 10.8453 13.0328 10.8436 13.5168 11.3255L11.7717 13.0782ZM31.4747 28.8704C31.9652 29.3457 31.9776 30.1286 31.5024 30.6191C31.0271 31.1096 30.2442 31.1219 29.7537 30.6467L31.4747 28.8704ZM12.28 12.9207C11.7763 12.4595 11.7418 11.6772 12.203 11.1735C12.6643 10.6698 13.4465 10.6354 13.9502 11.0966L12.28 12.9207ZM31.5453 27.9677C32.0465 28.4316 32.0766 29.2141 31.6126 29.7152C31.1487 30.2164 30.3662 30.2466 29.8651 29.7826L31.5453 27.9677ZM12.3574 13.0563C11.8575 12.5909 11.8296 11.8084 12.295 11.3085C12.7603 10.8087 13.5428 10.7807 14.0427 11.2461L12.3574 13.0563ZM31.5017 28.0368C31.9885 28.5158 31.9949 29.2988 31.5159 29.7856C31.0369 30.2725 30.2539 30.2788 29.7671 29.7998L31.5017 28.0368ZM13.1641 13.3038C12.6644 12.8381 12.6369 12.0556 13.1025 11.556C13.5682 11.0564 14.3507 11.0288 14.8503 11.4944L13.1641 13.3038ZM31.4589 27.2476C31.9434 27.7289 31.946 28.5119 31.4646 28.9964C30.9833 29.481 30.2003 29.4835 29.7158 29.0022L31.4589 27.2476ZM13.0947 13.1493C12.608 12.6701 12.6019 11.8871 13.0811 11.4005C13.5603 10.9138 14.3432 10.9077 14.8299 11.3869L13.0947 13.1493ZM31.5509 27.5075C32.0443 27.9798 32.0614 28.7626 31.5892 29.256C31.1169 29.7493 30.3341 29.7665 29.8407 29.2942L31.5509 27.5075ZM13.6581 13.1281C13.1865 12.634 13.2048 11.8512 13.6989 11.3797C14.193 10.9082 14.9758 10.9265 15.4473 11.4206L13.6581 13.1281ZM31.5033 26.9984C31.9896 27.4779 31.9952 28.2609 31.5158 28.7473C31.0363 29.2336 30.2533 29.2393 29.7669 28.7598L31.5033 26.9984ZM13.6578 13.2208C13.1597 12.7534 13.1348 11.9708 13.6022 11.4728C14.0695 10.9747 14.8521 10.9498 15.3502 11.4171L13.6578 13.2208ZM31.5704 26.8321C32.0653 27.3028 32.0849 28.0856 31.6142 28.5804C31.1435 29.0753 30.3607 29.0949 29.8659 28.6242L31.5704 26.8321ZM14.4411 13.0204C13.9628 12.5329 13.9702 11.7499 14.4577 11.2716C14.9452 10.7933 15.7282 10.8007 16.2065 11.2882L14.4411 13.0204ZM31.7036 26.3005C32.2007 26.7687 32.2241 27.5514 31.7558 28.0485C31.2875 28.5457 30.5049 28.5691 30.0077 28.1008L31.7036 26.3005ZM14.3117 13.1724C13.8183 12.7001 13.8013 11.9172 14.2736 11.4239C14.7459 10.9306 15.5287 10.9135 16.0221 11.3859L14.3117 13.1724ZM31.5755 26.3979C32.0587 26.8806 32.0592 27.6636 31.5765 28.1468C31.0939 28.63 30.3109 28.6305 29.8277 28.1478L31.5755 26.3979ZM15.2082 12.9974C14.7216 12.5181 14.7157 11.7352 15.195 11.2486C15.6742 10.762 16.4572 10.7561 16.9438 11.2354L15.2082 12.9974ZM31.4428 25.6983C31.9181 26.1888 31.9057 26.9717 31.4152 27.447C30.9248 27.9222 30.1419 27.9099 29.6666 27.4194L31.4428 25.6983ZM14.9881 12.9466C14.5185 12.4506 14.54 11.6679 15.036 11.1984C15.532 10.7289 16.3147 10.7503 16.7842 11.2463L14.9881 12.9466ZM31.5866 25.5389C32.0786 26.0126 32.0935 26.7954 31.6198 27.2874C31.1461 27.7794 30.3633 27.7943 29.8713 27.3206L31.5866 25.5389ZM15.6636 13.0935C15.166 12.6257 15.1418 11.8431 15.6096 11.3455C16.0774 10.8478 16.86 10.8237 17.3576 11.2914L15.6636 13.0935ZM31.7435 24.6161C32.277 25.0426 32.3637 25.8208 31.9373 26.3542C31.5108 26.8877 30.7326 26.9745 30.1992 26.548L31.7435 24.6161ZM15.6876 13.0806C15.2004 12.602 15.1935 11.819 15.6722 11.3318C16.1508 10.8446 16.9338 10.8377 17.421 11.3163L15.6876 13.0806ZM31.5849 24.8148C32.0828 25.2822 32.1076 26.0648 31.6402 26.5628C31.1728 27.0608 30.3902 27.0856 29.8922 26.6181L31.5849 24.8148ZM16.1641 13.1973C15.6488 12.749 15.5945 11.9679 16.0427 11.4526C16.4909 10.9373 17.2721 10.883 17.7874 11.3312L16.1641 13.1973ZM31.4562 24.3635C31.9379 24.8477 31.9357 25.6307 31.4515 26.1123C30.9672 26.594 30.1842 26.5918 29.7026 26.1075L31.4562 24.3635ZM16.493 13.1499C15.9817 12.697 15.9344 11.9155 16.3872 11.4042C16.8401 10.8929 17.6216 10.8456 18.1329 11.2984L16.493 13.1499ZM31.5607 24.3588C32.0469 24.8385 32.0522 25.6215 31.5725 26.1076C31.0928 26.5938 30.3099 26.5991 29.8237 26.1194L31.5607 24.3588ZM17.2124 13.1966C16.7216 12.7217 16.7087 11.9388 17.1836 11.448C17.6585 10.9572 18.4414 10.9443 18.9322 11.4192L17.2124 13.1966ZM31.7384 23.7362C32.232 24.2082 32.2495 24.991 31.7775 25.4846C31.3055 25.9783 30.5227 25.9958 30.0291 25.5238L31.7384 23.7362ZM17.0854 13.1879C16.5845 12.7236 16.5549 11.9411 17.0193 11.4403C17.4836 10.9394 18.266 10.9098 18.7669 11.3742L17.0854 13.1879ZM31.4655 23.5741C31.9579 24.0474 31.9733 24.8303 31.4999 25.3226C31.0266 25.815 30.2438 25.8304 29.7514 25.3571L31.4655 23.5741ZM17.8257 13.1247C17.3426 12.6419 17.3424 11.8589 17.8252 11.3759C18.3081 10.8928 19.0911 10.8926 19.5741 11.3754L17.8257 13.1247ZM31.4204 22.8011C31.8906 23.2964 31.8702 24.0791 31.3749 24.5493C30.8796 25.0196 30.0968 24.9992 29.6266 24.5039L31.4204 22.8011ZM17.7242 13.0367C17.2303 12.5651 17.2122 11.7823 17.6838 11.2883C18.1554 10.7944 18.9382 10.7763 19.4322 11.2479L17.7242 13.0367ZM31.5411 22.9371C32.0193 23.4247 32.0116 24.2077 31.524 24.6859C31.0364 25.1641 30.2534 25.1564 29.7752 24.6688L31.5411 22.9371ZM18.3077 13.221C17.8108 12.7524 17.7879 11.9697 18.2565 11.4729C18.7251 10.976 19.5078 10.9531 20.0046 11.4217L18.3077 13.221ZM31.6995 22.3706C32.2056 22.8292 32.2441 23.6112 31.7855 24.1173C31.3269 24.6234 30.5448 24.6619 30.0387 24.2033L31.6995 22.3706ZM18.2677 12.9714C17.7754 12.498 17.7602 11.7151 18.2337 11.2229C18.7071 10.7307 19.49 10.7154 19.9822 11.1889L18.2677 12.9714ZM31.8044 22.531C32.2984 23.0027 32.3165 23.7854 31.8449 24.2794C31.3732 24.7734 30.5905 24.7915 30.0965 24.3199L31.8044 22.531ZM19.2065 13.1755C18.7318 12.6845 18.7449 11.9016 19.2359 11.4269C19.7268 10.9521 20.5097 10.9652 20.9845 11.4562L19.2065 13.1755ZM31.7574 21.7054C32.2422 22.1865 32.2453 22.9694 31.7642 23.4543C31.2832 23.9391 30.5002 23.9422 30.0154 23.4611L31.7574 21.7054ZM19.0948 13.1807C18.6053 12.7044 18.5947 11.9215 19.071 11.432C19.5473 10.9426 20.3303 10.9319 20.8197 11.4082L19.0948 13.1807ZM31.6406 21.5545C32.1766 21.9777 32.2679 22.7554 31.8446 23.2914C31.4213 23.8274 30.6437 23.9187 30.1077 23.4954L31.6406 21.5545ZM19.834 13.0528C19.3602 12.5609 19.3751 11.778 19.867 11.3043C20.359 10.8306 21.1419 10.8454 21.6156 11.3374L19.834 13.0528ZM31.8179 20.9829C32.3312 21.4335 32.382 22.2148 31.9314 22.7281C31.4808 23.2413 30.6995 23.2921 30.1862 22.8416L31.8179 20.9829ZM19.7943 12.9636C19.3133 12.4787 19.3164 11.6957 19.8013 11.2147C20.2861 10.7337 21.0691 10.7368 21.5501 11.2217L19.7943 12.9636ZM31.6957 20.9627C32.2016 21.4215 32.2399 22.2035 31.7812 22.7095C31.3224 23.2155 30.5404 23.2538 30.0344 22.795L31.6957 20.9627ZM20.4828 13.2498C19.9858 12.7813 19.9627 11.9987 20.4312 11.5017C20.8996 11.0047 21.6823 10.9816 22.1793 11.4501L20.4828 13.2498ZM31.5368 20.4422C32.0442 20.8994 32.0849 21.6813 31.6278 22.1887C31.1706 22.6961 30.3887 22.7369 29.8813 22.2797L31.5368 20.4422ZM20.4539 13.072C19.9762 12.5838 19.9847 11.8009 20.4729 11.3232C20.961 10.8456 21.744 10.8541 22.2216 11.3422L20.4539 13.072ZM31.7082 20.3032C32.2035 20.7734 32.224 21.5561 31.7538 22.0515C31.2837 22.5468 30.5009 22.5673 30.0055 22.0971L31.7082 20.3032ZM21.0569 12.6645C20.6543 12.1128 20.7751 11.3392 21.3268 10.9365C21.8785 10.5339 22.6521 10.6547 23.0547 11.2064L21.0569 12.6645ZM31.743 19.9229C32.2365 20.3951 32.2537 21.1779 31.7815 21.6714C31.3094 22.1648 30.5266 22.1821 30.0331 21.7099L31.743 19.9229ZM21.0199 12.9855C20.5335 12.506 20.5279 11.7231 21.0074 11.2367C21.4869 10.7503 22.2699 10.7448 22.7562 11.2242L21.0199 12.9855ZM31.6373 19.7282C32.1291 20.202 32.1438 20.9849 31.67 21.4768C31.1962 21.9687 30.4133 21.9833 29.9214 21.5095L31.6373 19.7282ZM21.8826 13.3249C21.3631 12.8816 21.3013 12.1011 21.7446 11.5815C22.1879 11.062 22.9685 11.0002 23.488 11.4435L21.8826 13.3249ZM31.7057 18.9879C32.2314 19.424 32.304 20.2036 31.8679 20.7293C31.4318 21.2549 30.6522 21.3275 30.1266 20.8914L31.7057 18.9879ZM21.732 13.0555C21.2336 12.5885 21.2082 11.8059 21.6752 11.3075C22.1422 10.8092 22.9248 10.7837 23.4232 11.2507L21.732 13.0555ZM31.5376 18.9433C32.0362 19.4101 32.062 20.1927 31.5952 20.6913C31.1284 21.1898 30.3458 21.2156 29.8473 20.7488L31.5376 18.9433ZM22.1223 12.7898C21.6651 12.2824 21.7059 11.5005 22.2133 11.0433C22.7207 10.5862 23.5026 10.6269 23.9598 11.1343L22.1223 12.7898ZM31.6696 18.5138C32.1822 18.9651 32.2321 19.7465 31.7808 20.2592C31.3296 20.7719 30.5482 20.8217 30.0355 20.3705L31.6696 18.5138ZM22.4942 13.1654C21.9961 12.6981 21.9711 11.9155 22.4384 11.4174C22.9057 10.9193 23.6883 10.8943 24.1864 11.3616L22.4942 13.1654ZM31.4617 18.3555C31.9405 18.8425 31.9339 19.6255 31.4469 20.1043C30.96 20.5832 30.177 20.5766 29.6981 20.0896L31.4617 18.3555ZM22.9285 13.1827C22.4154 12.7319 22.3649 11.9506 22.8157 11.4375C23.2664 10.9244 24.0478 10.8739 24.5609 11.3246L22.9285 13.1827ZM31.6938 18.1579C32.1514 18.665 32.1113 19.4469 31.6042 19.9045C31.0972 20.362 30.3152 20.3219 29.8576 19.8149L31.6938 18.1579ZM23.1104 13.1569C22.5933 12.7108 22.5357 11.9299 22.9819 11.4128C23.428 10.8956 24.2089 10.8381 24.726 11.2842L23.1104 13.1569ZM31.6827 18.035C32.1594 18.5241 32.1493 19.307 31.6602 19.7837C31.1711 20.2604 30.3882 20.2503 29.9115 19.7612L31.6827 18.035ZM23.9129 12.9905C23.4198 12.5179 23.4032 11.7351 23.8757 11.242C24.3483 10.7489 25.1311 10.7323 25.6242 11.2049L23.9129 12.9905ZM31.8824 17.0919C32.3789 17.5609 32.4012 18.3435 31.9323 18.84C31.4633 19.3365 30.6806 19.3588 30.1841 18.8899L31.8824 17.0919ZM23.731 13.1062C23.2249 12.6476 23.1864 11.8655 23.6451 11.3594C24.1037 10.8533 24.8857 10.8149 25.3918 11.2735L23.731 13.1062ZM31.6575 17.0859C32.1677 17.5399 32.2134 18.3215 31.7594 18.8318C31.3055 19.3421 30.5238 19.3877 30.0135 18.9338L31.6575 17.0859ZM24.4714 13.1739C23.9991 12.6806 24.0162 11.8978 24.5095 11.4255C25.0028 10.9531 25.7857 10.9702 26.258 11.4635L24.4714 13.1739ZM31.5379 16.5281C32.0042 17.0271 31.9777 17.8096 31.4787 18.2759C30.9797 18.7422 30.1972 18.7157 29.7308 18.2167L31.5379 16.5281ZM24.3758 12.89C23.9145 12.3864 23.9487 11.6042 24.4523 11.1428C24.956 10.6815 25.7382 10.7158 26.1995 11.2194L24.3758 12.89ZM31.7458 16.5964C32.2361 17.0718 32.2482 17.8547 31.7728 18.3451C31.2973 18.8354 30.5144 18.8475 30.0241 18.3721L31.7458 16.5964ZM25.2892 13.451C24.6762 13.1499 24.4233 12.4088 24.7244 11.7958C25.0255 11.1828 25.7666 10.93 26.3796 11.2311L25.2892 13.451ZM31.553 16.0329C32.0233 16.5282 32.003 17.3109 31.5078 17.7812C31.0125 18.2515 30.2298 18.2313 29.7595 17.736L31.553 16.0329ZM25.1145 13.0042C24.6178 12.5355 24.5951 11.7528 25.0639 11.2561C25.5327 10.7594 26.3153 10.7368 26.812 11.2055L25.1145 13.0042ZM31.5986 15.981C32.0791 16.4663 32.0752 17.2493 31.5899 17.7298C31.1046 18.2104 30.3216 18.2065 29.8411 17.7212L31.5986 15.981ZM25.7288 12.8759C25.2409 12.3979 25.2329 11.615 25.7109 11.1271C26.1889 10.6393 26.9718 10.6312 27.4597 11.1092L25.7288 12.8759ZM31.804 15.4592C32.2726 15.9561 32.2497 16.7387 31.7529 17.2073C31.2561 17.676 30.4734 17.6531 30.0048 17.1563L31.804 15.4592ZM25.8756 13.2296C25.3184 12.8345 25.187 12.0626 25.5821 11.5055C25.9771 10.9484 26.749 10.817 27.3061 11.212L25.8756 13.2296ZM31.5618 15.3092C32.0623 15.774 32.0912 16.5565 31.6264 17.0569C31.1616 17.5573 30.3792 17.5863 29.8787 17.1215L31.5618 15.3092ZM26.5003 13.1721C26.0289 12.6779 26.0473 11.8952 26.5415 11.4237C27.0356 10.9523 27.8184 10.9707 28.2899 11.4649L26.5003 13.1721ZM31.5812 14.7712C32.0739 15.2442 32.09 16.027 31.617 16.5197C31.144 17.0124 30.3612 17.0285 29.8685 16.5555L31.5812 14.7712ZM26.4103 13.0441C25.9136 12.5754 25.8909 11.7927 26.3596 11.296C26.8283 10.7993 27.611 10.7766 28.1077 11.2453L26.4103 13.0441ZM31.6749 14.6414C32.141 15.1407 32.114 15.9232 31.6148 16.3893C31.1155 16.8553 30.333 16.8284 29.867 16.3291L31.6749 14.6414ZM27.1326 13.2624C26.6053 12.8283 26.5297 12.049 26.9638 11.5217C27.3979 10.9944 28.1772 10.9189 28.7045 11.3529L27.1326 13.2624ZM31.4619 13.9811C31.9397 14.4691 31.9313 15.2521 31.4433 15.7298C30.9552 16.2076 30.1723 16.1993 29.6945 15.7112L31.4619 13.9811ZM26.9836 12.8752C26.5361 12.3593 26.5916 11.5782 27.1076 11.1308C27.6236 10.6833 28.4046 10.7389 28.8521 11.2548L26.9836 12.8752ZM31.56 13.8272C32.0726 14.2786 32.1223 15.06 31.671 15.5726C31.2197 16.0852 30.4383 16.1349 29.9257 15.6836L31.56 13.8272ZM27.68 12.991C27.1989 12.5063 27.2017 11.7233 27.6864 11.2421C28.1711 10.761 28.9541 10.7638 29.4353 11.2485L27.68 12.991ZM31.7526 13.5259C32.2113 14.0318 32.1731 14.8139 31.6671 15.2727C31.1612 15.7314 30.3791 15.6932 29.9203 15.1872L31.7526 13.5259ZM27.7447 12.9343C27.2827 12.4312 27.3161 11.6489 27.8192 11.187C28.3223 10.7251 29.1046 10.7585 29.5665 11.2616L27.7447 12.9343ZM31.5898 13.1655C32.1608 13.5402 32.3199 14.3068 31.9452 14.8778C31.5705 15.4488 30.8039 15.608 30.2329 15.2332L31.5898 13.1655ZM28.4635 12.9212C27.9811 12.4378 27.9819 11.6548 28.4654 11.1724C28.9488 10.69 29.7318 10.6908 30.2142 11.1743L28.4635 12.9212ZM31.6274 12.6612C32.1244 13.1297 32.1474 13.9124 31.6789 14.4093C31.2103 14.9062 30.4277 14.9292 29.9308 14.4607L31.6274 12.6612ZM28.2714 12.7724C27.8875 12.2075 28.0342 11.4384 28.5991 11.0545C29.164 10.6706 29.9331 10.8173 30.317 11.3821L28.2714 12.7724ZM31.7122 12.8294C32.1553 13.3491 32.0932 14.1297 31.5735 14.5728C31.0538 15.0159 30.2733 14.9538 29.8302 14.4341L31.7122 12.8294ZM29.0966 13.1008C28.5676 12.6689 28.4887 11.8899 28.9206 11.3608C29.3525 10.8317 30.1315 10.7529 30.6606 11.1848L29.0966 13.1008ZM31.6359 11.9951C32.1472 12.4479 32.1946 13.2295 31.7418 13.7407C31.289 14.252 30.5075 14.2995 29.9962 13.8467L31.6359 11.9951ZM29.0484 12.9787C28.5719 12.4894 28.5822 11.7065 29.0715 11.23C29.5608 10.7535 30.3437 10.7638 30.8202 11.2531L29.0484 12.9787ZM31.5948 12.0085C32.102 12.4659 32.1424 13.2478 31.685 13.755C31.2276 14.2622 30.4457 14.3026 29.9384 13.8452L31.5948 12.0085ZM11.8875 28.6084C11.939 28.6902 12.0019 28.7644 12.2459 28.9458L10.7698 30.9303C10.431 30.6783 10.085 30.3877 9.79422 29.9257L11.8875 28.6084ZM11.6014 28.3838C11.7344 28.5025 11.8648 28.6276 11.9783 28.7363C12.0973 28.8502 12.2022 28.9504 12.3086 29.0457L10.6586 30.8881C10.5168 30.7611 10.3828 30.6328 10.2679 30.5228C10.1476 30.4076 10.0493 30.3136 9.95453 30.229L11.6014 28.3838ZM11.7902 27.8263C11.9423 28.0313 12.1335 28.2229 12.3798 28.4581C12.5915 28.6603 12.9163 28.9585 13.1583 29.2771L11.1884 30.7728C11.0958 30.6508 10.9537 30.5161 10.6716 30.2467C10.424 30.0102 10.0944 29.6913 9.80419 29.3004L11.7902 27.8263ZM11.6319 27.7534C11.8428 27.9509 12.0729 28.1571 12.3159 28.3745C12.5548 28.5883 12.8068 28.8135 13.0436 29.0341L11.3573 30.8435C11.1424 30.6432 10.9103 30.4356 10.6667 30.2176C10.4271 30.0032 10.1761 29.7785 9.94133 29.5586L11.6319 27.7534ZM11.393 26.9759C11.8676 27.3314 12.3038 27.7742 12.6298 28.0889C12.9956 28.4421 13.2521 28.6653 13.4849 28.7961L12.2734 30.9524C11.7301 30.6471 11.2682 30.2122 10.9119 29.8682C10.5158 29.4858 10.2262 29.1921 9.90995 28.9551L11.393 26.9759ZM11.5071 27.0671C12.2239 27.6989 13.1734 28.4922 13.7363 29.0598L11.9803 30.8015C11.4949 30.3121 10.6885 29.6424 9.87174 28.9225L11.5071 27.0671ZM11.7858 26.5896C12.2751 26.9484 13.1188 27.8278 14.2705 29.1379L12.4129 30.7708C11.2135 29.4065 10.5524 28.7522 10.3231 28.584L11.7858 26.5896ZM11.6062 26.5111C12.4685 27.1625 13.162 27.9104 14.3152 29.1254L12.5213 30.828C11.3104 29.5523 10.7766 28.9841 10.1153 28.4844L11.6062 26.5111ZM11.4358 26.0384C11.7654 26.3049 12.0785 26.5751 12.3728 26.8302C12.6719 27.0895 12.9486 27.3305 13.2287 27.5607C13.7863 28.019 14.3093 28.3936 14.8811 28.6694L13.8067 30.8971C12.9798 30.4983 12.2825 29.9844 11.6583 29.4714C11.3475 29.2159 11.0429 28.9505 10.7528 28.6991C10.4579 28.4435 10.1739 28.1986 9.88115 27.962L11.4358 26.0384ZM11.7169 25.882C12.9461 27.1363 14.038 28.1862 15.0185 29.0936L13.3386 30.9088C12.3309 29.9763 11.21 28.8984 9.95042 27.6131L11.7169 25.882ZM11.7678 25.3284C12.4583 26.0773 13.1333 26.711 13.7785 27.2943C14.4071 27.8625 15.0557 28.4248 15.6084 28.9621L13.8843 30.7355C13.3741 30.2394 12.8059 29.7491 12.1199 29.129C11.4505 28.5238 10.7131 27.8332 9.94948 27.005L11.7678 25.3284ZM11.6591 25.2153C12.8047 26.3565 13.7274 27.3113 15.5984 29.0496L13.915 30.8616C12.0041 29.0862 11.0427 28.0923 9.91361 26.9674L11.6591 25.2153ZM11.3937 24.6008C11.9698 25.0512 12.5162 25.563 13.2285 26.214C13.9531 26.8762 14.9038 27.7342 16.342 28.9361L14.7559 30.8339C13.2808 29.6011 12.3013 28.7171 11.56 28.0396C10.8064 27.3509 10.3511 26.9251 9.87043 26.5494L11.3937 24.6008ZM11.6355 24.4983C13.3151 26.1018 14.7289 27.457 16.3828 28.8926L14.7616 30.7604C13.0555 29.2795 11.5985 27.8824 9.92763 26.2872L11.6355 24.4983ZM11.4129 23.9569C12.417 24.7265 13.2235 25.5152 14.0501 26.3559C14.8821 27.2021 15.7298 28.0961 16.8738 29.1572L15.1918 30.9705C13.9936 29.8591 13.0884 28.9055 12.2864 28.0898C11.4789 27.2685 10.7705 26.5807 9.90834 25.9199L11.4129 23.9569ZM11.5298 23.9118C13.2393 25.459 14.7774 26.8909 17.0693 28.9362L15.4225 30.7815C13.1275 28.7334 11.5466 27.2628 9.87017 25.7456L11.5298 23.9118ZM11.9722 23.4006C12.7565 24.4834 14.0661 25.8919 17.6517 28.8782L16.0689 30.7786C12.4473 27.7624 10.9412 26.1935 9.96916 24.8514L11.9722 23.4006ZM11.7762 23.1933C13.8259 25.5256 16.209 27.6613 17.7701 29.0379L16.1343 30.893C14.5688 29.5125 12.0812 27.2869 9.91844 24.8259L11.7762 23.1933ZM11.7506 22.7581C14.0891 24.9887 16.946 27.5103 18.4796 29.1224L16.6877 30.8272C15.1993 29.2626 12.5198 26.9099 10.0435 24.5478L11.7506 22.7581ZM11.715 22.5985C13.0142 24.0083 14.6531 25.4877 18.2912 28.9909L16.5757 30.7725C13.0195 27.3483 11.2619 25.7566 9.89618 24.2745L11.715 22.5985ZM11.773 22.2405C13.6741 23.9124 15.6655 25.5549 19.024 29.2859L17.1858 30.9406C13.9352 27.3295 12.0445 25.7729 10.1396 24.0977L11.773 22.2405ZM11.6226 22.0822C12.9535 23.1985 14.2034 24.3988 15.41 25.5849C16.6269 26.7812 17.7865 27.9497 18.9839 29.0563L17.3052 30.8726C16.0707 29.7317 14.8636 28.5161 13.6761 27.3486C12.4781 26.1709 11.2856 25.0276 10.0332 23.9772L11.6226 22.0822ZM11.986 21.2877C14.8706 24.209 17.568 27.1359 19.4953 28.9613L17.7946 30.757C15.8382 28.9041 13.0036 25.8382 10.2261 23.0254L11.986 21.2877ZM11.7374 21.4638C12.8251 22.4243 13.9055 23.4494 15.1624 24.6398C16.4228 25.8335 17.8733 27.2057 19.7209 28.8811L18.0595 30.7133C16.1907 29.0186 14.7238 27.6309 13.4617 26.4356C12.1961 25.2369 11.1491 24.2439 10.1003 23.3177L11.7374 21.4638ZM11.5264 20.825C13.1885 22.2077 14.7488 23.6349 16.2304 24.9828C17.7211 26.3388 19.1279 27.6107 20.5213 28.7251L18.9765 30.6566C17.5123 29.4856 16.0493 28.1616 14.5661 26.8123C13.0739 25.4548 11.5564 24.0672 9.94463 22.7264L11.5264 20.825ZM11.6666 20.7113C14.1083 22.8935 16.5149 25.3271 20.3757 28.9455L18.6844 30.7501C14.7231 27.0375 12.4459 24.7249 10.0185 22.5554L11.6666 20.7113ZM11.5672 20.001C12.7916 20.9748 13.8922 22.0819 15.2737 23.4812C16.6638 24.8893 18.3796 26.6372 20.881 28.9608L19.1977 30.7728C16.6535 28.4095 14.9048 26.6281 13.5136 25.2188C12.1137 23.8008 11.1161 22.8024 10.0276 21.9366L11.5672 20.001ZM11.683 20.0616C13.183 21.4631 14.6517 22.8834 16.1674 24.3446C17.6854 25.8079 19.2538 27.3156 20.9656 28.9048L19.2829 30.7174C17.5525 29.111 15.9695 27.5892 14.4509 26.1252C12.93 24.659 11.4771 23.2541 9.99443 21.8688L11.683 20.0616ZM11.5517 19.3362C14.526 21.7874 17.1359 24.5864 21.8338 29.2622L20.089 31.0152C15.2998 26.2485 12.8341 23.598 9.97878 21.2449L11.5517 19.3362ZM11.6629 19.4271C13.8349 21.6573 16.091 23.8073 21.7072 28.8737L20.0505 30.7101C14.4241 25.6346 12.1202 23.4416 9.89109 21.1526L11.6629 19.4271ZM11.4351 18.8535C14.1563 21.0857 16.7119 23.5488 22.5083 29.2015L20.7815 30.9722C14.9611 25.296 12.4882 22.9163 9.86647 20.7657L11.4351 18.8535ZM11.7247 18.7272C15.5255 22.3049 19.268 26.0436 22.4286 29.0645L20.7197 30.8524C17.4747 27.7509 13.8506 24.125 10.0295 20.5281L11.7247 18.7272ZM11.7664 17.9965C14.8926 20.8404 17.9328 23.9646 23.2243 28.9189L21.5339 30.7244C16.0921 25.6294 13.2614 22.6999 10.1021 19.8261L11.7664 17.9965ZM11.7429 17.9795C16.2749 22.4231 20.6597 26.7373 23.0555 28.9966L21.3586 30.796C18.9399 28.515 14.5292 24.1753 10.0113 19.7456L11.7429 17.9795ZM11.7342 17.4495C16.2597 21.9721 20.6338 26.2379 23.7426 28.9221L22.1263 30.7942C18.9399 28.0429 14.506 23.7162 9.9859 19.1989L11.7342 17.4495ZM11.4663 17.2937C13.3964 19.0962 15.2956 20.933 17.3201 22.8834C19.3468 24.8359 21.5042 26.9073 23.9634 29.1919L22.28 31.0039C19.8035 28.7031 17.6326 26.6187 15.6042 24.6645C13.5736 22.7083 11.6909 20.8875 9.77818 19.1013L11.4663 17.2937ZM11.6205 16.8425C14.7597 19.8628 17.3263 22.3628 24.3343 29.0094L22.6324 30.8039C15.6162 24.1497 13.0415 21.6418 9.9057 18.6247L11.6205 16.8425ZM11.7651 16.7804C14.6575 19.6156 17.9419 22.54 24.488 29.0854L22.7393 30.8344C16.1517 24.2475 13.0622 21.5152 10.0338 18.5466L11.7651 16.7804ZM11.4948 16.3125C14.4261 18.7206 17.52 21.6703 25.111 28.9827L23.3951 30.7639C15.7748 23.4233 12.7627 20.5549 9.92482 18.2235L11.4948 16.3125ZM11.7648 16.1258C15.856 20.0645 19.9488 24.0252 25.1958 29.0452L23.486 30.8323C18.2353 25.8088 14.1355 21.8414 10.0494 17.9076L11.7648 16.1258ZM11.6415 15.5328C15.1552 18.8477 18.7333 22.5741 26.0242 29.0269L24.385 30.879C17.0599 24.3958 13.3766 20.5699 9.94425 17.3318L11.6415 15.5328ZM11.6484 15.5259C15.0729 18.8033 18.3804 22.0824 25.9326 29.2323L24.2323 31.0283C16.6822 23.8805 13.3269 20.5557 9.93831 17.3128L11.6484 15.5259ZM11.5125 14.6967C13.222 16.3024 14.7841 17.8095 17.0178 19.9472C19.2537 22.087 22.1725 24.8683 26.6069 29.0336L24.9136 30.8363C20.4727 26.665 17.5483 23.8783 15.3077 21.734C13.065 19.5877 11.5175 18.0946 9.81925 16.4994L11.5125 14.6967ZM11.5541 14.8127C17.3542 20.2616 22.7645 25.5222 26.6041 29.0094L24.9413 30.8403C21.0864 27.3392 15.6061 22.0129 9.86069 16.6153L11.5541 14.8127ZM11.5091 14.2477C14.8647 17.5646 18.2034 20.5338 27.438 29.0928L25.7567 30.9067C16.567 22.3893 13.1636 19.3608 9.77039 16.0067L11.5091 14.2477ZM11.7244 14.2909C15.3346 17.6903 19.287 21.3836 27.169 29.1216L25.4363 30.8865C17.5733 23.1671 13.636 19.4881 10.0289 16.0916L11.7244 14.2909ZM11.8587 13.3623C16.8065 18.2282 21.8566 23.0885 27.7631 28.9758L26.0171 30.7275C20.1147 24.8443 15.0993 20.0182 10.1245 15.1257L11.8587 13.3623ZM11.6818 13.4855C15.7434 17.4345 19.8177 21.4795 27.9673 29.0109L26.2887 30.8273C18.1115 23.2704 14.0133 19.202 9.95769 15.2588L11.6818 13.4855ZM11.3735 13.0483C17.0767 18.029 22.057 23.1393 28.7677 29.3314L27.0905 31.1491C20.2316 24.8203 15.4449 19.8876 9.74661 14.9112L11.3735 13.0483ZM11.7275 12.8228C17.0318 18.1206 22.5746 23.3074 28.648 29.0485L26.949 30.8459C20.89 25.1184 15.3146 19.9011 9.97968 14.5727L11.7275 12.8228ZM11.9742 12.3135C18.3755 18.658 24.8792 24.7011 29.3362 28.9816L27.6231 30.7654C23.2097 26.5269 16.6498 20.4298 10.2331 14.0702L11.9742 12.3135ZM11.7991 12.4267C16.2118 16.7821 20.9109 21.1927 29.169 29.1244L27.4558 30.9082C19.2245 23.0023 14.4896 18.5574 10.0617 14.1869L11.7991 12.4267ZM11.5871 11.798C18.5769 18.0938 24.8539 24.3899 29.7203 29.3204L27.96 31.0578C23.0987 26.1325 16.8645 19.88 9.93187 13.6357L11.5871 11.798ZM11.6353 11.6069C15.541 15.3278 19.5267 19.1523 29.9265 28.9933L28.2266 30.7897C17.8227 20.945 13.8322 17.1159 9.92931 13.3977L11.6353 11.6069ZM11.8803 11.0869C15.7113 14.8404 19.6159 18.4187 30.5538 29.3434L28.806 31.0934C17.8689 20.1695 14.033 16.6586 10.1494 12.8536L11.8803 11.0869ZM11.8112 11.1509C16.2307 15.2988 20.7517 19.7274 30.6942 29.1288L28.9949 30.9259C18.9934 21.4686 14.5585 17.1214 10.1186 12.9542L11.8112 11.1509ZM12.4355 11.063C18.138 16.5347 23.9201 22.3843 31.2728 29.2451L29.5855 31.0534C22.2286 24.1887 16.3559 18.2524 10.7232 12.8477L12.4355 11.063ZM12.4539 11.0803C17.5907 15.8962 22.4314 20.5344 31.2912 29.1064L29.5715 30.8839C20.714 22.3142 15.8846 17.6869 10.7623 12.8846L12.4539 11.0803ZM13.3687 11.3052C19.1524 16.5346 24.6813 21.8853 31.7807 28.887L30.0439 30.6479C22.9507 23.6523 17.4526 18.3321 11.71 13.1398L13.3687 11.3052ZM13.5168 11.3255C17.1682 14.9611 20.8471 18.5734 31.4747 28.8704L29.7537 30.6467C19.1241 20.3478 15.4354 16.7261 11.7717 13.0782L13.5168 11.3255ZM13.9502 11.0966C15.8893 12.8721 17.7271 14.7207 20.3384 17.2878C22.9574 19.8623 26.3869 23.1921 31.5453 27.9677L29.8651 29.7826C24.6847 24.9867 21.237 21.6393 18.6046 19.0515C15.9645 16.4562 14.1765 14.6573 12.28 12.9207L13.9502 11.0966ZM14.0427 11.2461C17.8909 14.8288 21.5908 18.2854 31.5017 28.0368L29.7671 29.7998C19.8727 20.0646 16.1892 16.6237 12.3574 13.0563L14.0427 11.2461ZM14.8503 11.4944C20.0401 16.3312 25.1646 20.9944 31.4589 27.2476L29.7158 29.0022C23.4576 22.7849 18.3744 18.1597 13.1641 13.3038L14.8503 11.4944ZM14.8299 11.3869C20.913 17.3762 27.066 23.2148 31.5509 27.5075L29.8407 29.2942C25.3659 25.0112 19.194 19.1546 13.0947 13.1493L14.8299 11.3869ZM15.4473 11.4206C18.8514 14.9876 22.4784 18.1018 31.5033 26.9984L29.7669 28.7598C20.8912 20.0101 17.0714 16.7048 13.6581 13.1281L15.4473 11.4206ZM15.3502 11.4171C21.9832 17.641 28.3501 23.7691 31.5704 26.8321L29.8659 28.6242C26.6302 25.5466 20.2833 19.4376 13.6578 13.2208L15.3502 11.4171ZM16.2065 11.2882C21.7171 16.9045 27.2409 22.0969 31.7036 26.3005L30.0077 28.1008C25.5501 23.902 19.9912 18.6769 14.4411 13.0204L16.2065 11.2882ZM16.0221 11.3859C21.2115 16.3543 26.456 21.2844 31.5755 26.3979L29.8277 28.1478C24.7328 23.0589 19.5228 18.1615 14.3117 13.1724L16.0221 11.3859ZM16.9438 11.2354C21.187 15.4149 25.1368 19.1903 31.4428 25.6983L29.6666 27.4194C23.387 20.9387 19.4706 17.1958 15.2082 12.9974L16.9438 11.2354ZM16.7842 11.2463C19.8447 14.4793 23.1202 17.3879 31.5866 25.5389L29.8713 27.3206C21.4892 19.2509 18.0995 16.2334 14.9881 12.9466L16.7842 11.2463ZM17.3576 11.2914C22.1962 15.8399 26.6135 20.5152 31.7435 24.6161L30.1992 26.548C24.9684 22.3666 20.3608 17.509 15.6636 13.0935L17.3576 11.2914ZM17.421 11.3163C21.0739 14.9052 24.7966 18.4431 31.5849 24.8148L29.8922 26.6181C23.1018 20.2444 19.3619 16.6904 15.6876 13.0806L17.421 11.3163ZM17.7874 11.3312C22.5132 15.4421 26.3429 19.222 31.4562 24.3635L29.7026 26.1075C24.5943 20.9712 20.8179 17.2454 16.1641 13.1973L17.7874 11.3312ZM18.1329 11.2984C21.342 14.1408 24.3035 17.1986 31.5607 24.3588L29.8237 26.1194C22.5105 18.9041 19.6358 15.9336 16.493 13.1499L18.1329 11.2984ZM18.9322 11.4192C22.2094 14.5901 25.8469 18.1026 31.7384 23.7362L30.0291 25.5238C24.1332 19.886 20.492 16.3699 17.2124 13.1966L18.9322 11.4192ZM18.7669 11.3742C22.8319 15.1428 26.9333 19.217 31.4655 23.5741L29.7514 25.3571C25.1776 20.96 21.1304 16.938 17.0854 13.1879L18.7669 11.3742ZM19.5741 11.3754C21.7551 13.5553 24.1053 15.7695 26.2187 17.7619C28.3181 19.7412 30.2065 21.5224 31.4204 22.8011L29.6266 24.5039C28.4716 23.2872 26.6443 21.5622 24.5221 19.5615C22.4139 17.574 20.0367 15.3347 17.8257 13.1247L19.5741 11.3754ZM19.4322 11.2479C23.6987 15.3215 28.1019 19.4301 31.5411 22.9371L29.7752 24.6688C26.3739 21.2005 22.0252 17.1433 17.7242 13.0367L19.4322 11.2479ZM20.0046 11.4217C24.318 15.4898 28.2652 19.2587 31.6995 22.3706L30.0387 24.2033C26.5802 21.0695 22.6026 17.2717 18.3077 13.221L20.0046 11.4217ZM19.9822 11.1889C22.5939 13.701 25.2459 16.2691 31.8044 22.531L30.0965 24.3199C23.5337 18.0538 20.8769 15.4811 18.2677 12.9714L19.9822 11.1889ZM20.9845 11.4562C22.921 13.4588 25.0375 15.4506 26.9613 17.2291C28.8683 18.9923 30.6162 20.5731 31.7574 21.7054L30.0154 23.4611C28.9155 22.3698 27.2295 20.8455 25.2822 19.0452C23.3516 17.2602 21.1932 15.23 19.2065 13.1755L20.9845 11.4562ZM20.8197 11.4082C25.0585 15.5332 29.0707 19.5249 31.6406 21.5545L30.1077 23.4954C27.4067 21.3624 23.2584 17.2326 19.0948 13.1807L20.8197 11.4082ZM21.6156 11.3374C24.3632 14.191 27.028 16.778 31.8179 20.9829L30.1862 22.8416C25.3502 18.5961 22.6346 15.9616 19.834 13.0528L21.6156 11.3374ZM21.5501 11.2217C25.317 15.0187 29.2438 18.7397 31.6957 20.9627L30.0344 22.795C27.5495 20.542 23.5912 16.7909 19.7943 12.9636L21.5501 11.2217ZM22.1793 11.4501C24.3594 13.5051 25.8354 15.3055 31.5368 20.4422L29.8813 22.2797C24.2321 17.19 22.4278 15.0832 20.4828 13.2498L22.1793 11.4501ZM22.2216 11.3422C25.2977 14.4858 28.7413 17.4873 31.7082 20.3032L30.0055 22.0971C27.1534 19.3901 23.5626 16.249 20.4539 13.072L22.2216 11.3422ZM23.0547 11.2064C24.3828 13.0261 26.291 14.706 31.743 19.9229L30.0331 21.7099C24.7326 16.638 22.5556 14.7179 21.0569 12.6645L23.0547 11.2064ZM22.7562 11.2242C25.4524 13.8822 28.1983 16.4157 31.6373 19.7282L29.9214 21.5095C26.5415 18.2538 23.719 15.6464 21.0199 12.9855L22.7562 11.2242ZM23.488 11.4435C24.7017 12.4792 25.9165 13.6743 27.2229 14.9307C28.5408 16.198 29.9836 17.5592 31.7057 18.9879L30.1266 20.8914C28.3332 19.4037 26.8383 17.9921 25.5086 16.7134C24.1674 15.4236 23.0245 14.2993 21.8826 13.3249L23.488 11.4435ZM23.4232 11.2507C24.5438 12.3009 25.6183 13.3309 26.8858 14.5411C28.1544 15.7524 29.6222 17.15 31.5376 18.9433L29.8473 20.7488C27.9234 18.9476 26.4491 17.5438 25.1777 16.3299C23.9052 15.1148 22.8419 14.0955 21.732 13.0555L23.4232 11.2507ZM23.9598 11.1343C25.6788 13.0423 27.1279 14.5166 31.6696 18.5138L30.0355 20.3705C25.4524 16.3368 23.9274 14.7934 22.1223 12.7898L23.9598 11.1343ZM24.1864 11.3616C26.3485 13.39 28.5546 15.3991 31.4617 18.3555L29.6981 20.0896C26.8356 17.1785 24.678 15.2141 22.4942 13.1654L24.1864 11.3616ZM24.5609 11.3246C27.2271 13.6669 30.0868 16.377 31.6938 18.1579L29.8576 19.8149C28.3457 18.1393 25.5692 15.5026 22.9285 13.1827L24.5609 11.3246ZM24.726 11.2842C26.5874 12.89 28.3283 14.5931 31.6827 18.035L29.9115 19.7612C26.5627 16.3251 24.885 14.6879 23.1104 13.1569L24.726 11.2842ZM25.6242 11.2049C27.4631 12.9672 29.2865 14.6398 31.8824 17.0919L30.1841 18.8899C27.6277 16.4752 25.7527 14.7537 23.9129 12.9905L25.6242 11.2049ZM25.3918 11.2735C26.5245 12.2999 27.6154 13.3306 28.6574 14.3124C29.7034 15.298 30.6985 16.2328 31.6575 17.0859L30.0135 18.9338C29.0242 18.0536 28.0042 17.0952 26.9613 16.1125C25.9143 15.126 24.8423 14.1132 23.731 13.1062L25.3918 11.2735ZM26.258 11.4635C27.0243 12.264 27.9016 13.0624 28.8254 13.9082C29.7354 14.7414 30.6872 15.6177 31.5379 16.5281L29.7308 18.2167C28.9558 17.3873 28.0733 16.573 27.1552 15.7323C26.2508 14.9043 25.3061 14.0457 24.4714 13.1739L26.258 11.4635ZM26.1995 11.2194C27.3102 12.4318 28.5105 13.4595 31.7458 16.5964L30.0241 18.3721C26.9113 15.3539 25.5485 14.1702 24.3758 12.89L26.1995 11.2194ZM26.3796 11.2311C27.2567 11.6619 28.0186 12.327 28.7959 13.1075C29.5573 13.8718 30.4746 14.8973 31.553 16.0329L29.7595 17.736C28.5944 16.5091 27.7884 15.6006 27.0436 14.8528C26.3148 14.1211 25.7875 13.6958 25.2892 13.451L26.3796 11.2311ZM26.812 11.2055C28.5099 12.808 30.2125 14.5812 31.5986 15.981L29.8411 17.7212C28.4172 16.2832 26.7718 14.5684 25.1145 13.0042L26.812 11.2055ZM27.4597 11.1092C28.5645 12.1917 29.6399 13.165 31.804 15.4592L30.0048 17.1563C27.8853 14.9093 26.8746 13.9985 25.7288 12.8759L27.4597 11.1092ZM27.3061 11.212C27.9666 11.6803 28.5362 12.2624 29.1523 12.9037C29.7827 13.5598 30.5146 14.3366 31.5618 15.3092L29.8787 17.1215C28.7705 16.0922 27.9888 15.2625 27.3688 14.6172C26.7346 13.957 26.3172 13.5427 25.8756 13.2296L27.3061 11.212ZM28.2899 11.4649C29.191 12.4094 30.4417 13.6774 31.5812 14.7712L29.8685 16.5555C28.6983 15.4322 27.4217 14.1379 26.5003 13.1721L28.2899 11.4649ZM28.1077 11.2453C29.1168 12.1975 30.4324 13.3104 31.6749 14.6414L29.867 16.3291C28.6912 15.0696 27.555 14.1243 26.4103 13.0441L28.1077 11.2453ZM28.7045 11.3529C29.4947 12.0034 30.3249 12.8196 31.4619 13.9811L29.6945 15.7112C28.5559 14.5481 27.8088 13.8191 27.1326 13.2624L28.7045 11.3529ZM28.8521 11.2548C29.5829 12.0975 30.5554 12.9428 31.56 13.8272L29.9257 15.6836C28.9681 14.8406 27.8483 13.8724 26.9836 12.8752L28.8521 11.2548ZM29.4353 11.2485C29.8304 11.6465 30.8765 12.5597 31.7526 13.5259L29.9203 15.1872C29.0421 14.2186 28.3342 13.65 27.68 12.991L29.4353 11.2485ZM29.5665 11.2616C30.2547 12.0111 30.9211 12.7266 31.5898 13.1655L30.2329 15.2332C29.258 14.5935 28.3808 13.6271 27.7447 12.9343L29.5665 11.2616ZM30.2142 11.1743C30.4558 11.4163 30.7262 11.7138 30.9644 11.9724C31.2166 12.2462 31.4391 12.4836 31.6274 12.6612L29.9308 14.4607C29.6698 14.2147 29.3913 13.9151 29.1453 13.648C28.8852 13.3657 28.6602 13.1184 28.4635 12.9212L30.2142 11.1743ZM30.317 11.3821C30.385 11.4823 30.4792 11.579 30.7416 11.8264C30.9889 12.0595 31.3222 12.372 31.7122 12.8294L29.8302 14.4341C29.5343 14.0871 29.2861 13.8534 29.0449 13.6259C28.8189 13.4128 28.5176 13.1345 28.2714 12.7724L30.317 11.3821ZM30.6606 11.1848C30.8794 11.3634 31.1979 11.6072 31.6359 11.9951L29.9962 13.8467C29.6077 13.5026 29.3742 13.3274 29.0966 13.1008L30.6606 11.1848ZM30.8202 11.2531C31.0731 11.5128 31.341 11.7796 31.5948 12.0085L29.9384 13.8452C29.6254 13.5629 29.3139 13.2514 29.0484 12.9787L30.8202 11.2531Z" fill="#9C48C3" mask="url(#path-3-outside-1_2026_742)"/>
</g>
<path id="Vector_3" d="M10.9119 29.7755C14.9523 29.9423 19.232 30.1957 30.3102 30.1655M10.9131 29.8761C18.6471 29.9173 26.2115 29.9644 30.5692 29.9313M30.5221 30.0882C30.5958 24.1825 30.494 18.135 30.2922 12.244M30.549 29.9101C30.4979 24.8889 30.4307 19.9871 30.4112 12.3189M30.5512 12.4422C25.6636 12.3352 20.8 12.4809 10.7156 12.2344M30.4643 12.4084C24.3738 12.2661 18.2495 12.3649 10.7547 12.5507M10.8227 12.2075C11.0041 17.1825 10.6928 21.7293 10.5913 29.8962M10.7487 12.5262C10.7917 17.0394 10.8246 21.7705 10.7951 30.0904" stroke="#951BCD" stroke-width="0.532874" stroke-linecap="round"/>
</g>
</g>
</g>
<defs>
<clipPath id="clip0_2026_742">
<rect width="42" height="42" rx="21" transform="matrix(1 0 0 -1 0 42)" fill="white"/>
</clipPath>
</defs>
</svg>
