<svg width="160" height="28" viewBox="0 0 160 28" fill="none" xmlns="http://www.w3.org/2000/svg">
<path d="M4.75997 13.0001C46.7277 14.8296 89.8321 13.2688 159.314 13.7675M1 14.7979C46.5369 12.7313 90.8726 13.7413 160 13.2138" stroke="black" stroke-width="2.50384"/>
<path d="M74.5654 26.1153C74.8939 25.9125 75.2778 25.408 75.4821 24.7009M74.6574 26.2345C74.9538 25.9277 75.1619 25.5252 75.4146 24.9611M74.1216 26.5352C74.9336 25.8695 75.4799 23.788 75.5981 23.2038M73.8737 25.8781C74.2682 25.1387 74.9352 24.4697 75.3791 23.2392M72.7667 25.8516C73.7617 25.1793 74.17 23.6098 75.668 22.0536M73.1443 25.9811C73.8411 24.8572 74.5909 23.6671 75.5173 22.3441M72.5722 25.1327C73.6623 24.6918 74.3911 23.4899 75.256 21.8584M72.3462 25.9772C73.0135 24.9205 74.0328 22.8179 75.5961 21.0557M71.9524 26.2127C73.2555 25.1245 74.1976 22.6831 75.9692 19.7641M71.4223 25.7379C72.6549 24.1729 73.4912 22.4472 75.4003 20.1879M70.5405 25.9878C71.7995 23.8175 72.4335 22.2427 75.5686 17.6541M70.5709 26.3491C72.2745 23.2984 74.1438 20.0962 75.6276 18.4659M70.5956 25.522C71.5154 22.7509 73.6457 20.1909 75.5032 17.9295M69.9649 25.9484C71.6728 24.4735 73.041 21.9003 75.3405 17.0266M69.749 26.512C72.4114 22.1027 74.1802 18.5577 75.4104 15.5476M69.0348 26.5353C71.0495 21.938 73.4565 19.3113 75.4227 15.5785M68.1955 25.855C71.0468 22.6295 73.0382 20.2695 75.3769 15.6215M68.6915 26.4754C71.4036 22.2375 74.1587 18.0232 75.2897 15.1246M67.6783 25.5219C69.463 22.4853 71.5953 20.3899 75.468 14.3713M67.9242 26.1372C70.016 21.9286 72.6627 18.4266 75.7891 13.6497M66.6336 26.1272C69.6064 22.0289 72.6416 18.2994 75.2431 12.9275M66.8299 25.8435C70.1317 22.315 72.6549 17.921 75.7833 12.0578M66.14 26.9386C70.2799 21.8267 73.7398 14.7958 75.424 10.2821M66.3817 25.7232C69.4903 20.4869 72.6539 16.2424 75.4175 10.7154M65.4649 27C68.9134 20.5399 72.8992 13.9646 75.6905 9.95598M65.5826 25.9798C67.0736 23.635 69.2688 20.142 75.5067 9.66292M65.0092 25.3142C66.9327 20.7647 68.5835 18.5467 75.1658 7.74573M64.552 25.7723C69.1116 18.4796 73.3296 12.5745 75.4422 8.53153M63.8944 26.6297C67.2427 17.8789 71.3485 11.8011 75.45 6.38811M63.9711 25.6273C66.6431 21.3976 70.4593 16.0612 75.3091 7.7172M63.0711 25.4707C65.802 22.5515 68.6544 17.0289 75.5716 6.29447M62.9709 26.3402C65.9721 19.9886 69.4918 14.1362 75.431 5.8771M63.0413 25.3463C67.3333 17.5657 72.087 10.0984 75.8848 4.78387M62.5274 25.3208C65.989 20.4258 69.7339 14.6149 75.6077 4.73225M62.3907 23.7533C67.4887 15.3709 72.3578 7.88953 76 3.19978M62.4165 24.684C65.203 18.0747 68.4922 13.291 75.6008 3.3003M62.2623 22.7416C68.3171 14.447 73.492 6.39555 75.2701 2.4846M62.3216 23.3102C65.9549 17.12 68.9862 11.8659 75.7954 1.98853M62.3117 22.3313C65.7723 14.9712 70.0079 7.60287 74.5704 2.6439M62.65 21.8868C64.1631 17.2861 66.8198 14.137 74.6497 2.29922M62 21.4936C66.4798 15.6102 69.4602 10.902 73.8033 2.14863M62.2509 20.2654C66.0336 14.6056 69.3657 8.18943 74.0225 2.10422M62.9382 18.7639C66.6643 13.9918 70.9912 6.20139 73.3113 1.79986M62.6448 19.8192C64.6614 14.7173 66.9428 11.4275 73.4369 2.19564M62.5657 19.1209C66.118 11.7288 69.301 5.34103 71.8784 2.32721M62.5728 18.3972C66.1585 12.1071 70.0992 6.30905 72.6007 2.51398M62.8617 17.0283C65.7522 12.3508 69.4167 6.35969 71.8295 2.95659M62.3563 17.0246C65.786 12.1185 69.0698 7.05442 71.7918 2.37953M62.4457 15.9487C65.287 10.3647 68.0091 5.45494 70.749 1.525M62.6939 15.3243C65.199 11.0203 68.2537 6.47248 70.6146 1.93914M62.539 13.9777C64.1932 10.5034 66.1421 7.63998 70.4249 1.85078M62.4793 14.3182C65.0763 10.4831 67.8285 6.25478 70.2352 2.01658M62.985 13.656C63.5883 10.8708 64.6126 9.72953 69.3861 1.98687M62.6479 13.0018C64.4017 10.9505 65.9737 8.6996 69.4377 1.89107M62.2225 11.0047C64.8729 9.53999 67.263 4.8538 68.4611 3.12573M62.5013 11.6442C65.0603 8.54086 67.0457 4.43338 68.286 1.98022M62.9132 11.2161C64.5393 7.47719 66.1469 5.90232 68.0213 1.60807M62.5823 10.7833C63.8413 8.61969 65.008 6.80998 67.4903 2.22341M62.6852 9.80489C63.8154 7.87707 65.4968 5.39908 66.5515 2.01651M62.4959 9.37163C64.287 7.33452 65.6039 5.3715 66.9488 2.28211M62.131 7.56071C63.6449 6.88931 64.0746 5.39236 65.662 1.8305M62.312 8.11861C63.4554 7.0574 64.8693 5.25336 66.1305 2.46059M62.9783 7.39806C63.7285 5.39991 64.221 2.51714 65.6549 1.96389M62.3738 6.72225C63.4934 5.63166 64.3147 3.93271 65.5912 2.10876M62.7894 4.81912C63.4599 5.34232 63.2725 4.27671 64.0459 2.6159M62.3363 5.97517C63.1673 4.96631 63.4769 4.01151 64.5374 2.21535M62.2855 4.09477C62.6207 3.67456 63.3242 3.36757 63.6788 2.60976M62.5154 4.56836C62.7141 3.9729 63.1342 3.0961 63.6447 2.11815M62.3929 3.22045C62.5462 2.78404 62.7369 2.70866 62.9275 2.50874M62.475 3.17707C62.6417 2.98621 62.7886 2.83537 62.9332 2.47723" stroke="#B20DFF" stroke-width="0.625961"/>
<path d="M75.9079 26.6406C75.4233 18.4128 75.158 10.0517 75.9916 3.20743M75.4203 25.82C75.6966 18.6467 75.556 10.8811 75.4638 2.60494M75.1391 1.953C72.8467 0.48724 70.583 0.886978 62.3897 1.97604M75.701 2.5074C71.8351 2.13208 67.9064 2.86769 62.4683 2.14962M62.7317 2.98574C62.813 9.56169 62.8338 17.6407 62.2202 26.191M62.4919 2.75195C61.8958 7.45985 61.951 12.3169 62.9181 26.4032M62.8989 26.0606C66.8021 25.1 71.5265 26.3484 75.6989 26.467M62.8606 25.6101C67.1029 25.4946 71.7649 25.6118 75.6079 26.4169" stroke="black" stroke-width="1.25192"/>
</svg>
