<svg width="211" height="64" viewBox="0 0 211 64" fill="none" xmlns="http://www.w3.org/2000/svg">
<path d="M1.656 4.633C2.67 3.597 3.972 2.485 4.438 1.912M1.733 4.738C2.285 4.036 2.999 3.237 4.469 1.997M1.841 6.76C3.699 4.817 5.439 3.204 6.273 1.992M2.129 6.492C3.581 4.911 5.236 3.391 6.298 2.292M1.323 9.337C3.463 7.584 5.135 5.7 8.333 2.398M1.567 8.808C3.145 7.594 4.364 6.284 8.713 2.132M1.969 11.31C4.663 7.613 8.281 4.624 10.276 2.772M2.306 11.046C5.364 7.78 8.299 4.304 10.311 1.987M1.653 13.327C4.951 11.147 7.39 7.349 13.446 2.124M1.437 13.49C4.328 10.713 6.216 8.686 13.033 1.841M2.94 14.445C6.975 11.11 10.802 5.619 15.226 1.718M1.738 14.977C7.073 10.313 11.691 5.376 14.981 2.367M1.52 16.655C7.614 12.01 12.511 6.623 17.819 1.604M1.927 17.22C7.549 11.879 13.79 5.062 16.855 2.088M2.243 18.734C8.776 12.775 15.911 5.406 18.929 3.149M2.448 19.592C6.163 15.417 9.294 11.778 18.861 2.607M1.144 21.371C7.423 16.439 13.609 9.254 20.809 2.196M2.231 22.062C6.95 16.878 11.55 12.376 21.835 2.172M3.01 24.255C9.39 17.094 15.719 9.163 22.972 1.434M1.784 23.804C7.558 19.174 11.742 13.817 23.126 1.845M1.062 25.912C7.371 19.701 13.755 14.308 25.037 1.626M1.49 26.428C11.113 16.935 19.853 7.159 25.477 2.271M2.934 27.586C12.75 18.528 22.613 8.184 28.267 2.131M2.084 27.752C10.217 19.885 17.795 12.477 27.809 2.116M1.738 30.974C9.211 23.564 15.954 16.154 30.283 2.44M1.74 30.012C13.107 19.086 23.488 8.467 30.015 1.932M2.827 32.662C11.753 22.727 22.481 12.39 32.744 1.429M2.807 31.808C7.952 25.832 14.541 20.202 31.382 2.47M2.423 34.169C13.485 22.054 26.442 11.13 35.278 1.697M2.288 34.763C10.888 24.684 20.624 15.207 34.058 2.069M2.387 36.774C13.09 25.055 24.687 14.945 35.669 2.985M1.776 37.243C9.834 29.189 18.695 20.09 36.066 2.411M1.41 37.996C11.752 29.826 20.886 18.649 39.445 1.159M1.777 38.904C12.653 27.933 22.484 17.84 38.239 1.83M1.808 40.91C13.381 29.1 26.133 16.032 41.121 1.361M1.477 41.81C9.607 33.026 17.784 25.303 40.339 1.867M2.137 42.946C9.441 34.166 18.855 25.594 42.885 1.118M1.681 43.486C12.039 33.504 21.887 23.008 43.069 1.72M1.686 45.227C14.083 32.869 28.578 18.288 45.524 3.305M1.367 45.401C16.921 30.531 32.273 15.41 44.857 2.544M1.588 47.633C18.249 31.144 35.562 13.566 47.286 2.358M1.916 47.245C15.583 33.932 29.535 19.787 47.593 2.476M1 50.156C15.893 37.161 28.146 24.639 48.334 2.312M1.554 50.374C18.91 33.473 35.113 16.654 48.964 2.4M1.97 52.182C15.63 38.21 28.453 24.131 51.035 1.889M2.473 51.821C12.922 39.85 24.069 28.909 51.592 1.942M2.834 54.713C20.955 35.151 40.12 14.327 52.872 3.291M2.131 53.883C12.132 43.673 23.185 33.158 53.045 2.46M2.535 56.076C18.907 38.358 36.728 20.572 54.93 2.682M2.024 55.892C12.723 45.075 24.546 33.903 55.465 2.348M1.339 57.599C22.552 37.099 43.612 16.522 57.639 2.822M1.853 58.933C19.954 40.924 37.804 22.525 57.422 2.564M1.872 61.112C21.752 41.365 42.268 20.842 60.95 2.171M1.951 60.477C24.037 38.512 45.299 17.312 60.484 1.997M2.059 61.357C21.515 41.962 40.712 23.61 61.306 2.811M2.683 61.559C22.998 41.312 44.793 19.654 61.58 2.145M6.101 62.605C26.566 38.89 48.739 17.569 64.497 2.196M5.386 61.663C19.648 47.26 33.376 34.128 63.84 1.595M6.272 62.475C20.801 48.479 35.29 33.074 65.802 2.247M6.54 62.253C20.717 48.335 34.629 34.564 66.159 2.151M8.448 61.172C24.602 45.168 41.743 28.546 67.962 1.197M9.675 61.612C29.822 41.384 50.407 20.703 68.48 1.563M10.859 61.949C25.133 48.057 37.115 36.708 69.758 2.326M11.51 62.427C24.997 47.435 40.212 33.313 70.01 2.807M14.159 61.208C26.293 47.804 40.371 35.134 73.424 2.222M13.65 62.106C30.494 45.022 46.467 29.058 72.444 1.956M16.449 61.304C37.846 38.946 59.671 17.631 74.227 2.289M15.368 61.798C28.496 48.934 40.715 36.776 74.221 2.467M18.009 61.629C41.08 38.519 63.928 16.45 76.689 2.262M17.863 61.239C32.697 46.876 47.777 31.842 76.595 2.415M19.734 62.05C34.563 47.137 49.372 33.065 79.215 3.391M19.526 61.798C40.412 40.205 61.937 19.055 78.868 2.272M22.832 60.846C42.855 40.499 64.721 18.744 82.116 1.911M21.966 61.423C40.53 44.453 57.454 26.022 80.889 1.837M23.68 62.993C42.03 43.854 59.518 25.452 83.137 2.3M23.596 62.375C39.659 46.507 55.072 30.438 83.626 2.131M27.067 62.127C43.541 45.937 60.087 28.47 86.187 1.949M26.983 62.109C39.931 47.745 53.979 34.288 85.265 2.103M28.974 61.281C43.783 45.974 58.409 32.16 87.37 1.738M28.086 61.637C41.18 48.901 54.53 35.606 87.402 1.962M30.759 62.194C44.58 47.39 58.636 33.677 89.1 2.527M30.711 61.662C52.185 39.566 74.017 18.468 89.502 2.46M33.448 62.176C53.262 40.021 74.859 18.211 90.974 1.89M32.239 62.153C51.102 42.831 69.888 24.212 91.747 2.66M34.139 60.816C48.972 47.425 64.089 33.303 95.055 2.913M35.15 61.307C55.5 40.714 76.801 19.926 93.809 1.883M37.424 62.306C53.753 46.399 68.486 29.54 95.457 1.95M37.012 61.718C58.345 40.09 81.066 18.231 96.19 2.223M38.593 62.475C60.297 39.76 81.856 18.767 97.609 1.909M39.125 61.587C61.128 39.975 83.238 17.633 98.041 1.721M41.746 61.367C58.921 44.409 78.404 26.083 100.082 1.834M40.667 62.112C60.851 41.661 81.892 21.892 99.886 2.163M42.931 62.772C62.087 42.528 80.672 25.66 101.775 2.672M43.369 61.386C61.73 43.215 80.515 23.98 102.477 2.011M44.469 62.191C64.392 42.842 82.284 23.842 104.48 2.104M44.977 62.357C67.269 40.453 89.725 17.878 104.442 2.349M47.809 62.758C64.331 45.226 81.961 27.207 107.713 2.89M47.761 62.25C67.3 41.946 87.05 21.715 106.908 1.773M49.291 62.631C63.937 48.828 75.837 35.892 108.226 2.705M49.212 62.165C68.873 43.096 87.309 24.895 108.389 2.058M51.374 61.624C69.528 44.235 86.306 27.962 110.943 1.814M51.664 61.307C74.489 39.261 95.893 17.394 111.436 2.36M54.611 62.056C73.942 42.682 93.434 21.035 113.947 1.957M53.585 62.416C76.909 38.55 99.784 15.908 113.304 2.028M56.154 61.33C68.624 49.393 80.328 36.424 116.485 2.978M56.51 61.657C77.698 40.574 98.66 19.35 115.049 2.177M58.012 61.266C80.786 38.567 102.331 16.432 117.106 3.14M58.275 62.417C79.909 40.494 100.731 19.22 117.582 2.841M59.886 61.232C78.243 43.254 97.038 24.367 119.105 3.089M60.596 61.983C74.827 48.106 87.988 34.298 120.081 2.571M61.805 62.643C79.38 44.575 96.656 26.741 121.145 2.447M62.589 62.318C76.138 47.482 91.023 32.885 121.536 3.014M65.542 61.216C81.546 45.456 97.742 28.762 124.373 1.477M65.356 61.417C77.904 48.493 91.526 35.434 123.859 2.635M65.787 61.738C89.587 39.508 112.6 16.226 124.987 3.241M66.723 61.875C81.833 47.446 96.947 31.351 125.593 2.688M68.803 61.219C90.706 40.152 111.524 18.045 128.845 2.156M69.207 62.125C85.235 46.256 101.243 30.386 128.582 2.63M71.472 62.743C91.282 42.267 112.176 21.408 130.682 2.669M70.957 62.451C92.922 39.427 114.548 18.147 130.055 2.071M73.844 62.492C91.562 43.226 109.045 24.653 132.6 2.966M73.516 61.87C94.925 40.601 116.072 19.162 133.098 1.743M75.664 61.227C91.771 45.283 108.296 30.575 133.893 2.741M75.187 61.98C94.987 42.443 114.156 23.183 134.134 2.487M77.928 61.678C100.181 38.796 121.301 16.284 137.736 2.398M77.801 61.807C92.406 47.19 107.476 32.348 137.341 1.787M79.961 62.184C95.609 46.655 110.694 31.638 139.229 2.955M79.712 62.533C102.822 39.302 125.487 16.125 138.581 2.942M82.655 62.816C105.147 38.874 128.122 15.714 141.548 2.569M81.868 61.592C103.199 40.6 124.69 19.151 141.588 2.456M83.941 62.703C104.299 42.166 122.076 22.726 143.576 3.485M83.484 62.271C101.888 43.568 121.329 25.21 142.708 2.519M86.123 61.009C105.188 42.494 123.095 23.854 146.284 2.697M86.121 61.466C98.743 49.023 111.564 36.725 145.361 1.974M88.899 63.114C100.645 50.363 114.091 36.789 146.796 2.34M88.403 62.269C108.153 42.024 128.9 21.137 146.762 2.682M91.323 61.782C111.756 39.332 135.009 17.302 149.679 3.043M90.605 61.889C103.018 49.436 115.14 36.598 149.259 1.883M92.892 61.267C110.469 44.518 126.921 27.424 150.757 3.492M92.099 61.85C105.766 49.629 118.431 36.708 151.369 2.513M95.021 61.974C114.217 43.302 133.247 22.617 153.641 1.561M94.836 61.479C109.42 48.024 122.682 33.594 153.683 2.69M96.756 61.657C115.94 42.877 135.007 23.875 155.104 2.193M97.052 62.596C116.435 42.278 136.884 21.619 156.114 2.592M100.083 61.246C115.056 44.341 132.018 27.531 157.914 1.39M99.385 62.346C112.627 48.597 125.45 35.452 158.716 2.092M100.832 62.358C118.622 45.034 136.368 26.188 160.691 2.64M100.53 62.546C112.528 49.892 125.209 38.306 159.824 2.462M102.577 61.187C124.876 39.886 145.846 19.856 161.991 2.057M103.014 61.857C116.927 48.657 130.441 34.621 162.694 2.049M105.003 62.959C128.158 38.775 151.059 14.377 164.853 2.23M104.992 61.913C125.275 41.357 144.81 21.356 164.274 2.13M107.26 61.17C123.808 45.879 140.756 28.008 166.144 3.11M107.168 62.405C127.786 41.595 147.389 21.559 166.494 2.64M109.175 62.725C131.233 41.789 151.716 19.724 169.802 1.415M109.673 62.35C130.953 40.252 152.978 18.201 169.415 2.237M111.616 62.42C124.907 48.009 139.526 34.5 170.661 1.854M111.584 61.458C124.669 50.12 136.94 37.643 170.982 1.894M113.424 62.741C133.958 43.203 152.02 23.251 174.161 2.416M113.419 62.531C126.425 49.858 139.239 37.543 173.973 2.284M116.883 61.098C138.618 39.03 159.329 17.599 176.002 2.768M116.538 61.751C129.442 48.127 143.143 34.665 175.487 2.399M117.512 61.954C136.421 44.679 153.076 27.413 178.063 1.844M118.286 62.682C132.802 47.108 147.685 32.239 178.102 2.176M120.331 61.426C134.706 48.446 147.34 33.732 179.702 1.552M120 61.794C135.705 45.933 151.306 30.427 179.754 2.617M122.26 61.752C138.02 45.938 155.427 30.581 182.361 1.912M122.252 62.58C135.697 48.353 149.009 34.829 181.814 1.83M123.914 62.824C145.372 41.287 167.034 18.814 183.751 2.269M124.309 61.55C141.167 45.329 158.28 29.012 184.287 1.804M127.419 62.518C139.974 49.233 153.571 36.333 186.724 1.052M126.84 61.836C149.336 39.617 172.928 15.703 186.036 1.723M128.992 61.527C144.159 44.827 161.248 29.019 188.069 1.773M128.953 62.122C142.403 48.204 156.171 35.257 187.698 2.29M130.168 62.902C148.686 43.671 167.063 25.787 189.615 1M130.738 62.502C151.703 41.278 172.732 20.164 190.83 1.907M133.748 62.298C154.543 39.429 176.038 19.646 192.632 3.31M133.439 61.591C144.854 49.828 157.267 38.186 191.916 2.194M135.358 62.711C150.088 47.086 163.354 33.115 194.403 2.096M135.018 62.767C146.869 50.36 159.039 37.527 195.058 1.685M137.63 61.907C154.605 44.516 171.197 26.64 196.379 1.686M137.9 62.449C151.085 47.977 164.66 34.577 196.375 2.785M139.026 61.453C162.756 38.081 186.985 14.489 199.82 2.476M139.74 61.881C156.466 45.012 172.66 29.633 199.274 1.902M141.103 61.333C160.315 43.199 177.4 25.141 200.03 2.907M142.189 62.211C153.822 49.734 166.437 36.815 201.258 2.72M143.638 60.664C164.175 41.343 185.105 19.639 203.093 1.604M144.261 62.114C156.179 49.533 168.095 38.248 203.679 2.363M145.237 62.229C159.45 48.119 172.841 33.914 206.112 1.914M146.019 61.94C161.168 46.33 177.618 30.901 205.418 2.566M147.983 60.825C164.182 44.993 180.81 30.098 208.49 2.175M148.098 61.805C161.452 48.153 174.111 36.046 208 1.837M150.943 61.664C167.023 45.618 182.208 29.501 209.237 2.752M149.859 61.523C168.926 42.528 187.93 23.801 209.725 2.073M153.117 61.626C175.166 40.332 196.299 16.963 209.218 4.354M152.409 61.648C173.619 40.832 193.539 20.612 209.119 5.122M153.893 62.761C175.993 40.987 198.862 19.054 209.337 6.097M154.894 61.884C170.706 45.365 187.01 28.549 210.008 6.174M157.668 61.104C176.528 42.192 195.234 21.625 208.486 9.824M156.94 61.566C174.518 44.06 191.927 26.856 209.429 8.858M159.302 61.569C171.865 50.107 183.144 36.201 209.555 10.39M158.584 61.821C170.873 50.971 181.396 38.623 209.66 10.899M160.897 60.99C171.937 52.796 180.244 41.993 209.326 14.043M161.521 61.547C179.24 43.24 197.821 24.953 208.978 13.388M162.644 62.789C178.677 47.317 193.547 33.152 209.141 14.735M162.719 62.2C181.57 43.808 200.331 24.701 209.472 14.936M165.167 62.558C182.231 45.768 196.811 29.783 208.683 17.667M165.415 61.675C175.135 52.484 184.253 42.5 209.056 17.542M167.104 61.876C180.454 50.257 193.011 36.274 209.812 20.612M167.571 61.789C179.815 50.098 191.446 37.591 208.657 20.124M170.762 61.615C182.796 48.804 194.399 36.066 209.89 21.875M169.662 61.647C181.894 48.743 194.935 37.129 209.791 21.843M172.501 62.841C183.617 50.061 195.902 37.218 209.987 25.396M171.289 61.713C179.211 54.38 186.523 47.262 209.432 24.426M174.163 62.425C183.718 53.211 191.757 42.886 209.644 25.551M173.967 61.718C184.334 52.039 194.303 42.01 209.116 25.872M176.4 61.936C187.792 50.649 198.032 39.264 209.606 28.755M175.628 62.124C184.088 53.661 191.839 46.626 209.257 28.787M177.597 61.986C186.069 53.938 191.206 48.297 209.923 29.546M178.237 61.826C185.495 54.56 191.514 48.298 209.273 30.528M180.824 62.082C189.505 51.701 198.653 42.885 209.058 33.896M180.479 61.667C188.737 53.998 196.904 45.662 208.759 33.074M183.107 60.808C188.637 55.08 195.008 47.966 210.233 34.101M182.47 61.824C188.341 56.166 193.608 50.538 209.452 34.796M184.35 62.154C188.945 57.793 195.345 51.448 209.558 37.167M184.881 62.34C189.727 56.977 195.543 51.431 209.06 37.032M186.585 62.101C194.703 52.755 203.213 44.408 209.067 38.688M187.271 61.738C191.106 57.556 196.308 52.144 209.636 39.349M189.709 61.628C195.999 54.773 205.668 45.72 210.177 41.21M188.846 61.93C195.197 55.956 201.035 49.395 209.251 41.319M191.272 61.146C195.265 57.038 198.674 54.27 210.061 42.833M191.683 61.681C197.484 55.179 203.133 49.595 209.406 43.255M193.634 61.82C197.638 57.406 201.962 54.63 208.99 45.202M192.833 62.019C197.02 57.676 201.296 53.327 209.388 46.254M195.18 61.279C200.201 56.352 206.38 51.711 209.993 46.621M195.967 62.005C199.017 58.355 203.058 53.802 209.523 47.719M196.489 61.665C200.192 60.137 201.974 56.831 209.207 49.411M196.967 62.394C200.108 59.16 202.762 56.491 209.598 50.332M199.528 62.103C202.539 59.702 205.612 55.895 209.455 51.944M199.675 61.682C202.373 58.743 205.16 56.167 208.756 52.764M201.633 62.463C204.547 58.856 208.272 56.358 209.79 53.967M201.84 62.002C204.32 59.199 206.835 56.78 209.082 54.515M204.347 61.435C205.705 60.253 207.254 58.667 208.995 56.83M203.976 61.897C205.311 60.5 206.857 59.295 209.169 56.756M206.058 61.98C207.162 61.015 208.216 60.042 209.18 58.49M205.885 62.057C206.766 61.303 207.599 60.464 209.355 58.471M208.312 61.811C208.611 61.573 208.862 61.246 209.108 61.07M208.354 61.807C208.582 61.563 208.775 61.329 209.039 61.065" stroke="#5EC6E3" stroke-opacity="0.58" stroke-width="0.731" stroke-linecap="round"/>
<path d="M1.93501 2.42C78.335 2.058 155.59 1.521 208.463 2.098M209.458 2.1C209.824 14.845 208.038 29.115 208.375 61.721M209.132 60.482C157.474 61.015 104.552 60.459 1.76701 61.556M1.66001 60.565C2.09001 42.152 1.03301 22.732 2.30201 2.709" stroke="#5EC6E3" stroke-opacity="0.58" stroke-linecap="round"/>
<path d="M2.71599 2.012C60.459 2.984 118.021 3.152 209.397 1.915M209.538 2.148C208.309 18.139 208.571 36.138 208.947 60.41M208.624 61.363C163.926 60.847 118.278 60.651 2.59099 60.55M2.29599 60.657C2.18599 48.644 2.09399 36.394 2.35899 1.922" stroke="black" stroke-linecap="round"/>
</svg>
