<svg width="101" height="103" viewBox="0 0 101 103" fill="none" xmlns="http://www.w3.org/2000/svg">
<path d="M2.00002 3.31936C28.0216 1.7204 53.83 1.59046 97.7542 2.85014M97.5266 2.88262C97.0125 27.4554 99.1426 57.2419 97.6968 100.215M97.1289 96.6961C69.5272 96.947 43.33 97.64 3.00863 99.396M4.99541 99.8435C3.58371 71.5008 3.48876 42.1943 3.43322 3.31936" stroke="black" stroke-width="4" stroke-linecap="round"/>
<path d="M46.0156 33.8125C46.0156 32.625 47.1094 32.0312 49.2969 32.0312C50.3594 32.0312 51.0469 32.25 51.3594 32.6875C51.6719 33.0625 51.9219 33.7188 52.1094 34.6562C52.2969 35.5938 52.4844 36.6562 52.6719 37.8438C52.8594 39.0312 53.0156 40.2812 53.1406 41.5938C53.3281 42.9062 53.4844 44.1562 53.6094 45.3438C53.7969 46.5312 53.8906 47.3438 53.8906 47.7812H74.5156C74.5156 50.2188 71.5781 51.625 65.7031 52C64.0781 52.0625 62.5156 52.125 61.0156 52.1875C56.9531 52.25 54.5781 52.375 53.8906 52.5625C53.7656 53.4375 53.7031 54.3125 53.7031 55.1875C53.7031 56 53.7656 57.0625 53.8906 58.375C54.0156 59.6875 54.2344 61.3125 54.5469 63.25C55.1719 67.1875 55.4844 69.8438 55.4844 71.2188C55.4844 72.5312 55.4531 73.5625 55.3906 74.3125C54.1406 75.3125 52.7656 75.8125 51.2656 75.8125C50.0781 75.8125 49.3906 75.3125 49.2031 74.3125C49.0781 73 48.9531 71.5 48.8281 69.8125C48.7031 68.0625 48.5156 66.25 48.2656 64.375C47.6406 59.6875 46.8906 56.25 46.0156 54.0625C44.3281 54.0625 42.3281 54.4062 40.0156 55.0938C35.3281 56.4688 32.0156 57.1875 30.0781 57.25C28.2031 57.25 27.2656 56.4375 27.2656 54.8125C27.2656 53.125 30.3906 52.125 36.6406 51.8125C40.3906 51.5625 42.8906 51.25 44.1406 50.875C45.3906 50.5 46.0156 50 46.0156 49.375V33.8125Z" fill="black"/>
</svg>
