<svg width="98" height="58" viewBox="0 0 98 58" fill="none" xmlns="http://www.w3.org/2000/svg">
<path d="M96.2409 3.79743C95.2101 3.34416 94.4189 2.82894 93.1279 1.92316M96.103 3.94852C95.347 3.48241 94.6979 2.92791 93.1102 1.80682M95.4964 5.25318C94.2883 4.61256 93.4908 3.65087 90.5644 1.54619M95.4922 5.52137C93.7594 4.04522 91.8306 2.79495 90.2782 1.66782M95.9526 7.66987C94.3754 6.28362 91.956 5.00388 88.5028 2.0123M95.5472 7.51576C93.5271 6.00334 91.8793 4.44032 88.4375 2.11731M96.2617 9.21778C92.1728 6.95521 89.068 4.7085 85.8357 2.04252M95.9122 9.41873C92.4123 6.91744 88.3981 4.04749 85.8709 2.24045M95.2651 12.0787C92.4911 9.93017 89.6176 6.84718 83.771 2.34017M96.1538 11.392C90.8662 7.64947 86.1603 4.49471 83.3075 2.08709M96.384 14.1123C93.1009 10.4416 90.0687 7.93579 80.3728 2.22005M96.6744 13.8147C90.1164 8.69955 84.0168 4.83617 79.9756 1.72297M96.7356 15.4654C88.5951 9.64764 82.7952 5.06583 76.6334 2.17775M95.2952 14.685C89.1727 10.2407 82.342 5.45489 77.4816 1.47291M96.7563 16.3636C91.003 13.7988 86.6995 9.54263 75.6752 2.10673M96.3591 17.36C90.4047 12.3431 83.7524 8.139 75.2262 2.28729M96.4525 18.707C90.5831 14.6578 83.909 9.95057 72.4968 1.30973M96.2917 18.6979C89.3687 14.336 82.8077 9.5041 72.8546 2.36812M96.9284 21.4893C90.4763 16.9392 85.6293 12.2441 70.6312 2.40438M96.4774 21.0512C86.546 13.5261 76.5266 6.22545 69.4615 1.91636M95.1386 21.8837C89.3998 17.8919 80.4174 11.818 67.6592 1.4714M96.076 22.4888C87.1838 16.5094 78.8349 10.6108 66.7187 1.78416M95.9246 24.2036C88.3743 20.3138 83.3614 14.8889 63.7041 2.15282M95.6529 24.7385C89.6653 19.4103 82.1471 14.6857 64.4445 2.05536M95.4445 27.0101C88.6335 22.0748 81.7458 16.7262 61.3418 2.32128M96.2938 26.6113C83.9473 17.4915 70.7526 8.42607 62.2606 1.80531M97 28.5618C84.667 21.2075 75.1712 13.4702 59.5499 2.28578M96.2627 28.6661C84.276 20.0615 72.1079 10.7733 59.2512 2.11051M95.1282 29.7441C83.771 21.4969 70.8106 10.9667 56.5675 1.52051M95.4061 30.2873C85.5744 23.0735 75.9666 15.6746 56.246 1.56659M95.486 32.3519C80.8871 22.3951 67.6094 10.8715 54.0694 1.53259M96.2005 32.4282C86.6114 25.2235 77.7015 18.5544 54.2788 2.11958M96.4763 34.1514C84.416 25.5567 69.7332 16.1166 51.4644 1.71163M95.6218 33.9346C80.8944 23.0916 66.5621 12.788 50.8246 2.04252M96.2337 36.2047C80.5086 25.6367 64.9319 13.9575 49.9763 2.31297M96.3104 36.1813C79.8761 24.4303 62.7864 12.5214 48.6075 1.84837M96.1331 38.1334C80.2069 27.1756 66.7093 16.6197 46.3479 1.84459M95.5627 37.9188C78.417 25.3829 61.7297 13.4211 46.0772 2.05461M96.0076 39.2227C83.0752 30.1808 69.1006 20.5231 42.6645 2.18606M96.412 39.7629C82.8004 30.2911 68.7429 20.3403 43.2203 1.7003M95.4362 42.0353C80.6994 30.0199 65.8175 20.3962 40.1425 2.47086M96.4525 41.8336C76.5276 28.1433 58.1624 13.7437 41.0084 1.44723M96.6682 43.8733C79.8336 32.608 65.103 21.3322 37.6661 1M96.7584 43.5892C81.5487 33.2962 67.71 22.905 38.0509 1.75545M94.702 45.3442C78.0219 32.1608 60.2882 19.4798 35.9468 1.61871M95.8811 44.8259C82.622 35.7182 69.0872 25.8656 35.8047 2.21476M96.6671 46.8415C80.6455 36.204 64.0318 24.2769 33.5233 1.68444M96.1777 46.9752C78.7084 34.1975 60.2499 21.373 32.7155 2.32733M96.3145 49.8474C75.9085 34.0109 53.386 18.426 29.702 1.98133M96.3374 49.3903C80.5543 37.7745 65.9285 26.8553 30.3947 1.58321M96.5655 50.791C69.6471 32.3164 41.9137 13.0419 27.0981 1.93298M95.9288 51.0085C78.8287 38.3207 60.9322 25.3466 27.1572 1.56734M95.2039 52.6856C72.0146 35.2204 47.6638 17.4756 25.7427 1.93978M96.2108 52.9304C79.4696 40.9187 62.8662 28.7205 25.1154 1.34751M95.0484 54.717C77.7119 40.7971 58.1997 27.5548 21.8167 2.55169M95.9651 54.7888C71.3882 37.0131 46.3468 18.8279 23.032 2.36434M95.8915 56.6321C78.6296 44.2963 64.3927 33.7525 19.1537 2.26613M95.3958 55.9673C68.2659 37.0848 41.9396 17.2875 19.7531 1.6512M92.1717 56.2944C73.7194 41.9303 55.2505 29.0302 18.2836 2.51468M92.1552 56.4221C63.8399 35.4961 35.7881 15.5129 17.4198 1.92392M90.7407 55.5654C66.8701 39.8853 44.726 23.9219 13.8629 2.43687M89.8914 55.783C73.8252 44.6726 58.1997 33.3499 14.3078 1.76603M86.7493 56.0338C56.3736 34.6032 28.1144 13.3017 12.6247 1.84837M86.6186 55.7777C64.5161 39.8369 41.5787 23.0939 12.1685 1.98813M84.3082 56.9214C68.5738 44.1808 49.6839 32.0513 9.98247 1.84761M84.9916 56.3276C55.5129 34.8827 26.5817 14.1924 10.1971 1.87103M81.3465 56.4538C65.8953 45.4439 50.7593 34.0834 7.64923 2.68239M81.7167 56.0663C64.0059 42.9698 46.3665 30.4603 6.55209 1.7411M80.323 56.3971C51.199 35.8278 25.7168 16.3334 3.62153 2.21779M79.1284 56.2634C59.8361 41.8562 40.1093 27.6054 4.09647 1.76452M77.6071 56.1962C58.9951 42.4342 39.7899 30.007 2.30869 2.78588M76.4446 56.3027C52.4589 39.0248 29.0746 21.3813 2.04114 2.55094M73.1076 56.5853C51.8046 40.6898 29.6626 24.7665 1.57035 4.7561M73.6261 55.6085C58.1012 44.9596 42.6914 33.3129 2.62187 4.07468M72.2842 56.002C48.0973 40.0515 25.5229 23.2994 1 5.85528M71.746 55.9401C47.6504 38.6018 23.1036 21.1297 1.50398 5.93082M68.5541 56.8459C42.932 37.8516 17.6677 20.3252 2.03907 8.24703M69.0799 55.9605C51.9943 44.7111 36.1065 32.0905 2.43728 8.00075M65.3934 56.6041C40.9731 37.0856 15.1457 19.9656 1.21881 10.5043M66.0788 55.7271C48.874 43.9103 31.9181 31.49 1.75286 10.0563M62.7884 56.5044C38.4999 39.0399 14.9393 21.0904 1.27066 11.7493M63.4666 55.6364C44.7084 43.1299 27.1157 29.3498 2.75564 11.7425M61.7711 55.2451C41.8162 42.3888 23.815 29.4004 1.48428 13.4045M60.9623 55.6311C47.8101 46.5468 35.1369 37.1808 1.27377 13.1023M59.4182 56.2521C41.3102 43.2342 23.2363 29.7267 1.69998 15.9073M58.8084 56.4666C45.9186 47.2018 33.457 37.6371 2.15833 15.7283M56.7811 56.2982C39.2579 43.142 21.6062 31.4212 2.22988 16.73M56.2761 56.453C44.9573 47.856 33.4062 39.8875 1.71657 17.49M53.3767 55.403C37.6184 44.6461 23.6345 34.4196 1.61494 18.8415M53.2221 56.3027C41.2863 47.4791 28.8206 38.7989 2.76394 19.7964M50.696 56.0957C32.2706 43.7826 15.6517 30.9559 2.71416 20.4022M50.2522 55.65C36.2123 46.2741 22.2844 36.3528 1.8576 21.1569M48.6894 55.6047C37.9337 48.7414 27.656 40.2162 2.30247 22.7622M47.9252 55.8117C33.7826 46.6496 21.4278 36.8333 1.62013 22.7237M45.9663 56.9947C29.5693 44.4656 12.7274 33.3673 2.59076 25.4796M45.1543 56.3813C36.1189 49.7734 27.1686 43.3467 2.43624 24.8473M43.2172 55.6221C29.9903 47.1217 17.4582 37.1294 2.66646 26.9852M43.3053 56.2748C34.8663 49.5581 26.0653 44.1581 2.73075 27.1363M40.5345 56.3148C26.7238 46.9691 14.51 37.2782 2.84689 28.7696M40.4152 56.1592C25.3829 45.0563 9.78129 34.517 2.6032 28.8685M36.4446 56.4251C28.9979 49.9267 20.9912 43.93 1.63983 29.7373M37.5573 55.8986C23.4862 45.9055 9.69418 36.1443 2.09818 30.7307M34.0512 56.5671C26.0694 49.9615 17.985 45.0397 1.86175 33.118M34.3332 56.0512C28.2409 50.8718 20.7538 45.5602 2.34499 32.2197M33.3367 56.8897C20.2373 46.9336 7.66063 38.4295 1.61598 33.8507M32.925 56.453C22.0542 48.4914 10.979 40.9482 2.7349 34.1575M29.7507 56.3745C23.0663 51.2412 17.481 47.7563 1.6222 36.5522M29.8441 56.3473C24.1686 52.2837 18.5004 47.8968 2.11166 36.3415M27.3532 56.0753C16.3517 48.6704 6.80719 42.7295 2.86764 37.7693M27.0266 56.3609C21.1717 52.0208 15.2888 47.6324 1.56309 37.6846M23.2664 55.8789C17.0029 51.112 8.86251 46.3142 1.897 40.2094M23.8575 55.8109C16.2324 49.7764 7.81411 44.4799 1.84308 40.2373M21.2723 55.996C16.9158 52.5897 11.4975 48.5223 1.95819 41.3244M21.0265 55.9847C16.8982 52.3902 11.8947 48.4649 2.7463 41.888M18.5615 57C11.9714 51.2435 6.58319 47.0258 3.01489 44.0267M18.9131 56.0315C15.2183 53.435 11.566 51.3266 2.28484 43.7645M15.6092 55.789C12.4422 52.5836 9.28353 50.7252 2.037 45.9946M16.3704 56.0028C12.2328 52.8125 7.92196 50.2319 1.69894 45.8178M13.6545 56.1154C9.95344 53.6103 6.57075 50.803 2.86349 47.3876M13.9739 55.9439C11.2269 54.1414 8.00803 51.3726 2.15521 47.5395M11.1926 55.8117C7.43146 53.9895 4.36194 51.4474 2.54305 49.6185M10.8432 55.9968C8.1584 53.7085 5.45391 51.8584 2.24337 49.5339M8.66756 55.8698C6.65579 54.9497 5.08992 53.781 2.77119 51.5169M8.21957 55.9348C6.64852 54.7004 5.39687 53.6435 2.39373 51.4905M6.59045 56.3382C4.80682 55.6024 3.62568 54.3212 1.64605 53.1774M6.29698 56.2196C4.98415 55.3342 3.5842 54.2396 2.01419 53.0626M3.46391 56.2204C3.02318 55.8245 2.51713 55.5035 1.97789 55.1114M3.51887 56.1841C2.99933 55.718 2.39995 55.3773 2.08366 55.0638" stroke="#5EC6E3" stroke-opacity="0.58" stroke-width="0.865" stroke-linecap="round"/>
</svg>
