<svg width="103" height="65" viewBox="0 0 103 65" fill="none" xmlns="http://www.w3.org/2000/svg">
<path d="M16.1399 2.27158C35.6399 0.631584 52.5699 0.521584 86.1399 2.27158M16.1399 2.27158C34.3399 2.85158 51.0399 3.51158 86.1399 2.27158M16.1399 2.27158C7.04993 1.55158 0.979934 7.30158 1.13993 17.2716M16.1399 2.27158C6.52993 2.45158 0.399934 5.86158 1.13993 17.2716M86.1399 2.27158C95.4499 0.771584 101.1 6.14158 101.14 17.2716M86.1399 2.27158C98.0499 0.00158441 99.2999 5.28158 101.14 17.2716M101.14 17.2716C102.84 24.9316 100.61 28.4116 101.14 47.2716M101.14 17.2716C101.26 28.5616 101.77 39.0216 101.14 47.2716M101.14 47.2716C99.8899 56.4416 94.5499 61.8116 86.1399 62.2716M101.14 47.2716C99.5999 57.1816 94.0799 63.8816 86.1399 62.2716M86.1399 62.2716C70.5899 63.7016 51.0499 63.7016 16.1399 62.2716M86.1399 62.2716C58.4199 63.3416 29.3599 62.5216 16.1399 62.2716M16.1399 62.2716C4.72993 62.4216 1.86993 59.2316 1.13993 47.2716M16.1399 62.2716C8.32993 62.9716 1.76993 58.3716 1.13993 47.2716M1.13993 47.2716C0.329934 41.3316 3.39993 30.4216 1.13993 17.2716M1.13993 47.2716C1.68993 39.0116 1.75993 30.1916 1.13993 17.2716" stroke="#1E1E1E" stroke-width="2" stroke-linecap="round"/>
<path d="M38.7297 39.6934C38.4797 39.6934 38.2141 39.6152 37.9329 39.459C37.386 39.1309 37.1672 38.8418 37.2766 38.5918C37.4641 38.2637 37.7063 37.6074 38.0032 36.623L38.636 34.5137C38.8547 33.8418 39.0735 33.0996 39.2922 32.2871L33.0344 25.9121C32.925 25.7715 32.8704 25.6465 32.8704 25.5371C32.8704 25.4277 32.9329 25.3418 33.0579 25.2793C33.261 25.1855 33.5032 25.1387 33.7844 25.1387C34.0813 25.1387 34.3782 25.1855 34.675 25.2793C34.9875 25.373 35.3704 25.6074 35.8235 25.9824C36.7141 26.7324 38.175 28.3184 40.2063 30.7402C41.1282 28.0527 41.7922 26.3262 42.1985 25.5605C42.6047 24.7793 42.925 24.2793 43.1594 24.0605C43.4094 23.8262 43.6282 23.7012 43.8157 23.6855C44.0188 23.6699 44.1907 23.6777 44.3313 23.709C44.4719 23.7402 44.5735 23.8496 44.636 24.0371C44.1516 25.0684 43.6829 26.2402 43.2297 27.5527C42.7922 28.8496 42.3391 30.1934 41.8704 31.584C40.636 35.2715 39.5891 37.9746 38.7297 39.6934ZM50.4485 37.6309C51.8235 37.6309 53.8938 37.0059 56.6594 35.7559C56.8313 35.7559 56.9719 35.8184 57.0813 35.9434C57.1907 36.0527 57.2454 36.1855 57.2454 36.3418C56.6204 37.4043 55.425 38.2324 53.6594 38.8262C51.8938 39.4199 50.2454 39.5215 48.7141 39.1309C46.9797 38.6777 45.925 37.7012 45.55 36.2012C45.5188 35.9043 45.5032 35.5059 45.5032 35.0059C45.5032 34.5059 45.6282 33.8496 45.8782 33.0371C46.1438 32.209 46.5891 31.4277 47.2141 30.6934C47.8391 29.959 48.5735 29.3809 49.4172 28.959C50.261 28.5371 51.1594 28.3262 52.1125 28.3262C53.0188 28.3262 54.0344 28.6387 55.1594 29.2637C55.6907 29.5605 56.1125 29.8965 56.425 30.2715C56.7375 30.6465 56.8938 31.0293 56.8938 31.4199C56.8938 31.5293 56.886 31.6387 56.8704 31.748C56.8391 32.7012 56.3782 33.3027 55.4875 33.5527C55.0969 33.6621 54.6438 33.7168 54.1282 33.7168L50.7532 33.5762C49.6282 33.5762 48.7688 33.8184 48.175 34.3027C47.8313 34.5684 47.5891 34.9668 47.4485 35.498C47.8391 36.9199 48.8391 37.6309 50.4485 37.6309ZM54.6204 30.3887C54.2766 30.1387 53.9172 29.959 53.5422 29.8496C53.1672 29.7402 52.8547 29.6855 52.6047 29.6855C52.3547 29.6855 51.9485 29.7715 51.386 29.9434C50.8235 30.0996 50.3235 30.2793 49.886 30.4824C48.8079 30.9824 48.2688 31.5059 48.2688 32.0527C49.5188 32.1621 50.4563 32.2168 51.0813 32.2168C52.8157 32.2168 53.9875 32.0684 54.5969 31.7715C54.9719 31.6152 55.1594 31.4199 55.1594 31.1855C55.1594 30.9043 54.9797 30.6387 54.6204 30.3887ZM66.6672 33.2246C68.386 33.2246 69.2454 33.6621 69.2454 34.5371C69.2454 35.1934 68.7688 35.959 67.8157 36.834C66.3938 38.1309 64.4797 39.1699 62.0735 39.9512C61.9641 39.9512 61.8391 39.8418 61.6985 39.623C61.5735 39.4043 61.4719 39.2402 61.3938 39.1309C61.3313 39.0059 61.2844 38.9277 61.2532 38.8965C63.05 38.3027 64.5266 37.584 65.6829 36.7402C66.4641 36.1777 66.8547 35.7168 66.8547 35.3574C66.8547 34.998 66.3938 34.8184 65.4719 34.8184C64.55 34.8184 63.1985 35.0371 61.4172 35.4746C60.6047 35.4434 59.9016 35.1543 59.3079 34.6074C58.7922 34.123 58.5344 33.6387 58.5344 33.1543C58.5344 32.6543 58.675 32.2012 58.9563 31.7949C59.2375 31.373 59.6125 30.9824 60.0813 30.623C60.55 30.2637 61.0969 29.9355 61.7219 29.6387C63.2532 28.9043 64.8391 28.5371 66.4797 28.5371C66.9641 28.5371 67.4329 28.584 67.886 28.6777C68.261 28.6777 68.4797 28.8418 68.5422 29.1699C68.6047 29.498 68.636 30.0371 68.636 30.7871C67.7141 30.3652 66.675 30.1543 65.5188 30.1543C64.0813 30.1543 62.8938 30.4434 61.9563 31.0215C60.9875 31.584 60.4875 32.3184 60.4563 33.2246C60.4563 33.6621 60.7766 33.8809 61.4172 33.8809L63.1282 33.6934C64.5969 33.3809 65.7766 33.2246 66.6672 33.2246Z" fill="#1E1E1E"/>
</svg>
