<svg width="396" height="397" viewBox="0 0 396 397" fill="none" xmlns="http://www.w3.org/2000/svg">
<path d="M10 33.3186C16.7389 24.7467 19.6733 16.8746 24.8586 9.91919M9.7998 32.7028C14.0461 27.5247 17.7814 21.5279 24.6653 8.96754M8.92293 54.8076C22.2211 40.1131 30.7827 18.435 36.8379 7.02225M11.4155 57.1658C18.534 42.961 29.6089 27.0559 39.0543 9.94718M9.01959 78.2C26.7435 56.494 42.8242 26.0552 53.7126 6.58841M9.86885 81.2789C21.068 61.0074 30.8862 43.2899 52.2419 8.75761M12.3821 106.232C27.503 80.5582 33.3166 60.6085 67.2041 14.5095M11.1738 105.602C21.3925 79.8864 37.7631 60.5805 67.6528 9.95417M8.29462 129.589C26.0531 97.7228 41.1187 70.104 80.2674 6.42747M11.2912 132.283C28.953 98.6325 49.1142 63.8763 79.9981 8.01589M5.73304 151.078C24.8172 121.892 45.9105 82.8183 97.3699 14.3066M11.954 153.401C30.6584 121.906 46.2902 92.7197 96.2169 9.00952M4 176.339C25.6319 138.035 58.2213 103.489 109.784 9.77924M5.69161 178.592C35.0635 136.342 64.3732 88.7101 107.982 15.874M11.3809 208.128C53.1671 125.51 91.6737 57.1308 123.973 12.8021M7.25203 204.021C31.4869 158.831 57.3168 120.178 126.189 6.73536M6.08517 227.245C58.532 149.042 103.529 64.0792 134.779 5M11.2774 223.054C56.1154 143.738 102.997 71.4195 143.665 8.71563M14.2463 248.314C46.3593 194.798 63.8208 157.719 155.623 14.6145M14.3775 245.005C58.456 174.596 100.194 97.9817 154.781 7.701M15.351 277.906C73.9153 171 124.16 81.7897 163.999 9.47135M13.3902 270.293C57.3858 187.647 108.01 102.768 169.937 9.94018M17.1393 302.145C54.8449 214.517 110.268 142.807 183.186 6.95228M10.2762 293.182C67.5907 210.367 118.802 120.38 180.535 8.37276M12.8585 319.268C56.9232 257.516 96.3619 189.921 192.286 13.019M7.43846 318.834C67.9014 227.105 122.482 136.251 196.526 11.7875M14.0392 346.39C55.9082 255.046 120.804 170.587 205.819 14.7614M10.4212 343.829C55.1626 269.957 99.5587 205.385 214.547 10.7379M13.2244 364.29C62.3156 281.076 112.829 190.893 228.542 15.2302M7.02418 372.344C82.4009 251.911 153.345 132.92 229.088 9.11448M17.381 375.674C70.5113 287.395 133.384 185.771 238.388 7.21818M16.4834 378.914C67.3076 302.362 117.918 214.069 241.44 9.37339M36.4168 385.415C100.18 260.854 168.397 147.181 261.442 15.797M29.388 384.281C119.485 241.576 206.027 96.4913 255.774 9.83522M38.5434 388.886C97.4045 306.561 145.08 224.194 267.387 11.1787M42.0578 385.555C110.205 268.439 181.412 158.642 270.784 6.10559M56.4123 381.111C142.374 249.091 226.202 117.7 282.625 13.9147M60.8864 384.33C121.985 279.425 185.327 174.443 283.578 8.15584M77.4711 385.975C143.465 258.02 217.309 138.091 303.249 8.83459M75.4619 385.422C159.994 240.022 242.006 105.035 303.477 5.06298M82.9878 386.856C141.007 294.889 191.845 213.656 308.89 7.67301M91.1075 383.49C135.559 305.224 184.022 229.008 313.399 9.10749M105.372 380.454C157.218 288.913 217.212 185.219 335.238 15.3282M103.156 382.63C187.253 243.934 266.628 105.378 331.302 8.5197M111.255 391.37C179.817 276.395 249.753 157.446 347.459 5.71374M114.024 382.938C180.494 282.357 239.265 177.962 345.995 12.4103M136.546 381.461C176.813 312.516 230.752 230.317 354.405 9.75825M127.115 384.141C195.525 281.377 255.484 177.004 360.508 8.46372M143.05 393C222.045 253.87 311.59 108.359 370.071 15.5381M145.964 388.361C197.444 292.601 257.313 194.091 369.747 8.05787M158.102 386.926C233.997 259.615 316.23 123.249 388.865 13.7468M164.309 384.239C234.038 264.919 303.449 149.49 385.855 9.70926M175.674 386.499C261.097 253.268 338.469 124.537 392 30.4076M175.612 382.182C234.397 279.32 297.767 176.304 384.833 33.8924M194.53 383.889C271.067 251.421 349.033 125.657 381.795 63.5684M188.959 380.629C264.232 256.613 345.277 131.129 385.703 57.6416M208.264 378.158C257.748 291.181 315.208 198.479 387.436 89.9067M207.18 386.352C250.499 313.852 290.828 239.819 387.457 81.3838M219.815 376.955C274.892 307.792 315.933 220.884 382.707 115.769M219.822 381.314C252.812 325.741 285.228 265.199 382.341 106.036M236.42 386.919C282.819 306.05 331.295 236.699 390.881 140.344M230.655 383.798C282.142 295.722 336.163 207.757 383.038 130.079M251.893 380.845C274.865 343.269 309.698 289.613 380.614 151.344M243.449 385.562C289.564 307.757 336.205 234.921 383.659 157.285M257.541 391.908C295.026 342.584 312.743 290.194 377.107 181.363M263.272 385.744C298.457 326.462 330.501 273.75 385.33 180.684M270.114 379.201C308.607 319.506 352.679 257.124 389.321 202.922M272.6 387.01C317.756 317.211 360.122 249.329 380.753 209.185M291.077 390.369C317.093 326.86 347.114 278.592 377.072 237.09M288.591 383.791C324.784 335.173 356.787 280.95 380.248 232.066M313.109 380.328C326.904 348.014 349.551 311.445 388.7 257.726M304.05 380.09C323.949 345.39 343.42 317.218 383.687 256.697M323.673 384.295C335.224 356.662 351.968 335.341 381.305 280.335M321.415 379.152C345.567 342.675 364.927 306.764 383.342 279.985M337.316 381.251C352.513 352.562 374.373 324.677 378.301 303.125M336.543 380.887C349.855 358.195 361.889 337.426 382.251 303.223M351.712 379.845C366.405 360.497 377.949 336.167 388.127 324.152M348.826 383.581C358.838 370.867 363.747 356.956 383.991 322.018M361.655 382.462C369.332 373.393 376.037 368.005 386.746 348.727M364.472 384.211C371.942 369.559 380.849 354.29 386.186 346.936" stroke="#F6B26B" stroke-opacity="0.87" stroke-width="7.8108" stroke-linecap="round"/>
<path d="M14.4639 3C148.156 9.77687 272.729 4.28366 392.248 5.58883M387.166 15.7075C384.774 131.689 394.427 255.372 385.956 384.95M391.978 393.147C280.203 392.3 170.755 394.997 13.3037 392.315M14.1223 385.294C10.7127 261.977 10.0151 146.913 9.83008 13.2047" stroke="#F6B26B" stroke-opacity="0.87" stroke-width="4.6" stroke-linecap="round"/>
<path d="M4.61221 3.1665C104.429 5.90594 216.546 8.08601 393.316 4.55056M383.521 16.8063C381.407 123.4 390.703 236.305 384.938 384.772M381.051 387.139C309.237 398.147 230.746 389.046 4.03564 390.409M13.9084 385.281C3.95023 259.103 14.2785 135.283 15.3249 11.8796" stroke="black" stroke-width="4.6" stroke-linecap="round"/>
</svg>
