<svg width="404" height="404" viewBox="0 0 404 404" fill="none" xmlns="http://www.w3.org/2000/svg">
<path d="M12.3262 20.278C18.2884 15.593 22.9749 11.6154 28.0771 5.94146M13.3295 21.0287C19.7216 15.7662 25.3326 9.27653 28.7507 6.9954M8.03379 40.2451C20.2304 28.5074 33.3012 19.3756 40.4672 8.31644M9.55298 39.22C18.6467 30.1677 27.2602 21.4691 41.3414 9.43535M10.8285 50.1709C27.1671 37.8701 35.1357 29.5541 60.9692 6.9593M13.6376 53.3761C25.3469 42.4396 35.1572 29.4242 60.6539 7.38521M12.0611 68.9903C33.1149 47.9836 50.4924 35.5024 76.8562 3.43654M7.85464 71.4664C34.8992 47.7382 60.6037 19.1879 76.1611 7.69562M6.36411 78.8728C39.9154 66.507 57.6871 40.4472 92.6716 11.9042M12.9353 83.3846C38.0737 59.7864 64.5378 33.7987 92.5785 12.1352M7.83314 90.69C34.0464 74.3394 69.9195 52.4088 111.26 8.05656M14.2396 95.375C41.2483 66.1605 71.0876 41.0681 106.086 8.071M10.6207 108.816C32.3481 84.8789 55.867 69.0625 121.128 2M9.424 113.992C41.3629 78.3098 79.2067 49.0159 127.728 5.18348M13.9314 122.792C51.0442 93.296 86.2724 63.2442 136.076 2.90957M11.5666 124.214C40.6607 98.9266 76.9279 68.3045 136.399 9.73132M2 145.495C42.5453 116.086 76.0321 74.6354 158.814 14.7628M6.85856 147.473C44.645 112.115 84.2874 73.1772 154.665 7.55124M5.18171 154.598C68.4792 96.3784 134.005 42.9738 181.423 3.7686M9.86829 160.994C69.1886 110.729 118.892 57.0216 177.954 4.14398M16.8122 170.364C56.949 122.496 102.231 86.0627 186.117 3.04672M9.93278 168.963C53.5595 134.79 94.3771 99.1359 186.941 9.86126M13.1933 193.695C90.7726 120.366 164.812 52.5459 204.526 12.5033M11.7888 187.068C49.8188 150.36 94.9146 113.559 205.364 5.41448M5.19604 198.596C70.2563 153.71 119.802 108.145 229.392 10.3233M13.093 202.596C94.4345 126.271 170.659 55.3901 223.638 8.81453M4.17847 216.759C62.2017 176.189 105.807 127.686 237.898 3.45098M11.7028 219.459C70.8368 164.372 127.219 105.9 235.863 11.0451M16.8552 233.571C78.2106 162.163 153.934 107.546 248.919 10.6337M12.5412 235.297C67.7554 180.275 127.04 121.817 251.184 6.55505M9.7393 253.012C91.4391 181.047 170.036 101.677 268.812 5.10408M10.7927 249.128C88.0281 180.268 159.423 109.632 274.782 10.2727M15.6441 259.653C96.14 177.893 184.354 97.158 288.103 9.99119M9.06569 262.793C80.991 197.795 153.963 132.082 284.828 9.08885M16.0812 270.423C100.031 194.778 181.33 122.741 309.15 3.78304M12.9067 277.945C76.2543 216.845 139.301 162.784 300.414 10.6625M5.83382 291.365C99.8448 214.247 194.4 115.306 315.485 5.1907M7.46051 294.808C90.9518 219.155 176.02 140.543 321.01 3.64588M7.66115 307.694C88.5727 229.045 179.388 153.768 345.102 4.43995M9.18035 307.304C112.865 209.092 221.08 118.461 337.563 8.80731M12.2832 318.825C133.16 214.232 254.409 97.8654 356.854 11.9258M12.4122 323.322C128.315 213.698 247.529 104.954 353.83 10.8214M5.39669 335.169C110.243 248.153 212.416 154.497 374.54 10.8286M12.1328 341.377C130.229 234.012 248.49 123.817 370.627 8.71347M8.70739 348.891C143.364 227.45 269.321 113.574 385.755 7.37077M14.949 350.884C92.9869 276.444 167.729 207.021 390.212 6.02808M7.41034 375.435C156.736 229.024 312.726 91.549 389.158 6.91599M10.0474 367.335C133.246 257.899 250.453 149.747 393.867 12.0413M8.83638 379.08C117.86 289.12 224.82 192.446 394.046 23.3026M7.79731 380.466C110.429 285.763 217.654 191.71 396.59 26.2768M15.5008 400.831C146.137 262.187 285.086 148.022 391.459 44.2804M16.3105 391.951C165.471 259.01 313.664 122.315 391.487 46.9514M33.7813 386.732C154.536 279.822 270.26 181.509 402 64.3053M32.2191 396.117C139.717 295.379 238.249 199.073 394.949 55.7511M49.697 385.166C151.29 282.789 261.324 182.455 398.84 75.7615M51.5172 393.092C173.44 277.072 293.965 165.895 401.377 68.0807M57.4507 388.537C176.464 281.316 298.68 183.704 401.592 94.0828M63.7066 399.084C181.222 279.707 310.798 170.645 397.385 91.4985M85.6059 389.208C179.66 306.712 272.331 212.76 394.612 95.7864M81.4281 396.687C176.557 303.752 276.437 217.43 400.259 102.666M95.4664 390.999C189.893 315.266 277.455 223.191 389.302 115.941M95.6814 389.259C175.733 314.696 258.185 240.74 390.671 122.366M116.964 395.496C196.421 328.571 269.092 249.785 390.635 127.982M112.643 395.647C174.221 338.265 235.333 278.248 392.591 135.439M134.235 394.825C236.135 300.829 339.605 205.916 396.332 140.045M126.653 392.32C207.134 320.298 283.445 250.593 397.622 149.177M149.828 386.465C201.631 338.431 258.873 283.764 398.625 170.667M144.625 389.591C244.548 304.402 338.932 215.394 393.988 160.871M156.822 396.239C217.11 332.144 295.327 278.682 397.951 173.54M156.442 392.305C233.255 323.784 309.594 254.578 394.698 173.439M181.387 401.199C232.072 351.894 266.784 310.343 390.57 200.776M176.192 394.038C260.729 318.529 338.839 244.255 391.416 193.724M190.946 394.016C244.713 344.524 296.746 295.523 396.081 208.955M196.314 390.342C276.208 320.846 354.418 247.114 394.576 208.147M211.226 401.581C251.686 360.146 284.535 329.292 395.945 219.278M205.479 395.734C285.782 327.192 361.505 257.437 401.219 217.279M225.995 391.699C257.046 365.581 305.259 322.629 391.953 238.206M222.405 397.633C280.342 345.643 342.429 289.365 396.547 239.101M248.052 387.974C279.361 361.315 313.951 340.33 393.609 247.143M244.993 395.272C281.503 357.677 320.709 320.132 396.16 253.387M255.405 399.394C298.745 365.264 335.249 320.247 387.166 271.73M254.294 398.795C294.99 365.141 331.744 332.122 392.792 265.875M280.414 396.211C312.64 368.613 341.246 341.521 400.388 277.447M271.156 395.2C305.61 370.656 331.408 338.258 395.293 280.883M287.731 397.337C314.166 370.692 335.506 349.844 396.74 295.472M295.133 390.926C316.581 366.469 349.287 338.742 394.569 293.336M299.476 402C326.327 376.547 347.18 354.255 394.612 317.605M304.75 394.132C333.693 369.371 366.141 340.027 393.852 316.161M327.817 394.117C336.008 384.119 355.027 369.537 398.252 327.257M324.306 393.532C339.34 378.727 355.514 363.055 398.861 327.805M339.613 393.713C351.587 384.502 365.632 375.153 395.687 345.874M341.06 394.471C358.782 377.896 378.725 360.081 394.275 343.773M352.855 394.543C370.298 382.177 382.071 368.895 392.992 359.611M353.873 397.546C362.802 386.602 372.347 377.961 396.554 358.11M373.028 395.64C378.933 388.349 383.204 384.155 397.091 369.349M372.333 395.323C381.462 385.447 390.327 376.619 397.07 370.483" stroke="#FEFCEB" stroke-width="2.404" stroke-linecap="round"/>
<path d="M17.7222 3.06019C149.498 5.05257 274.43 3.52219 388.141 2.36719M391.523 6.17871C396.109 150.692 391.788 301.773 390.076 383.714M386.586 383.75C243.316 388.493 100.719 393.409 6.66504 388.709M9.20181 392.795C12.0109 250.376 7.052 116.742 11.9607 6.97277" stroke="#FEFCEB" stroke-width="4" stroke-linecap="round"/>
<path d="M10 11.2735C114.086 4.8777 217.32 4.35794 393.017 9.39665M392.106 9.52659C390.05 107.818 398.57 226.964 392.787 398.857M390.516 384.781C280.109 385.784 175.32 388.556 14.0345 395.58M21.9816 397.37C16.3348 283.999 15.955 166.773 15.7328 11.2735" stroke="black" stroke-width="4" stroke-linecap="round"/>
</svg>
