<svg width="309" height="154" viewBox="0 0 309 154" fill="none" xmlns="http://www.w3.org/2000/svg">
<path d="M3.42989 8.59303C6.72949 7.36272 9.26228 5.96428 13.3951 3.50572M3.87138 9.00313C6.29131 7.73797 8.36933 6.23289 13.4515 3.18994M5.8133 12.5444C9.68054 10.8055 12.2332 8.19523 21.6009 2.48252M5.82658 13.2723C11.3735 9.26559 17.5478 5.872 22.5171 2.81265M4.35271 19.1039C9.4017 15.3412 17.1461 11.8677 28.2001 3.74768M5.65064 18.6856C12.1171 14.5805 17.3918 10.338 28.4093 4.0327M3.3635 23.3054C16.4524 17.1641 26.391 11.0659 36.7379 3.8297M4.48217 23.8508C15.6855 17.0616 28.5354 9.27174 36.6251 4.36693M6.55355 31.0707C15.4333 25.239 24.6316 16.8709 43.3471 4.6376M3.70873 29.2068C20.6349 19.0486 35.6989 10.4856 44.8309 3.95068M2.97179 36.5906C13.4814 26.6272 23.1876 19.8257 54.2251 4.31157M2.04233 35.7827C23.035 21.8988 42.5604 11.4125 55.4965 2.96234M1.84648 40.2631C27.9047 24.4722 46.4707 12.0358 66.1953 4.19674M6.45729 38.1449C26.0557 26.0818 47.9214 13.0918 63.4799 2.28362M1.78009 42.7012C20.1968 35.7397 33.9728 24.1871 69.2625 4.00399M3.05146 45.4058C22.1121 31.7884 43.4068 20.3773 70.6999 4.49406M2.7527 49.0618C21.5412 38.0711 42.9056 25.2944 79.4369 1.84071M3.26723 49.0372C25.4283 37.1976 46.4309 24.0826 78.2916 4.71347M1.22905 56.6138C21.8831 44.2636 37.3985 31.5197 85.4087 4.81189M2.67304 55.4246C34.464 34.9995 66.5372 15.1834 89.1531 3.48726M6.95853 57.6842C25.3287 46.8493 54.0824 30.3633 94.9224 2.27952M3.95769 59.3267C32.4225 43.0969 59.148 27.0865 97.9332 3.12843M4.44234 63.9813C28.6117 53.4233 44.6583 38.6986 107.583 4.12907M5.31205 65.4331C24.4789 50.9709 48.5454 38.147 105.213 3.86456M5.97928 71.599C27.7819 58.203 49.8301 43.6854 115.145 4.58634M3.26059 70.5163C42.7828 45.7626 85.0203 21.1565 112.204 3.18584M1 75.8107C40.479 55.849 70.8758 34.8477 120.881 4.48996M3.36018 76.0937C41.7305 52.7384 80.6817 27.5274 121.837 4.01425M6.99173 79.0197C43.3471 56.6344 84.8344 28.0523 130.428 2.4128M6.1021 80.494C37.5744 60.9138 68.3298 40.8311 131.457 2.53788M5.84649 86.0981C52.5787 59.0724 95.0817 27.794 138.425 2.44561M3.55935 86.3052C34.2549 66.7495 62.7762 48.6476 137.754 4.03885M2.67636 90.9824C41.2823 67.6538 88.2834 42.0306 146.763 2.93158M5.41164 90.3939C52.5554 60.963 98.4345 32.9961 148.811 3.8297M3.45312 96.5557C53.7903 67.8711 103.653 36.1703 151.527 4.56378M3.20748 96.4921C55.8152 64.5965 110.521 32.2723 155.909 3.30272M3.77512 101.791C54.7563 72.048 97.9631 43.3963 163.142 3.29247M5.60085 101.208C60.4857 67.1822 113.903 34.7144 164.008 3.86251M4.17678 104.747C45.5745 80.2049 90.3083 53.9912 174.933 4.2193M2.88217 106.214C46.4541 80.5043 91.4535 53.495 173.153 2.90082M6.00583 112.381C53.1795 79.7682 100.818 53.6468 183.006 4.99234M2.7527 111.834C66.5339 74.6747 125.323 35.59 180.234 2.2139M2.06225 117.37C55.9513 86.7932 103.105 56.1873 190.933 1M1.77345 116.599C50.4608 88.6612 94.7598 60.4565 189.701 3.05051M8.35605 121.363C61.7505 85.5793 118.518 51.1595 196.437 2.67937M4.58176 119.956C47.0251 95.2351 90.3514 68.4924 196.891 4.29722M2.06556 125.427C53.3521 96.5536 106.534 64.1802 204.194 2.85776M3.63238 125.79C59.553 91.1075 118.64 56.2981 206.78 4.60274M3.1942 133.586C68.5157 90.601 140.612 48.299 216.427 3.66361M3.12117 132.345C53.6442 100.817 100.463 71.1786 214.209 2.58299M2.39088 136.147C88.5589 86.0017 177.336 33.6851 224.762 3.53238M4.42906 136.737C59.1679 102.299 116.456 67.0837 224.573 2.53993M6.7494 141.29C80.9804 93.8839 158.929 45.7195 229.101 3.55083M3.52615 141.954C57.1164 109.351 110.265 76.2413 231.109 1.94323M7.24733 146.803C62.743 109.021 125.203 73.0774 241.668 5.21174M4.31288 146.998C82.9854 98.7497 163.145 49.3899 237.778 4.70322M4.54856 152.001C59.8052 118.519 105.379 89.8997 250.193 4.43665M6.13529 150.197C92.9805 98.9445 177.253 45.2089 248.274 2.76754M16.4557 151.085C75.5232 112.096 134.644 77.082 252.978 5.11127M16.5088 151.431C107.148 94.6323 196.944 40.3923 255.743 3.50777M21.0366 149.106C97.4486 106.546 168.334 63.2165 267.129 4.90006M23.7553 149.697C75.1846 119.54 125.203 88.8068 265.705 3.07921M33.8134 150.377C131.049 92.2086 221.509 34.3905 271.093 3.30272M34.2317 149.682C104.984 106.415 178.408 60.9691 272.553 3.68206M41.6276 152.787C91.9946 118.205 152.463 85.282 279.551 3.30067M39.44 151.175C133.804 92.9673 226.415 36.808 278.863 3.36423M51.1081 151.517C100.569 121.633 149.021 90.7978 287.02 5.56648M49.923 150.466C106.617 114.918 163.082 80.9636 290.532 3.01155M54.3845 151.364C147.613 95.5325 229.184 42.6191 299.913 4.30542M58.2086 151.001C119.965 111.896 183.112 73.2148 298.392 3.07511M63.0783 150.818C122.657 113.464 184.134 79.7333 304.115 5.8474M66.7995 151.107C143.58 104.21 218.435 56.3206 304.972 5.20969M77.4817 151.874C145.674 108.73 216.553 65.5089 306.479 11.1951M75.8219 149.223C125.518 120.319 174.846 88.7063 303.113 9.34556M80.1174 150.291C157.542 106.997 229.804 61.5269 308.304 14.1786M81.8402 150.123C158.972 103.062 237.549 55.6378 306.691 14.3837M92.0577 152.582C174.076 101.026 254.95 53.454 304.978 20.6705M90.3747 150.178C145.067 119.644 195.925 85.3886 303.703 20.002M102.176 151.926C180.347 98.9466 263.023 52.478 307.604 26.7974M99.9814 149.545C155.055 117.471 209.333 83.7585 305.894 25.5815M110.514 151.655C188.264 104.251 263.683 55.5312 307.438 30.1767M108.343 149.299C168.39 115.353 224.706 77.9494 302.684 30.1582M113.771 148.237C177.648 113.341 235.272 78.0868 306.754 34.6693M116.36 149.284C158.461 124.627 199.029 99.2049 307.428 33.8491M121.303 150.97C179.268 115.636 237.124 78.9726 306.064 41.4627M123.254 151.552C164.516 126.405 204.407 100.443 304.596 40.9767M129.744 151.095C185.837 115.385 242.342 83.5719 304.367 43.6957M131.361 151.515C167.593 128.181 204.569 106.552 306.01 45.7585M140.642 148.665C191.085 119.468 235.849 91.7103 306.336 49.4268M141.137 151.107C179.344 127.157 219.248 103.597 302.658 52.0187M149.223 150.546C208.204 117.124 261.403 82.3087 302.817 53.6632M150.644 149.336C195.587 123.887 240.171 96.9576 305.559 55.7116M155.646 149.213C190.076 130.584 222.976 107.444 304.135 60.069M158.093 149.775C203.364 124.906 242.913 98.2617 306.319 59.9644M164.363 152.986C216.852 118.978 270.764 88.854 303.212 67.4446M166.963 151.321C195.886 133.385 224.536 115.941 303.707 65.7284M173.163 149.26C215.504 126.188 255.62 99.0655 302.97 71.5313M172.881 151.031C199.895 132.8 228.068 118.143 302.764 71.9414M181.751 151.14C225.96 125.773 265.058 99.4694 302.392 76.3746M182.133 150.718C230.252 120.581 280.195 91.9748 303.172 76.6432M194.843 151.44C218.681 133.801 244.311 117.524 306.256 79.0013M191.281 150.01C236.324 122.886 280.473 96.3916 304.789 81.6977M202.505 151.825C228.055 133.895 253.934 120.536 305.546 88.1773M201.602 150.425C221.104 136.366 245.071 121.949 303.999 85.7392M204.792 152.701C246.724 125.677 286.983 102.594 306.332 90.1663M206.11 151.515C240.908 129.905 276.361 109.431 302.751 90.9988M216.271 151.302C237.668 137.369 255.547 127.91 306.313 97.4989M215.972 151.228C234.14 140.199 252.284 128.291 304.746 96.9268M223.945 150.49C259.162 130.391 289.715 114.266 302.326 100.802M224.991 151.265C243.733 139.485 262.565 127.574 306.502 100.573M237.028 149.957C257.078 137.018 283.136 123.996 305.433 107.425M235.136 149.772C259.544 133.393 286.492 119.017 305.606 107.501M243.411 150.275C257.356 141.029 274.701 129.989 305.237 110.452M244.198 150.244C257.413 140.488 273.429 129.833 302.714 111.982M252.088 153C273.184 137.375 290.432 125.927 301.854 117.787M250.963 150.371C262.79 143.324 274.482 137.601 304.191 117.075M261.539 149.713C271.677 141.013 281.788 135.968 304.985 123.128M259.102 150.293C272.347 141.634 286.147 134.629 306.067 122.648M267.796 150.599C279.644 143.799 290.472 136.18 302.339 126.909M266.774 150.133C275.567 145.241 285.871 137.726 304.606 127.321M275.677 149.775C287.717 144.829 297.542 137.929 303.365 132.964M276.795 150.277C285.39 144.066 294.047 139.044 304.324 132.735M283.76 149.932C290.2 147.435 295.212 144.263 302.635 138.117M285.194 150.109C290.223 146.758 294.23 143.89 303.843 138.046M290.409 151.204C296.118 149.207 299.899 145.729 306.236 142.624M291.348 150.882C295.551 148.479 300.032 145.507 305.058 142.313M300.417 150.884C301.828 149.809 303.448 148.938 305.174 147.874M300.241 150.785C301.904 149.52 303.823 148.595 304.835 147.745" stroke="#1EC115" stroke-opacity="0.39" stroke-width="0.865" stroke-linecap="round"/>
</svg>
