<svg width="322" height="163" viewBox="0 0 322 163" fill="none" xmlns="http://www.w3.org/2000/svg">
<path d="M2 4.13434C88.0096 1.54577 173.315 1.33542 318.498 3.37472M317.746 3.42731C316.046 43.2083 323.087 91.43 318.308 161M316.431 155.303C225.199 155.709 138.609 156.831 5.3338 159.674M11.9007 160.398C7.2346 114.514 6.92076 67.0693 6.73719 4.13434" stroke="black" stroke-width="4" stroke-linecap="round"/>
<path d="M96.8125 60.3125C100.979 60.3125 103.75 60.5833 105.125 61.125V64.1875C104 64.3542 102.458 64.4583 100.5 64.5C98.5417 64.5 96.4583 64.5208 94.25 64.5625C88.0833 64.6875 83.875 65 81.625 65.5C80.9167 68.8333 80.5833 71.1042 80.625 72.3125C80.6667 73.5208 80.7083 74.4583 80.75 75.125C80.9167 76.75 81 78.6667 81 80.875C83.8333 80.875 87.0625 80.625 90.6875 80.125C94.3542 79.625 97.1875 79.2708 99.1875 79.0625C101.188 78.8125 103.25 78.6875 105.375 78.6875V82.125L81.4375 85.125L81.8125 95.375C85.9375 95.375 90.1458 95.1875 94.4375 94.8125C98.7708 94.3958 102.042 94.1042 104.25 93.9375C106.5 93.7292 108.875 93.625 111.375 93.625C111.375 94.4583 111.125 95.25 110.625 96C109.625 97.3333 108.729 97.7292 107.938 97.1875C100.604 97.9792 94.0417 98.6042 88.25 99.0625C82.5 99.5208 78.625 99.8333 76.625 100L76.875 60.125C77.9583 60.4583 79.9583 60.625 82.875 60.625L96.8125 60.3125ZM145 77.1875C143.25 75.9375 141 75.3125 138.25 75.3125C135.667 75.3125 133.271 75.7917 131.062 76.75C126.896 78.5 124.042 80.75 122.5 83.5C121.833 84.75 121.5 86.0833 121.5 87.5C121.5 87.75 121.5 88.4583 121.5 89.625C121.5 90.75 121.708 92.2917 122.125 94.25C122.542 96.1667 122.75 98.125 122.75 100.125C121.875 100.167 121.167 100.271 120.625 100.438C120.083 100.604 119.625 100.688 119.25 100.688C118.875 100.688 118.542 100.521 118.25 100.188C118 99.8542 117.708 99.2083 117.375 98.25C117.333 98 117.25 97.2917 117.125 96.125C117 94.9583 116.833 93.5417 116.625 91.875C116.458 90.2083 116.25 88.3958 116 86.4375C115.792 84.4375 115.583 82.4792 115.375 80.5625C114.917 76.3958 114.562 73.3333 114.312 71.375C114.312 70.375 115.042 69.875 116.5 69.875C117.375 69.875 118.062 70.25 118.562 71C119.062 71.7083 119.458 72.5417 119.75 73.5C120.042 74.4167 120.229 75.3333 120.312 76.25C120.438 77.1667 120.542 77.8125 120.625 78.1875C126.125 73.2708 132.958 70.8125 141.125 70.8125C142.042 70.8125 143 70.8333 144 70.875C144.25 70.8333 144.562 70.8125 144.938 70.8125C145.312 70.8125 145.688 71.0625 146.062 71.5625C146.521 72.1458 146.75 72.8542 146.75 73.6875C146.75 75.7708 146.167 76.9375 145 77.1875ZM174.188 89.625C171.062 94.5417 166.896 97.5833 161.688 98.75C160.479 99 159.375 99.125 158.375 99.125C157.417 99.125 156.604 99.125 155.938 99.125C155.312 99.0833 154.604 98.9792 153.812 98.8125C153.021 98.6458 152.292 98.375 151.625 98C150.083 97.125 149.312 95.8958 149.312 94.3125C149.146 93.5625 149.062 92.7292 149.062 91.8125C149.062 90.8542 149.271 89.6042 149.688 88.0625C150.104 86.5208 150.854 84.8542 151.938 83.0625C153.062 81.2708 154.417 79.625 156 78.125C159.292 74.9583 162.854 72.9167 166.688 72C167.812 71.75 168.833 71.625 169.75 71.625C170.708 71.625 171.562 71.6875 172.312 71.8125C174.729 71.8125 176.354 73.4583 177.188 76.75C177.729 78.8333 178.042 81.75 178.125 85.5C178.25 89.2083 178.354 92.0833 178.438 94.125C178.562 96.125 178.833 97.9583 179.25 99.625H175.562C175.396 98.5 175.271 97.5 175.188 96.625C175.104 95.75 175.021 94.9375 174.938 94.1875C174.729 92.4375 174.479 90.9167 174.188 89.625ZM173.938 79.9375C173.938 77.5208 172.75 76.3125 170.375 76.3125C170.083 76.2708 169.792 76.25 169.5 76.25C166.458 76.25 163.25 77.7083 159.875 80.625C158.292 81.9583 156.938 83.4583 155.812 85.125C154.146 87.5 153.312 89.625 153.312 91.5C153.312 93.9583 154.729 95.4167 157.562 95.875C161.312 95.7917 164.896 94.0833 168.312 90.75C169.771 89.2917 170.979 87.7083 171.938 86C173.271 83.7083 173.938 81.6875 173.938 79.9375ZM203.562 83.875C208.146 83.875 210.438 85.0417 210.438 87.375C210.438 89.125 209.167 91.1667 206.625 93.5C202.833 96.9583 197.729 99.7292 191.312 101.812C191.021 101.812 190.688 101.521 190.312 100.938C189.979 100.354 189.708 99.9167 189.5 99.625C189.333 99.2917 189.208 99.0833 189.125 99C193.917 97.4167 197.854 95.5 200.938 93.25C203.021 91.75 204.062 90.5208 204.062 89.5625C204.062 88.6042 202.833 88.125 200.375 88.125C197.917 88.125 194.312 88.7083 189.562 89.875C187.396 89.7917 185.521 89.0208 183.938 87.5625C182.562 86.2708 181.875 84.9792 181.875 83.6875C181.875 82.3542 182.25 81.1458 183 80.0625C183.75 78.9375 184.75 77.8958 186 76.9375C187.25 75.9792 188.708 75.1042 190.375 74.3125C194.458 72.3542 198.688 71.375 203.062 71.375C204.354 71.375 205.604 71.5 206.812 71.75C207.812 71.75 208.396 72.1875 208.562 73.0625C208.729 73.9375 208.812 75.375 208.812 77.375C206.354 76.25 203.583 75.6875 200.5 75.6875C196.667 75.6875 193.5 76.4583 191 78C188.417 79.5 187.083 81.4583 187 83.875C187 85.0417 187.854 85.625 189.562 85.625L194.125 85.125C198.042 84.2917 201.188 83.875 203.562 83.875ZM227.062 95.625C230.729 95.625 236.25 93.9583 243.625 90.625C244.083 90.625 244.458 90.7917 244.75 91.125C245.042 91.4167 245.188 91.7708 245.188 92.1875C243.521 95.0208 240.333 97.2292 235.625 98.8125C230.917 100.396 226.521 100.667 222.438 99.625C217.812 98.4167 215 95.8125 214 91.8125C213.917 91.0208 213.875 89.9583 213.875 88.625C213.875 87.2917 214.208 85.5417 214.875 83.375C215.583 81.1667 216.771 79.0833 218.438 77.125C220.104 75.1667 222.062 73.625 224.312 72.5C226.562 71.375 228.958 70.8125 231.5 70.8125C233.917 70.8125 236.625 71.6458 239.625 73.3125C241.042 74.1042 242.167 75 243 76C243.833 77 244.25 78.0208 244.25 79.0625C244.25 79.3542 244.229 79.6458 244.188 79.9375C244.104 82.4792 242.875 84.0833 240.5 84.75C239.458 85.0417 238.25 85.1875 236.875 85.1875L227.875 84.8125C224.875 84.8125 222.583 85.4583 221 86.75C220.083 87.4583 219.438 88.5208 219.062 89.9375C220.104 93.7292 222.771 95.625 227.062 95.625ZM238.188 76.3125C237.271 75.6458 236.312 75.1667 235.312 74.875C234.312 74.5833 233.479 74.4375 232.812 74.4375C232.146 74.4375 231.062 74.6667 229.562 75.125C228.062 75.5417 226.729 76.0208 225.562 76.5625C222.688 77.8958 221.25 79.2917 221.25 80.75C224.583 81.0417 227.083 81.1875 228.75 81.1875C233.375 81.1875 236.5 80.7917 238.125 80C239.125 79.5833 239.625 79.0625 239.625 78.4375C239.625 77.6875 239.146 76.9792 238.188 76.3125Z" fill="black"/>
</svg>
