<svg width="582" height="163" viewBox="0 0 582 163" fill="none" xmlns="http://www.w3.org/2000/svg">
<path d="M105.139 61.793C109.045 61.793 111.643 62.0469 112.932 62.5547V65.4258C111.877 65.582 110.432 65.6797 108.596 65.7188C106.76 65.7188 104.807 65.7383 102.736 65.7773C96.9551 65.8945 93.0098 66.1875 90.9004 66.6562C90.2363 69.7812 89.9238 71.9102 89.9629 73.043C90.002 74.1758 90.041 75.0547 90.0801 75.6797C90.2363 77.2031 90.3145 79 90.3145 81.0703C92.9707 81.0703 95.998 80.8359 99.3965 80.3672C102.834 79.8984 105.49 79.5664 107.365 79.3711C109.24 79.1367 111.174 79.0195 113.166 79.0195V82.2422L90.7246 85.0547L91.0762 94.6641C94.9434 94.6641 98.8887 94.4883 102.912 94.1367C106.975 93.7461 110.041 93.4727 112.111 93.3164C114.221 93.1211 116.447 93.0234 118.791 93.0234C118.791 93.8047 118.557 94.5469 118.088 95.25C117.15 96.5 116.311 96.8711 115.568 96.3633C108.693 97.1055 102.541 97.6914 97.1113 98.1211C91.7207 98.5508 88.0879 98.8438 86.2129 99L86.4473 61.6172C87.4629 61.9297 89.3379 62.0859 92.0723 62.0859L105.139 61.793ZM121.486 97.2422C123.4 95.3281 125.334 93.1406 127.287 90.6797C129.24 88.2188 130.432 86.5781 130.861 85.7578L125.939 80.3672C125.314 79.7031 124.709 79.0391 124.123 78.375C123.537 77.7109 123.01 77.125 122.541 76.6172C122.072 76.1094 121.701 75.6797 121.428 75.3281L121.018 74.8594L124.416 71.2266C126.174 73.375 127.463 75.0156 128.283 76.1484C129.143 77.2422 129.826 78.1211 130.334 78.7852C131.193 79.8789 132.443 81.2266 134.084 82.8281C134.631 82.0469 135.607 80.6406 137.014 78.6094C139.357 75.1328 141.232 72.5547 142.639 70.875C143.537 70.875 144.26 71.1875 144.807 71.8125C145.354 72.4375 145.627 73.0234 145.627 73.5703C144.611 75.7578 143.146 78.0625 141.232 80.4844C140.529 81.3438 139.885 82.1836 139.299 83.0039C138.713 83.7852 138.244 84.6445 137.893 85.582C140.275 87.2617 143.127 90.1133 146.447 94.1367C147.189 95.0352 147.717 95.7188 148.029 96.1875C148.029 96.4609 147.814 96.8711 147.385 97.418C146.721 98.3555 146.135 98.9414 145.627 99.1758C144.885 98.8242 144.104 98.1992 143.283 97.3008C142.502 96.3633 141.662 95.3477 140.764 94.2539C139.865 93.1602 138.928 92.0664 137.951 90.9727C137.014 89.8789 136.018 88.9805 134.963 88.2773C134.064 89.293 132.814 90.7578 131.213 92.6719C128.283 96.1875 126.33 98.2969 125.354 99C124.611 99.1562 123.557 98.8047 122.189 97.9453C121.838 97.75 121.604 97.5156 121.486 97.2422ZM155.412 75.5039C160.725 73.668 165.314 72.75 169.182 72.75C174.104 72.75 177.385 74.0391 179.025 76.6172C179.768 77.8281 180.139 79.1367 180.139 80.543C180.139 82.4961 179.514 84.5078 178.264 86.5781C177.053 88.6484 175.432 90.5234 173.4 92.2031C168.674 96.0703 162.932 98.4727 156.174 99.4102C156.174 99.8398 156.174 100.523 156.174 101.461C156.213 102.438 156.232 103.512 156.232 104.684C156.271 105.855 156.291 107.105 156.291 108.434C156.33 109.762 156.369 111.031 156.408 112.242C156.525 115.25 156.604 116.969 156.643 117.398C156.721 117.828 156.76 118.18 156.76 118.453C156.76 119.43 156.447 120.152 155.822 120.621C155.197 121.129 154.377 121.383 153.361 121.383C153.166 121.383 152.971 121.383 152.775 121.383L151.838 74.2734C152.189 73.7656 152.658 73.5312 153.244 73.5703C153.83 73.6094 154.299 73.7656 154.65 74.0391C155.002 74.3125 155.256 74.8008 155.412 75.5039ZM172.521 77.5547C171.232 76.8906 169.846 76.5586 168.361 76.5586C166.916 76.5586 165.471 76.6953 164.025 76.9688C160.744 77.5938 158.322 78.9805 156.76 81.1289C156.057 82.1445 155.705 83.3945 155.705 84.8789C155.705 85.0352 155.705 85.1914 155.705 85.3477V95.4844C163.752 93.6875 169.455 91.1875 172.814 87.9844C174.768 86.1484 175.744 84.2539 175.744 82.3008C175.744 80.2305 174.67 78.6484 172.521 77.5547ZM184.65 87.8672C184.65 83.2578 186.643 79.5469 190.627 76.7344C193.791 74.5078 197.6 73.1602 202.053 72.6914C202.287 72.6914 202.834 72.6914 203.693 72.6914C204.553 72.6914 205.705 72.9453 207.15 73.4531C210.354 74.5469 212.541 76.4805 213.713 79.2539C214.182 80.3477 214.416 81.2852 214.416 82.0664C214.416 82.8086 214.396 83.3359 214.357 83.6484C214.357 88.5312 212.502 92.3789 208.791 95.1914C205.354 97.7695 201.057 99.0586 195.9 99.0586C192.189 99.0586 189.377 98.1992 187.463 96.4805C185.588 94.7617 184.65 91.8906 184.65 87.8672ZM188.693 89.2734C188.693 91.6953 189.338 93.3359 190.627 94.1953C191.604 94.8203 193.244 95.1328 195.549 95.1328C197.854 95.1328 199.885 94.957 201.643 94.6055C203.4 94.2539 204.963 93.6484 206.33 92.7891C209.26 90.9141 210.725 88.0039 210.725 84.0586C210.725 81.7148 210.1 79.8008 208.85 78.3164C207.482 76.7148 205.686 75.9141 203.459 75.9141C201.936 76.1875 200.393 76.4805 198.83 76.793C197.307 77.1055 195.861 77.7109 194.494 78.6094C191.525 80.5234 189.592 84.0781 188.693 89.2734ZM245.705 77.6133C244.064 76.4414 241.955 75.8555 239.377 75.8555C236.955 75.8555 234.709 76.3047 232.639 77.2031C228.732 78.8438 226.057 80.9531 224.611 83.5312C223.986 84.7031 223.674 85.9531 223.674 87.2812C223.674 87.5156 223.674 88.1797 223.674 89.2734C223.674 90.3281 223.869 91.7734 224.26 93.6094C224.65 95.4062 224.846 97.2422 224.846 99.1172C224.025 99.1562 223.361 99.2539 222.854 99.4102C222.346 99.5664 221.916 99.6445 221.564 99.6445C221.213 99.6445 220.9 99.4883 220.627 99.1758C220.393 98.8633 220.119 98.2578 219.807 97.3594C219.768 97.125 219.689 96.4609 219.572 95.3672C219.455 94.2734 219.299 92.9453 219.104 91.3828C218.947 89.8203 218.752 88.1211 218.518 86.2852C218.322 84.4102 218.127 82.5742 217.932 80.7773C217.502 76.8711 217.17 74 216.936 72.1641C216.936 71.2266 217.619 70.7578 218.986 70.7578C219.807 70.7578 220.451 71.1094 220.92 71.8125C221.389 72.4766 221.76 73.2578 222.033 74.1562C222.307 75.0156 222.482 75.875 222.561 76.7344C222.678 77.5938 222.775 78.1992 222.854 78.5508C228.01 73.9414 234.416 71.6367 242.072 71.6367C242.932 71.6367 243.83 71.6562 244.768 71.6953C245.002 71.6562 245.295 71.6367 245.646 71.6367C245.998 71.6367 246.35 71.8711 246.701 72.3398C247.131 72.8867 247.346 73.5508 247.346 74.332C247.346 76.2852 246.799 77.3789 245.705 77.6133ZM258.889 93.375L259.006 84C259.006 82.5156 258.869 81.2461 258.596 80.1914H249.514L249.396 76.1484H258.186V61.0312C258.303 60.6797 258.537 60.3281 258.889 59.9766C259.436 59.4297 259.885 59.1562 260.236 59.1562C260.627 59.1562 260.959 59.1953 261.232 59.2734C261.506 59.3516 261.799 59.625 262.111 60.0938C262.736 62.6719 263.049 66.5586 263.049 71.7539C263.049 73.043 263.107 74.3125 263.225 75.5625C264.475 75.4062 265.725 75.3281 266.975 75.3281C266.975 75.3281 267.99 75.3281 270.021 75.3281C270.764 75.3281 271.447 75.2891 272.072 75.2109L271.896 79.4297L263.342 79.1953L263.635 99.4102C262.932 99.7227 262.326 99.8789 261.818 99.8789C259.865 99.8789 258.889 97.7109 258.889 93.375ZM297.619 93.9023C297.619 93.1602 297.912 92.5156 298.498 91.9688C299.123 91.3828 299.592 90.9922 299.904 90.7969C300.256 90.5625 300.49 90.3867 300.607 90.2695C300.803 93.8242 303.205 95.6016 307.814 95.6016C311.447 95.6016 315.686 94.4688 320.529 92.2031C323.967 90.6406 326.271 89.0391 327.443 87.3984C327.834 86.8906 328.029 86.4805 328.029 86.168C328.029 85.8164 327.971 85.543 327.854 85.3477L303.537 79.8984C302.834 79.7422 302.15 79.4102 301.486 78.9023C300.275 78.043 299.67 77.2617 299.67 76.5586C299.67 73.8633 301.584 71.4219 305.412 69.2344C309.631 66.8516 315.275 65.0547 322.346 63.8438C323.947 63.5703 325.139 63.4141 325.92 63.375C326.154 63.4531 326.506 63.5312 326.975 63.6094C327.482 63.6484 327.99 63.7266 328.498 63.8438C329.709 64.1172 330.217 64.625 330.021 65.3672C330.021 66.6953 327.482 67.75 322.404 68.5312C315.842 69.5078 311.74 70.3281 310.1 70.9922C308.498 71.6562 307.326 72.3398 306.584 73.043C305.881 73.7461 305.51 74.5859 305.471 75.5625C305.471 75.7578 305.92 75.9727 306.818 76.207C307.717 76.4414 308.791 76.7344 310.041 77.0859C311.291 77.3984 312.912 77.8281 314.904 78.375C319.748 79.7031 325.686 81.3828 332.717 83.4141C333.107 84.2734 333.303 85.0742 333.303 85.8164C333.303 87.8867 332.092 89.8789 329.67 91.793C326.936 93.9414 323.146 95.7578 318.303 97.2422C314.279 98.4531 311.076 99.0586 308.693 99.0586C306.701 99.0586 304.807 98.707 303.01 98.0039C301.213 97.3008 299.865 96.6172 298.967 95.9531C298.068 95.2891 297.619 94.6055 297.619 93.9023ZM342.678 88.3359L342.971 93.4336C342.971 96.5586 342.229 98.4531 340.744 99.1172C340.432 99.2344 340.061 99.293 339.631 99.293C339.201 99.293 338.693 99.1953 338.107 99L338.166 77.0859C338.166 73.9219 337.971 70.7578 337.58 67.5938C337.229 64.3906 337.053 61.207 337.053 58.043C337.053 56.793 337.717 56.168 339.045 56.168H339.514C339.787 56.168 339.963 56.1875 340.041 56.2266C340.627 58.6484 341.018 61.5781 341.213 65.0156C341.643 72.6328 342.033 77.75 342.385 80.3672C343.049 80.0156 344.533 79.0195 346.838 77.3789C349.143 75.7383 350.998 74.4297 352.404 73.4531C353.811 72.4375 355.139 71.5 356.389 70.6406C359.318 68.7266 361.154 67.7695 361.896 67.7695C362.521 67.7695 363.01 68.1406 363.361 68.8828C361.408 71.3438 358.264 74.0781 353.928 77.0859C352.17 78.2969 350.412 79.5078 348.654 80.7188C346.936 81.8906 345.354 83.1211 343.908 84.4102C346.525 85.1133 349.006 85.8555 351.35 86.6367C353.693 87.3789 355.959 88.0625 358.146 88.6875C363.186 90.1719 367.521 91.0117 371.154 91.207C371.154 92.2617 371.057 92.9453 370.861 93.2578C370.51 93.8047 369.787 94.1172 368.693 94.1953H368.225C365.842 93.5312 362.678 92.7891 358.732 91.9688C350.959 90.3672 345.607 89.1562 342.678 88.3359ZM385.686 94.8984C389.123 94.8984 394.299 93.3359 401.213 90.2109C401.643 90.2109 401.994 90.3672 402.268 90.6797C402.541 90.9531 402.678 91.2852 402.678 91.6758C401.115 94.332 398.127 96.4023 393.713 97.8867C389.299 99.3711 385.178 99.625 381.35 98.6484C377.014 97.5156 374.377 95.0742 373.439 91.3242C373.361 90.582 373.322 89.5859 373.322 88.3359C373.322 87.0859 373.635 85.4453 374.26 83.4141C374.924 81.3438 376.037 79.3906 377.6 77.5547C379.162 75.7188 380.998 74.2734 383.107 73.2188C385.217 72.1641 387.463 71.6367 389.846 71.6367C392.111 71.6367 394.65 72.418 397.463 73.9805C398.791 74.7227 399.846 75.5625 400.627 76.5C401.408 77.4375 401.799 78.3945 401.799 79.3711C401.799 79.6445 401.779 79.918 401.74 80.1914C401.662 82.5742 400.51 84.0781 398.283 84.7031C397.307 84.9766 396.174 85.1133 394.885 85.1133L386.447 84.7617C383.635 84.7617 381.486 85.3672 380.002 86.5781C379.143 87.2422 378.537 88.2383 378.186 89.5664C379.162 93.1211 381.662 94.8984 385.686 94.8984ZM396.115 76.793C395.256 76.168 394.357 75.7188 393.42 75.4453C392.482 75.1719 391.701 75.0352 391.076 75.0352C390.451 75.0352 389.436 75.25 388.029 75.6797C386.623 76.0703 385.373 76.5195 384.279 77.0273C381.584 78.2773 380.236 79.5859 380.236 80.9531C383.361 81.2266 385.705 81.3633 387.268 81.3633C391.604 81.3633 394.533 80.9922 396.057 80.25C396.994 79.8594 397.463 79.3711 397.463 78.7852C397.463 78.082 397.014 77.418 396.115 76.793ZM415.041 93.375L415.158 84C415.158 82.5156 415.021 81.2461 414.748 80.1914H405.666L405.549 76.1484H414.338V61.0312C414.455 60.6797 414.689 60.3281 415.041 59.9766C415.588 59.4297 416.037 59.1562 416.389 59.1562C416.779 59.1562 417.111 59.1953 417.385 59.2734C417.658 59.3516 417.951 59.625 418.264 60.0938C418.889 62.6719 419.201 66.5586 419.201 71.7539C419.201 73.043 419.26 74.3125 419.377 75.5625C420.627 75.4062 421.877 75.3281 423.127 75.3281C423.127 75.3281 424.143 75.3281 426.174 75.3281C426.916 75.3281 427.6 75.2891 428.225 75.2109L428.049 79.4297L419.494 79.1953L419.787 99.4102C419.084 99.7227 418.479 99.8789 417.971 99.8789C416.018 99.8789 415.041 97.7109 415.041 93.375ZM454.123 92.8477C455.725 92.1836 457.287 91.5781 458.811 91.0312C460.334 90.4844 461.779 90.2109 463.146 90.2109C464.553 90.2109 465.256 90.6406 465.256 91.5C465.256 91.6953 465.197 92.0078 465.08 92.4375C465.002 92.8281 464.475 93.3164 463.498 93.9023C462.561 94.4492 461.389 94.9766 459.982 95.4844C458.615 95.9922 457.111 96.4609 455.471 96.8906C453.83 97.3203 452.229 97.6914 450.666 98.0039C447.424 98.668 445.119 99 443.752 99C442.385 99 440.9 98.8438 439.299 98.5312C437.736 98.2188 436.271 97.7109 434.904 97.0078C431.74 95.3672 430.158 92.9453 430.158 89.7422C430.158 89.5078 430.158 89.0391 430.158 88.3359C430.158 87.6328 430.451 86.6367 431.037 85.3477C431.623 84.0195 432.502 82.7109 433.674 81.4219C434.846 80.0938 436.213 78.8828 437.775 77.7891C441.057 75.4453 444.494 73.9219 448.088 73.2188C449.338 72.9453 450.373 72.8086 451.193 72.8086C452.053 72.8086 452.756 72.8281 453.303 72.8672C453.85 72.8672 454.416 72.9062 455.002 72.9844C455.588 73.0234 456.096 73.1602 456.525 73.3945C457.541 73.9023 458.049 74.8984 458.049 76.3828C458.049 77.3203 457.385 78.2383 456.057 79.1367C455.705 79.3711 455.393 79.5859 455.119 79.7812C454.924 78.8828 454.67 78.1211 454.357 77.4961C454.045 76.8711 453.361 76.5586 452.307 76.5586C447.697 77.5352 443.732 79 440.412 80.9531C436.662 83.1797 434.787 85.5234 434.787 87.9844C434.787 88.2578 434.807 88.5508 434.846 88.8633C434.846 91.3633 435.803 93.1406 437.717 94.1953C439.162 94.9766 441.018 95.3672 443.283 95.3672C445.588 95.3672 447.58 95.1133 449.26 94.6055C450.939 94.0586 452.561 93.4727 454.123 92.8477ZM495.959 98.1797C495.607 98.8438 494.689 99.1758 493.205 99.1758C491.76 99.1758 491.037 98.6484 491.037 97.5938C491.037 92.9844 490.939 89.8203 490.744 88.1016C490.393 84.3125 489.65 82.2812 488.518 82.0078C485.705 81.4609 483.4 81.1875 481.604 81.1875C479.846 81.1875 478.381 81.7344 477.209 82.8281C476.076 83.8828 475.197 85.6602 474.572 88.1602C473.986 90.6211 473.557 94.0977 473.283 98.5898H468.771C468.85 96.3633 468.889 94.293 468.889 92.3789C468.889 90.4648 468.85 88.1992 468.771 85.582C468.693 82.9258 468.596 80.0352 468.479 76.9102C468.283 73.3164 468.186 70.2891 468.186 67.8281C468.186 65.3281 468.342 63.043 468.654 60.9727C469.045 60.2305 469.611 59.8594 470.354 59.8594C471.252 59.8594 471.955 60.1914 472.463 60.8555C472.971 61.4805 473.244 62.0469 473.283 62.5547L472.99 72.2227C472.99 75.8555 473.166 78.5703 473.518 80.3672C477.033 78.0234 480.666 76.8516 484.416 76.8516C485.627 76.8516 486.916 76.9492 488.283 77.1445C491.213 78.668 493.127 80.2891 494.025 82.0078C494.455 82.9062 494.729 83.8633 494.846 84.8789C494.963 85.8945 495.041 87.0469 495.08 88.3359C495.314 92.7891 495.607 96.0703 495.959 98.1797Z" fill="black"/>
<path d="M2 4.13434C158.13 1.54577 312.98 1.33542 576.525 3.37472M575.16 3.42731C572.075 43.2083 584.855 91.43 576.181 161M572.773 155.303C407.163 155.709 249.98 156.831 8.0517 159.674M19.9724 160.398C11.5021 114.514 10.9324 67.0693 10.5992 4.13434" stroke="black" stroke-width="4" stroke-linecap="round"/>
</svg>
