<svg width="42" height="42" viewBox="0 0 42 42" fill="none" xmlns="http://www.w3.org/2000/svg">
<g id="GlobalPlay">
<g clip-path="url(#clip0_2026_723)">
<g id="circle">
<path id="Vector" d="M22.185 0.443039C25.3634 0.350399 29.0754 2.42085 31.8419 4.36916C34.6083 6.31748 37.3319 9.08295 38.7836 12.1329C40.2352 15.1829 40.7723 19.2451 40.5517 22.6692C40.3311 26.0932 39.291 29.7996 37.4602 32.6773C35.6293 35.555 32.5755 38.4345 29.5667 39.9356C26.5579 41.4367 22.7347 41.9247 19.4072 41.684C16.0797 41.4433 12.3821 40.3746 9.60171 38.4915C6.8213 36.6083 4.16231 33.5202 2.72474 30.3852C1.28717 27.2502 0.761868 23.0977 0.976273 19.6817C1.19068 16.2657 2.13722 12.6808 4.01117 9.88921C5.88511 7.09763 9.0475 4.41763 12.2199 2.9322C15.3924 1.44676 21.0066 1.20566 23.0458 0.976597C25.0851 0.747534 24.4366 1.19005 24.4553 1.55782M20.602 0.536817C23.8506 0.379542 28.3087 1.82013 31.2013 3.66041C34.0938 5.50068 36.3551 8.63125 37.9572 11.5785C39.5593 14.5257 40.8166 17.9986 40.8138 21.3438C40.811 24.6891 39.7537 28.7004 37.9404 31.6501C36.1272 34.5999 32.7873 37.4255 29.9344 39.0423C27.0816 40.6592 24.0637 41.3085 20.8233 41.3513C17.583 41.3941 13.4808 40.9601 10.4923 39.2989C7.50377 37.6378 4.42343 34.4744 2.89219 31.3846C1.36096 28.2949 1.27459 24.321 1.30488 20.7603C1.33518 17.1997 1.349 12.8862 3.07395 10.0208C4.79891 7.15537 8.6485 5.20521 11.6546 3.56776C14.6607 1.93032 19.4832 0.69189 21.1106 0.196126C22.7381 -0.299638 21.3678 0.261471 21.4191 0.593181" stroke="black" stroke-width="3.08275"/>
<g id="triangle">
<path id="Vector_2" d="M28.2377 18.7717C29.1976 19.0737 30.4302 20.153 32.0341 21.9286L28.2377 18.7717ZM28.5396 18.4833C29.1482 19.6647 30.1568 20.2722 32.0803 21.8492L28.5396 18.4833ZM23.7515 16.0175C26.649 18.4205 29.5386 21.4051 31.5779 22.5031L23.7515 16.0175ZM24.0356 15.722C26.1898 17.9732 28.2469 19.8088 31.1369 22.2863L24.0356 15.722ZM19.6491 12.774C21.9393 15.36 24.7401 17.432 30.6737 23.3835L19.6491 12.774ZM19.9434 12.985C23.9554 17.237 28.1053 20.702 30.5522 22.8146L19.9434 12.985ZM14.8946 9.94298C19.558 14.4071 22.7557 17.99 29.239 23.4401L14.8946 9.94298ZM15.2735 10.3038C20.7207 15.7656 26.3106 20.525 29.7793 23.5879L15.2735 10.3038ZM12.9398 9.26953C16.6734 12.5235 20.5504 15.6975 28.3852 23.9495L12.9398 9.26953ZM12.8008 9.76818C19.0604 15.412 25.0449 20.7425 28.8725 24.1157L12.8008 9.76818ZM13.2845 11.2427C16.6276 14.8458 20.1006 17.6872 28.1332 24.3696L13.2845 11.2427ZM12.9499 10.7754C18.3569 15.4671 23.8357 20.7658 27.7217 24.6529L12.9499 10.7754ZM12.5026 11.7166C16.9775 15.9715 20.5018 20.0921 27.2277 25.2127L12.5026 11.7166ZM12.7123 11.8522C17.0758 16.1308 21.5758 20.4114 27.1826 24.9839L12.7123 11.8522ZM12.9163 13.3782C16.3106 16.1641 19.166 19.2567 25.8543 25.5794L12.9163 13.3782ZM13.0624 13.6002C15.6574 15.8177 18.7373 18.2603 26.47 25.5763L13.0624 13.6002ZM12.7674 14.7994C16.1909 17.609 19.5176 21.3327 25.0299 26.1765L12.7674 14.7994ZM12.7563 14.5793C15.0739 17.1981 17.9556 19.336 25.0722 26.168L12.7563 14.5793ZM12.7371 15.852C15.905 19.5072 19.6899 22.3681 24.8689 26.5942L12.7371 15.852ZM12.8473 16.1183C15.0585 18.0229 17.5832 20.4037 24.5775 26.5856L12.8473 16.1183ZM13.0973 17.0381C16.8845 20.5749 20.2874 24.5013 23.4426 27.1048L13.0973 17.0381ZM13.0458 17.4639C16.2306 20.0091 19.1923 23.0128 23.9339 27.1695L13.0458 17.4639ZM13.326 18.4795C15.5333 20.7067 18.0466 23.2711 22.6615 27.3041L13.326 18.4795ZM12.9948 18.7272C15.1662 20.4877 17.5292 22.6649 22.5514 27.5108L12.9948 18.7272ZM12.8644 19.4667C15.5831 22.8293 19.1862 25.431 22.1317 28.5293L12.8644 19.4667ZM12.6248 20.0684C15.4666 22.1939 17.9525 24.5841 22.1322 28.1052L12.6248 20.0684ZM13.2884 21.0261C15.4784 24.3554 18.94 26.1367 20.9361 28.4712L13.2884 21.0261ZM13.1522 21.1252C15.8877 24.3541 19.1112 26.8614 20.9659 28.8496L13.1522 21.1252ZM12.897 22.8957C15.6277 25.0708 18.3695 28.0464 19.8468 29.4089L12.897 22.8957ZM12.7424 22.6642C14.5095 23.8193 16.2512 25.4762 20.1516 29.4036L12.7424 22.6642ZM12.7855 24.1633C15.1115 25.3298 16.538 27.5441 19.4718 29.4164L12.7855 24.1633ZM12.8564 24.122C15.2088 25.9267 17.4115 28.0466 19.2467 30.128L12.8564 24.122ZM12.5411 24.8552C14.4357 27.0111 16.4474 27.9585 18.8519 30.8739L12.5411 24.8552ZM12.9879 25.1001C14.3332 26.5289 15.5154 27.7496 18.5293 30.5149L12.9879 25.1001ZM13.2309 26.2834C14.3609 27.1841 15.6551 29.0135 17.6321 30.4734L13.2309 26.2834ZM13.0652 26.6042C14.7046 28.0198 16.5437 29.8228 17.8748 30.8494L13.0652 26.6042ZM13.0363 27.4447C13.8912 28.8768 15.4093 30.0041 17.2096 31.6692L13.0363 27.4447ZM13.0403 27.5898C14.134 28.7771 15.2168 29.5644 17.0073 31.6782L13.0403 27.5898ZM12.9298 29.1993C13.4188 29.8718 14.6447 30.2523 16.2582 32.0702L12.9298 29.1993ZM12.8466 28.9458C14.0503 30.4081 15.3362 31.438 16.1414 32.0338L12.8466 28.9458ZM12.7031 30.4116C13.4044 30.7628 14.302 31.8018 15.0339 32.5487L12.7031 30.4116ZM13.0066 30.3872C13.4974 30.8124 14.0424 31.4846 15.2092 32.3581L13.0066 30.3872ZM13.0494 31.7514C13.5683 32.3534 14.072 32.6615 14.3211 33.0867L13.0494 31.7514ZM12.8773 31.8548C13.5097 32.2968 13.9936 32.7178 14.3327 33.0223L12.8773 31.8548ZM12.8074 33.0871C13.1218 33.2209 13.2768 33.2781 13.5806 33.709L12.8074 33.0871ZM12.8989 33.0289C13.1405 33.2456 13.3353 33.4298 13.5707 33.6989L12.8989 33.0289Z" fill="#1EC115"/>
<path id="Vector_3" d="M33.1003 21.5392C27.0761 24.6107 21.0307 28.9229 12.9014 33.9428M32.8739 21.3241C28.9357 24.4603 24.2582 27.1372 13.4226 33.7011M12.9191 34.0201C13.0508 26.1473 13.2611 19.2063 12.861 9.00003M13.3995 33.6767C12.9816 27.7772 13.174 22.0847 13.1488 9.2915M13.1501 8.98641C17.6467 11.4719 21.5747 13.6752 32.8838 21.4118M13.3986 8.92871C19.0472 12.6134 25.1523 16.2548 33.1418 21.6369" stroke="#1EC115" stroke-width="0.918749"/>
</g>
</g>
</g>
</g>
<defs>
<clipPath id="clip0_2026_723">
<rect width="42" height="42" rx="21" fill="white"/>
</clipPath>
</defs>
</svg>
