<svg width="213" height="900" viewBox="0 0 213 900" fill="none" xmlns="http://www.w3.org/2000/svg">
<path d="M10.4113 5C79.9808 20.201 144.805 7.87933 207 10.8069M204.355 33.5038C203.111 293.657 208.133 571.087 203.726 861.739M206.859 880.125C148.695 878.227 91.7411 884.275 9.80758 878.259M10.2335 862.511C8.4593 585.902 8.09631 327.807 8 27.8899" stroke="#B20DFF" stroke-opacity="0.46" stroke-width="4.6" stroke-linecap="round"/>
<path d="M10.2968 69.7053C13.8021 50.013 15.3285 31.9283 18.0257 15.9494M10.1926 68.2906C12.4014 56.3949 14.3444 42.6184 17.9251 13.7631M9.73652 119.073C16.6537 85.3144 21.1072 35.5131 24.2569 9.29421M11.033 124.49C14.7359 91.8571 20.4966 55.3179 25.4098 16.0137M9.7868 172.812C19.0062 122.947 27.3708 53.0191 33.0346 8.29754M10.2286 179.886C16.054 133.315 21.1611 92.6126 32.2696 13.2809M11.5359 237.21C19.4012 178.23 22.4253 132.399 40.0523 26.4948M10.9073 235.763C16.2228 176.687 24.7382 132.335 40.2858 16.0298M9.40969 290.87C18.647 217.663 26.4837 154.213 46.8475 7.9278M10.9684 297.059C20.1555 219.752 30.6426 139.906 46.7074 11.5769M8.07725 340.237C18.0041 273.187 28.9762 183.422 55.7436 26.0286M11.3132 345.574C21.0426 273.219 29.1737 206.169 55.1438 13.8596M7.17578 398.269C18.4279 310.272 35.3798 230.909 62.2011 15.6279M8.0557 403.445C23.3339 306.382 38.5798 196.958 61.2637 29.6295M11.0151 471.299C32.7508 281.498 52.7806 124.41 69.5816 22.5724M8.86738 461.863C21.4735 358.048 34.9093 269.248 70.7345 8.63512M8.26041 515.217C35.5414 335.559 58.9472 140.372 75.2023 4.64844M10.9612 505.588C34.2844 323.374 58.6707 157.235 79.8246 13.1844M12.5056 563.62C29.2096 440.675 38.2925 355.492 86.0451 26.7359M12.5738 556.016C35.5019 394.266 57.2125 218.257 85.6069 10.8535M13.0802 631.602C43.5433 386.003 69.6786 181.059 90.4015 14.9206M12.0602 614.112C34.9452 424.246 61.2781 229.253 93.4902 15.9976M14.0104 687.287C33.6236 485.976 62.4525 321.236 100.382 9.13345M10.4405 666.695C40.2535 476.443 66.8916 269.714 99.0032 12.3967M11.7837 726.623C34.7046 584.759 55.2192 429.471 105.116 23.0708M8.96435 725.627C40.4151 514.895 68.8059 306.173 107.321 20.2415M12.3978 788.931C34.1767 579.084 67.9331 385.055 112.155 27.0735M10.5159 783.048C33.7888 613.341 56.8821 464.997 116.695 17.8302M11.974 830.052C37.5096 638.884 63.785 431.705 123.975 28.1506M8.74886 848.555C47.9572 571.882 84.8599 298.521 124.259 14.1007M14.1361 856.207C41.7727 653.4 74.4769 419.938 129.096 9.74431M13.6692 863.649C40.1062 687.785 66.4319 484.947 130.684 14.6955M24.0379 878.583C57.2053 592.427 92.6893 331.283 141.088 29.4527M20.3817 875.979C67.2472 548.139 112.263 214.833 138.14 15.7565M25.144 886.557C55.7616 697.431 80.5609 508.208 144.181 18.8429M26.9721 878.905C62.4202 609.852 99.4593 357.614 145.948 7.18834M34.4388 868.697C79.153 565.404 122.757 263.558 152.107 25.1284M36.7661 876.092C68.5473 635.09 101.496 393.912 152.603 11.8984M45.3929 879.869C79.7204 585.916 118.132 310.401 162.835 13.4577M44.3478 878.599C88.3185 544.57 130.978 234.461 162.953 4.79312M48.2625 881.895C78.4419 670.617 104.886 483.999 165.769 10.7892M52.4861 874.163C75.6082 694.36 100.817 519.268 168.114 14.0847M59.9061 867.186C86.8747 656.889 118.081 418.668 179.474 28.3756M58.7533 872.185C102.498 553.556 143.786 235.249 177.427 12.7343M62.9661 892.263C98.6297 628.13 135.008 354.865 185.831 6.28812M64.4063 872.893C98.9816 641.826 129.552 401.998 185.07 21.6722M76.1218 869.501C97.0674 711.111 125.124 522.274 189.444 15.5797M71.2158 875.658C106.8 639.575 137.989 399.796 192.619 12.6057M79.5049 896.009C120.595 576.383 167.173 242.097 197.593 28.8579M81.0206 885.351C107.799 665.36 138.941 439.052 197.425 11.6734M87.3344 882.056C126.812 589.581 169.587 276.305 207.369 24.7426M90.5632 875.883C126.834 601.766 162.939 336.588 205.804 15.4671M96.4748 881.075C140.909 575.001 181.155 279.263 209 63.0179M96.4424 871.157C127.02 634.849 159.983 398.188 205.272 71.0234M106.283 875.079C146.095 570.757 186.65 281.835 203.692 139.199M103.385 867.588C142.539 582.685 184.696 294.406 205.725 125.583M113.427 861.913C139.167 662.097 169.055 449.131 206.626 199.706M112.863 880.737C135.396 714.181 156.374 544.104 206.637 180.127M119.435 859.148C148.085 700.26 169.432 500.604 204.166 259.121M119.439 869.163C136.599 741.493 153.461 602.409 203.975 236.76M128.073 882.04C152.208 696.257 177.424 536.935 208.418 315.577M125.074 874.87C151.856 672.53 179.956 470.447 204.338 291.995M136.121 868.086C148.07 781.762 166.189 658.496 203.078 340.848M131.729 878.921C155.717 700.179 179.977 532.851 204.661 354.496M139.059 893.501C158.557 780.186 167.773 659.83 201.253 409.811M142.04 879.339C160.342 743.149 177.011 622.053 205.531 408.252M145.599 864.309C165.622 727.17 188.546 583.858 207.606 459.339M146.892 882.249C170.381 721.897 192.418 565.95 203.149 473.726M156.503 889.965C170.036 744.065 185.652 633.177 201.235 537.835M155.21 874.854C174.037 763.163 190.683 638.595 202.887 526.293M167.964 866.897C175.139 792.661 186.919 708.651 207.283 585.241M163.251 866.35C173.602 786.633 183.73 721.913 204.676 582.878M173.459 876.011C179.467 812.53 188.176 763.548 203.437 637.18M172.284 864.196C184.847 780.395 194.918 697.897 204.496 636.376M180.555 869.019C188.46 803.11 199.831 739.05 201.874 689.538M180.153 868.183C187.077 816.05 193.337 768.339 203.929 689.763M188.044 865.787C195.686 821.339 201.691 765.445 206.985 737.844M186.542 874.372C191.75 845.163 194.304 813.205 204.834 732.941M193.215 871.8C197.209 850.966 200.696 838.588 206.267 794.3M194.681 875.818C198.567 842.157 203.2 807.08 205.976 790.185" stroke="#B20DFF" stroke-opacity="0.46" stroke-width="7.8108" stroke-linecap="round"/>
<path d="M5.29918 5C57.0947 11.1472 115.273 16.0392 207 8.10577M201.918 35.6072C200.821 274.8 205.644 528.154 202.653 861.309M200.636 866.619C163.371 891.321 122.642 870.9 5 873.957M10.123 862.451C4.95568 579.311 10.3151 301.465 10.8581 24.5519" stroke="black" stroke-width="9.6" stroke-linecap="round"/>
</svg>
