<svg width="374" height="57" viewBox="0 0 374 57" fill="none" xmlns="http://www.w3.org/2000/svg">
<path d="M8.66301 11.9212C6.38732 14.6108 5.54085 15.6093 4.45298 17.083C5.83328 15.3952 7.0998 13.6055 8.66301 11.9212ZM8.66301 11.9212C9.87635 10.9685 10.8515 9.70668 12.8741 6.75938C10.5133 9.80287 9.64453 10.9399 8.66301 11.9212ZM7.88247 32.518C7.31142 33.2245 5.88539 35.297 4.37323 36.8199C5.40686 35.7309 6.4139 34.437 7.88247 32.518ZM7.88247 32.518C9.78703 30.8989 10.9493 28.6191 14.198 24.7753C10.7367 29.0943 9.11283 30.4787 7.88247 32.518ZM23.0339 27.0356C22.1108 28.0512 20.9081 29.9978 19.5257 31.3374C20.3966 30.3791 21.376 29.2249 23.0339 27.0356ZM23.0339 27.0356C28.3711 20.9108 32.8289 14.9005 35.665 11.5502C27.8979 20.3452 25.7286 23.4906 23.0339 27.0356ZM2.73877 9.36546C3.20667 8.93493 3.47039 8.51127 4.1414 7.64563C3.46295 8.56394 3.12372 8.92692 2.73877 9.36546ZM4.24562 10.791C5.1846 9.47539 6.45857 8.32234 7.05301 7.35021C5.80138 8.85936 4.94959 9.95745 4.24562 10.791ZM4.34877 13.9376C5.37495 12.5315 6.79567 11.6006 9.96355 7.05479C7.15722 10.6731 5.53766 12.1548 4.34877 13.9376ZM4.55719 20.2295C5.80244 18.2601 7.28696 16.8769 8.76722 15.0677C7.76443 16.4898 6.20441 18.2165 4.55719 20.2295ZM11.5746 11.6269C12.6912 10.5987 13.7142 9.41585 15.7846 6.46396C14.5266 8.17005 13.1548 9.94828 11.5746 11.6269ZM4.66035 23.3761C5.58657 22.0742 6.58724 21.3894 8.16959 19.0742C6.6755 20.849 5.74077 21.9688 4.66035 23.3761ZM15.8889 9.6105C16.7204 8.59486 17.5754 7.78074 17.9933 7.0296C16.7959 8.54791 16.3812 9.09867 15.8889 9.6105ZM4.06271 27.3814C5.15483 25.7383 6.66274 23.9005 8.27274 22.2196C7.187 23.6978 5.65357 25.4715 4.06271 27.3814ZM18.0976 10.175C18.9238 8.84677 20.3711 7.35937 21.6057 5.87427C20.4105 7.28494 19.2556 8.87654 18.0976 10.175ZM4.16586 30.5279C5.2718 28.7588 6.57129 27.418 7.6751 26.226C6.62446 27.6699 5.28456 28.9775 4.16586 30.5279ZM20.3062 10.7406C21.158 9.62539 22.2055 8.53646 23.1136 7.29983C21.6025 9.13989 20.9358 9.87615 20.3062 10.7406ZM4.27008 33.6745C7.31354 30.252 10.1263 26.9566 11.2875 25.0707C6.94986 29.992 5.89921 32.0027 4.27008 33.6745ZM23.2168 10.4452C23.7846 9.7147 24.3802 8.84677 25.3223 7.86433C24.1228 9.2647 23.7134 9.93569 23.2168 10.4452ZM25.4266 11.0109C26.2741 10.1441 26.7026 9.15249 27.531 8.42997C26.7781 9.46394 26.1093 10.1819 25.4266 11.0109ZM4.47744 39.9664C5.81733 38.5248 7.1115 36.5015 7.98668 35.6645C6.90732 37.0649 5.75246 38.6519 4.47744 39.9664ZM10.793 32.2237C12.772 28.9524 15.07 26.9772 17.8104 23.6199C15.2976 26.7264 13.0985 29.589 10.793 32.2237ZM27.6352 11.5754C28.1457 11.0418 28.553 10.4933 29.7408 8.99447C28.8943 9.97577 28.1957 10.8254 27.6352 11.5754ZM4.58165 43.1118C5.91091 41.6713 6.94135 40.2985 8.08983 38.8111C6.29905 40.8023 5.59295 42.1099 4.58165 43.1118ZM13.7036 31.9283C15.6826 29.0508 18.9196 25.6123 20.721 23.3245C18.9345 25.9123 16.1388 28.6157 13.7036 31.9283ZM29.1421 13.0009C30.1704 11.9956 30.9499 10.7292 31.9495 9.56012C30.5585 11.2101 29.8801 11.9956 29.1421 13.0009ZM4.6848 46.2583C6.35542 44.3221 7.63363 42.5427 8.89589 41.0965C7.58897 42.8255 6.06723 44.5156 4.6848 46.2583ZM16.6152 31.6329C18.3591 30.4088 19.5619 28.0535 22.9307 23.8902C20.1297 26.8592 18.2879 29.5317 16.6152 31.6329ZM31.3508 13.5654C32.4993 12.1811 33.45 10.9926 34.1582 10.1246C32.7236 11.8765 32.1313 12.6208 31.3508 13.5654ZM4.78902 49.4037C6.02257 47.9118 7.20614 46.2652 8.99904 44.2419C6.74569 47.0931 5.85455 48.2587 4.78902 49.4037ZM4.19032 53.4102C5.64612 51.7488 7.26144 49.3511 9.10326 47.3885C8.02177 49.0339 6.19697 51.2449 4.19032 53.4102ZM22.4363 31.042C22.902 30.4981 23.7283 29.8168 25.2426 27.6012C24.3227 28.8436 23.2593 30.0012 22.4363 31.042ZM27.3481 25.0203C30.7606 21.2921 33.8073 17.3452 37.1729 12.9757C32.8098 18.2761 29.8174 21.5188 27.3481 25.0203ZM6.40008 53.9758C7.0881 53.33 7.92394 52.1346 9.90826 49.674C8.65875 51.2804 7.57089 52.6087 6.40008 53.9758ZM25.3468 30.7466C25.8764 30.0367 26.7707 29.1504 27.4523 28.1657C26.7696 28.9844 26.1231 29.7527 25.3468 30.7466ZM8.60877 54.5403C9.90932 53.1743 10.9483 51.8552 12.8188 49.3785C10.5729 52.3304 9.4478 53.2373 8.60877 54.5403ZM27.5555 31.3123C28.4275 30.4478 28.8007 29.7905 30.3629 27.8703C29.2506 29.0508 28.3818 30.2829 27.5555 31.3123ZM10.8175 55.106C11.716 53.7262 13.0123 52.7049 15.7293 49.0831C14.6266 50.1675 12.7444 52.643 10.8175 55.106ZM30.466 31.0168C31.0296 30.5794 31.3146 29.6737 32.5716 28.4359C31.5911 29.6668 31.0807 30.3264 30.466 31.0168ZM13.0262 55.6705C14.3171 53.3289 16.2749 51.4831 18.641 48.7877C17.0905 50.4572 15.3423 53.1686 13.0262 55.6705ZM31.9739 32.4424C32.8853 31.3535 33.4244 30.8325 35.4821 28.1405C33.7594 30.0791 32.8938 31.2333 31.9739 32.4424ZM16.6396 54.5151C17.8764 52.9465 18.8111 51.5232 20.8496 49.3534C18.5229 52.1152 17.5914 53.4514 16.6396 54.5151ZM34.1826 33.0069C35.162 31.8126 36.2605 30.5817 36.99 29.5661C35.4577 31.6157 34.7558 32.305 34.1826 33.0069ZM19.5502 54.2197C20.7954 52.5033 22.3288 51.0743 24.462 48.198C21.7482 51.6434 20.587 52.998 19.5502 54.2197ZM36.3913 33.5725C37.291 32.3142 38.1683 31.3569 39.1987 30.1306C38.4512 31.1233 37.5154 32.218 36.3913 33.5725ZM22.4607 53.9243C23.8208 51.7293 25.3202 50.2934 27.3726 47.9026C25.5457 50.0129 23.9378 51.9526 22.4607 53.9243ZM37.8992 34.9981C39.3497 33.292 40.5046 32.0588 41.4074 30.6962C40.7215 31.5733 39.2083 33.2714 37.8992 34.9981ZM26.0731 52.769C27.0599 51.5713 28.8805 48.798 33.0905 44.1664C31.3104 46.1106 28.8358 49.477 26.0731 52.769ZM40.1079 35.5626C40.9778 34.4668 41.6105 33.6573 43.6161 31.2607C42.9132 32.3932 41.5329 33.8348 40.1079 35.5626ZM28.2818 53.3346C31.0243 48.2919 34.3134 45.7213 44.4222 33.5474C35.7873 44.9209 32.0537 48.7247 28.2818 53.3346ZM34.7016 48.7373C38.9201 43.8263 41.6552 40.4473 45.929 34.9729C41.5797 40.4496 38.0088 44.3324 34.7016 48.7373ZM42.524 42.4202C44.0415 40.8778 45.3558 39.3996 46.7351 37.2584C45.7546 38.4366 44.0085 40.5355 42.524 42.4202Z" stroke="#1EC115" stroke-width="0.801" stroke-linecap="round"/>
<path d="M3.44707 6.35847C7.70176 5.91191 9.44255 5.97374 12.7519 5.21344ZM12.7519 5.21344C16.7173 4.99245 18.8792 5.4058 20.5275 5.57183ZM20.5275 5.57183C21.9418 4.97298 25.3586 5.79168 27.4396 6.93098ZM27.4396 6.93098C31.6943 8.1722 34.3933 10.0707 36.4786 12.9424ZM36.4786 12.9424C36.0054 13.2309 36.5307 14.2592 36.9444 14.8031ZM36.9444 14.8031C37.7249 18.0069 34.3007 19.0981 31.8262 21.6023ZM31.8262 21.6023C29.508 23.1034 26.3199 24.7728 22.1226 26.5396ZM22.1226 26.5396C32.7056 26.4537 38.8702 29.0175 43.1249 31.406ZM43.1249 31.406C45.324 31.8503 46.8851 33.8781 46.1822 36.2724ZM46.1822 36.2724C45.9291 38.3266 43.6279 41.6723 41.131 44.2876ZM41.131 44.2876C37.1826 47.0494 33.5191 49.9921 27.0409 51.6593ZM27.0409 51.6593C20.8412 52.581 16.5993 55.265 12.3531 54.3787ZM12.3531 54.3787C9.38726 53.812 6.98927 54.4566 3.44707 52.7322ZM3.44707 52.7322C2.96428 50.394 2.18906 46.7345 3.11422 43.2857ZM3.11422 43.2857C2.16034 35.9002 2.28476 30.2839 2.58252 25.1083ZM2.58252 25.1083C1.67118 20.5671 1.88386 14.1905 3.04829 9.65043ZM3.04829 9.65043C3.25565 9.47295 2.33155 8.61074 1.71903 9.5073ZM1.71903 9.5073C1.97531 9.46952 0.595011 8.06227 1.12033 8.07601ZM1.12033 8.07601C1.84239 7.74396 1.99764 6.6516 3.44707 6.35847ZM9.42873 49.154C16.8917 49.4826 22.8659 48.6536 26.9749 46.4345ZM26.9749 46.4345C30.5225 43.9578 34.1349 43.8502 36.8114 41.8544ZM36.8114 41.8544C39.7486 40.793 39.6444 39.5151 39.8687 37.0602ZM39.8687 37.0602C39.5625 35.8384 38.9117 34.5148 35.881 32.2648ZM35.881 32.2648C33.684 32.0449 28.317 30.9869 24.3824 30.4041ZM24.3824 30.4041C20.4403 31.1896 14.6373 31.761 7.83362 32.48ZM7.83362 32.48C9.02995 38.7903 9.22456 43.8193 9.42873 49.154ZM15.6092 9.8657C15.0095 9.80387 14.3204 9.92753 13.9482 9.8657ZM13.9482 9.8657C10.7038 9.0596 9.14055 10.2836 7.83362 11.0817ZM7.83362 11.0817C7.12326 17.353 6.71917 22.0981 7.16899 25.4667ZM7.16899 25.4667C10.1699 25.9213 15.6964 23.4824 21.7238 22.3889ZM21.7238 22.3889C25.5191 21.2072 27.948 18.6595 29.8993 17.8088ZM29.8993 17.8088C31.47 16.445 30.9021 16.4153 31.2286 15.1615ZM31.2286 15.1615C31.0435 15.1168 30.1152 14.4836 30.2311 12.9424ZM30.2311 12.9424C29.3697 12.8245 28.4307 11.7584 27.7725 11.4401ZM27.7725 11.4401C27.244 10.7989 25.2405 11.2008 24.4493 10.5813ZM24.4493 10.5813C22.6937 9.80386 22.2757 10.5092 20.9263 10.0798ZM20.9263 10.0798C18.7218 9.63784 17.9041 9.57028 15.6092 9.8657Z" stroke="#1EC115" stroke-linecap="round"/>
<path d="M56.7503 32.22C53.9217 38.0195 51.227 41.0905 49.6308 44.979C52.3925 39.6317 55.4859 34.8902 56.7503 32.22ZM56.7503 32.22C59.4173 27.8975 61.4814 23.9757 62.7756 21.4246C60.8466 25.3921 58.8378 28.5696 56.7503 32.22ZM136.737 30.5379C135.387 32.7238 132.883 37.5077 130.711 41.3333C132.756 38.2394 134.174 34.7012 136.737 30.5379ZM136.737 30.5379C137.292 29.3024 138.302 27.6032 140.022 24.649C139.078 26.299 137.881 28.312 136.737 30.5379ZM200.343 36.9592C196.742 42.7863 196.099 45.7451 193.77 48.737C194.828 46.3382 196.294 43.4561 200.343 36.9592ZM200.343 36.9592C202.109 33.9948 204.056 30.6902 205.82 27.144C202.791 32.4295 201.404 34.549 200.343 36.9592ZM199.604 41.8245C197.409 46.1092 195.855 48.6878 194.128 51.6385C196.146 47.4718 198.583 44.0287 199.604 41.8245ZM199.604 41.8245C199.967 41.0001 200.705 39.4531 202.342 36.9169C201.406 38.3688 200.554 40.0325 199.604 41.8245ZM240.144 40.0016C239.139 42.0741 237.408 44.8027 235.763 47.8531C236.917 45.9523 238.216 43.471 240.144 40.0016ZM240.144 40.0016C241.903 37.1814 243.213 34.9577 244.527 32.149C242.82 34.9165 241.526 37.526 240.144 40.0016ZM49.4649 38.1936C51.2323 33.7852 54.1567 29.5017 57.1331 24.4532C53.4187 30.72 51.7172 34.747 49.4649 38.1936ZM49.2735 42.0775C52.8731 36.1337 57.0938 29.8165 59.68 23.4296C53.4367 34.3875 51.4216 38.4237 49.2735 42.0775ZM50.5347 46.9004C52.4265 41.4672 54.9276 38.1638 58.7506 32.1787C56.3324 36.4543 53.5495 41.4214 50.5347 46.9004ZM60.3935 29.2337C61.693 26.4089 63.2881 23.6345 64.7748 21.3823C62.9883 24.3628 61.5378 27.0318 60.3935 29.2337ZM51.4386 48.8218C52.4722 47.3206 53.0305 45.4016 54.7256 42.9329C52.8423 46.2649 52.0235 47.4431 51.4386 48.8218ZM55.8209 40.9691C56.644 39.6283 58.3263 37.0028 60.7498 32.1364C57.9307 37.1722 56.5887 39.0535 55.8209 40.9691ZM62.9404 28.2101C63.7996 26.7078 64.5079 25.5215 66.775 21.3399C65.0959 24.088 64.0772 25.9853 62.9404 28.2101ZM52.8912 49.7607C53.5601 48.2573 54.6809 46.5718 55.6295 44.8531C54.8255 46.0817 53.8568 47.9905 52.8912 49.7607ZM60.0107 37.0016C61.2049 35.1226 62.279 33.3295 62.7501 32.094C62.1747 33.3329 61.021 35.0894 60.0107 37.0016ZM65.4883 27.1864C66.4582 25.7586 67.7321 23.7914 68.7742 21.2975C67.0717 24.1269 66.3784 25.6738 65.4883 27.1864ZM54.3428 50.6996C55.52 48.8676 56.1973 47.2599 57.081 45.7931C56.1591 47.4019 55.1478 49.2488 54.3428 50.6996ZM62.011 36.9592C62.3736 35.9963 63.1722 34.8844 64.7493 32.0516C63.4211 34.3669 62.8606 35.5348 62.011 36.9592ZM68.5828 25.1815C69.0667 24.2918 69.457 23.6838 70.2258 22.2376C69.6835 23.3506 69.1826 24.1807 68.5828 25.1815ZM55.2467 52.621C56.0995 51.4233 56.6727 50.3767 57.986 47.7134C57.332 48.7588 56.2739 50.742 55.2467 52.621ZM64.0102 36.9169C64.4781 36.0066 65.2033 35.0184 66.7485 32.0104C65.483 34.1997 64.8184 35.5062 64.0102 36.9169ZM70.0354 26.1215C70.8596 24.878 71.1733 23.9815 72.2261 22.1952C71.32 23.7799 70.7001 24.8883 70.0354 26.1215ZM57.2469 52.5786C57.7893 51.6259 58.5049 50.3687 59.4375 48.6534C58.4752 50.2095 57.8424 51.4679 57.2469 52.5786ZM66.0105 36.8757C67.0271 34.9062 67.9607 33.6535 68.7487 31.9681C67.7821 33.8837 66.8814 35.4341 66.0105 36.8757ZM72.0347 26.0792C72.6929 25.0109 73.3076 23.6551 74.2253 22.1529C73.3565 23.8006 72.7535 24.8002 72.0347 26.0792ZM58.6985 53.5187C59.462 51.8446 60.7051 50.1924 61.4367 48.6111C59.9735 51.5538 59.1494 52.471 58.6985 53.5187ZM68.0097 36.8333C68.9593 35.3276 69.793 33.7875 70.7479 31.9257C69.1996 34.51 68.6158 35.5577 68.0097 36.8333ZM73.4862 27.0181C74.0838 26.2601 74.4209 25.3143 75.6779 23.0929C75.0356 24.2654 74.2433 25.6223 73.4862 27.0181ZM60.1511 54.4576C60.9135 53.0252 61.5739 51.8698 62.8894 49.55C61.8727 51.287 61.0231 52.8236 60.1511 54.4576ZM70.0089 36.7909C70.933 35.1329 71.437 33.9455 72.7482 31.8833C71.5614 33.9535 70.8032 35.2337 70.0089 36.7909ZM75.4865 26.9769C75.9618 25.7437 76.5711 24.6479 77.1294 24.0318C76.6583 25.0063 76.0884 25.9017 75.4865 26.9769ZM62.1503 54.4152C62.9489 52.7939 64.1623 50.8576 65.4362 48.5263C64.9375 49.6897 63.52 52.124 62.1503 54.4152ZM72.0091 36.7486C73.8743 34.4928 75.0377 32.3906 78.581 24.9719C74.4273 31.857 73.2937 34.6199 72.0091 36.7486ZM64.1495 54.374C65.097 53.2954 65.2958 51.6901 67.4365 48.4851C66.4231 50.3057 65.3033 52.4904 64.1495 54.374ZM73.4607 37.6886C75.4376 34.1345 76.8157 30.5391 79.4859 26.8921C78.3811 29.4158 75.8161 33.7738 73.4607 37.6886ZM66.1498 54.3316C67.8204 51.4393 68.8657 49.3508 69.9833 47.4615C68.7519 49.6027 67.5269 52.0965 66.1498 54.3316ZM76.0086 36.665C77.6856 34.668 79.2254 31.4562 80.9375 27.8322C78.917 31.4207 77.5633 34.068 76.0086 36.665ZM68.6966 53.308C69.7377 51.9717 70.1035 50.7385 71.4349 48.4004C70.044 51.2137 69.4155 52.1355 68.6966 53.308ZM78.0078 36.6226C78.7405 34.5238 80.3324 32.5818 82.389 28.7711C80.4047 32.3127 79.4838 34.4551 78.0078 36.6226ZM71.2445 52.2843C72.2909 50.6664 72.7546 49.1824 73.9828 47.3767C72.896 48.966 72.1952 50.7328 71.2445 52.2843ZM73.7914 51.2607C74.2253 49.9015 74.9292 48.7702 76.5297 46.3531C75.8736 47.7248 74.69 49.4286 73.7914 51.2607ZM76.3393 50.237C77.3134 48.3065 78.5416 46.3153 79.0776 45.3294C77.5463 48.0248 77.0273 49.1023 76.3393 50.237ZM78.8862 49.2134C79.352 48.4176 80.1687 47.1992 81.6245 44.3069C80.0198 46.9325 79.4657 48.2149 78.8862 49.2134ZM131.337 8.34265C132.046 7.32701 132.561 6.07892 132.98 5.39763C132.598 6.16366 131.949 7.27777 131.337 8.34265ZM120.74 30.8745C121.579 29.5406 122.139 28.5765 122.93 26.9482C121.655 29.1616 121.188 29.9975 120.74 30.8745ZM131.146 12.2254C131.803 10.7564 132.827 8.46746 134.432 6.3377C133.097 9.11096 132.125 10.509 131.146 12.2254ZM122.739 30.8322C123.36 29.9734 123.718 28.7597 124.93 26.9059C123.655 29.1513 123.208 29.9734 122.739 30.8322ZM131.502 15.1281C132.914 13.1415 134.011 10.5777 134.788 9.23921C133.153 12.2827 132.421 13.6327 131.502 15.1281ZM124.738 30.7898C125.436 29.6482 126.094 28.5811 126.93 26.8635C125.91 28.7608 125.354 29.7318 124.738 30.7898ZM131.311 19.012C132.469 17.2773 132.795 16.2147 135.145 12.1419C133.452 15.3903 132.184 16.9716 131.311 19.012ZM126.738 30.7475C127.113 29.623 127.918 28.8043 128.929 26.8223C128.206 28.2456 127.471 29.5017 126.738 30.7475ZM131.12 22.896C132.657 20.5636 134.032 18.1224 135.502 15.0445C133.318 18.6307 132.314 21.0399 131.12 22.896ZM128.738 30.7062C130.615 28.0532 131.143 26.0047 135.311 18.9285C131.676 25.4402 130.596 27.8082 128.738 30.7062ZM130.738 30.6639C131.689 28.7459 132.699 26.6895 135.667 21.83C134.243 24.2815 132.609 27.3135 130.738 30.6639ZM130.546 34.5478C131.729 31.6864 133.461 29.1811 135.475 25.7139C133.849 28.4963 132.047 31.3371 130.546 34.5478ZM130.903 37.4493C133.615 32.3642 136.313 28.7872 138.023 24.6902C136.362 27.3902 133.617 32.1169 130.903 37.4493ZM131.069 44.2359C132.551 41.2405 134.809 37.2902 137.093 33.4394C135.859 35.9894 133.366 39.8012 131.069 44.2359ZM138.736 30.4955C139.428 29.3551 140.342 28.2937 142.023 24.6067C140.97 26.4513 139.728 28.5604 138.736 30.4955ZM131.425 47.1386C133.019 44.1008 134.226 40.8569 136.902 37.3234C135.213 40.7607 133.188 43.6657 131.425 47.1386ZM140.736 30.4532C141.459 29.1914 142.43 27.6467 144.022 24.5643C142.403 27.3364 141.557 28.873 140.736 30.4532ZM131.781 50.0412C133.42 46.6141 135.932 42.9741 137.259 40.226C134.526 45.5367 132.935 47.6504 131.781 50.0412ZM142.735 30.4108C143.979 28.5353 145.076 26.4273 146.022 24.5219C144.364 27.6891 143.529 29.1971 142.735 30.4108ZM132.686 51.9614C134.3 49.3771 134.901 47.3767 137.067 44.11C135.328 47.6687 133.846 49.558 132.686 51.9614ZM144.735 30.3696C145.26 29.6814 145.59 28.7654 145.831 28.4059C145.519 28.9623 145.109 29.6551 144.735 30.3696ZM133.042 54.8641C133.687 52.9839 134.722 51.2206 136.876 47.9939C135.627 50.4202 134.379 52.5065 133.042 54.8641ZM135.042 54.8217C135.48 53.8919 135.911 52.8614 137.233 50.8965C136.157 52.7378 135.576 53.8484 135.042 54.8217ZM192.778 8.01975C193.608 6.13388 194.571 4.5984 196.065 2.13086C195.029 3.90566 193.94 6.13847 192.778 8.01975ZM193.135 10.9213C194.075 8.78463 195.424 7.398 196.421 5.03351C194.71 8.27967 193.926 9.65829 193.135 10.9213ZM192.944 14.8052C194.762 11.3758 196.075 8.63005 197.325 6.95373C196.43 8.90028 194.704 11.7045 192.944 14.8052ZM193.3 17.7078C194.788 15.7201 196.079 13.4873 197.681 9.85638C194.975 14.3701 194.028 16.0407 193.3 17.7078ZM193.109 21.5918C194.628 19.288 196.285 16.6086 197.491 13.7403C196.187 16.3029 194.768 18.9262 193.109 21.5918ZM193.466 24.4944C194.102 22.9258 195.359 20.9151 197.847 16.6418C195.481 20.4857 194.5 22.3784 193.466 24.4944ZM193.275 28.3784C195.047 25.3979 196.11 22.067 198.204 19.5445C197.018 21.8712 194.911 25.2467 193.275 28.3784ZM193.631 31.2799C195.494 27.6994 196.967 24.8219 198.56 22.4471C196.817 25.5731 195.357 28.3372 193.631 31.2799ZM193.44 35.1638C196.052 31.5226 197.502 27.4177 198.917 25.3498C196.805 29.4604 194.823 32.3631 193.44 35.1638ZM193.797 38.0665C195.587 34.9921 197.065 32.4478 198.726 29.2337C196.201 34.0726 194.737 35.978 193.797 38.0665ZM193.605 41.9504C194.733 38.8737 196.241 36.8264 199.082 32.1352C197.61 34.8135 195.611 38.7111 193.605 41.9504ZM193.962 44.8531C196.22 38.8108 200.437 33.2138 202.725 29.149C199.004 35.0654 196.674 40.4081 193.962 44.8531ZM204.533 32.9906C205.698 30.3868 207.239 28.0475 209.463 24.1578C207.869 27.3272 206.245 30.3387 204.533 32.9906ZM194.484 54.5412C196.06 51.342 198.285 48.8183 199.413 45.7084C197.249 50.1088 195.997 52.0427 194.484 54.5412ZM201.603 41.7821C202.3 40.36 203.21 38.6756 203.795 37.8558C203.059 39.0077 202.24 40.4665 201.603 41.7821ZM208.176 30.0043C209.063 28.4127 210.614 25.9372 212.557 22.1529C211.65 23.875 209.962 27.025 208.176 30.0043ZM196.483 54.4988C197.892 52.7194 198.662 50.924 199.77 48.6099C198.008 51.8504 197.416 53.1603 196.483 54.4988ZM203.056 42.721C203.937 40.6382 205.253 39.1382 205.794 37.8146C204.617 39.689 203.78 41.1695 203.056 42.721ZM211.819 27.0181C212.605 25.3601 213.327 24.2735 215.653 20.1479C214.385 22.7437 212.895 24.6914 211.819 27.0181ZM205.055 42.6798C205.571 41.7203 206.484 40.5523 207.246 38.7535C206.053 40.9897 205.505 41.9172 205.055 42.6798ZM216.009 23.0494C217.025 21.1258 217.784 19.4792 219.295 17.1605C218.151 19.4437 217.105 21.088 216.009 23.0494ZM206.508 43.6187C207.04 42.6271 207.605 41.3058 209.246 38.7111C207.865 41.1901 207.14 42.3707 206.508 43.6187ZM219.653 20.0632C220.227 19.0349 220.917 18.1098 221.843 16.138C220.731 17.9609 220.126 18.9491 219.653 20.0632ZM208.507 43.5764C209.037 42.4691 209.851 40.9909 210.698 39.6512C209.508 41.5955 209.106 42.7291 208.507 43.5764ZM209.958 44.5164C210.455 43.7149 210.841 43.0073 212.15 40.5901C211.464 41.8336 210.744 43.0829 209.958 44.5164ZM211.959 44.4741C212.815 43.2145 213.503 41.6871 214.149 40.5478C213.566 41.6172 212.773 43.005 211.959 44.4741ZM213.41 45.413C214.06 44.2897 214.408 43.518 215.601 41.4878C215.041 42.6901 214.287 44.0035 213.41 45.413ZM215.411 45.3718C216.148 44.2496 216.834 43.2237 217.054 42.4268C216.159 43.9245 215.887 44.7077 215.411 45.3718ZM216.862 46.3107C217.518 45.042 218.634 43.5329 219.053 42.3844C218.363 43.8145 217.54 45.1313 216.862 46.3107ZM218.861 46.2683C219.547 45.3695 220.004 44.2359 221.053 42.3432C219.918 44.4054 219.406 45.2825 218.861 46.2683ZM220.314 47.2084C221.233 46.0645 221.697 44.4924 222.505 43.2821C221.594 45.1164 220.901 46.0794 220.314 47.2084ZM222.313 47.166C223.234 45.6409 223.818 44.2153 224.504 43.2397C223.598 44.7741 223.041 46.0107 222.313 47.166ZM224.313 47.1237C224.895 46.0279 225.504 44.734 225.956 44.1798C225.366 45.239 224.817 46.1447 224.313 47.1237ZM225.765 48.0637C226.554 46.629 227.347 45.3947 227.956 44.1374C226.792 46.3153 226.174 47.0905 225.765 48.0637ZM227.764 48.0214C228.251 47.205 228.591 46.4618 229.407 45.0764C228.992 45.7874 228.402 46.8764 227.764 48.0214ZM234.693 39.1462C236.949 34.7264 239.507 30.5894 242.362 25.4059C238.747 32.386 236.422 36.0329 234.693 39.1462ZM233.407 44.9928C237.484 38.0779 240.272 31.162 244.908 24.3822C240.603 31.9303 237.073 38.702 233.407 44.9928ZM234.312 46.9141C236.561 41.2119 240.729 35.7146 242.526 32.1913C238.347 39.8676 235.821 43.4905 234.312 46.9141ZM244.718 28.2662C245.785 25.5376 247.405 23.8246 248.552 21.3948C246.666 24.5391 245.9 26.4513 244.718 28.2662ZM247.265 27.2425C248.193 25.2822 249.89 22.8914 250.551 21.3536C249.098 23.946 248.344 25.7334 247.265 27.2425ZM236.667 49.7744C238.404 47.2164 239.28 44.8691 240.502 42.9031C239.616 44.1248 238.332 47.1809 236.667 49.7744ZM243.24 37.9966C244.006 36.5092 245.3 34.2364 246.526 32.1077C245.116 34.6829 244.221 36.2814 243.24 37.9966ZM249.812 26.2189C250.429 25.4219 251.111 24.1086 252.551 21.3113C251.677 22.5124 250.698 24.3353 249.812 26.2189ZM238.12 50.7133C239.201 48.3271 240.434 46.4676 241.406 44.8245C240.613 45.9981 239.587 48.3546 238.12 50.7133ZM245.239 37.9543C245.953 36.4463 246.566 35.4352 248.526 32.0654C247.27 34.2203 246.261 36.0787 245.239 37.9543ZM252.36 25.1952C253.029 24.1235 253.435 23.2498 254.55 21.2689C253.856 22.5376 253.1 23.7559 252.36 25.1952ZM239.024 52.6347C239.724 51.2527 240.551 50.1053 241.762 47.7271C240.988 48.9958 240.125 50.9286 239.024 52.6347ZM247.239 37.9119C247.85 36.0753 248.67 34.6921 250.525 32.023C248.978 34.3497 248.036 36.2722 247.239 37.9119ZM254.359 25.1528C255.197 23.6769 255.913 21.8563 256.551 21.2265C255.439 23.3185 254.803 24.2838 254.359 25.1528ZM241.023 52.5923C241.518 51.3191 242.194 50.0092 243.762 47.6847C242.796 49.4492 241.818 50.9641 241.023 52.5923ZM249.239 37.8695C250.557 35.7673 251.972 32.9711 252.525 31.9807C251.035 34.9383 250.085 36.4806 249.239 37.8695ZM255.812 26.0918C256.371 24.9983 257.155 23.8876 258.002 22.1666C257.225 23.7868 256.46 24.9731 255.812 26.0918ZM242.475 53.5313C243.571 51.6809 244.527 49.937 245.214 48.6237C244.228 50.5256 243.222 51.8813 242.475 53.5313ZM251.239 37.8283C252.445 36.0478 253.778 33.5791 254.525 31.9394C253.478 34.2157 252.311 36.1165 251.239 37.8283ZM257.811 26.0505C258.272 24.9845 258.946 23.7983 259.454 23.1055C258.892 24.1635 258.304 25.1036 257.811 26.0505ZM244.475 53.49C245.07 52.4664 245.747 51.2435 247.213 48.5824C245.76 51.0305 245.3 52.3599 244.475 53.49ZM253.238 37.786C254.136 35.7386 255.362 34.4276 256.524 31.8971C255.216 34.4883 254.304 36.2654 253.238 37.786ZM259.263 26.9895C259.605 26.0173 260.247 25.2914 260.906 24.0456C260.168 25.5467 259.723 26.2337 259.263 26.9895ZM245.927 54.429C247.054 52.7744 247.687 51.0271 248.665 49.5214C247.497 51.7004 246.615 53.1591 245.927 54.429ZM255.237 37.7436C256.343 35.3447 257.785 32.9917 258.524 31.8547C256.518 35.236 255.804 36.5539 255.237 37.7436ZM260.167 28.9108C260.593 27.6788 261.221 26.9494 262.358 24.9845C261.201 26.8246 260.825 27.8711 260.167 28.9108ZM247.926 54.3866C248.94 52.6519 249.389 51.5229 250.665 49.479C249.161 52.2133 248.582 53.4591 247.926 54.3866ZM257.238 37.7012C258.031 35.1535 260.053 32.7627 263.809 25.9246C260.053 32.4776 258.765 35.1283 257.238 37.7012ZM249.926 54.3442C251.193 52.1927 252.115 50.0985 253.213 48.4553C252.198 50.3091 250.892 52.2557 249.926 54.3442ZM259.237 37.66C260.889 35.4993 262.555 32.0264 264.714 27.8448C261.544 33.5081 260.265 35.5497 259.237 37.66ZM251.926 54.303C252.95 52.7275 254.009 50.8553 255.212 48.4141C253.445 51.5286 252.636 52.9679 251.926 54.303ZM261.237 37.6176C263.025 35.0207 264.546 32.3608 266.166 28.7849C263.525 33.4257 262.568 35.1501 261.237 37.6176ZM253.925 54.2606C255.388 51.6351 256.728 49.4424 258.307 46.4092C255.942 50.8759 254.793 52.4847 253.925 54.2606ZM256.473 53.237C258.328 50.3698 259.42 47.5267 260.854 45.3855C258.488 50.1397 257.561 51.5183 256.473 53.237ZM259.02 52.2133C260.009 50.2862 261.332 48.2183 263.402 44.3619C262.494 45.9363 260.721 49.3267 259.02 52.2133ZM261.568 51.1897C262.529 48.9832 264.266 46.5088 265.949 43.3382C264.259 46.558 263.046 48.8687 261.568 51.1897ZM299.587 39.7211C300.563 38.1547 301.93 36.1497 303.42 32.8497C301.958 35.8738 300.609 37.5249 299.587 39.7211ZM299.943 42.6226C301.786 39.3947 303.876 36.4016 306.516 30.8448C303.825 35.1478 302.018 39.2367 299.943 42.6226ZM300.299 45.5252C300.983 44.4008 301.389 43.6119 303.038 40.6176C301.587 43.3382 300.868 44.5336 300.299 45.5252ZM306.872 33.7474C308.271 31.7013 309.069 29.5039 310.158 27.8585C308.785 30.1074 307.873 31.8226 306.872 33.7474ZM300.656 48.4279C301.069 47.4935 301.713 46.313 303.395 43.5203C302.393 45.3993 301.497 46.7744 300.656 48.4279ZM309.419 32.7238C310.432 31.5787 311.612 29.2623 313.801 24.8723C311.773 28.8055 310.472 30.7142 309.419 32.7238ZM302.108 49.3668C302.608 48.1267 303.314 47.387 304.299 45.4416C303.277 47.4145 302.705 48.3294 302.108 49.3668ZM312.514 30.7188C313.607 28.7185 314.306 27.2082 315.8 24.8299C313.948 28.1482 313.269 29.3986 312.514 30.7188ZM303.012 51.2881C303.796 50.1088 304.617 48.9614 305.751 46.3805C304.375 49.0244 303.606 50.0916 303.012 51.2881ZM315.61 28.7139C316.559 27.0719 317.341 26.1204 318.896 22.825C317.819 24.6525 316.809 26.6872 315.61 28.7139ZM304.464 52.2271C305.157 51.1862 305.557 50.1855 307.203 47.3195C306.077 49.2282 305.242 50.8049 304.464 52.2271ZM317.062 29.6539C317.995 28.3978 318.558 26.5509 320.895 22.7826C319.054 25.8971 318.227 27.5276 317.062 29.6539ZM305.916 53.1671C306.663 51.0672 307.938 49.7676 308.654 48.2595C307.688 50.0916 306.732 51.5057 305.916 53.1671ZM319.608 28.6303C320.246 27.0101 320.941 25.8135 322.895 22.7414C321.197 25.6807 320.292 27.0696 319.608 28.6303ZM307.916 53.1248C308.578 52.2752 309.009 51.5572 310.107 49.1985C308.953 51.113 308.518 52.1046 307.916 53.1248ZM321.609 28.5879C322.358 26.9494 323.909 25.0338 324.895 22.699C324.013 24.1761 322.732 26.4868 321.609 28.5879ZM309.368 54.0637C310.187 52.59 311.066 51.2172 312.106 49.1572C311.29 50.963 310.369 52.5775 309.368 54.0637ZM324.156 27.5643C324.814 25.8066 326.134 24.1876 326.894 22.6567C325.308 25.3967 324.669 26.4719 324.156 27.5643ZM311.367 54.0225C312.031 52.7629 312.888 51.5034 313.559 50.0962C313.155 50.8977 312.157 52.4836 311.367 54.0225ZM325.608 28.5032C326.575 26.8498 327.621 24.8402 328.346 23.5967C327.717 24.996 326.609 26.6528 325.608 28.5032ZM313.367 53.9801C314.044 52.2088 315.075 50.979 315.558 50.0538C314.888 51.4027 313.997 52.6381 313.367 53.9801ZM326.512 30.4246C327.44 28.4734 329.04 26.0231 329.798 24.5357C328.618 26.8154 327.62 28.7826 326.512 30.4246ZM315.367 53.9378C316.106 52.5145 316.524 51.6133 317.557 50.0114C316.453 51.8893 315.913 53.0034 315.367 53.9378ZM317.367 53.8954C318.022 52.4297 318.784 51.461 320.105 48.9889C319.392 50.3801 318.355 52.1263 317.367 53.8954ZM319.366 53.8542C320.662 51.8996 321.074 50.0916 322.652 47.9653C320.593 51.5252 320.122 52.5706 319.366 53.8542ZM342.917 11.6506C344.272 9.67203 345.339 7.89609 345.656 6.74304C344.949 8.15944 343.985 9.96516 342.917 11.6506ZM321.913 52.8305C323.089 50.6721 324.815 48.516 325.2 46.9416C324.281 48.626 323.087 50.5645 321.913 52.8305ZM342.178 16.5159C343.761 14.2212 344.772 11.543 346.561 8.66326C345.309 10.8159 343.587 13.8193 342.178 16.5159ZM323.913 52.7881C324.979 51.1599 325.651 49.6095 327.747 45.918C326.328 48.2996 325.173 50.3298 323.913 52.7881ZM341.987 20.3998C343.85 15.7476 346.821 12.1636 348.012 9.60333C346.172 12.5369 344.251 16.588 341.987 20.3998ZM326.46 51.7645C327.767 50.2611 328.63 48.192 330.295 44.8943C328.98 47.2038 327.855 49.6256 326.46 51.7645ZM342.344 23.3013C343.193 21.4052 344.395 18.514 347.821 13.4873C345.113 18.3685 343.506 20.788 342.344 23.3013ZM329.008 50.7408C330.806 48.2332 332.324 45.3787 332.842 43.8706C331.648 46.2134 330.43 48.5137 329.008 50.7408ZM342.153 27.1853C344.086 23.9975 345.662 21.7842 347.629 17.3712C345.917 20.6666 344.305 23.5189 342.153 27.1853ZM331.555 49.7172C332.231 48.366 333.226 46.7034 334.842 43.8283C332.995 47.0584 332.43 48.4038 331.555 49.7172ZM342.509 30.0879C343.942 26.2944 345.993 23.5681 347.987 20.2727C344.892 25.4838 343.868 27.6376 342.509 30.0879ZM334.103 48.6935C334.542 47.8347 335.496 46.6725 336.841 43.7871C335.628 45.7256 334.852 47.1008 334.103 48.6935ZM342.318 33.9719C344.293 30.2391 346.663 26.5406 347.795 24.1567C346.42 26.8784 344.247 30.3169 342.318 33.9719ZM342.675 36.8745C343.53 34.202 344.934 31.873 348.151 27.0593C345.984 31.3154 344.148 33.6604 342.675 36.8745ZM342.483 40.7585C343.769 38.8566 345.122 36.1108 347.412 31.9245C344.756 36.8745 343.465 38.9436 342.483 40.7585ZM342.84 43.66C345.48 39.981 347.343 36.4863 350.508 29.9196C347.804 34.1413 345.316 38.7524 342.84 43.66ZM342.648 47.5439C345.675 42.5413 347.267 37.3772 353.602 27.9146C347.811 37.0531 345.11 41.9333 342.648 47.5439ZM343.006 50.4466C345.289 46.4744 346.963 41.8978 350.125 37.6875C346.958 43.708 345.158 46.6851 343.006 50.4466ZM351.769 34.7425C353.153 32.2223 355.143 29.2108 355.603 27.8723C353.356 31.7562 352.695 33.1074 351.769 34.7425ZM342.814 54.3305C344.012 51.7061 345.909 48.3489 349.387 42.5527C346.938 47.2645 344.793 50.3103 342.814 54.3305ZM354.316 33.7188C355.409 32.3837 356.218 30.6444 357.602 27.8311C355.771 30.9948 355.227 32.2898 354.316 33.7188ZM344.813 54.2881C345.911 52.2992 347.235 49.3427 348.648 47.4179C347.117 50.4614 345.922 52.5397 344.813 54.2881ZM356.863 32.6963C358.345 30.5299 359.069 28.2604 360.15 26.8074C359.206 28.7162 357.844 30.5413 356.863 32.6963ZM358.863 32.6539C359.685 31.3944 360.455 29.7227 361.601 27.7463C360.873 29.0837 359.883 30.9387 358.863 32.6539ZM360.315 33.5929C361.655 31.8547 362.684 29.7169 363.602 27.704C362.431 30.0215 361.385 31.8158 360.315 33.5929ZM362.315 33.5505C362.985 32.3139 363.631 31.5856 365.053 28.644C363.793 30.7406 363.151 32.0677 362.315 33.5505ZM364.314 33.5093C364.846 32.6734 365.586 31.5089 366.505 29.583C365.47 31.2616 364.91 32.4581 364.314 33.5093ZM365.766 34.4482C366.474 33.0123 367.284 32.0539 367.957 30.523C367.412 31.7665 366.581 33.0169 365.766 34.4482ZM366.671 36.3695C367.379 35.402 368.046 34.0909 368.861 32.4432C367.733 34.6795 367.139 35.5531 366.671 36.3695ZM367.027 39.2711C367.882 38.1821 368.427 36.9237 369.765 34.3646C368.858 35.6722 367.884 37.4333 367.027 39.2711ZM367.931 41.1924C368.9 39.3031 370.022 37.5489 370.67 36.2848C370.027 37.5066 368.977 39.2127 367.931 41.1924ZM367.74 45.0764C369.069 43.1561 369.863 41.3241 372.122 37.2249C369.905 41.5016 368.935 43.289 367.74 45.0764ZM368.097 47.979C369.374 46.1321 370.941 43.2878 372.478 40.1264C370.652 42.9729 369.609 45.539 368.097 47.979ZM367.358 52.8442C369.278 49.4286 371.452 45.8355 372.835 43.029C370.736 46.5454 369.126 49.6851 367.358 52.8442ZM368.809 53.7832C369.753 51.6076 370.78 49.6679 372.644 46.913C370.801 50.0859 369.718 51.8183 368.809 53.7832ZM370.262 54.7232C371.185 53.3137 372.056 51.7519 373 49.8156C372.316 50.9698 371.278 52.9805 370.262 54.7232Z" stroke="black" stroke-width="1.224" stroke-linecap="round"/>
<path d="M62.8649 48.8675C66.5602 49.9519 71.9974 47.6045 80.477 43.1424M62.8649 48.8675C65.6904 48.9877 72.6578 47.2553 80.477 43.1424M62.8649 48.8675C59.345 48.3213 55.4827 45.8893 54.3577 42.3557M62.8649 48.8675C57.2235 49.5442 55.303 46.8671 54.3577 42.3557M80.477 43.1424C80.2878 42.2172 82.3508 44.474 81.6734 43.7149M80.477 43.1424C81.5872 44.292 80.8577 43.5889 81.6734 43.7149M81.6734 43.7149C81.0449 44.3217 82.8261 44.7809 82.1392 44.932M81.6734 43.7149C82.1306 45.2515 83.3557 43.4195 82.1392 44.932M82.1392 44.932C80.6036 48.3603 76.7105 49.7297 71.9698 52.5179M82.1392 44.932C80.7163 47.7454 76.1596 49.4812 71.9698 52.5179M71.9698 52.5179C65.9828 54.9511 62.1918 54.1804 57.9467 53.4476M71.9698 52.5179C68.0129 55.1617 61.9578 54.9911 57.9467 53.4476M57.9467 53.4476C52.1117 52.4778 50.0306 48.6591 48.9736 44.5027M57.9467 53.4476C53.8664 52.9118 49.6606 49.8373 48.9736 44.5027M48.9736 44.5027C49.114 43.0668 48.6408 43.0634 48.8407 40.8523M48.9736 44.5027C48.2643 42.3855 47.839 42.0637 48.8407 40.8523M48.8407 40.8523C48.1931 39.9214 48.7694 37.1779 49.9041 34.8409M48.8407 40.8523C48.7216 38.679 50.3805 36.6145 49.9041 34.8409M49.9041 34.8409C50.3305 32.3814 51.0994 28.8467 53.693 27.6845M49.9041 34.8409C50.9803 32.9825 50.8186 29.4707 53.693 27.6845M53.693 27.6845C55.152 25.0177 56.6525 23.8692 59.9405 22.3887M53.693 27.6845C54.9266 26.473 57.6723 24.2448 59.9405 22.3887M59.9405 22.3887C62.9542 21.0948 64.6408 21.3169 67.5832 20.457M59.9405 22.3887C61.2113 21.3937 64.829 21.278 67.5832 20.457M67.5832 20.457C69.7196 20.7456 73.617 20.6356 76.2234 23.3196M67.5832 20.457C70.1375 21.4704 73.5723 20.6425 76.2234 23.3196M76.2234 23.3196C76.719 25.06 79.3126 25.2822 79.8124 26.3963M76.2234 23.3196C78.2375 24.6799 79.152 25.778 79.8124 26.3963M79.8124 26.3963C79.9539 27.2333 80.2186 27.815 81.1417 29.9035M79.8124 26.3963C80.108 26.3551 80.0921 28.9509 81.1417 29.9035M81.1417 29.9035C80.4398 30.105 80.3771 29.8531 81.0757 30.9054M81.1417 29.9035C80.4324 30.847 81.0396 31.0646 81.0757 30.9054M81.0757 30.9054C81.3246 34.4607 80.1495 35.371 77.1539 36.4153M81.0757 30.9054C80.023 33.3398 80.745 34.9313 77.1539 36.4153M77.1539 36.4153C76.3127 37.8638 75.0707 35.805 73.2991 36.9168M77.1539 36.4153C76.6137 37.1435 75.0803 37.0405 73.2991 36.9168M73.2991 36.9168C69.8898 36.2768 67.1249 36.3798 63.7284 36.4874M73.2991 36.9168C70.5416 36.7508 67.6662 36.5012 63.7284 36.4874M63.7284 36.4874C59.6353 37.1321 58.5071 36.1176 56.4175 38.7054M63.7284 36.4874C60.9848 36.2035 58.2933 36.2195 56.4175 38.7054M56.4175 38.7054C54.5299 39.6454 55.4912 39.8126 54.3577 42.3557M56.4175 38.7054C55.923 39.737 54.9021 40.6359 54.3577 42.3557M74.6953 26.7547C72.8003 25.9074 73.6298 26.5635 71.638 25.1081M74.6953 26.7547C73.331 25.6703 72.677 25.6612 71.638 25.1081M74.6953 26.7547C76.0214 28.5031 77.2294 28.0222 76.2234 29.1879M74.6953 26.7547C74.5837 27.3764 76.6467 29.4856 76.2234 29.1879M71.638 25.1081C69.5952 24.3558 69.0539 24.9925 68.9795 24.6078M71.638 25.1081C69.5676 25.8158 70.8639 24.5391 68.9795 24.6078M68.9795 24.6078C67.9905 24.3604 66.8601 25.9555 65.5234 25.3944M68.9795 24.6078C68.7179 23.5566 67.0739 24.0684 65.5234 25.3944M65.5234 25.3944C63.0765 26.323 61.726 25.4883 61.2698 27.0409M65.5234 25.3944C64.661 27.0971 62.1556 25.9326 61.2698 27.0409M61.2698 27.0409C57.7797 29.6081 55.8634 29.323 56.6833 31.8352M61.2698 27.0409C57.2671 29.0012 57.215 30.2253 56.6833 31.8352M56.6833 31.8352C59.2727 31.6669 62.8947 31.6634 64.6589 32.3367M56.6833 31.8352C59.1579 32.9149 62.6076 33.5527 64.6589 32.3367M64.6589 32.3367C69.1007 32.3985 73.1438 31.8718 74.6283 30.9764M64.6589 32.3367C69.6101 32.0562 72.9035 30.618 74.6283 30.9764M74.6283 30.9764C75.5801 31.2295 76.1905 28.8718 76.2234 29.1879M74.6283 30.9764C74.6602 30.7211 76.5276 30.9192 76.2234 29.1879M130.79 47.0068C130.46 42.3958 131.346 38.2909 130.923 35.5565M130.79 47.0068C130.669 42.9981 130.746 39.4084 130.923 35.5565M130.79 47.0068C129.896 52.6862 132.249 55.227 134.113 54.9511M130.79 47.0068C129.917 51.7083 132.901 55.677 134.113 54.9511M130.923 35.5565C131.383 34.2752 131.461 31.2569 130.457 30.9054M130.923 35.5565C130.409 32.4879 131.047 32.5176 130.457 30.9054M130.457 30.9054C127.161 30.831 123.297 31.0497 120.156 30.9054M130.457 30.9054C127.609 30.7428 124.349 30.8894 120.156 30.9054M120.156 30.9054C120.01 29.0848 120.055 27.302 120.023 25.9669M120.156 30.9054C120.207 29.4421 120.116 27.7211 120.023 25.9669M120.023 25.9669C122.946 25.5318 125.37 25.6875 129.992 25.9669M120.023 25.9669C122.372 25.9749 124.923 25.7952 129.992 25.9669M129.992 25.9669C130.076 22.4562 130.713 18.0273 129.992 7.5033M129.992 25.9669C129.903 19.1254 130.447 12.3456 129.992 7.5033M129.992 7.5033C130.006 6.972 130.016 7.06246 130.79 6.21514M129.992 7.5033C131.182 5.96781 130.519 6.55865 130.79 6.21514M130.79 6.21514C132.096 5.58194 132.893 5.69758 132.318 5.21324M130.79 6.21514C132.283 4.89034 131.244 5.50293 132.318 5.21324M132.318 5.21324C132.686 5.39873 132.825 5.57507 133.449 5.35636M132.318 5.21324C132.394 4.65446 133.732 6.12468 133.449 5.35636M133.449 5.35636C133.983 5.57392 133.624 6.53002 134.445 6.35827M133.449 5.35636C134.629 6.09491 133.353 5.80865 134.445 6.35827M134.445 6.35827C135.909 8.84184 135.145 14.7868 135.508 20.6001M134.445 6.35827C135.088 10.5079 136.07 13.8227 135.508 20.6001M135.508 20.6001C134.982 21.9272 134.712 22.8192 135.708 25.2513M135.508 20.6001C136.193 23.4043 135.424 24.7772 135.708 25.2513M135.708 25.2513C136.23 26.1627 139.53 25.8742 139.962 24.965M135.708 25.2513C136.539 24.8184 137.613 24.2654 139.962 24.965M139.962 24.965C139.156 25.0623 140.461 25.6326 143.418 24.965M139.962 24.965C140.575 25.6154 141.11 24.262 143.418 24.965M143.418 24.965C144.771 24.9421 144.995 25.6268 145.744 24.8219M143.418 24.965C144.003 23.7891 144.326 25.7745 145.744 24.8219M145.744 24.8219C145.647 26.2646 145.664 27.5276 145.545 29.9745M145.744 24.8219C145.676 26.8944 145.648 28.9108 145.545 29.9745M145.545 29.9745C142.681 29.9883 139.948 29.4134 135.841 29.6883M145.545 29.9745C142.47 29.9184 139.547 29.9447 135.841 29.6883M135.841 29.6883C136.409 36.9111 137.081 44.3939 136.173 54.3785M135.841 29.6883C135.57 35.5783 136.377 42.2802 136.173 54.3785M136.173 54.3785C135.676 54.161 135.435 55.1171 134.113 54.9511M136.173 54.3785C134.969 53.7087 135.732 54.1621 134.113 54.9511M198.582 40.8523C198.653 43.5294 198.716 45.4141 198.914 47.079M198.582 40.8523C198.704 42.1565 198.664 43.7217 198.914 47.079M198.582 40.8523C201.704 42.7931 208.507 43.1939 216.793 45.2893M198.582 40.8523C201.924 41.245 208.944 44.2599 216.793 45.2893M198.914 47.079C198.77 50.8587 197.181 53.5209 196.388 54.0201M198.914 47.079C199.692 52.1148 198.055 54.0637 196.388 54.0201M196.388 54.0201C196.05 53.7785 196.476 54.2526 195.126 54.2354M196.388 54.0201C196.222 54.9751 196.348 53.1614 195.126 54.2354M195.126 54.2354C194.641 54.8606 194.393 53.7133 193.398 53.877M195.126 54.2354C195.031 53.7282 192.863 55.3804 193.398 53.877M193.398 53.877C194.168 47.403 192.527 41.8737 193.464 27.1119M193.398 53.877C192.903 47.4671 193.492 39.7599 193.464 27.1119M193.464 27.1119C193.561 23.7982 193.708 19.1128 192.799 15.5185M193.464 27.1119C193.131 23.6585 192.644 19.8765 192.799 15.5185M192.799 15.5185C192.51 10.6579 192.675 8.81207 192.202 3.85409M192.799 15.5185C191.785 11.2349 191.196 8.551 192.202 3.85409M192.202 3.85409C193.076 3.01363 192.912 2.1354 194.461 1.56403M192.202 3.85409C193.192 1.83883 193.285 2.86936 194.461 1.56403M194.461 1.56403C194.588 1.56403 194.695 1.57204 194.993 1.56403M194.461 1.56403C194.581 1.57319 194.702 1.56288 194.993 1.56403M194.993 1.56403C194.829 2.61402 196.289 1.92356 195.591 1.63502M194.993 1.56403C194.204 1.44952 195.916 0.311362 195.591 1.63502M195.591 1.63502C195.793 5.30369 196.238 7.14261 196.92 12.3697M195.591 1.63502C196.384 5.10789 197.808 9.42237 196.92 12.3697M196.92 12.3697C197.02 21.744 197.596 28.5375 198.249 31.1195M196.92 12.3697C197.811 22.802 197.395 26.97 198.249 31.1195M198.249 31.1195C199.804 30.6604 201.501 28.8718 203.301 27.4703M198.249 31.1195C199.143 30.089 199.505 29.0573 203.301 27.4703M203.301 27.4703C204.909 24.9272 208.33 24.4635 209.615 22.6749M203.301 27.4703C206.233 25.3967 208.284 25.0223 209.615 22.6749M209.615 22.6749C211.728 22.091 212.405 21.1074 214.134 19.2399M209.615 22.6749C212.327 21.5906 211.659 20.0024 214.134 19.2399M214.134 19.2399C217.354 16.1162 218.656 14.9529 220.382 15.7338M214.134 19.2399C216.428 17.1067 219.771 16.8742 220.382 15.7338M220.382 15.7338C221.032 15.4761 221.643 15.925 222.043 17.0929M220.382 15.7338C220.417 16.9681 221.427 15.7418 222.043 17.0929M222.043 17.0929C220.645 20.1192 216.247 24.4417 211.343 27.1119M222.043 17.0929C219.14 19.1391 216.052 22.4001 211.343 27.1119M211.343 27.1119C209.84 28.5455 206.642 29.3264 205.361 31.5489M211.343 27.1119C208.73 29.5669 207.951 30.2505 205.361 31.5489M205.361 31.5489C202.805 31.9405 201.986 34.8878 199.977 36.0581M205.361 31.5489C202.336 33.2619 200.742 33.7909 199.977 36.0581M199.977 36.0581C203.952 37.7985 206.373 38.1237 208.419 38.7775M199.977 36.0581C203.444 36.6111 206.063 38.4489 208.419 38.7775M208.419 38.7775C211.819 39.0901 212.98 41.1947 216.128 41.2817M208.419 38.7775C210.465 40.613 214.425 41.3836 216.128 41.2817M216.128 41.2817C222.165 42.8721 226.044 43.2374 230.883 44.3595M216.128 41.2817C222.123 42.1519 226.287 43.8649 230.883 44.3595M230.883 44.3595C230.866 46.6198 230.743 47.5713 230.55 46.8637M230.883 44.3595C231.37 44.8473 230.2 46.621 230.55 46.8637M230.55 46.8637C229.257 47.6549 228.401 47.2484 228.092 48.0087M230.55 46.8637C230.15 46.7297 229.864 47.1087 228.092 48.0087M228.092 48.0087C227.98 47.995 227.819 47.9984 227.56 48.0087M228.092 48.0087C227.901 48.0156 227.681 48.0145 227.56 48.0087M227.56 48.0087C224.366 46.9919 220.362 45.6717 216.793 45.2893M227.56 48.0087C224.048 46.179 221.487 46.2339 216.793 45.2893M247.366 48.8675C250.848 47.9778 256.175 47.7019 264.978 43.1424M247.366 48.8675C251.765 48.0133 256.765 48.082 264.978 43.1424M247.366 48.8675C242.989 49.0541 240.205 47.0137 238.859 42.3557M247.366 48.8675C243.213 49.5545 239.678 45.5687 238.859 42.3557M264.978 43.1424C266.036 43.4756 266.224 42.3477 266.174 43.7149M264.978 43.1424C265.83 43.1664 265.313 42.8435 266.174 43.7149M266.174 43.7149C265.7 43.8557 267.006 45.587 266.64 44.932M266.174 43.7149C265.409 44.0813 267.575 45.3832 266.64 44.932M266.64 44.932C264.866 48.7576 261.532 49.8167 256.471 52.5179M266.64 44.932C265.043 48.5183 261.12 49.6393 256.471 52.5179M256.471 52.5179C250.592 55.0839 247.579 55.3438 242.448 53.4476M256.471 52.5179C250.492 53.1327 247.62 54.1472 242.448 53.4476M242.448 53.4476C237.433 51.6808 235.421 48.4393 233.475 44.5027M242.448 53.4476C238.573 52.3266 234.131 49.298 233.475 44.5027M233.475 44.5027C232.572 42.7496 233.227 42.6214 233.342 40.8523M233.475 44.5027C234.533 44.5267 233.776 42.9363 233.342 40.8523M233.342 40.8523C234.246 40.4172 232.639 37.3405 234.405 34.8409M233.342 40.8523C232.732 40.4767 233.168 37.4195 234.405 34.8409M234.405 34.8409C235.183 32.0081 237.118 30.8539 238.194 27.6845M234.405 34.8409C234.843 33.3352 235.938 29.6058 238.194 27.6845M238.194 27.6845C240.464 25.5432 243.046 24.3387 244.442 22.3887M238.194 27.6845C239.278 24.578 241.521 24.9673 244.442 22.3887M244.442 22.3887C246.198 21.9192 249.594 21.0685 252.084 20.457M244.442 22.3887C247.33 20.7742 248.909 20.5028 252.084 20.457M252.084 20.457C255.527 19.4357 257.372 21.4956 260.724 23.3196M252.084 20.457C254.644 21.428 257.476 21.5574 260.724 23.3196M260.724 23.3196C261.571 24.2574 264.09 26.2852 264.313 26.3963M260.724 23.3196C263.286 25.0658 264.594 25.1608 264.313 26.3963M264.313 26.3963C265.032 27.2436 265.542 29.394 265.643 29.9035M264.313 26.3963C266.158 27.8413 266.278 28.9211 265.643 29.9035M265.643 29.9035C265.23 29.6173 266.422 31.1894 265.577 30.9054M265.643 29.9035C265.564 31.3165 266.632 31.6989 265.577 30.9054M265.577 30.9054C265.987 33.247 263.285 35.3172 261.655 36.4153M265.577 30.9054C266.539 33.2241 264.424 34.7001 261.655 36.4153M261.655 36.4153C260.753 37.6668 259.645 36.855 257.8 36.9168M261.655 36.4153C260.462 37.289 259.447 36.1703 257.8 36.9168M257.8 36.9168C255.747 36.5012 254.06 37.1 248.229 36.4874M257.8 36.9168C255.748 36.7726 253.409 36.7142 248.229 36.4874M248.229 36.4874C244.525 35.7581 242.228 37.9142 240.919 38.7054M248.229 36.4874C244.908 37.7996 242.928 36.7668 240.919 38.7054M240.919 38.7054C238.955 39.7817 240.076 39.6042 238.859 42.3557M240.919 38.7054C239.469 38.9023 238.533 42.0225 238.859 42.3557M259.196 26.7547C257.745 25.3417 256.397 24.3753 256.139 25.1081M259.196 26.7547C257.255 26.5955 256.693 24.531 256.139 25.1081M259.196 26.7547C259.308 27.8803 261.342 27.6215 260.724 29.1879M259.196 26.7547C259.163 26.3459 259.816 28.7367 260.724 29.1879M256.139 25.1081C255.3 25.2524 254.9 24.4486 253.481 24.6078M256.139 25.1081C254.696 25.7139 253.669 25.5673 253.481 24.6078M253.481 24.6078C253.476 23.5726 252.179 24.4475 250.024 25.3944M253.481 24.6078C252.921 23.378 251.784 23.8017 250.024 25.3944M250.024 25.3944C249.214 25.3978 247.136 27.547 245.771 27.0409M250.024 25.3944C249.043 26.3688 247.398 25.6795 245.771 27.0409M245.771 27.0409C241.911 28.2283 241.436 30.2424 241.184 31.8352M245.771 27.0409C241.563 29.5978 242.363 29.8188 241.184 31.8352M241.184 31.8352C244.633 32.0356 247.981 31.7493 249.16 32.3367M241.184 31.8352C244.36 30.9879 247.342 32.505 249.16 32.3367M249.16 32.3367C254.035 31.3222 257.968 32.0321 259.129 30.9764M249.16 32.3367C253.143 32.0184 258.01 31.7516 259.129 30.9764M259.129 30.9764C260.341 30.2024 261.482 30.7634 260.724 29.1879M259.129 30.9764C259.355 31.4619 261.164 29.5325 260.724 29.1879M324.995 46.3633C326.57 44.9446 329.511 45.658 330.312 44.1443M324.995 46.3633C327.854 44.8416 329.752 44.0355 330.312 44.1443M324.995 46.3633C322.631 47.5908 322.232 48.2503 319.478 48.5103M324.995 46.3633C323.545 46.7309 321.11 48.6248 319.478 48.5103M330.312 44.1443C331.476 42.8721 333.271 43.8763 335.23 43.1424M330.312 44.1443C331.309 44.5038 334.758 44.3286 335.23 43.1424M335.23 43.1424C337.65 42.2882 338.293 44.2622 337.623 44.7168M335.23 43.1424C336.865 43.8752 338.458 44.4328 337.623 44.7168M337.623 44.7168C337.675 45.8962 338.589 46.2431 337.423 45.8618M337.623 44.7168C336.809 43.8591 337.219 44.8152 337.423 45.8618M337.423 45.8618C337.888 46.416 335.918 46.9313 335.629 47.6515M337.423 45.8618C337.632 45.3969 335.887 47.4683 335.629 47.6515M335.629 47.6515C333.947 48.2767 333.237 49.6061 331.641 49.5832M335.629 47.6515C334.31 48.5595 333.861 47.7694 331.641 49.5832M331.641 49.5832C330.151 50.9973 327.828 49.9919 326.523 51.3007M331.641 49.5832C330.897 51.1759 328.125 50.9263 326.523 51.3007M326.523 51.3007C325.08 51.761 323.704 51.1576 321.073 52.661M326.523 51.3007C324.193 53.0091 322.955 53.2198 321.073 52.661M321.073 52.661C316.478 52.764 314.139 54.145 313.23 53.877M321.073 52.661C318.058 53.3366 315.428 53.6847 313.23 53.877M313.23 53.877C311.744 54.0923 310.86 54.4415 308.179 53.3045M313.23 53.877C311.975 55.0575 309.733 53.719 308.179 53.3045M308.179 53.3045C305.378 52.811 305.802 52.0667 303.195 51.4438M308.179 53.3045C306.792 52.6152 305.002 52.7606 303.195 51.4438M303.195 51.4438C299.309 50.2942 298.806 46.1847 297.811 42.5698M303.195 51.4438C299.784 49.5419 298.856 45.9534 297.811 42.5698M297.811 42.5698C298.612 43.3668 298.089 42.8286 297.811 40.8523M297.811 42.5698C297.228 42.113 298.552 41.0412 297.811 40.8523M297.811 40.8523C296.889 41.0538 298.386 38.0722 298.808 37.2031M297.811 40.8523C298.207 40.179 299.05 37.8569 298.808 37.2031M298.808 37.2031C299.065 35.6813 299.728 34.0668 301.799 32.4077M298.808 37.2031C300.142 36.0088 300.81 35.2634 301.799 32.4077M301.799 32.4077C303.472 30.0157 305.585 28.6841 306.451 27.9707M301.799 32.4077C303.964 31.8295 305.281 29.1318 306.451 27.9707M306.451 27.9707C310.819 25.2742 314.66 23.1101 318.148 22.3887M306.451 27.9707C309.574 24.9753 315.117 23.0963 318.148 22.3887M318.148 22.3887C319.774 22.7608 320.577 21.3673 321.672 21.8883M318.148 22.3887C319.174 21.8562 321.48 21.4234 321.672 21.8883M321.672 21.8883C323.308 22.2272 323.98 22.4837 324.064 21.9593M321.672 21.8883C323.631 20.9528 323.895 20.9082 324.064 21.9593M324.064 21.9593C324.993 22.3784 324.839 22.7574 325.991 22.1024M324.064 21.9593C323.941 20.7295 324.562 22.0841 325.991 22.1024M325.991 22.1024C326.695 21.2471 327.366 23.094 327.719 22.604M325.991 22.1024C325.986 22.8719 326.55 22.8971 327.719 22.604M327.719 22.604C328.099 22.9108 330.197 23.5784 329.447 26.2532M327.719 22.604C329.888 22.5524 328.338 23.5555 329.447 26.2532M329.447 26.2532C329.83 27.4944 329.312 28.8524 327.187 29.6173M329.447 26.2532C329.526 27.9215 328.557 27.9684 327.187 29.6173M327.187 29.6173C326.91 28.9749 325.801 30.4634 326.124 30.4039M327.187 29.6173C327.285 29.7409 325.56 29.757 326.124 30.4039M326.124 30.4039C324.86 28.3497 326.29 27.7154 325.26 27.6135M326.124 30.4039C326.493 30.4257 324.651 27.0787 325.26 27.6135M325.26 27.6135C325.6 27.8619 324.747 27.0719 322.934 26.4684M325.26 27.6135C324.106 27.2825 323.286 25.5146 322.934 26.4684M322.934 26.4684C318.274 28.7356 313.459 28.723 309.442 31.8352M322.934 26.4684C317.611 27.5345 312.469 29.955 309.442 31.8352M309.442 31.8352C304.167 35.0539 303.433 37.4882 303.062 40.4229M309.442 31.8352C305.037 33.8081 303.909 38.7225 303.062 40.4229M303.062 40.4229C302.453 40.7069 302.764 40.5168 303.128 41.4969M303.062 40.4229C301.896 42.0546 302.187 41.8084 303.128 41.4969M303.128 41.4969C302.675 43.8901 304.627 46.5591 306.385 48.0087M303.128 41.4969C302.935 44.0882 303.949 47.3698 306.385 48.0087M306.385 48.0087C307.022 48.1084 309.449 49.2259 312.698 49.44M306.385 48.0087C307.568 47.7969 309.692 49.8557 312.698 49.44M312.698 49.44C315.239 49.1526 317.914 48.1347 319.478 48.5103M312.698 49.44C316.038 50.5541 316.994 49.3954 319.478 48.5103M372.449 52.8751C371.476 52.574 370.197 53.1408 369.325 54.0923M372.449 52.8751C370.88 52.8179 371.571 54.2778 369.325 54.0923M372.449 52.8751C371.258 49.2465 371.191 46.5156 371.452 40.8523M372.449 52.8751C371.778 50.9606 371.476 46.7057 371.452 40.8523M369.325 54.0923C368.608 55.0953 367.897 53.8827 366.866 52.1595M369.325 54.0923C367.625 54.5835 366.901 52.3953 366.866 52.1595M366.866 52.1595C367.072 46.282 366.151 42.8962 366.533 40.566M366.866 52.1595C367.265 46.4332 366.617 41.5473 366.533 40.566M366.533 40.566C366.469 36.9455 365.003 32.4329 364.008 33.1233M366.533 40.566C366.173 35.6997 364.159 33.3272 364.008 33.1233M364.008 33.1233C360.719 32.4546 357.508 32.1134 356.165 32.1214M364.008 33.1233C360.004 33.4806 358.215 31.8077 356.165 32.1214M356.165 32.1214C353.972 31.7333 351.603 33.4062 351.181 34.1252M356.165 32.1214C354.387 31.6142 352.496 32.4879 351.181 34.1252M351.181 34.1252C350.826 36.2012 348.445 36.5653 348.19 40.6382M351.181 34.1252C350.313 36.6935 348.338 37.3714 348.19 40.6382M348.19 40.6382C347.427 42.784 347.38 47.2942 346.728 53.3766M348.19 40.6382C346.826 42.3889 346.078 48.5938 346.728 53.3766M346.728 53.3766C345.071 53.3377 342.984 53.1327 341.61 53.3766M346.728 53.3766C345.555 53.3274 344.366 53.3331 341.61 53.3766M341.61 53.3766C342.701 50.6034 341.887 47.782 341.743 45.7908M341.61 53.3766C341.372 49.6038 340.592 47.8152 341.743 45.7908M341.743 45.7908C341.892 43.4985 341.329 41.7099 341.61 37.4893M341.743 45.7908C340.815 42.4359 342.375 41.1924 341.61 37.4893M341.61 37.4893C342.192 34.81 341.977 30.3993 341.278 26.8978M341.61 37.4893C342.457 33.0329 342.13 31.7882 341.278 26.8978M341.278 26.8978C341.367 22.3349 340.783 18.4841 340.946 15.8048M341.278 26.8978C340.143 21.4864 341.566 19.5479 340.946 15.8048M340.946 15.8048C341.302 13.4048 340.528 9.45443 341.477 7.4323M340.946 15.8048C340.31 11.8911 341.298 11.2006 341.477 7.4323M341.477 7.4323C342.671 6.80483 342.908 7.14376 343.404 6.07201M341.477 7.4323C341.5 6.32163 342.377 7.16895 343.404 6.07201M343.404 6.07201C343.676 5.58881 344.386 5.46629 345.797 7.28918M343.404 6.07201C345.091 5.72392 344.11 5.77659 345.797 7.28918M345.797 7.28918C345.387 8.46741 347.41 8.1136 346.728 9.36397M345.797 7.28918C346.647 7.48612 347.312 9.40634 346.728 9.36397M346.728 9.36397C346.282 12.3067 346.489 15.3135 346.396 21.1727M346.728 9.36397C346.798 12.3857 346.437 15.301 346.396 21.1727M346.396 21.1727C345.746 25.8066 345.59 29.3207 346.993 31.1195M346.396 21.1727C346.803 26.7867 345.527 29.4123 346.993 31.1195M346.993 31.1195C350.253 28.8627 354.919 27.5837 359.355 26.8257M346.993 31.1195C352.009 28.6967 354.36 26.9768 359.355 26.8257M359.355 26.8257C361.751 26.7948 361.336 26.2818 363.742 27.1841M359.355 26.8257C360.823 25.5684 362.116 26.0207 363.742 27.1841M363.742 27.1841C367.887 29.7409 368.519 31.4974 370.255 33.1233M363.742 27.1841C366.279 30.2138 369.264 31.0829 370.255 33.1233M370.255 33.1233C370.201 34.5249 370.289 34.7184 371.186 36.6306M370.255 33.1233C371.83 34.7859 370.846 34.8226 371.186 36.6306M371.186 36.6306C372.095 38.8279 370.507 38.9515 371.452 40.8523M371.186 36.6306C371.812 37.2432 372.241 39.3947 371.452 40.8523" stroke="black" stroke-linecap="round"/>
<path d="M87.0967 40.3281C89.7829 37.4381 92.3191 32.4583 95.6795 27.229ZM87.0967 40.3281C90.2168 35.282 93.709 30.1912 95.6795 27.229ZM86.8203 44.322C90.0977 38.6781 94.397 31.2503 99.6938 24.6744ZM86.8203 44.322C91.5396 38.006 95.068 30.9206 99.6938 24.6744ZM86.5438 48.3159C88.1963 46.0372 89.8286 43.5411 91.4482 40.8308ZM86.5438 48.3159C88.1655 46.2491 89.5202 44.1399 91.4482 40.8308ZM93.9004 37.0888C97.482 31.6568 101.019 26.495 102.483 23.9897ZM93.9004 37.0888C97.0651 32.6564 99.8055 28.1187 102.483 23.9897ZM87.4923 50.4387C88.6493 48.7727 89.3735 47.3414 91.1717 44.8247ZM87.4923 50.4387C88.879 48.293 90.2051 46.3052 91.1717 44.8247ZM100.981 29.8557C102.34 27.8885 103.208 26.4973 105.885 22.3706ZM100.981 29.8557C102.219 27.9584 103.459 26.0805 105.885 22.3706ZM89.0555 51.625C90.0424 50.37 91.06 48.6605 91.5077 47.883ZM89.0555 51.625C89.6585 50.5945 90.4273 49.7563 91.5077 47.883ZM103.769 29.1709C104.98 27.0984 106.632 24.9939 108.061 22.6225ZM103.769 29.1709C104.714 27.7717 105.63 26.1893 108.061 22.6225ZM90.6177 52.8124C91.1738 51.9903 91.663 51.1773 93.0699 49.0704ZM90.6177 52.8124C91.1409 51.9158 91.8087 51.1693 93.0699 49.0704ZM106.558 28.4874C108.166 26.6244 109.102 24.6378 110.236 22.8733ZM106.558 28.4874C108.131 26.3221 109.294 24.1282 110.236 22.8733ZM92.7934 53.0643C93.2581 52.3876 93.8802 51.4006 95.2456 49.3212ZM92.7934 53.0643C93.7398 51.5494 94.7979 50.149 95.2456 49.3212ZM109.346 27.8026C110.458 25.824 112.378 23.7149 113.025 22.1897ZM109.346 27.8026C110.162 26.4962 111.181 24.9698 113.025 22.1897ZM95.5827 52.3796C95.9517 51.6319 96.5749 50.8509 98.0349 48.6376ZM95.5827 52.3796C96.5026 51.0124 97.5032 49.4735 98.0349 48.6376ZM111.522 28.0545C111.984 26.9473 112.847 26.1824 113.974 24.3126ZM111.522 28.0545C112.489 26.6221 113.354 25.3866 113.974 24.3126ZM97.7584 52.6315C98.9037 51.3605 100.045 49.2319 101.437 47.0185ZM97.7584 52.6315C98.4837 51.309 99.3876 50.2441 101.437 47.0185ZM111.858 31.1129C112.724 29.4332 114.167 27.4225 115.536 25.5ZM111.858 31.1129C113.034 29.4423 113.873 27.9446 115.536 25.5ZM99.9342 52.8834C100.848 51.7716 101.385 50.3906 104.225 46.3338ZM99.9342 52.8834C101.089 51.3719 102.108 49.6555 104.225 46.3338ZM109.743 37.9132C111.202 34.8308 113.339 31.6534 115.874 28.5572ZM109.743 37.9132C111.486 35.1354 113.101 32.3175 115.874 28.5572ZM103.335 51.2632C107.953 45.5311 110.849 38.7045 116.21 31.6156ZM103.335 51.2632C107.318 46.1643 110.919 40.438 116.21 31.6156ZM106.737 49.6441C109.763 44.3781 112.197 40.469 116.547 34.674ZM106.737 49.6441C110.19 44.0666 114.619 37.8743 116.547 34.674ZM113.204 43.3464C114.07 42.1991 114.692 40.7941 116.883 37.7323ZM113.204 43.3464C113.894 42.096 114.864 40.8754 116.883 37.7323ZM114.154 45.4693C115.042 44.4342 115.897 42.8208 117.219 40.7907ZM114.154 45.4693C114.922 44.1582 115.77 42.8747 117.219 40.7907ZM114.49 48.5277C115.293 47.1056 116.194 45.4166 117.556 43.8491ZM114.49 48.5277C115.478 47.1857 116.314 45.6582 117.556 43.8491ZM114.827 51.5861C115.72 50.1754 116.625 48.9044 117.892 46.9075ZM114.827 51.5861C115.767 50.2899 116.684 48.8116 117.892 46.9075ZM115.163 54.6444C115.697 53.678 116.569 52.4735 118.229 49.9658ZM115.163 54.6444C115.692 53.7353 116.572 52.7929 118.229 49.9658Z" stroke="#1FBBE6" stroke-width="1.266" stroke-linecap="round"/>
<path d="M112.246 41.9976C107.926 47.9391 103.771 50.859 98.9538 52.446M112.246 41.9976C109.94 47.2934 105.314 50.0987 98.9538 52.446M112.246 41.9976C113 44.1308 112.075 45.8071 113.044 47.2224M112.246 41.9976C112.824 44.1147 112.747 44.0254 113.044 47.2224M98.9538 52.446C97.8532 53.3609 96.1783 51.7567 95.4318 52.8754M98.9538 52.446C97.112 52.5181 95.7689 53.2532 95.4318 52.8754M95.4318 52.8754C93.6974 52.7952 92.9126 52.2593 92.8392 52.8754M95.4318 52.8754C95.4722 52.3498 92.9168 52.8777 92.8392 52.8754M92.8392 52.8754C92.9892 52.2239 92.2575 53.4502 90.5795 52.5181M92.8392 52.8754C91.125 52.6109 90.9878 52.4838 90.5795 52.5181M90.5795 52.5181C88.8142 51.3937 88.8025 52.9154 88.2538 51.5872M90.5795 52.5181C90.8677 52.9006 87.8061 51.3765 88.2538 51.5872M88.2538 51.5872C86.1472 49.6063 85.3688 50.1846 85.7942 47.3655M88.2538 51.5872C87.2978 49.5262 85.8643 48.2655 85.7942 47.3655M85.7942 47.3655C85.4836 46.288 84.5085 44.6621 85.5283 44.5029M85.7942 47.3655C86.2482 45.8403 84.9126 45.5873 85.5283 44.5029M85.5283 44.5029C85.0923 42.7602 85.7718 42.6777 86.1929 40.209M85.5283 44.5029C86.3269 44.0964 86.4694 41.0381 86.1929 40.209M86.1929 40.209C85.809 38.7995 87.4711 37.4301 88.5856 34.4839M86.1929 40.209C86.5003 38.5762 87.6913 36.9514 88.5856 34.4839M88.5856 34.4839C89.5086 32.3702 92.249 31.0797 92.9062 28.8297M88.5856 34.4839C89.7628 31.9408 91.3898 29.5385 92.9062 28.8297M92.9062 28.8297C96.9918 24.2553 99.3366 23.1515 104.271 21.8164M92.9062 28.8297C95.8784 24.0252 99.9353 21.9424 104.271 21.8164M104.271 21.8164C104.432 21.6527 105.893 21.8313 107.528 21.387M104.271 21.8164C104.832 20.9714 105.425 20.2306 107.528 21.387M107.528 21.387C109.418 20.6267 109.391 21.0103 110.253 21.6023M107.528 21.387C109.104 21.4626 108.654 21.9996 110.253 21.6023M110.253 21.6023C112.087 22.0592 114.632 24.3412 115.437 27.2553M110.253 21.6023C113.576 21.8634 115.597 24.7614 115.437 27.2553M115.437 27.2553C115.106 29.3977 115.287 33.237 116.434 37.2743M115.437 27.2553C115.715 29.0748 115.639 33.032 116.434 37.2743M116.434 37.2743C116.465 40.7186 117.317 44.0667 116.766 47.1502M116.434 37.2743C117.73 42.1968 115.878 43.943 116.766 47.1502M116.766 47.1502C117.185 49.9659 116.5 51.8929 117.63 53.4479M116.766 47.1502C115.784 50.1204 118.33 52.2719 117.63 53.4479M117.63 53.4479C116.225 53.4513 114.824 53.5864 113.709 53.4479M117.63 53.4479C116.275 53.3391 114.918 53.5109 113.709 53.4479M113.709 53.4479C113.945 51.1716 113.622 50.1307 113.31 50.0128M113.709 53.4479C113.113 53.0815 113.943 50.7903 113.31 50.0128M113.31 50.0128C113.072 48.0204 113.541 49.0017 113.044 47.2224M113.31 50.0128C113.073 48.7327 113.818 47.4685 113.044 47.2224M111.981 30.9057C112.649 27.7878 110.598 26.8111 108.193 26.7549M111.981 30.9057C111.794 27.5805 110.074 27.7786 108.193 26.7549M111.981 30.9057C112.386 32.1503 111.715 34.2469 109.854 37.8469M111.981 30.9057C110.966 33.158 110.734 34.2652 109.854 37.8469M108.193 26.7549C107.998 27.0355 108.51 26.1057 107.262 26.6828M108.193 26.7549C108.161 27.1236 108.7 26.5591 107.262 26.6828M107.262 26.6828C103.827 25.7805 100.708 27.8026 97.0269 31.6923M107.262 26.6828C103.023 27.5267 99.4313 28.5343 97.0269 31.6923M97.0269 31.6923C95.4616 32.8786 93.0083 34.6431 92.7063 36.8449M97.0269 31.6923C96.4803 33.3652 94.4599 34.7404 92.7063 36.8449M92.7063 36.8449C90.1339 39.2323 89.9797 40.9602 90.0478 44.1445M92.7063 36.8449C91.628 40.3945 88.9216 41.9495 90.0478 44.1445M90.0478 44.1445C89.3917 45.8998 90.5327 47.6231 94.5673 49.154M90.0478 44.1445C90.8815 47.6403 92.6659 47.6735 94.5673 49.154M94.5673 49.154C99.3845 48.5334 101.811 47.4113 105.999 43.2857M94.5673 49.154C98.0159 49.4838 103.152 47.9334 105.999 43.2857M105.999 43.2857C107.279 42.1785 109.735 39.2243 109.854 37.8469M105.999 43.2857C106.892 40.8548 108.262 39.0686 109.854 37.8469" stroke="#1FBBE6" stroke-linecap="round"/>
<path d="M150.377 27.6261C152.076 25.5055 153.513 23.2052 156.55 18.3033ZM150.377 27.6261C152.032 25.059 153.953 22.414 156.55 18.3033ZM152.057 28.9154C154.686 23.8109 158.7 18.7911 160.699 15.8632ZM152.057 28.9154C154.434 25.0555 157.278 20.9266 160.699 15.8632ZM153.737 30.2059C154.591 28.7093 155.611 27.2437 156.823 25.5445ZM153.737 30.2059C154.907 28.5284 155.825 27.0078 156.823 25.5445ZM158.676 22.7472C160.595 20.4388 162.601 17.0712 164.232 14.3564ZM158.676 22.7472C159.968 21.0502 160.994 19.2823 164.232 14.3564ZM155.417 31.4963C156.15 30.0776 157.474 28.3464 159.121 25.9017ZM155.417 31.4963C156.882 29.2532 158.434 27.1051 159.121 25.9017ZM162.825 20.3082C163.839 18.2266 165.139 16.2239 166.529 14.7136ZM162.825 20.3082C163.982 18.7029 165.037 16.9613 166.529 14.7136ZM157.714 31.8536C158.376 31.0234 158.946 29.5223 160.801 27.1922ZM157.714 31.8536C158.499 30.9101 159.083 29.8509 160.801 27.1922ZM165.74 19.7334C166.396 18.688 167.362 17.3884 169.444 14.1388ZM165.74 19.7334C166.699 18.2334 167.708 17.0815 169.444 14.1388ZM148.901 48.9924C150.027 47.1798 151.057 45.9443 151.987 44.331ZM148.901 48.9924C149.978 47.1397 151.325 45.3512 151.987 44.331ZM160.012 32.2108C160.89 31.012 161.512 30.0158 163.099 27.5494ZM160.012 32.2108C161.009 30.5803 162.149 28.7288 163.099 27.5494ZM168.655 19.1586C169.823 17.9529 170.562 15.806 172.359 13.564ZM168.655 19.1586C169.532 17.8991 170.291 16.7197 172.359 13.564ZM150.581 50.2828C151.311 49.3107 151.618 48.5974 153.05 46.5535ZM150.581 50.2828C151.448 48.918 152.38 47.7787 153.05 46.5535ZM161.693 33.5013C162.872 31.7654 163.994 30.3971 165.396 27.9067ZM161.693 33.5013C162.568 32.1627 163.473 30.8208 165.396 27.9067ZM171.57 18.5838C172.601 17.2476 173.617 15.4945 175.274 12.9892ZM171.57 18.5838C172.73 16.7335 173.961 14.7732 175.274 12.9892ZM151.643 52.5053C152.491 51.0752 153.441 49.605 154.113 48.776ZM151.643 52.5053C152.436 51.4542 153.13 50.2702 154.113 48.776ZM163.991 33.8585C164.906 32.2818 166.043 31.1585 167.077 29.1971ZM163.991 33.8585C164.606 32.9368 165.277 31.9028 167.077 29.1971ZM174.484 18.009C175.884 16.1014 176.99 14.3186 178.189 12.4144ZM174.484 18.009C175.682 16.406 176.673 14.401 178.189 12.4144ZM153.941 52.8626C154.869 51.721 155.369 50.2622 156.411 49.1332ZM153.941 52.8626C154.539 51.9271 155.153 50.9458 156.411 49.1332ZM166.288 34.2158C167.148 32.8749 168.34 31.0074 169.375 29.5544ZM166.288 34.2158C167.229 32.6562 168.33 31.1585 169.375 29.5544ZM177.4 17.4342C178.418 15.5495 179.751 13.3064 181.104 11.8396ZM177.4 17.4342C178.192 16.185 179.233 14.6713 181.104 11.8396ZM156.238 53.2198C156.94 52.3187 157.403 51.0947 158.709 49.4905ZM156.238 53.2198C156.715 52.258 157.401 51.4462 158.709 49.4905ZM168.586 34.573C169.165 33.3593 169.873 32.2818 171.672 29.9116ZM168.586 34.573C169.771 32.6677 171.185 30.8082 171.672 29.9116ZM180.932 15.9262C181.739 14.7239 182.574 13.2926 183.401 12.1968ZM180.932 15.9262C181.457 15.1499 181.987 14.3816 183.401 12.1968ZM158.536 53.5782C159.057 52.5294 159.914 51.571 161.006 49.8489ZM158.536 53.5782C159.16 52.6966 159.754 51.6214 161.006 49.8489ZM170.883 34.9314C171.643 33.8677 172.455 32.7902 173.352 31.2021ZM170.883 34.9314C171.924 33.5299 172.739 31.9772 173.352 31.2021ZM160.834 53.9355C161.605 52.9805 162.118 52.1618 163.304 50.2061ZM160.834 53.9355C161.646 52.6656 162.524 51.5962 163.304 50.2061ZM173.181 35.2887C173.982 33.9971 175.008 32.7479 175.65 31.5593ZM173.181 35.2887C174.146 33.9994 174.938 32.6471 175.65 31.5593ZM163.749 53.3607C164.494 52.2374 164.831 51.6099 166.218 49.6313ZM163.749 53.3607C164.268 52.4928 164.852 51.7542 166.218 49.6313ZM174.861 36.578C175.65 35.473 176.298 34.3372 177.948 31.9166ZM174.861 36.578C175.761 35.402 176.406 34.1952 177.948 31.9166ZM166.664 52.7859C168.035 50.7752 169.1 49.3027 169.75 48.1245ZM166.664 52.7859C167.423 51.4405 168.476 50.1122 169.75 48.1245ZM177.159 36.9364C177.987 35.7776 178.269 35.1295 179.628 33.207ZM177.159 36.9364C178.062 35.6161 179.034 34.2707 179.628 33.207ZM169.579 52.2111C171.131 49.4149 172.973 47.5886 173.901 45.6844ZM169.579 52.2111C171.132 49.6302 172.764 47.2897 173.901 45.6844ZM179.456 37.2936C180.001 36.1016 180.764 35.1043 181.925 33.5643ZM179.456 37.2936C180.278 35.9402 181.251 34.6074 181.925 33.5643ZM171.877 52.5683C173.3 49.9863 174.475 47.5943 178.667 42.3123ZM171.877 52.5683C173.841 49.7687 175.654 46.6611 178.667 42.3123ZM181.754 37.6509C182.284 36.6639 183.104 35.9299 184.223 33.9215ZM181.754 37.6509C182.429 36.7097 183.039 35.4948 184.223 33.9215ZM176.026 50.1294C179.7 46.763 181.795 41.1272 186.52 34.2788ZM176.026 50.1294C180.165 44.592 184.306 38.173 186.52 34.2788ZM179.558 48.6214C182.783 43.0417 186.272 38.8177 188.201 35.5692ZM179.558 48.6214C181.057 45.6752 183.436 43.4459 188.201 35.5692ZM184.325 45.2504C185.835 43.2684 186.753 41.8451 188.647 38.7238ZM184.325 45.2504C185.275 43.8375 186.454 42.1142 188.647 38.7238Z" stroke="#951BCD" stroke-width="0.832" stroke-linecap="round"/>
<path d="M147.472 47.6515C148.005 47.3744 148.84 46.9633 148.469 45.2893ZM148.469 45.2893C148.421 45.508 150.434 44.0298 150.064 43.858ZM150.064 43.858C150.965 42.7416 150.326 43.3645 150.862 43.2145ZM150.862 43.2145C151.555 46.495 152.896 48.9523 159.036 49.7263ZM159.036 49.7263C164.058 49.6668 168.159 49.3313 173.459 45.5756ZM173.459 45.5756C177.573 44.1695 179.236 42.0855 181.302 39.7073ZM181.302 39.7073C181.254 39.9867 181.455 39.1989 181.966 38.205ZM181.966 38.205C181.629 37.731 180.837 37.6165 181.766 37.2031ZM181.766 37.2031C175.489 36.5653 169 34.139 154.185 30.5471ZM154.185 30.5471C153.988 29.9413 153.471 29.5474 151.858 29.331ZM151.858 29.331C149.976 28.4894 150.828 26.2967 149.798 26.4685ZM149.798 26.4685C149.656 22.2513 152.757 20.8429 156.312 17.5223ZM156.312 17.5223C160.294 14.1571 168.477 11.2831 175.519 10.9384ZM175.519 10.9384C178.271 10.4277 178.989 11.3689 179.574 10.3659ZM179.574 10.3659C180.567 9.46361 179.49 10.4918 180.77 10.6522ZM180.77 10.6522C181.014 11.03 180.86 10.4793 182.498 10.9384ZM182.498 10.9384C184.782 11.0506 183.599 12.6674 184.226 12.7991ZM184.226 12.7991C184.876 13.9579 181.743 15.5563 175.586 16.6636ZM175.586 16.6636C167.817 18.6891 162.984 17.8968 161.629 19.6693ZM161.629 19.6693C158.955 20.5922 157.425 20.5567 157.641 22.1746ZM157.641 22.1746C156.185 24.0238 157.384 25.2009 156.378 25.2513ZM156.378 25.2513C157.004 25.3177 155.878 24.9914 157.907 26.0391ZM157.907 26.0391C158.32 27.2139 159.494 27.7051 161.562 27.112ZM161.562 27.112C163.712 27.8162 165.018 27.5723 167.079 28.6864ZM167.079 28.6864C172.474 30.7108 180.179 31.857 187.283 34.8409ZM187.283 34.8409C188.136 35.3585 187.582 37.7046 187.948 37.7756ZM187.948 37.7756C188.186 39.2619 186.441 43.108 183.827 45.0752ZM183.827 45.0752C179.833 46.5855 175.853 50.8015 170.934 51.7301ZM170.934 51.7301C166.46 53.7247 162.727 54.2022 160.034 53.9492ZM160.034 53.9492C158.645 54.3602 154.853 53.766 153.586 52.661ZM153.586 52.661C152.527 52.3908 149.829 51.2423 149.001 50.1557ZM149.001 50.1557C147.815 50.111 147.255 48.2526 147.472 47.6515Z" stroke="#951BCD" stroke-linecap="round"/>
<path d="M286.092 30.0959C283.357 32.5944 282.94 34.0566 281.668 35.0459C283.138 33.2814 284.646 31.6131 286.092 30.0959ZM286.092 30.0959C287.054 29.0975 288.014 28.083 289.779 25.9704C287.837 28.123 286.935 29.1341 286.092 30.0959ZM279.799 10.8628C280.437 9.81744 281.448 8.90256 283.486 6.7373C282.119 8.20409 281.067 9.47278 279.799 10.8628ZM279.848 14.0918C281.232 12.1751 283.384 9.96514 285.746 7.49188C284.254 9.42584 281.84 11.8728 279.848 14.0918ZM279.898 17.3208C282.667 14.8716 284.709 12.4189 285.796 10.7209C284.316 12.4052 282.033 14.9918 279.898 17.3208ZM270.361 31.2764C271.927 29.9253 273.314 28.1322 274.048 27.1509C273.08 28.3727 271.768 29.773 270.361 31.2764ZM279.947 20.5498C281.854 18.9399 282.696 17.4365 286.582 13.1243C283.715 16.4449 281.819 18.6616 279.947 20.5498ZM273.36 31.2055C274.693 30.0135 275.658 28.502 277.047 27.0799C276.092 28.2467 274.651 29.8028 273.36 31.2055ZM279.996 23.7799C281.36 22.2605 282.771 20.2132 286.632 16.3544C284.687 18.2907 282.689 20.9093 279.996 23.7799ZM276.359 31.1345C278.256 29.2864 281.141 25.794 286.681 19.5834C280.913 25.2788 279.082 27.9719 276.359 31.1345ZM279.358 31.0635C281.64 28.3154 284.957 25.0578 286.73 22.8124C282.644 27.6822 280.701 29.1387 279.358 31.0635ZM281.618 31.8169C283.532 29.7089 285.047 28.0681 286.78 26.0414C285.301 27.6501 283.351 29.9161 281.618 31.8169ZM281.717 38.2749C282.604 37.1127 283.392 36.2184 286.141 33.3249C284.245 35.4066 282.883 36.823 281.717 38.2749ZM289.091 30.0249C289.908 28.9852 291.119 27.5368 292.778 25.8994C291.278 27.6856 290.138 28.7517 289.091 30.0249ZM281.766 41.505C282.551 40.5397 283.776 38.9814 286.191 36.5539C284.004 38.9481 282.795 40.3451 281.766 41.505ZM292.09 29.9539C293.605 27.7933 295.432 26.3139 296.513 25.0028C294.768 26.8429 293.355 28.3211 292.09 29.9539ZM281.816 44.734C283.696 43.0989 285.161 41.2955 286.24 39.7829C284.342 42.0363 283.07 43.2523 281.816 44.734ZM294.35 30.7074C294.719 30.3169 294.953 29.8578 295.825 29.0574C295.363 29.5532 294.878 30.1578 294.35 30.7074ZM281.865 47.963C282.605 46.9324 284.097 45.7015 286.289 43.013C283.764 45.8527 282.878 46.6771 281.865 47.963ZM282.652 50.3675C283.809 49.3336 284.619 48.3259 286.339 46.242C284.751 48.129 283.741 49.2843 282.652 50.3675ZM282.701 53.5965C283.582 52.5374 284.97 50.9973 286.388 49.471C284.209 51.6774 283.479 52.6771 282.701 53.5965ZM283.488 55.9999C284.55 55.0496 285.242 53.9526 286.437 52.7C285.668 53.6412 284.635 54.8102 283.488 55.9999Z" stroke="#DE8D00" stroke-width="0.836" stroke-linecap="round"/>
<path d="M280.663 47.007C280.25 43.8077 280.377 40.6291 280.796 35.5567M280.663 47.007C280.745 43.265 280.793 39.7303 280.796 35.5567M280.663 47.007C280.899 52.0932 281.519 55.4298 283.986 54.9512M280.663 47.007C281.747 51.5012 282.463 55.5466 283.986 54.9512M280.796 35.5567C280.541 34.7471 280.858 31.6475 280.332 30.9055M280.796 35.5567C279.996 33.4223 279.428 30.9433 280.332 30.9055M280.332 30.9055C277.064 30.8575 274.764 30.4681 270.029 30.9055M280.332 30.9055C276.369 31.0865 271.946 31.0979 270.029 30.9055M270.029 30.9055C270.081 29.5109 269.959 27.6914 269.896 25.967M270.029 30.9055C269.943 29.1204 269.973 27.6273 269.896 25.967M269.896 25.967C272.412 26.3266 275.158 25.6224 279.866 25.967M269.896 25.967C273.166 25.8708 276.291 26.1147 279.866 25.967M279.866 25.967C280.589 20.0186 279.649 14.3461 279.866 7.50342M279.866 25.967C280.021 19.7862 279.639 13.382 279.866 7.50342M279.866 7.50342C280.103 7.55266 280.729 6.44198 280.663 6.21526M279.866 7.50342C280.024 5.79389 281.469 6.02862 280.663 6.21526M280.663 6.21526C280.556 6.09504 282.437 6.21641 282.193 5.21336M280.663 6.21526C280.844 4.57673 281.818 4.80115 282.193 5.21336M282.193 5.21336C282.32 4.74733 283.876 4.65573 283.322 5.35649M282.193 5.21336C283.2 6.46946 284.187 5.37023 283.322 5.35649M283.322 5.35649C283.817 5.83397 283.099 6.19007 284.319 6.35839M283.322 5.35649C284.767 6.60686 284.948 4.97405 284.319 6.35839M284.319 6.35839C284.994 10.153 285.512 14.985 285.383 20.6003M284.319 6.35839C284.438 10.4736 284.323 15.5221 285.383 20.6003M285.383 20.6003C285.938 23.2442 285.796 22.864 285.582 25.2514M285.383 20.6003C284.616 21.6949 285.616 23.3277 285.582 25.2514M285.582 25.2514C287.006 25.1346 288.096 25.9922 289.835 24.9651M285.582 25.2514C287.192 26.0689 287.227 24.4086 289.835 24.9651M289.835 24.9651C290.755 24.3846 290.643 25.7632 293.291 24.9651M289.835 24.9651C289.934 26.046 291.169 25.1781 293.291 24.9651M293.291 24.9651C294.471 25.5686 294.068 24.7281 295.618 24.822M293.291 24.9651C295.253 26.2086 293.737 25.1884 295.618 24.822M295.618 24.822C295.345 26.4216 295.465 28.0247 295.418 29.9746M295.618 24.822C295.577 26.3254 295.603 27.6789 295.418 29.9746M295.418 29.9746C292.564 29.9758 290.529 29.8143 285.715 29.6884M295.418 29.9746C291.657 29.8762 288.142 29.6666 285.715 29.6884M285.715 29.6884C286.608 37.4734 286.75 45.9329 286.047 54.3787M285.715 29.6884C285.425 35.07 286.006 40.1391 286.047 54.3787M286.047 54.3787C285.687 53.9401 285.41 54.5928 283.986 54.9512M286.047 54.3787C284.11 54.0993 283.968 53.8542 283.986 54.9512" stroke="#DE8D00" stroke-linecap="round"/>
</svg>
