<svg width="213" height="901" viewBox="0 0 213 901" fill="none" xmlns="http://www.w3.org/2000/svg">
<path d="M10.4113 5.35156C79.9808 20.5525 144.805 8.2309 207 11.1585M204.355 33.8554C203.111 294.009 208.133 571.438 203.726 862.09M206.859 880.476C148.695 878.578 91.7411 884.626 9.80758 878.61M10.2335 862.862C8.4593 586.253 8.09631 328.159 8 28.2415" stroke="#5EC6E3" stroke-opacity="0.58" stroke-width="4.6" stroke-linecap="round"/>
<path d="M10.2968 70.0568C13.8021 50.3646 15.3285 32.2798 18.0257 16.301M10.1926 68.6422C12.4014 56.7465 14.3444 42.9699 17.9251 14.1147M9.73652 119.424C16.6537 85.666 21.1072 35.8646 24.2569 9.64577M11.033 124.842C14.7359 92.2086 20.4966 55.6694 25.4098 16.3653M9.7868 173.164C19.0062 123.298 27.3708 53.3706 33.0346 8.6491M10.2286 180.237C16.054 133.667 21.1611 92.9642 32.2696 13.6324M11.5359 237.562C19.4012 178.581 22.4253 132.751 40.0523 26.8464M10.9073 236.115C16.2228 177.038 24.7382 132.686 40.2858 16.3813M9.40969 291.221C18.647 218.014 26.4837 154.565 46.8475 8.27937M10.9684 297.41C20.1555 220.104 30.6426 140.258 46.7074 11.9285M8.07725 340.588C18.0041 273.538 28.9762 183.774 55.7436 26.3802M11.3132 345.925C21.0426 273.57 29.1737 206.52 55.1438 14.2112M7.17578 398.62C18.4279 310.624 35.3798 231.26 62.2011 15.9794M8.0557 403.797C23.3339 306.734 38.5798 197.309 61.2637 29.9811M11.0151 471.651C32.7508 281.849 52.7806 124.761 69.5816 22.924M8.86738 462.214C21.4735 358.4 34.9093 269.6 70.7345 8.98668M8.26041 515.568C35.5414 335.911 58.9472 140.724 75.2023 5M10.9612 505.939C34.2844 323.725 58.6707 157.587 79.8246 13.536M12.5056 563.971C29.2096 441.027 38.2925 355.844 86.0451 27.0875M12.5738 556.368C35.5019 394.618 57.2125 218.609 85.6069 11.2051M13.0802 631.954C43.5433 386.355 69.6786 181.411 90.4015 15.2721M12.0602 614.464C34.9452 424.598 61.2781 229.604 93.4902 16.3492M14.0104 687.639C33.6236 486.327 62.4525 321.587 100.382 9.48501M10.4405 667.046C40.2535 476.795 66.8916 270.066 99.0032 12.7483M11.7837 726.975C34.7046 585.11 55.2192 429.823 105.116 23.4223M8.96435 725.978C40.4151 515.247 68.8059 306.525 107.321 20.5931M12.3978 789.283C34.1767 579.436 67.9331 385.406 112.155 27.4251M10.5159 783.399C33.7888 613.692 56.8821 465.349 116.695 18.1818M11.974 830.404C37.5096 639.236 63.785 432.057 123.975 28.5021M8.74886 848.906C47.9572 572.234 84.8599 298.873 124.259 14.4523M14.1361 856.558C41.7727 653.752 74.4769 420.29 129.096 10.0959M13.6692 864.001C40.1062 688.137 66.4319 485.299 130.684 15.0471M24.0379 878.935C57.2053 592.778 92.6893 331.634 141.088 29.8042M20.3817 876.331C67.2472 548.491 112.263 215.185 138.14 16.108M25.144 886.908C55.7616 697.782 80.5609 508.559 144.181 19.1945M26.9721 879.256C62.4202 610.204 99.4593 357.966 145.948 7.5399M34.4388 869.049C79.153 565.755 122.757 263.909 152.107 25.48M36.7661 876.443C68.5473 635.442 101.496 394.264 152.603 12.25M45.3929 880.221C79.7204 586.268 118.132 310.753 162.835 13.8093M44.3478 878.951C88.3185 544.922 130.978 234.813 162.953 5.14468M48.2625 882.246C78.4419 670.968 104.886 484.35 165.769 11.1408M52.4861 874.514C75.6082 694.712 100.817 519.619 168.114 14.4362M59.9061 867.538C86.8747 657.24 118.081 419.02 179.474 28.7272M58.7533 872.537C102.498 553.908 143.786 235.601 177.427 13.0859M62.9661 892.615C98.6297 628.481 135.008 355.217 185.831 6.63968M64.4063 873.244C98.9816 642.178 129.552 402.35 185.07 22.0238M76.1218 869.852C97.0674 711.462 125.124 522.625 189.444 15.9312M71.2158 876.009C106.8 639.927 137.989 400.148 192.619 12.9573M79.5049 896.361C120.595 576.735 167.173 242.449 197.593 29.2094M81.0206 885.703C107.799 665.712 138.941 439.403 197.425 12.0249M87.3344 882.407C126.812 589.933 169.587 276.657 207.369 25.0942M90.5632 876.234C126.834 602.118 162.939 336.939 205.804 15.8187M96.4748 881.427C140.909 575.352 181.155 279.615 209 63.3695M96.4424 871.508C127.02 635.201 159.983 398.54 205.272 71.375M106.283 875.431C146.095 571.109 186.65 282.187 203.692 139.55M103.385 867.939C142.539 583.036 184.696 294.758 205.725 125.935M113.427 862.265C139.167 662.449 169.055 449.483 206.626 200.058M112.863 881.089C135.396 714.533 156.374 544.456 206.637 180.478M119.435 859.5C148.085 700.611 169.432 500.956 204.166 259.472M119.439 869.515C136.599 741.845 153.461 602.761 203.975 237.112M128.073 882.391C152.208 696.609 177.424 537.286 208.418 315.929M125.074 875.222C151.856 672.881 179.956 470.799 204.338 292.346M136.121 868.438C148.07 782.113 166.189 658.848 203.078 341.199M131.729 879.273C155.717 700.531 179.977 533.203 204.661 354.847M139.059 893.853C158.557 780.538 167.773 660.182 201.253 410.162M142.04 879.69C160.342 743.5 177.011 622.405 205.531 408.603M145.599 864.66C165.622 727.521 188.546 584.21 207.606 459.691M146.892 882.6C170.381 722.249 192.418 566.302 203.149 474.078M156.503 890.316C170.036 744.417 185.652 633.529 201.235 538.186M155.21 875.205C174.037 763.514 190.683 638.946 202.887 526.644M167.964 867.248C175.139 793.012 186.919 709.003 207.283 585.592M163.251 866.702C173.602 786.984 183.73 722.265 204.676 583.229M173.459 876.363C179.467 812.881 188.176 763.9 203.437 637.532M172.284 864.548C184.847 780.747 194.918 698.248 204.496 636.728M180.555 869.37C188.46 803.461 199.831 739.401 201.874 689.889M180.153 868.534C187.077 816.402 193.337 768.69 203.929 690.114M188.044 866.139C195.686 821.691 201.691 765.797 206.985 738.195M186.542 874.723C191.75 845.514 194.304 813.557 204.834 733.293M193.215 872.151C197.209 851.318 200.696 838.94 206.267 794.652M194.681 876.17C198.567 842.508 203.2 807.432 205.976 790.537" stroke="#5EC6E3" stroke-opacity="0.58" stroke-width="7.8108" stroke-linecap="round"/>
<path d="M5.29918 5.35156C57.0947 11.4987 115.273 16.3907 207 8.45734M201.918 35.9587C200.821 275.152 205.644 528.506 202.653 861.66M200.636 866.971C163.371 891.672 122.642 871.251 5 874.309M10.123 862.803C4.95568 579.662 10.3151 301.816 10.8581 24.9035" stroke="black" stroke-width="9.6" stroke-linecap="round"/>
</svg>
